<svg width="212" height="80" viewBox="0 0 212 80" fill="none" xmlns="http://www.w3.org/2000/svg">
<g clip-path="url(#clip0_2525_472)">
<path d="M91.29 39.5705C89.7983 39.1893 88.391 38.5326 87.1406 37.6341L88.9525 33.6231C90.0275 34.3887 91.2183 34.9771 92.4795 35.3658C93.818 35.8085 95.2191 36.0327 96.6289 36.0297C97.7894 36.1053 98.9493 35.8714 99.9899 35.352C100.318 35.1792 100.592 34.9207 100.785 34.6041C100.977 34.2874 101.08 33.9245 101.083 33.5539C101.091 33.2898 101.038 33.0273 100.928 32.7872C100.817 32.5471 100.652 32.3361 100.446 32.1708C99.9538 31.777 99.3904 31.4812 98.7865 31.2994C98.1226 31.0781 97.2098 30.843 96.0203 30.5802C94.5596 30.2409 93.119 29.8208 91.7049 29.3216C90.5883 28.9063 89.5941 28.2166 88.8142 27.316C87.9731 26.2746 87.5448 24.9601 87.6109 23.6231C87.6006 22.3282 87.9814 21.0603 88.7036 19.9855C89.5162 18.8147 90.6566 17.9101 91.9816 17.3852C93.6821 16.7054 95.5036 16.3807 97.3343 16.4308C98.7887 16.43 100.238 16.6065 101.65 16.9564C102.953 17.2667 104.199 17.7801 105.343 18.4778L103.655 22.5442C101.718 21.3979 99.5155 20.7781 97.2651 20.7462C96.113 20.6698 94.9627 20.9191 93.9456 21.4654C93.6188 21.6684 93.3494 21.9516 93.163 22.2881C92.9765 22.6246 92.8793 23.0032 92.8806 23.3879C92.8789 23.7629 92.9902 24.1296 93.1999 24.4405C93.4096 24.7513 93.708 24.9918 94.0563 25.1307C95.2734 25.6353 96.5385 26.0153 97.8322 26.2648C99.2929 26.6041 100.734 27.0243 102.148 27.5235C103.29 27.9212 104.313 28.6016 105.121 29.5014C105.967 30.539 106.387 31.8588 106.297 33.1943C106.307 34.4826 105.921 35.743 105.19 36.8043C104.36 37.9717 103.206 38.8708 101.871 39.3907C100.166 40.0719 98.3396 40.3967 96.5044 40.3451C94.7384 40.3346 92.9828 40.0738 91.29 39.5705Z" fill="white"/>
<path d="M113.933 37.5788C112.966 36.5317 112.223 35.299 111.747 33.9556C111.272 32.6122 111.074 31.1862 111.167 29.7641V16.8457H116.506V29.5705C116.506 33.7198 118.221 35.7669 121.651 35.7669C122.359 35.8115 123.068 35.6996 123.728 35.439C124.388 35.1784 124.982 34.7756 125.468 34.2593C126.485 32.9168 126.977 31.2497 126.851 29.5705V16.8457H132.135V29.7641C132.224 31.1859 132.026 32.6111 131.55 33.954C131.075 35.297 130.333 36.5299 129.369 37.5788C128.337 38.5349 127.123 39.2729 125.799 39.7482C124.475 40.2236 123.069 40.4266 121.665 40.345C120.256 40.4312 118.844 40.2304 117.515 39.7549C116.186 39.2794 114.968 38.5391 113.933 37.5788Z" fill="white"/>
<path d="M152.259 17.8707C153.673 18.4685 154.88 19.469 155.73 20.7476C156.565 22.0802 156.989 23.6294 156.947 25.2013C156.983 26.7683 156.56 28.3116 155.73 29.6411C154.891 30.9323 153.681 31.9398 152.259 32.5319C150.575 33.2424 148.76 33.5866 146.934 33.5416H142.286V39.9039H136.934V16.8472H146.92C148.752 16.8046 150.572 17.1535 152.259 17.8707ZM150.295 28.1612C150.719 27.8015 151.053 27.3481 151.272 26.8367C151.49 26.3254 151.586 25.7702 151.553 25.2151C151.589 24.6558 151.493 24.0959 151.275 23.5797C151.056 23.0636 150.721 22.6054 150.295 22.2414C149.24 21.4709 147.946 21.0986 146.643 21.1902H142.286V29.1986H146.615C147.926 29.3009 149.23 28.9331 150.295 28.1612Z" fill="white"/>
<path d="M176.796 39.9175L172.343 33.4859H167.433V39.9175H162.094V16.8469H172.08C173.907 16.8063 175.723 17.1552 177.405 17.8704C178.819 18.4682 180.027 19.4687 180.877 20.7474C181.712 22.0799 182.135 23.6291 182.094 25.201C182.159 26.7584 181.737 28.2974 180.887 29.6038C180.036 30.9103 178.8 31.9191 177.35 32.4901L182.578 39.9175H176.796ZM175.413 22.2411C174.358 21.4706 173.065 21.0983 171.762 21.19H167.405V29.2397H171.762C173.065 29.3314 174.358 28.9591 175.413 28.1886C175.836 27.8219 176.17 27.3633 176.388 26.8478C176.606 26.3323 176.703 25.7737 176.672 25.2148C176.711 24.6577 176.62 24.0992 176.406 23.5832C176.193 23.0672 175.862 22.6078 175.441 22.2411H175.413Z" fill="white"/>
<path d="M203.946 34.9647H193.241L191.194 39.9162H185.73L196.007 16.8457H201.277L211.623 39.9162H206.09L203.946 34.9647ZM202.273 30.9121L198.607 22.1292L195.025 30.9121H202.273Z" fill="white"/>
<path d="M91.5807 62.4213C90.2229 61.711 89.0883 60.6387 88.3026 59.3231C87.5234 57.9707 87.1133 56.4372 87.1133 54.8764C87.1133 53.3155 87.5234 51.782 88.3026 50.4296C89.0883 49.114 90.2229 48.0417 91.5807 47.3314C93.0388 46.5947 94.6496 46.2109 96.2833 46.2109C97.917 46.2109 99.5278 46.5947 100.986 47.3314C102.354 48.06 103.499 49.1469 104.297 50.476C105.095 51.805 105.517 53.3261 105.517 54.8764C105.517 56.4266 105.095 57.9477 104.297 59.2767C103.499 60.6058 102.354 61.6927 100.986 62.4213C99.5278 63.158 97.917 63.5418 96.2833 63.5418C94.6496 63.5418 93.0388 63.158 91.5807 62.4213ZM98.9666 59.5582C99.7552 59.1108 100.406 58.4553 100.848 57.6634C101.288 56.8078 101.518 55.8594 101.518 54.8971C101.518 53.9348 101.288 52.9864 100.848 52.1308C100.41 51.3321 99.7589 50.6711 98.9666 50.2221C98.142 49.7779 97.22 49.5453 96.2833 49.5453C95.3466 49.5453 94.4246 49.7779 93.6 50.2221C92.8077 50.6711 92.1563 51.3321 91.719 52.1308C91.2786 52.9864 91.0488 53.9348 91.0488 54.8971C91.0488 55.8594 91.2786 56.8078 91.719 57.6634C92.1606 58.4553 92.8113 59.1108 93.6 59.5582C94.421 60.0136 95.3444 60.2525 96.2833 60.2525C97.2221 60.2525 98.1455 60.0136 98.9666 59.5582Z" fill="white"/>
<path d="M120.169 63.2628L116.933 58.5879H113.42V63.2628H109.547V46.4993H116.808C118.132 46.4643 119.448 46.7143 120.667 47.2324C121.662 47.6939 122.506 48.4275 123.102 49.3486C123.576 50.0547 123.888 50.8573 124.016 51.6986C124.143 52.5398 124.082 53.3989 123.837 54.2138C123.592 55.0286 123.17 55.7791 122.6 56.4111C122.031 57.0431 121.328 57.5409 120.543 57.8686L124.305 63.2628H120.169ZM119.187 50.4136C118.42 49.8547 117.479 49.5852 116.532 49.6529H113.42V55.5035H116.587C117.536 55.5672 118.477 55.2928 119.243 54.7289C119.541 54.4556 119.773 54.1181 119.921 53.7419C120.07 53.3657 120.131 52.9607 120.1 52.5574C120.123 52.1539 120.053 51.7506 119.894 51.3788C119.736 51.007 119.494 50.6767 119.187 50.4136Z" fill="white"/>
<path d="M139.95 59.6674H132.163L130.683 63.2635H126.699L134.168 46.5H137.999L145.496 63.2635H141.347L139.95 59.6674ZM138.719 56.7075L136.063 50.2898L133.407 56.7075H138.719Z" fill="white"/>
<path d="M151.054 62.4346C149.703 61.7261 148.574 60.6589 147.79 59.3503C147.011 57.9902 146.602 56.4501 146.602 54.8828C146.602 53.3155 147.011 51.7754 147.79 50.4153C148.572 49.1016 149.702 48.0294 151.054 47.3171C152.379 46.6532 153.831 46.279 155.312 46.2194C156.793 46.1598 158.269 46.4161 159.644 46.9713C160.792 47.4626 161.807 48.2214 162.603 49.1843L160.114 51.4803C159.604 50.8558 158.96 50.3546 158.23 50.0145C157.499 49.6743 156.701 49.504 155.895 49.5162C154.93 49.4969 153.976 49.7305 153.129 50.194C152.332 50.642 151.676 51.3029 151.234 52.1027C150.785 52.9555 150.55 53.905 150.55 54.8689C150.55 55.8329 150.785 56.7824 151.234 57.6352C151.681 58.4277 152.337 59.0829 153.129 59.5301C153.975 59.9983 154.929 60.2368 155.895 60.2216C156.704 60.2326 157.504 60.0589 158.235 59.7137C158.966 59.3686 159.609 58.8611 160.114 58.2299L162.603 60.5259C161.806 61.4965 160.786 62.2603 159.63 62.7528C158.382 63.2762 157.04 63.5353 155.688 63.5135C154.077 63.5502 152.483 63.1791 151.054 62.4346Z" fill="white"/>
<path d="M166.186 46.5H170.128V60.0961H178.427V63.2635H166.145L166.186 46.5Z" fill="white"/>
<path d="M194.624 60.1515V63.2635H181.637V46.5H194.306V49.612H185.496V53.2497H193.283V56.2649H185.496V60.1515H194.624Z" fill="white"/>
<path d="M200.636 63.0022C199.56 62.7384 198.546 62.2688 197.648 61.6191L198.962 58.7007C199.746 59.2607 200.615 59.6904 201.535 59.9732C202.491 60.2842 203.49 60.4428 204.495 60.4434C205.34 60.5048 206.185 60.3376 206.943 59.9593C207.192 59.8266 207.397 59.6263 207.537 59.3815C207.676 59.1368 207.744 58.8576 207.731 58.5762C207.735 58.3872 207.694 58.2001 207.612 58.0297C207.531 57.8592 207.41 57.7101 207.261 57.5942C206.912 57.3036 206.507 57.0871 206.072 56.958C205.588 56.792 204.924 56.626 204.094 56.4324C203.03 56.1902 201.982 55.8854 200.954 55.5195C200.143 55.2194 199.423 54.7143 198.866 54.0534C198.249 53.2991 197.934 52.3432 197.98 51.3701C197.976 50.4289 198.255 49.5081 198.783 48.7284C199.377 47.8845 200.203 47.2312 201.162 46.8473C202.397 46.3561 203.719 46.1208 205.048 46.1557C206.107 46.1508 207.162 46.2809 208.188 46.543C209.134 46.7639 210.04 47.1326 210.871 47.6357L209.668 50.5817C208.271 49.723 206.673 49.246 205.034 49.1986C204.198 49.1394 203.363 49.3219 202.628 49.7242C202.386 49.8652 202.186 50.0672 202.048 50.31C201.91 50.5528 201.838 50.8278 201.839 51.1073C201.841 51.3876 201.928 51.6606 202.089 51.8903C202.249 52.12 202.476 52.2956 202.738 52.3936C203.631 52.7599 204.558 53.0378 205.505 53.2235C206.569 53.4638 207.617 53.7686 208.644 54.1364C209.449 54.4152 210.172 54.8907 210.747 55.5195C211.36 56.2641 211.671 57.2119 211.618 58.1751C211.627 59.1084 211.347 60.0215 210.816 60.7892C210.211 61.6345 209.375 62.2875 208.409 62.6703C207.171 63.1671 205.843 63.4026 204.509 63.3618C203.207 63.4272 201.903 63.3061 200.636 63.0022Z" fill="white"/>
<path fill-rule="evenodd" clip-rule="evenodd" d="M80.0039 40C80.0039 62.0914 62.0953 80 40.0039 80C17.9125 80 0.00390625 62.0914 0.00390625 40C0.00390625 17.9086 17.9125 0 40.0039 0C62.0953 0 80.0039 17.9086 80.0039 40ZM58.3173 14.1083C60.1933 15.9192 61.6804 18.0935 62.6879 20.4984C63.7083 22.8655 64.2309 25.4172 64.2232 27.9949C64.2516 30.6181 63.7823 33.2229 62.8401 35.6713C61.8607 38.1288 60.4087 40.3703 58.5662 42.2688C57.341 43.575 55.9453 44.7102 54.4168 45.6436C55.3712 48.6173 55.6062 51.7749 55.1027 54.8571C54.5991 57.9392 53.3714 60.8579 51.5203 63.3732C49.6693 65.8886 47.2477 67.9287 44.4548 69.3261C41.6618 70.7234 38.5771 71.4381 35.4542 71.4112H35.1084C32.7384 71.3737 30.395 70.905 28.1928 70.0281C25.7906 69.0537 23.5873 67.6474 21.6921 65.8787C19.8164 64.0729 18.3292 61.9032 17.3214 59.5025C16.2699 57.1185 15.7236 54.5425 15.717 51.9368C15.6961 49.3143 16.1652 46.7108 17.1001 44.2605C18.0933 41.8298 19.5389 39.6098 21.3601 37.7183C22.5445 36.4779 23.8832 35.3949 25.3435 34.4956V34.3988C24.2919 31.2238 24.0666 27.8333 24.6891 24.5471C25.3115 21.2609 26.7611 18.1876 28.9011 15.6172C31.041 13.0468 33.8006 11.0641 36.9195 9.85629C40.0384 8.64848 43.4137 8.2554 46.7267 8.71415C48.4726 8.89242 50.1854 9.31133 51.8166 9.95896C54.2161 10.9386 56.4184 12.3444 58.3173 14.1083ZM47.3214 20.6229C46.6511 20.3431 45.9501 20.1434 45.2329 20.0281C45.2379 20.6613 45.3121 21.2921 45.4542 21.9092L49.5344 32.6837C50.8263 31.4001 51.6037 29.6879 51.7198 27.8704C51.7403 26.8896 51.5954 25.9123 51.291 24.9797C50.9499 24.0402 50.4441 23.169 49.7972 22.4071C49.118 21.6322 48.2714 21.0221 47.3214 20.6229ZM50.4473 33.8732C50.3344 33.9999 50.2143 34.12 50.0877 34.2328L50.9867 36.6256C51.3698 36.3586 51.7391 36.0724 52.0932 35.7681C53.1693 34.8015 54.0071 33.5991 54.5413 32.2549C55.1928 30.9258 55.5198 29.4611 55.4957 27.9811C55.5179 26.4963 55.2695 25.02 54.7626 23.6242C54.1843 22.2247 53.3858 20.9266 52.3975 19.7792C51.3407 18.6678 50.0829 17.7668 48.6907 17.1236C47.8897 16.7488 47.0436 16.4792 46.1734 16.3213C45.5867 17.4265 45.2647 18.6528 45.2329 19.9036C45.986 19.9301 46.7314 20.0652 47.4459 20.3047C48.4301 20.6704 49.3359 21.2196 50.1153 21.923C50.8974 22.6568 51.5435 23.5231 52.024 24.4818C52.5029 25.4796 52.7578 26.5701 52.7709 27.6768C52.81 28.8068 52.6316 29.9337 52.2453 30.9963C51.848 32.0676 51.2362 33.0466 50.4473 33.8732ZM53.0476 36.681C52.5556 37.179 52.0287 37.6412 51.4708 38.0641L52.4113 40.2909C53.2707 39.7474 54.0683 39.112 54.7903 38.396C56.1668 37.0513 57.287 35.4671 58.096 33.7211C58.8405 31.8944 59.2618 29.9521 59.3408 27.9811C59.3553 25.9826 58.9989 23.9989 58.2896 22.1305C57.5274 20.2327 56.3995 18.5032 54.9701 17.0406C53.593 15.5775 51.9253 14.4185 50.0738 13.6381C49.696 13.4588 49.3081 13.3018 48.912 13.1678C48.4121 13.4906 47.9484 13.8662 47.5289 14.2881C46.9789 14.8446 46.5129 15.4783 46.1458 16.1692C47.026 16.2785 47.8927 16.4778 48.7322 16.7639C50.1894 17.3146 51.5241 18.1464 52.6603 19.2121C53.8378 20.2891 54.7797 21.5983 55.4265 23.0572C56.093 24.5272 56.4508 26.1183 56.4777 27.7321C56.5184 31.0435 55.2912 34.2451 53.0476 36.681ZM30.5062 66.6664C30.5787 66.694 30.6513 66.7217 30.7239 66.7501H30.7377C31.2753 66.4273 31.7762 66.0471 32.2315 65.6159C32.7716 65.0818 33.2369 64.477 33.6146 63.8179C32.8187 63.6996 32.0359 63.505 31.2771 63.237C29.8173 62.6916 28.4817 61.8592 27.3491 60.7888C26.1679 59.7204 25.2253 58.4149 24.5828 56.9576C23.9134 55.4879 23.551 53.8972 23.5178 52.2826C23.4718 48.9804 24.6776 45.7833 26.8926 43.3338C27.3242 42.8957 27.7864 42.489 28.2758 42.1166L27.4182 39.876C26.6316 40.3957 25.8995 40.9935 25.2329 41.6602C23.8488 42.9985 22.7276 44.5842 21.9272 46.3352C21.1702 48.1641 20.7396 50.1114 20.6547 52.089C20.6389 54.0875 20.9954 56.0715 21.7059 57.9396C22.4389 59.8027 23.5237 61.5073 24.9009 62.9603C26.2654 64.4317 27.9306 65.5921 29.7834 66.3628C30.0182 66.4802 30.2613 66.573 30.5062 66.6664ZM27.6672 60.2632C28.707 61.3672 29.9398 62.2719 31.3048 62.9327H31.3186C32.0511 63.2542 32.8163 63.4954 33.6008 63.6519C34.1878 62.5496 34.5232 61.3309 34.5828 60.0834C33.8944 60.0535 33.2141 59.923 32.5635 59.6962C31.5766 59.3425 30.6694 58.7972 29.894 58.0917C29.1119 57.3547 28.4617 56.4893 27.9715 55.533C27.502 54.5324 27.252 53.443 27.2384 52.3379C27.198 51.2124 27.3765 50.0897 27.764 49.0323C28.1548 47.9577 28.7675 46.9775 29.5621 46.1554C29.624 46.0751 29.6934 46.001 29.7695 45.9341L28.8428 43.5136C28.5193 43.7438 28.2098 43.9932 27.9162 44.2605C26.8592 45.2347 26.0446 46.4425 25.5372 47.7874C24.8872 49.1171 24.5602 50.5814 24.5828 52.0613C24.5595 53.5506 24.8079 55.0317 25.3159 56.432C25.8928 57.825 26.6864 59.1181 27.6672 60.2632ZM32.6879 59.4749C33.3013 59.7102 33.9358 59.8862 34.5828 60.0005C34.6025 59.3606 34.5515 58.7204 34.4307 58.0917L30.4334 47.5108C29.1912 48.7823 28.4411 50.454 28.3173 52.2273C28.2967 53.2036 28.4416 54.1763 28.746 55.1042C29.0849 56.0447 29.591 56.9162 30.2398 57.6768C30.9066 58.4566 31.7444 59.0719 32.6879 59.4749ZM16.8235 52.0613C16.8231 54.5328 17.2537 56.9854 18.096 59.3089C19.0013 61.6548 20.3755 63.7915 22.1347 65.5883C22.9476 66.4376 23.8365 67.2107 24.7903 67.8981C25.3068 68.0209 25.8362 68.0812 26.3671 68.0779C27.8322 68.0261 29.2601 67.6025 30.5164 66.8469C30.2399 66.7739 29.9675 66.6862 29.7004 66.5841C27.7745 65.8189 26.0102 64.6974 24.4998 63.2785C22.9679 61.8268 21.7366 60.088 20.876 58.1609C20.0431 56.2061 19.5743 54.1155 19.4929 51.9922C19.467 49.8532 19.823 47.7267 20.5441 45.7128C21.3043 43.6961 22.4612 41.8525 23.9466 40.2909C24.771 39.419 25.7002 38.6525 26.7128 38.0088L26.0628 36.3075C24.7999 37.0453 23.6337 37.9374 22.5911 38.9631C20.839 40.6715 19.4305 42.6998 18.4417 44.9382C17.4816 47.197 16.9336 49.6094 16.8235 52.0613ZM57.4182 41.0931C59.1704 39.3795 60.5789 37.3467 61.5676 35.1042C62.5277 32.8454 63.0758 30.433 63.1859 27.9811C63.1852 25.5142 62.7546 23.0664 61.9134 20.7473C61.0108 18.3959 59.6363 16.2542 57.8747 14.4541C57.0695 13.6061 56.1848 12.8373 55.2329 12.1581C53.1833 11.7057 51.0384 12.0467 49.2301 13.1125C49.6001 13.2088 49.9648 13.3242 50.3228 13.4583C54.248 15.0111 57.4135 18.0327 59.1471 21.8815C59.9786 23.8368 60.4473 25.9271 60.5303 28.0502C60.5549 30.1937 60.199 32.3244 59.4791 34.3435C58.7112 36.3553 57.5497 38.1939 56.0628 39.7515C55.1785 40.6815 54.1792 41.4949 53.0891 42.172L53.7253 43.8594C55.0743 43.1064 56.3164 42.1761 57.4182 41.0931Z" fill="white"/>
</g>
<defs>
<clipPath id="clip0_2525_472">
<rect width="211.591" height="80" fill="white"/>
</clipPath>
</defs>
</svg>
