<svg viewBox="0 0 124 27" fill="none" xmlns="http://www.w3.org/2000/svg" data-v-12986b71=""><path d="M23.9079 21.3404C22.6504 22.6478 21.1151 23.678 19.4071 24.3604C15.4749 25.901 11.9115 25.0117 10.6347 24.6165C9.52303 24.2723 7.49962 23.6203 5.73261 21.7784C4.18654 20.1665 3.63525 18.4782 3.38637 17.6858C2.45352 14.7189 3.03115 12.1398 3.39472 10.934C3.39472 10.961 3.3766 11.1683 3.36073 11.5082C3.30721 12.682 3.21971 15.1642 4.4671 17.5817C4.87885 18.38 5.78536 19.8485 7.65574 21.1584C9.02556 22.1865 10.6246 22.8927 12.3263 23.2211C14.028 23.5495 15.7856 23.4911 17.4599 23.0505C18.6967 22.7521 20.8468 22.0506 22.7767 20.3215C23.563 19.6119 24.2478 18.8043 24.813 17.9201C25.2036 17.3102 25.7572 16.4319 26.095 15.1548C26.3047 14.3616 26.5732 13.294 26.2458 12.0256C26.1425 11.6246 25.951 10.9187 25.3409 10.279C25.009 9.93194 24.6855 9.742 24.3604 9.55137C23.6455 9.13218 23.0324 8.96188 22.2488 8.75086C21.5308 8.55783 20.8001 8.41193 20.0617 8.31424L19.5851 8.2662C20.0268 8.97731 20.3647 9.74377 20.5896 10.5439C20.8381 11.4229 20.945 12.3335 20.9064 13.2438C20.8792 13.8179 20.8498 14.4482 20.5602 15.2021C20.113 16.3664 19.3362 17.0665 18.849 17.4951C17.932 18.2903 16.8337 18.8657 15.6431 19.1747C15.0496 19.3238 14.4304 19.4403 14.4304 19.4403C14.758 19.444 15.0855 19.4268 15.4108 19.3886C15.7502 19.3515 15.9938 19.3253 16.3158 19.262C16.7279 19.1755 17.1335 19.0624 17.53 18.9236C18.0481 18.738 19.4327 18.2286 20.4365 17.1647C21.2103 16.3438 21.5278 15.5208 21.7707 14.8637C21.7707 14.8637 22.6304 12.535 21.6952 9.69687C22.1383 10.3055 22.4999 10.9656 22.7714 11.6617C23.0463 12.4588 23.1739 13.2963 23.1485 14.136C23.096 15.3102 22.7604 16.4564 22.1681 17.4834C21.5333 18.5551 20.657 19.4753 19.6039 20.176C17.2698 21.742 14.8482 21.7231 14.2494 21.7042C13.4567 21.6787 11.2289 21.5769 9.20701 19.9846C6.45961 17.8204 6.28994 14.6643 6.27182 14.1563C6.25069 13.5814 6.18959 9.69178 9.49438 7.53413C12.241 5.741 15.3482 6.53134 15.8158 6.66084L14.8889 8.66277L15.1763 8.93789L16.4199 6.64851C16.2926 7.41114 16.1649 8.17429 16.0368 8.93789L16.4199 8.75452L16.932 6.81006C17.1944 6.89518 18.5858 7.31945 19.7721 6.64851C20.4146 6.23971 20.9374 5.67839 21.2902 5.01841C21.2902 5.01333 21.3657 4.8772 21.4637 4.69382C21.512 4.60505 21.5775 4.47988 21.6553 4.32999C21.3332 4.22882 21.0768 4.15461 20.8965 4.10365C20.8008 4.07675 20.6892 4.04618 20.4795 3.98649L20.0466 3.86281C19.9833 3.82785 19.8845 3.77181 19.7653 3.69977C18.6589 3.03317 18.5624 2.66425 17.7615 2.16502C17.2273 1.84123 16.6471 1.59433 16.039 1.43221C15.5537 1.28482 15.0546 1.18411 14.5488 1.13166C14.5488 1.13166 14.2833 1.09964 14.054 1.08C13.6664 1.04579 12.8903 1.05016 11.8918 1.12293C11.7596 0.749978 11.4941 0.434596 11.143 0.23317C10.7918 0.0317488 10.3779 -0.0425721 9.9751 0.0234942C9.57241 0.0895605 9.20713 0.291707 8.94469 0.593784C8.68224 0.895867 8.53974 1.27819 8.54259 1.67236C7.06614 2.26922 5.7068 3.10612 4.5237 4.14661C0.477584 7.71533 0.0695807 12.4127 0.0265939 13.0262C-0.0314775 13.8499 -0.252444 18.1595 2.89694 21.9989C7.22356 27.2713 14.4824 27.4801 17.855 26.609C18.9587 26.3102 20.0195 25.8797 21.0127 25.3275C22.4397 24.4728 23.6759 23.3524 24.6493 22.0317C25.0583 21.4429 25.4157 20.8221 25.7179 20.176C25.9772 19.6311 26.2038 19.0722 26.3967 18.5022C26.5768 17.9931 26.7224 17.4731 26.8326 16.9457C26.9092 16.5946 26.9651 16.2396 27 15.8825C27 15.8825 25.9321 19.2445 23.9079 21.3404Z" fill="#FFFFFF" data-v-12986b71=""></path><path d="M43.9178 20.8645C42.8378 20.8645 41.8725 20.689 41.022 20.338C40.1715 19.987 39.4493 19.4807 38.8553 18.8192C38.2613 18.1577 37.8023 17.3612 37.4783 16.4297C37.1678 15.4982 37.0125 14.4452 37.0125 13.2707C37.0125 12.0962 37.1678 11.0432 37.4783 10.1117C37.8023 9.18025 38.2613 8.38375 38.8553 7.72225C39.4628 7.06075 40.1918 6.5545 41.0423 6.2035C41.8928 5.8525 42.8513 5.677 43.9178 5.677C44.9978 5.677 45.963 5.8525 46.8135 6.2035C47.664 6.5545 48.3795 7.06075 48.96 7.72225C49.554 8.38375 50.0063 9.18025 50.3168 10.1117C50.6273 11.0432 50.7825 12.0962 50.7825 13.2707C50.7825 14.4452 50.6273 15.4982 50.3168 16.4297C50.0198 17.3612 49.5743 18.1577 48.9803 18.8192C48.3998 19.4807 47.6843 19.987 46.8338 20.338C45.9833 20.689 45.0113 20.8645 43.9178 20.8645ZM43.8975 18.2725C45.1665 18.2725 46.1115 17.8405 46.7325 16.9765C47.3535 16.1125 47.664 14.8772 47.664 13.2707C47.664 11.6777 47.3535 10.4492 46.7325 9.58525C46.1115 8.70775 45.1665 8.269 43.8975 8.269C42.6285 8.269 41.6835 8.70775 41.0625 9.58525C40.4415 10.4492 40.131 11.6777 40.131 13.2707C40.131 14.8772 40.4415 16.1125 41.0625 16.9765C41.6835 17.8405 42.6285 18.2725 43.8975 18.2725ZM53.704 12.1367H52.0435V9.9295H53.704V7.11475H56.539V9.9295H58.969V12.1367H56.539V17.017C56.539 17.5705 56.6538 17.9485 56.8833 18.151C57.1128 18.34 57.4098 18.4345 57.7743 18.4345C57.9633 18.4345 58.1523 18.4277 58.3413 18.4142C58.5438 18.3872 58.7395 18.3467 58.9285 18.2927L59.3335 20.3785C58.942 20.5 58.5573 20.581 58.1793 20.6215C57.8148 20.6755 57.4638 20.7025 57.1263 20.7025C55.9653 20.7025 55.1013 20.4258 54.5343 19.8722C53.9808 19.3187 53.704 18.3872 53.704 17.0777V12.1367ZM61.3769 12.1367H59.7164V9.9295H61.3769V7.11475H64.2119V9.9295H66.6419V12.1367H64.2119V17.017C64.2119 17.5705 64.3266 17.9485 64.5561 18.151C64.7856 18.34 65.0826 18.4345 65.4471 18.4345C65.6361 18.4345 65.8251 18.4277 66.0141 18.4142C66.2166 18.3872 66.4124 18.3467 66.6014 18.2927L67.0064 20.3785C66.6149 20.5 66.2301 20.581 65.8521 20.6215C65.4876 20.6755 65.1366 20.7025 64.7991 20.7025C63.6381 20.7025 62.7741 20.4258 62.2071 19.8722C61.6536 19.3187 61.3769 18.3872 61.3769 17.0777V12.1367ZM77.8835 17.1992C77.6945 18.3872 77.2152 19.2917 76.4457 19.9127C75.6897 20.5203 74.5827 20.824 73.1247 20.824C71.3697 20.824 70.0467 20.338 69.1557 19.366C68.2782 18.394 67.8395 17.017 67.8395 15.235C67.8395 14.344 67.9677 13.5542 68.2242 12.8657C68.4807 12.1637 68.8385 11.5697 69.2975 11.0837C69.77 10.5977 70.3302 10.2332 70.9782 9.99025C71.6262 9.73375 72.3417 9.6055 73.1247 9.6055C74.7447 9.6055 75.9597 10.0712 76.7697 11.0027C77.5932 11.9342 78.005 13.1897 78.005 14.7692V15.9032H70.6745C70.7015 16.7537 70.9175 17.422 71.3225 17.908C71.7275 18.3805 72.335 18.6167 73.145 18.6167C74.2655 18.6167 74.927 18.1442 75.1295 17.1992H77.8835ZM75.2712 14.0402C75.2712 13.3112 75.089 12.7442 74.7245 12.3392C74.3735 11.9342 73.82 11.7317 73.064 11.7317C72.686 11.7317 72.3552 11.7925 72.0717 11.914C71.7882 12.0355 71.5452 12.2042 71.3427 12.4202C71.1537 12.6227 71.0052 12.8657 70.8972 13.1492C70.7892 13.4192 70.7285 13.7162 70.715 14.0402H75.2712ZM80.1285 9.9295H82.8825V11.4077C83.2335 10.8542 83.6588 10.4425 84.1583 10.1725C84.6578 9.889 85.1843 9.74725 85.7378 9.74725C86.0078 9.74725 86.2305 9.76075 86.406 9.78775C86.5815 9.80125 86.7368 9.8215 86.8718 9.8485L86.5275 12.4202C86.2035 12.3392 85.8053 12.2987 85.3328 12.2987C85.0223 12.2987 84.7253 12.3392 84.4418 12.4202C84.1583 12.4877 83.9018 12.6227 83.6723 12.8252C83.4293 13.0412 83.247 13.2842 83.1255 13.5542C83.0175 13.8242 82.9635 14.101 82.9635 14.3845V20.5H80.1285V9.9295ZM90.9814 15.7817C91.0489 16.6727 91.3324 17.3207 91.8319 17.7257C92.3449 18.1307 93.0942 18.3332 94.0797 18.3332C94.5522 18.3332 94.9504 18.286 95.2744 18.1915C95.5984 18.0835 95.8617 17.9485 96.0642 17.7865C96.2667 17.611 96.4084 17.4085 96.4894 17.179C96.5839 16.9495 96.6312 16.6997 96.6312 16.4297C96.6312 16.0517 96.4894 15.7007 96.2059 15.3767C95.9224 15.0392 95.4027 14.7962 94.6467 14.6477L92.7634 14.3035C92.0209 14.1685 91.3662 13.993 90.7992 13.777C90.2322 13.561 89.7529 13.2842 89.3614 12.9467C88.9834 12.5957 88.6932 12.1705 88.4907 11.671C88.2882 11.1715 88.1869 10.5775 88.1869 9.889C88.1869 9.2005 88.3219 8.593 88.5919 8.0665C88.8754 7.54 89.2602 7.10125 89.7462 6.75025C90.2457 6.39925 90.8397 6.136 91.5282 5.9605C92.2167 5.7715 92.9727 5.677 93.7962 5.677C94.8492 5.677 95.7267 5.7985 96.4287 6.0415C97.1307 6.2845 97.6977 6.6085 98.1297 7.0135C98.5617 7.405 98.8789 7.864 99.0814 8.3905C99.2974 8.917 99.4392 9.46375 99.5067 10.0307L96.6514 10.3952C96.5029 9.59875 96.2127 9.025 95.7807 8.674C95.3622 8.323 94.7209 8.1475 93.8569 8.1475C93.3439 8.1475 92.9187 8.19475 92.5812 8.28925C92.2572 8.37025 91.9939 8.485 91.7914 8.6335C91.5889 8.7685 91.4472 8.9305 91.3662 9.1195C91.2852 9.3085 91.2447 9.50425 91.2447 9.70675C91.2447 10.2467 91.3932 10.6517 91.6902 10.9217C92.0007 11.1917 92.5204 11.401 93.2494 11.5495L95.2339 11.9342C96.7999 12.2447 97.9474 12.751 98.6764 13.453C99.4054 14.1415 99.7699 15.1405 99.7699 16.45C99.7699 17.0845 99.6484 17.6717 99.4054 18.2117C99.1759 18.7382 98.8249 19.204 98.3524 19.609C97.8934 20.0005 97.3129 20.3042 96.6109 20.5203C95.9089 20.7498 95.0854 20.8645 94.1404 20.8645C92.1694 20.8645 90.6574 20.446 89.6044 19.609C88.5649 18.7585 88.0047 17.4827 87.9237 15.7817H90.9814ZM111.343 17.1992C111.154 18.3872 110.675 19.2917 109.906 19.9127C109.15 20.5203 108.043 20.824 106.585 20.824C104.83 20.824 103.507 20.338 102.616 19.366C101.738 18.394 101.299 17.017 101.299 15.235C101.299 14.344 101.428 13.5542 101.684 12.8657C101.941 12.1637 102.298 11.5697 102.757 11.0837C103.23 10.5977 103.79 10.2332 104.438 9.99025C105.086 9.73375 105.802 9.6055 106.585 9.6055C108.205 9.6055 109.42 10.0712 110.23 11.0027C111.053 11.9342 111.465 13.1897 111.465 14.7692V15.9032H104.134C104.161 16.7537 104.377 17.422 104.782 17.908C105.187 18.3805 105.795 18.6167 106.605 18.6167C107.725 18.6167 108.387 18.1442 108.589 17.1992H111.343ZM108.731 14.0402C108.731 13.3112 108.549 12.7442 108.184 12.3392C107.833 11.9342 107.28 11.7317 106.524 11.7317C106.146 11.7317 105.815 11.7925 105.532 11.914C105.248 12.0355 105.005 12.2042 104.803 12.4202C104.614 12.6227 104.465 12.8657 104.357 13.1492C104.249 13.4192 104.188 13.7162 104.175 14.0402H108.731ZM123.086 16.6727C122.978 17.9417 122.539 18.9542 121.77 19.7102C121.014 20.4528 119.873 20.824 118.347 20.824C117.456 20.824 116.687 20.689 116.039 20.419C115.391 20.149 114.858 19.771 114.439 19.285C114.034 18.799 113.73 18.2117 113.528 17.5233C113.325 16.8347 113.224 16.072 113.224 15.235C113.224 14.398 113.339 13.6352 113.568 12.9467C113.811 12.2447 114.156 11.6507 114.601 11.1647C115.047 10.6652 115.593 10.2805 116.241 10.0105C116.889 9.7405 117.632 9.6055 118.469 9.6055C119.184 9.6055 119.805 9.7 120.332 9.889C120.872 10.0645 121.324 10.3142 121.689 10.6382C122.053 10.9622 122.337 11.3537 122.539 11.8127C122.742 12.2582 122.877 12.751 122.944 13.291L120.089 13.6757C120.021 13.1357 119.866 12.7037 119.623 12.3797C119.38 12.0422 118.962 11.8735 118.368 11.8735C117.936 11.8735 117.578 11.968 117.294 12.157C117.011 12.3325 116.781 12.5755 116.606 12.886C116.444 13.1965 116.329 13.5542 116.262 13.9592C116.194 14.3507 116.16 14.7625 116.16 15.1945C116.16 15.64 116.194 16.0652 116.262 16.4702C116.329 16.8752 116.444 17.233 116.606 17.5435C116.768 17.854 116.991 18.1037 117.274 18.2927C117.558 18.4682 117.915 18.556 118.347 18.556C118.914 18.556 119.353 18.394 119.664 18.07C119.974 17.746 120.156 17.2802 120.21 16.6727H123.086Z" fill="#FFFFFF" data-v-12986b71=""></path></svg>
