<?xml version="1.0" encoding="UTF-8"?>
<svg width="750px" height="300px" viewBox="0 0 750 300" version="1.1" xmlns="http://www.w3.org/2000/svg" xmlns:xlink="http://www.w3.org/1999/xlink">
    <title>图形+英文_白</title>
    <g id="图形+英文_白" stroke="none" stroke-width="1" fill="none" fill-rule="evenodd">
        <g id="logo-白" transform="translate(80.000000, 90.000000)" fill="#FFFFFF">
            <path d="M287.405618,67.4971429 L287.405618,53.4171429 L287.405618,28.1828571 L275.51797,28.1828571 L263.775294,54.3314286 L251.887647,28.1828571 L240,28.1828571 L240,91.7257143 L251.887647,91.7257143 L251.887647,55.3371429 L263.775294,81.5771429 L275.51797,55.3371429 L275.51797,91.7257143 L287.405618,91.7257143 L287.405618,67.4971429 Z M338.626699,75.4514286 C338.626699,62.1942857 338.626699,48.9371429 338.626699,35.68 C338.626699,32.2057143 334.857445,29.1885714 329.493506,28.3657143 C326.884023,28 324.274539,28.1828571 321.665056,28.1828571 C319.055572,28.1828571 316.446089,28.0914286 313.981577,28.2742857 C309.052552,28.5485714 304.848384,30.6514286 303.543642,33.5771429 C302.673815,35.5885714 303.108728,42.6285714 303.108728,44.4571429 C303.108728,57.8057143 303.108728,71.0628571 303.108728,84.32 C303.108728,87.7942857 306.877982,90.8114286 312.386892,91.6342857 C314.996376,92 317.460888,91.8171429 320.070371,91.8171429 C322.679855,91.8171429 325.289339,91.9085714 327.898822,91.7257143 C333.26276,91.4514286 337.6119,88.8914286 338.481728,85.5085714 C338.77167,84.32 338.626699,76.64 338.626699,75.4514286 Z M326.739052,84.32 L314.996376,84.32 L314.996376,35.68 L326.739052,35.68 L326.739052,84.32 Z M400.483238,28 L388.740562,28 L376.852915,70.4228571 L364.965267,28 L353.07762,28 L370.909091,91.6342857 L382.796738,91.6342857 L400.483238,28 Z M451.078224,84.2285714 L427.30293,84.2285714 L427.30293,63.6571429 L448.033827,63.6571429 L448.033827,56.16 L427.30293,56.16 L427.30293,35.5885714 L451.078224,35.5885714 L451.078224,28.0914286 L427.30293,28.0914286 L415.415282,28.0914286 L415.415282,91.7257143 L427.30293,91.7257143 L451.078224,91.7257143 L451.078224,84.2285714 Z M502.832981,71.2457143 L502.832981,66.5828571 C502.832981,62.4685714 497.614014,59.0857143 491.090305,59.0857143 C497.614014,59.0857143 502.832981,55.7942857 502.832981,51.68 L502.832981,35.68 C502.832981,31.5657143 497.614014,28.2742857 491.090305,28.2742857 L479.202658,28.2742857 L467.315011,28.2742857 L467.315011,91.8171429 L479.202658,91.8171429 L491.090305,91.8171429 C497.614014,91.8171429 502.832981,88.4342857 502.832981,84.32 L502.832981,71.2457143 Z M491.090305,84.32 L479.202658,84.32 L479.202658,63.7485714 L491.090305,63.7485714 L491.090305,84.32 Z M491.090305,54.88 L479.202658,54.88 L479.202658,35.68 L491.090305,35.68 L491.090305,54.88 Z M530.667472,28.0914286 L519.35971,28.0914286 L519.35971,91.5428571 L530.667472,91.5428571 L530.667472,28.0914286 Z M582.857143,28.3657143 L547.339172,28.3657143 L547.339172,35.8628571 L559.081848,35.8628571 L559.081848,92 L570.969496,92 L570.969496,35.8628571 L582.857143,35.8628571 L582.857143,28.3657143 Z" id="形状结合" fill-rule="nonzero"></path>
            <path d="M11.1989947,55.2646502 L11.2454033,55.266786 C12.695222,55.5125193 6.47100032,68.3257518 7.08092405,79.5843455 C7.69084778,90.8429392 11.7153445,98.9370908 17.0796737,104.884838 C22.4440029,110.832585 36.1922836,117.261768 36.9671867,117.462367 C37.7420898,117.662966 32.2477769,119.984894 26.8184558,120 C21.3891348,120.014984 16.4147568,117.256754 12.3502651,114.884676 C8.28577338,112.512598 4.75121539,108.134534 2.65647734,102.693299 C0.561739288,97.2520629 -0.913076283,88.0546193 0.65672741,80.070797 C1.26049806,76.9981672 2.7517317,72.5835154 4.44093785,68.3276783 L4.73232672,67.599942 C4.82327975,67.3747495 4.91468162,67.1502492 5.00642849,66.9266671 L5.2826003,66.2589018 C7.72942632,60.3886352 10.34562,55.3219331 11.1989947,55.2646502 Z M40.7367153,44.2990265 C48.9956825,44.2890303 58.7444634,46.5206892 64.7737095,48.1455374 C75.9434521,51.2152343 86.7523782,55.4789823 97.0146777,60.8634856 C101.209466,63.0449949 106.058957,65.645234 110.93289,68.296437 L111.907815,68.8272481 L112.90769,69.3588343 L114.407503,70.1562135 L115.407378,70.6827847 L116.407253,71.2143709 C126.071044,76.3948285 135.319888,81.3897324 140.114288,83.7517804 C145.536943,86.4264278 155.973971,91.0335078 171.425372,97.5730206 C172.043631,99.5881974 172.544416,101.63777 172.925185,103.711336 C173.339722,106.543678 173.275497,109.425843 172.735209,112.236775 C172.235271,114.789391 169.705588,119.493427 168.075791,119.904654 C167.150228,120.138191 161.758435,117.813024 156.153651,115.117057 L155.421734,114.763486 L155.055525,114.58546 L155.055525,114.58546 L154.323917,114.227604 C150.914713,112.553248 147.597884,110.829621 145.332655,109.550154 L144.863694,109.282961 L144.218775,108.906839 L143.93381,108.73633 C139.984904,106.337974 132.324516,101.12204 124.166415,95.4155113 L123.666345,95.0655387 L123.06642,94.6442818 L122.471494,94.2280398 L121.871569,93.8067828 L121.271644,93.3855259 L120.356759,92.7385955 L119.441873,92.0966802 L118.98693,91.7757225 L118.067045,91.148852 C113.812577,88.1398737 109.638099,85.1509553 105.988555,82.5080694 C92.9551853,73.0699075 74.1475372,57.6940285 57.6196041,50.703169 C41.2816472,43.7926641 30.7227721,46.4868254 25.24278,47.0340746 L25.0536765,47.0522753 C22.9362413,47.2408881 23.5996069,46.8670105 25.6867241,46.338234 L26.0188688,46.2557174 C28.0197688,45.7678905 31.1112969,45.172351 34.3125958,44.7673252 L34.8622822,44.6998142 C35.7796083,44.5905916 36.7013198,44.4983124 37.6045397,44.4299321 L38.1440695,44.3918275 L38.6780633,44.3597925 C39.3858763,44.3212741 40.075998,44.2998316 40.7367153,44.2990265 Z M117.912064,1.72703252 C126.885942,3.97373631 142.279017,13.4269431 148.803201,19.1791065 C155.327386,24.93127 165.711087,35.0113472 171.720336,42.4836433 C177.729584,49.9559394 186.903437,61.9266579 190.95793,70.7529942 C195.012423,79.5793305 199.75183,93.4657653 199.986801,99.594051 C200.221771,105.722337 197.327133,113.470456 192.597725,116.419255 C189.444786,118.38512 183.485531,119.480054 174.71996,119.704056 C177.779578,115.073573 179.131076,110.682136 178.774453,106.529746 C178.23952,100.321221 175.739833,90.2712333 173.160156,83.9624089 C170.943316,78.3955884 168.204707,73.0524195 164.981178,68.0047941 C161.896564,63.1402792 156.702214,55.2166364 150.482991,47.8195648 C144.263769,40.4224932 133.590104,29.8459345 125.896066,24.3294744 C118.202028,18.8130142 106.98843,13.156135 98.819452,12.7950576 C92.9531782,12.5965754 87.0900216,13.2726029 81.4216276,14.8010431 C85.4677883,7.94391598 90.0205523,3.64943531 95.0799196,1.91760115 C102.658972,-0.695194989 108.938187,-0.519671256 117.912064,1.72703252 Z M58.6494753,63.3408777 L72.0677973,72.4681119 C68.4949108,81.595346 65.6619317,88.0144996 63.5688601,91.7255728 C60.4292527,97.2921826 55.8498254,104.227878 52.6152299,107.517694 C49.3806344,110.80751 44.8012071,114.423299 42.3315159,115.04014 C39.8618247,115.65698 18.004558,98.345325 19.1794111,98.0544571 C21.9607254,97.1573161 24.7011395,96.1378861 27.3927191,94.9991756 L28.5432401,94.5038628 L28.9731864,94.3183091 C30.9443384,93.4719263 32.8700565,92.5228042 34.7424649,91.4748246 C40.0318035,88.4106818 45.4161302,82.0466927 49.1956575,77.432926 C51.7153424,74.3570815 54.866615,69.6597321 58.6494753,63.3408777 Z M96.6847189,17.6595725 C98.1487854,17.7744082 99.5868183,18.1126303 100.949186,18.6625653 C96.7033909,21.1368066 93.051134,24.5162627 90.2505235,28.5621038 C87.779783,32.1744294 85.5946788,35.9745327 83.714956,39.9275537 L83.2513988,40.9189746 L70.2830205,36.5208514 L70.3980061,36.1748188 C72.1411215,30.9124502 74.0125541,27.1512273 76.0123041,24.8911503 C78.9905523,21.5501468 82.9381918,19.8267167 86.5547727,18.8767683 L86.9409374,18.7779094 L86.935938,18.7779094 C90.6554729,17.8451262 94.3800071,17.4990937 96.6847189,17.6595725 Z" id="形状结合"></path>
        </g>
    </g>
</svg>