<svg width="748" height="192" viewBox="0 0 748 192" fill="none" xmlns="http://www.w3.org/2000/svg">
<path d="M252.712 51.292H259.068C258.865 53.6601 258.187 55.7716 257.034 57.6263C255.881 59.4645 254.263 60.9135 252.178 61.9734C250.093 63.0333 247.559 63.5632 244.576 63.5632C242.287 63.5632 240.228 63.1657 238.397 62.3708C236.567 61.5594 234.999 60.4167 233.694 58.9429C232.388 57.4524 231.388 55.6556 230.693 53.5525C230.015 51.4493 229.676 49.0978 229.676 46.4978V43.4921C229.676 40.8921 230.024 38.5406 230.719 36.4374C231.431 34.3343 232.448 32.5375 233.77 31.0471C235.092 29.5401 236.677 28.3891 238.524 27.5942C240.389 26.7993 242.482 26.4019 244.804 26.4019C247.754 26.4019 250.245 26.9318 252.279 27.9917C254.313 29.0515 255.89 30.5171 257.009 32.3884C258.144 34.2598 258.839 36.4043 259.093 38.8221H252.737C252.568 37.2654 252.195 35.9323 251.618 34.8228C251.059 33.7133 250.228 32.8687 249.127 32.2891C248.025 31.6929 246.584 31.3948 244.804 31.3948C243.347 31.3948 242.075 31.6598 240.991 32.1897C239.906 32.7196 238.999 33.498 238.27 34.5247C237.541 35.5515 236.99 36.8183 236.617 38.3253C236.261 39.8157 236.084 41.5214 236.084 43.4424V46.4978C236.084 48.3194 236.245 49.9755 236.567 51.4659C236.906 52.9398 237.414 54.2066 238.092 55.2665C238.787 56.3263 239.668 57.1461 240.736 57.7257C241.804 58.3053 243.084 58.5951 244.576 58.5951C246.389 58.5951 247.855 58.3136 248.974 57.7505C250.11 57.1875 250.966 56.3677 251.542 55.2913C252.135 54.1983 252.525 52.8652 252.712 51.292Z" fill="white"/>
<path d="M299.07 43.9889V45.9762C299.07 48.7086 298.706 51.1595 297.977 53.3289C297.248 55.4983 296.205 57.3448 294.849 58.8683C293.51 60.3919 291.9 61.5594 290.019 62.3708C288.137 63.1657 286.052 63.5632 283.764 63.5632C281.493 63.5632 279.416 63.1657 277.535 62.3708C275.67 61.5594 274.052 60.3919 272.679 58.8683C271.306 57.3448 270.238 55.4983 269.475 53.3289C268.729 51.1595 268.356 48.7086 268.356 45.9762V43.9889C268.356 41.2565 268.729 38.8138 269.475 36.661C270.221 34.4916 271.272 32.6451 272.628 31.1216C274.001 29.5815 275.619 28.414 277.484 27.6191C279.365 26.8076 281.442 26.4019 283.713 26.4019C286.001 26.4019 288.086 26.8076 289.968 27.6191C291.849 28.414 293.468 29.5815 294.824 31.1216C296.18 32.6451 297.223 34.4916 297.951 36.661C298.697 38.8138 299.07 41.2565 299.07 43.9889ZM292.688 45.9762V43.9392C292.688 41.9189 292.485 40.1387 292.078 38.5985C291.688 37.0419 291.103 35.7419 290.324 34.6986C289.561 33.6387 288.62 32.8438 287.502 32.3139C286.383 31.7674 285.12 31.4942 283.713 31.4942C282.306 31.4942 281.052 31.7674 279.95 32.3139C278.849 32.8438 277.908 33.6387 277.128 34.6986C276.365 35.7419 275.781 37.0419 275.374 38.5985C274.967 40.1387 274.764 41.9189 274.764 43.9392V45.9762C274.764 47.9965 274.967 49.785 275.374 51.3417C275.781 52.8984 276.374 54.2149 277.153 55.2913C277.95 56.3512 278.899 57.1543 280.001 57.7008C281.103 58.2308 282.357 58.4957 283.764 58.4957C285.188 58.4957 286.451 58.2308 287.552 57.7008C288.654 57.1543 289.586 56.3512 290.349 55.2913C291.112 54.2149 291.688 52.8984 292.078 51.3417C292.485 49.785 292.688 47.9965 292.688 45.9762Z" fill="white"/>
<path d="M316.952 26.8987V63.0664H310.57V26.8987H316.952Z" fill="white"/>
<path d="M358.937 26.8987V63.0664H352.556L335.953 37.1578V63.0664H329.571V26.8987H335.953L352.607 52.857V26.8987H358.937Z" fill="white"/>
<path d="M385.693 26.8987V63.0664H379.362V26.8987H385.693ZM397.312 26.8987V31.8668H367.844V26.8987H397.312Z" fill="white"/>
<path d="M431.111 58.1231V63.0664H411.457V58.1231H431.111ZM413.262 26.8987V63.0664H406.88V26.8987H413.262ZM428.543 42.0017V46.8704H411.457V42.0017H428.543ZM430.984 26.8987V31.8668H411.457V26.8987H430.984Z" fill="white"/>
<path d="M464.197 58.1231V63.0664H445.611V58.1231H464.197ZM447.391 26.8987V63.0664H441.009V26.8987H447.391Z" fill="white"/>
<path d="M498.046 58.1231V63.0664H478.393V58.1231H498.046ZM480.198 26.8987V63.0664H473.816V26.8987H480.198ZM495.478 42.0017V46.8704H478.393V42.0017H495.478ZM497.919 26.8987V31.8668H478.393V26.8987H497.919Z" fill="white"/>
<path d="M536.37 44.5851V58.3964C535.845 59.0753 535.023 59.8206 533.904 60.632C532.802 61.4269 531.336 62.1142 529.506 62.6938C527.675 63.2734 525.395 63.5632 522.666 63.5632C520.344 63.5632 518.217 63.1823 516.284 62.4205C514.352 61.6422 512.682 60.5078 511.276 59.0174C509.886 57.527 508.809 55.7136 508.047 53.5773C507.284 51.4245 506.902 48.9736 506.902 46.2246V43.7157C506.902 40.9832 507.25 38.5489 507.945 36.4126C508.657 34.2598 509.674 32.4381 510.996 30.9477C512.318 29.4573 513.911 28.3312 515.776 27.5694C517.657 26.7911 519.785 26.4019 522.158 26.4019C525.192 26.4019 527.7 26.8987 529.684 27.8923C531.684 28.8694 533.226 30.2273 534.311 31.9662C535.396 33.705 536.082 35.6922 536.37 37.9279H530.116C529.912 36.6693 529.514 35.5432 528.921 34.5496C528.344 33.5559 527.514 32.7776 526.429 32.2146C525.361 31.6349 523.971 31.3451 522.259 31.3451C520.785 31.3451 519.488 31.6184 518.369 32.1649C517.251 32.7114 516.318 33.5145 515.572 34.5744C514.844 35.6343 514.293 36.926 513.92 38.4495C513.547 39.9731 513.36 41.7119 513.36 43.666V46.2246C513.36 48.2118 513.572 49.9755 513.996 51.5156C514.437 53.0557 515.064 54.3557 515.878 55.4155C516.708 56.4754 517.717 57.2786 518.903 57.825C520.09 58.355 521.429 58.6199 522.92 58.6199C524.378 58.6199 525.573 58.504 526.505 58.2722C527.438 58.0238 528.175 57.734 528.717 57.4028C529.277 57.055 529.709 56.7238 530.014 56.4091V49.2303H522.31V44.5851H536.37Z" fill="white"/>
<path d="M548.125 26.8987H561.219C564.033 26.8987 566.431 27.3127 568.414 28.1407C570.398 28.9687 571.915 30.1942 572.965 31.8171C574.033 33.4235 574.567 35.4107 574.567 37.7788C574.567 39.5839 574.228 41.1737 573.55 42.5482C572.872 43.9227 571.915 45.0819 570.677 46.0258C569.44 46.9532 567.965 47.6736 566.253 48.187L564.321 49.106H552.549L552.498 44.1628H561.321C562.846 44.1628 564.118 43.8978 565.135 43.3679C566.152 42.838 566.914 42.1176 567.423 41.2068C567.948 40.2794 568.211 39.2361 568.211 38.0769C568.211 36.8183 567.957 35.7253 567.448 34.798C566.957 33.854 566.194 33.1337 565.16 32.6368C564.126 32.1235 562.812 31.8668 561.219 31.8668H554.507V63.0664H548.125V26.8987ZM569.253 63.0664L560.558 46.8207L567.245 46.7959L576.067 62.7434V63.0664H569.253Z" fill="white"/>
<path d="M600.026 31.7177L588.966 63.0664H582.279L596.212 26.8987H600.484L600.026 31.7177ZM609.281 63.0664L598.196 31.7177L597.712 26.8987H602.009L615.993 63.0664H609.281ZM608.747 49.6525V54.5958H588.61V49.6525H608.747Z" fill="white"/>
<path d="M638.884 49.578H629.248V44.6348H638.884C640.562 44.6348 641.918 44.3698 642.952 43.8399C643.986 43.3099 644.74 42.5813 645.215 41.6539C645.707 40.71 645.952 39.6336 645.952 38.4247C645.952 37.282 645.707 36.2139 645.215 35.2202C644.74 34.2101 643.986 33.3986 642.952 32.7859C641.918 32.1732 640.562 31.8668 638.884 31.8668H631.206V63.0664H624.824V26.8987H638.884C641.749 26.8987 644.181 27.3955 646.181 28.3891C648.198 29.3662 649.732 30.7241 650.783 32.463C651.834 34.1852 652.36 36.1559 652.36 38.375C652.36 40.71 651.834 42.7138 650.783 44.3864C649.732 46.059 648.198 47.3424 646.181 48.2366C644.181 49.1309 641.749 49.578 638.884 49.578Z" fill="white"/>
<path d="M687.226 42.0017V46.9449H667.572V42.0017H687.226ZM669.148 26.8987V63.0664H662.767V26.8987H669.148ZM692.133 26.8987V63.0664H685.776V26.8987H692.133Z" fill="white"/>
<path d="M111.494 141.525L79.4432 155.427V154.026C73.2491 155.607 66.4067 156.505 59.9245 156.792C29.7822 156.505 5.834 140.771 5.5459 122.019V115.05C15.4493 129.419 35.6162 139.046 59.9245 138.687C68.1353 139.046 76.5622 137.717 83.6206 135.921L86.3936 128.952C78.0027 131.431 68.8556 133.191 59.9245 133.119C29.7822 133.191 5.834 117.421 5.5459 98.3461V92.7781C15.4493 106.069 35.5802 115.697 59.9245 115.014C70.8722 115.661 81.5679 113.362 90.607 109.446L92.0115 102.477C83.2245 107.111 71.8086 109.805 59.9605 109.446C29.8182 109.805 5.87001 94.0713 5.58191 74.6731V69.1051C15.4853 82.6839 35.6522 92.3111 59.9605 92.7422C73.7892 92.3111 86.8617 88.6829 97.5934 83.0072L98.9979 74.6731C89.2745 81.8576 75.0497 86.5276 59.9605 87.1742C29.8182 86.4917 5.87001 70.7576 5.58191 51.0361C5.834 32.3923 29.7822 16.6582 59.9245 16.4067C77.8947 16.6582 94.6044 22.9446 104.544 33.1107L105.516 34.7272H112.539L111.494 33.1107C101.627 19.6757 81.856 10.8387 59.9245 10.8387C26.5771 10.8387 0 29.1951 0 51.1438V123.456C1.15239 144.902 27.1533 162.396 59.9245 162.396C81.5679 162.396 101.051 153.882 111.494 141.525V141.525Z" fill="white"/>
<path d="M118.156 132.904L112.538 160.959L158.958 90.8024L120.965 107.65L137.855 68.3508H175.848L182.871 38.8942H73.141L66.1186 68.3508H104.112L85.8173 146.913L118.192 132.868L118.156 132.904ZM98.4577 190.452L109.694 142.746L77.3544 156.792L97.0532 73.9906H59.0602L68.9276 33.2903H189.893L180.062 73.9906H140.664L132.237 96.4422L175.848 78.1935L98.4577 190.452V190.452Z" fill="#FABF2C"/>
<path fill-rule="evenodd" clip-rule="evenodd" d="M746.212 1.59171L695.552 78.0484L695.548 78.0741L678.719 106.543L660.012 80.2568H654.575L648.357 97.0746C648.296 93.8088 647.39 90.8576 645.638 88.2209C643.823 85.4895 641.301 83.3565 638.071 81.822C634.872 80.2875 631.273 79.5202 627.275 79.5202C623.399 79.5202 619.831 80.3028 616.571 81.868C613.341 83.4025 610.772 85.5355 608.865 88.2669C606.958 90.9984 606.005 94.052 606.005 97.428C606.005 100.773 606.958 103.812 608.865 106.543C610.772 109.244 613.356 111.377 616.617 112.942C619.877 114.476 623.445 115.244 627.321 115.244C631.32 115.244 634.918 114.476 638.117 112.942C640.516 111.768 642.526 110.275 644.147 108.463L641.639 115.244H649.437L660.012 90.1083L677.078 115.244H683.369L694.047 95.3774L699.774 85.1415L746.212 1.59171ZM268.979 97.3359C268.979 93.9293 269.917 90.8603 271.793 88.1288C273.701 85.3974 276.284 83.2644 279.545 81.7299C282.836 80.1647 286.481 79.3821 290.48 79.3821C295.493 79.3821 299.815 80.5944 303.445 83.0189C307.105 85.4127 309.627 88.7733 311.011 93.1006L302.891 93.1467C302.307 91.5815 301.307 90.2464 299.892 89.1416C298.508 88.0061 296.97 87.1621 295.278 86.6096C293.586 86.0265 292.002 85.735 290.526 85.735C288.311 85.735 286.158 86.1953 284.066 87.116C281.975 88.0061 280.252 89.3411 278.899 91.1211C277.576 92.8705 276.915 94.9421 276.915 97.3359C276.915 99.7604 277.545 101.847 278.807 103.597C280.068 105.315 281.729 106.635 283.79 107.556C285.881 108.446 288.127 108.891 290.526 108.891C292.894 108.891 295.217 108.262 297.493 107.003C299.8 105.745 301.538 103.95 302.707 101.617H311.011C309.535 105.975 306.982 109.336 303.352 111.699C299.754 114.062 295.463 115.244 290.48 115.244C286.512 115.244 282.882 114.461 279.591 112.896C276.3 111.331 273.701 109.182 271.793 106.451C269.917 103.719 268.979 100.681 268.979 97.3359ZM277.956 115.244H268.979L263.382 107.203H237.179L234.879 110.291L234.194 110.557L234.985 110.251L172.141 191.16L222.135 115.237L222.117 115.244L246.836 80.2568H253.266L277.956 115.244ZM249.998 86.0264L240.55 100.789H260.128L249.998 86.0264ZM316.941 88.1288C315.065 90.8603 314.127 93.9293 314.127 97.3359C314.127 100.681 315.065 103.719 316.941 106.451C318.848 109.182 321.447 111.331 324.739 112.896C328.03 114.461 331.659 115.244 335.627 115.244C340.61 115.244 344.901 114.062 348.5 111.699C352.13 109.336 354.683 105.975 356.159 101.617H347.854C346.685 103.95 344.947 105.745 342.64 107.003C340.364 108.262 338.042 108.891 335.673 108.891C333.274 108.891 331.029 108.446 328.937 107.556C326.876 106.635 325.215 105.315 323.954 103.597C322.693 101.847 322.062 99.7604 322.062 97.3359C322.062 94.9421 322.724 92.8705 324.046 91.1211C325.4 89.3411 327.122 88.0061 329.214 87.116C331.306 86.1953 333.459 85.735 335.673 85.735C337.15 85.735 338.734 86.0265 340.426 86.6096C342.117 87.1621 343.655 88.0061 345.04 89.1416C346.455 90.2464 347.454 91.5815 348.039 93.1467L356.159 93.1006C354.775 88.7733 352.253 85.4127 348.592 83.0189C344.963 80.5944 340.641 79.3821 335.627 79.3821C331.629 79.3821 327.984 80.1647 324.692 81.7299C321.432 83.2644 318.848 85.3974 316.941 88.1288ZM391.248 99.7758H367.994V108.2L395.124 108.062V114.323H360.197V80.2568H395.124L395.17 86.5176H367.994V93.561H391.248V99.7758ZM407.239 107.924V80.2568H399.442V114.323H430.678V107.924H407.239ZM465.999 99.7758H442.745V108.2L469.874 108.062V114.323H434.947V80.2568H469.874L469.921 86.5176H442.745V93.561H465.999V99.7758ZM494.078 103.228L503.537 114.231H513.134L503.214 102.722C506.228 102.078 508.581 100.804 510.273 98.9011C511.996 96.9983 512.857 94.5891 512.857 91.6735V91.4894C512.857 89.249 512.242 87.2848 511.011 85.5969C509.812 83.8782 508.104 82.5432 505.89 81.5918C503.706 80.6404 501.184 80.1647 498.323 80.1647H474.192V114.231H481.851V103.228H494.078ZM503.998 88.0367C504.675 88.8347 505.013 90.1083 505.013 91.8577C505.013 93.515 504.675 94.7272 503.998 95.4945C503.352 96.231 502.522 96.6914 501.507 96.8755C500.491 97.029 499.061 97.1057 497.216 97.1057H497.123H481.851V86.4715C486.527 86.4715 490.941 86.4255 495.093 86.3334C495.678 86.3027 496.385 86.2874 497.216 86.2874C499.061 86.2874 500.491 86.3795 501.507 86.5636C502.522 86.7478 503.352 87.2388 503.998 88.0367ZM559.409 114.323H551.289L547.367 107.095H525.82L521.899 114.323H513.778L532.28 80.2568H540.908L559.409 114.323ZM536.617 87.2541L529.235 100.789H543.953L536.617 87.2541ZM590.069 80.2568V86.8859H574.751V114.323H566.953V86.8859H551.405V86.7478V80.2568H590.069ZM602.158 114.323H594.361V80.2568H602.158V114.323ZM633.642 107.556C631.642 108.446 629.52 108.891 627.275 108.891C624.937 108.891 622.768 108.446 620.769 107.556C618.77 106.635 617.155 105.315 615.925 103.597C614.725 101.847 614.125 99.7604 614.125 97.3359C614.125 94.9727 614.709 92.9318 615.878 91.2132C617.047 89.4945 618.616 88.1749 620.585 87.2541C622.584 86.3334 624.783 85.8731 627.182 85.8731C629.428 85.8731 631.55 86.3334 633.55 87.2541C635.58 88.1749 637.21 89.5099 638.44 91.2592C639.701 93.0086 640.332 95.0648 640.332 97.428C640.332 99.8218 639.717 101.893 638.486 103.643C637.256 105.361 635.641 106.666 633.642 107.556Z" fill="#FABF2C"/>
</svg>
