<svg width="1200" height="400" viewBox="0 0 1200 400" fill="none" xmlns="http://www.w3.org/2000/svg">
<!-- <rect width="1200" height="400" rx="24" fill="black" fill-opacity="0.4"/> -->
<path d="M187.492 295.88V304.16C187.492 305.267 187.732 306.1 188.212 306.66C188.706 307.207 189.412 307.48 190.332 307.48C191.239 307.48 191.932 307.207 192.412 306.66C192.906 306.1 193.152 305.267 193.152 304.16V295.88H195.952V304.16C195.952 305.467 195.706 306.573 195.212 307.48C194.732 308.373 194.059 309.04 193.192 309.48C192.339 309.92 191.366 310.14 190.272 310.14C188.579 310.14 187.226 309.633 186.212 308.62C185.199 307.607 184.692 306.12 184.692 304.16V295.88H187.492ZM202.245 298.78C203.591 298.78 204.671 299.12 205.485 299.8C206.298 300.48 206.805 301.387 207.005 302.52H204.365C204.258 301.987 204.018 301.56 203.645 301.24C203.271 300.92 202.785 300.76 202.185 300.76C201.705 300.76 201.331 300.873 201.065 301.1C200.798 301.327 200.665 301.633 200.665 302.02C200.665 302.327 200.771 302.573 200.985 302.76C201.198 302.947 201.465 303.093 201.785 303.2C202.105 303.307 202.565 303.433 203.165 303.58C204.005 303.767 204.685 303.967 205.205 304.18C205.738 304.38 206.191 304.707 206.565 305.16C206.951 305.6 207.145 306.2 207.145 306.96C207.145 307.907 206.771 308.673 206.025 309.26C205.291 309.847 204.298 310.14 203.045 310.14C201.605 310.14 200.451 309.82 199.585 309.18C198.718 308.527 198.191 307.6 198.005 306.4H200.705C200.771 306.947 201.011 307.38 201.425 307.7C201.838 308.007 202.378 308.16 203.045 308.16C203.525 308.16 203.891 308.047 204.145 307.82C204.398 307.58 204.525 307.273 204.525 306.9C204.525 306.58 204.411 306.32 204.185 306.12C203.971 305.92 203.698 305.767 203.365 305.66C203.045 305.553 202.585 305.427 201.985 305.28C201.158 305.093 200.485 304.907 199.965 304.72C199.458 304.52 199.018 304.207 198.645 303.78C198.285 303.353 198.105 302.767 198.105 302.02C198.105 301.06 198.471 300.28 199.205 299.68C199.938 299.08 200.951 298.78 202.245 298.78ZM219.665 304.04C219.665 304.32 219.632 304.64 219.565 305H211.445C211.485 305.987 211.752 306.713 212.245 307.18C212.738 307.647 213.352 307.88 214.085 307.88C214.738 307.88 215.278 307.72 215.705 307.4C216.145 307.08 216.425 306.647 216.545 306.1H219.525C219.378 306.873 219.065 307.567 218.585 308.18C218.105 308.793 217.485 309.273 216.725 309.62C215.978 309.967 215.145 310.14 214.225 310.14C213.145 310.14 212.185 309.913 211.345 309.46C210.505 308.993 209.852 308.333 209.385 307.48C208.918 306.627 208.685 305.62 208.685 304.46C208.685 303.3 208.918 302.293 209.385 301.44C209.852 300.573 210.505 299.913 211.345 299.46C212.185 299.007 213.145 298.78 214.225 298.78C215.318 298.78 216.272 299.007 217.085 299.46C217.912 299.913 218.545 300.54 218.985 301.34C219.438 302.127 219.665 303.027 219.665 304.04ZM216.825 303.76C216.865 302.853 216.625 302.167 216.105 301.7C215.598 301.233 214.972 301 214.225 301C213.465 301 212.825 301.233 212.305 301.7C211.785 302.167 211.498 302.853 211.445 303.76H216.825ZM224.487 301.04C224.9 300.333 225.447 299.78 226.127 299.38C226.807 298.967 227.567 298.76 228.407 298.76V301.78H227.587C225.52 301.78 224.487 302.74 224.487 304.66V310H221.667V298.92H224.487V301.04ZM233.788 298.78C235.134 298.78 236.214 299.12 237.028 299.8C237.841 300.48 238.348 301.387 238.548 302.52H235.908C235.801 301.987 235.561 301.56 235.188 301.24C234.814 300.92 234.328 300.76 233.728 300.76C233.248 300.76 232.874 300.873 232.608 301.1C232.341 301.327 232.208 301.633 232.208 302.02C232.208 302.327 232.314 302.573 232.528 302.76C232.741 302.947 233.008 303.093 233.328 303.2C233.648 303.307 234.108 303.433 234.708 303.58C235.548 303.767 236.228 303.967 236.748 304.18C237.281 304.38 237.734 304.707 238.108 305.16C238.494 305.6 238.688 306.2 238.688 306.96C238.688 307.907 238.314 308.673 237.568 309.26C236.834 309.847 235.841 310.14 234.588 310.14C233.148 310.14 231.994 309.82 231.128 309.18C230.261 308.527 229.734 307.6 229.548 306.4H232.248C232.314 306.947 232.554 307.38 232.968 307.7C233.381 308.007 233.921 308.16 234.588 308.16C235.068 308.16 235.434 308.047 235.688 307.82C235.941 307.58 236.068 307.273 236.068 306.9C236.068 306.58 235.954 306.32 235.728 306.12C235.514 305.92 235.241 305.767 234.908 305.66C234.588 305.553 234.128 305.427 233.528 305.28C232.701 305.093 232.028 304.907 231.508 304.72C231.001 304.52 230.561 304.207 230.188 303.78C229.828 303.353 229.648 302.767 229.648 302.02C229.648 301.06 230.014 300.28 230.748 299.68C231.481 299.08 232.494 298.78 233.788 298.78Z" fill="white"/>
<rect x="168" y="278" width="87" height="50" rx="7" stroke="white" stroke-width="2"/>
<path d="M211 266C261.258 266 302 225.258 302 175C302 124.742 261.258 84 211 84C160.742 84 120 124.742 120 175C120 225.258 160.742 266 211 266Z" fill="white"/>
<path d="M211 259C257.944 259 296 220.944 296 174C296 127.056 257.944 89 211 89C164.056 89 126 127.056 126 174C126 220.944 164.056 259 211 259Z" fill="#9CD0DD"/>
<mask id="mask0_119_2470" style="mask-type:luminance" maskUnits="userSpaceOnUse" x="126" y="89" width="170" height="170">
<path d="M211 259C257.944 259 296 220.944 296 174C296 127.056 257.944 89 211 89C164.056 89 126 127.056 126 174C126 220.944 164.056 259 211 259Z" fill="white"/>
</mask>
<g mask="url(#mask0_119_2470)">
<path d="M227.71 180.97H194.28V228.83H227.71V180.97Z" fill="#F0C3BD"/>
<path d="M188.66 154.48C189.4 160.96 185.42 166.72 181.85 167.13C178.28 167.54 173.11 162.8 172.38 156.32C171.65 149.84 174.7 144.19 179.19 143.68C183.68 143.17 187.93 148.01 188.66 154.48Z" fill="#F0C3BD"/>
<path d="M233.35 154.48C232.61 160.96 236.59 166.72 240.16 167.13C243.73 167.54 248.9 162.8 249.63 156.32C250.36 149.84 247.31 144.19 242.82 143.68C238.33 143.17 234.08 148.01 233.35 154.48Z" fill="#F0C3BD"/>
<path d="M243.88 143.83C243.88 165.01 225.68 189.39 211 189.39C196.32 189.39 178.13 165.01 178.13 143.83C178.13 105.04 192.85 106.13 211 106.13C229.15 106.13 243.88 105.48 243.88 143.83Z" fill="#3A2D19"/>
<path d="M241.82 149.83C241.82 171.01 224.76 195.39 211 195.39C197.24 195.39 180.19 171.01 180.19 149.83C180.19 111.04 193.99 132.35 211 132.35C228.01 132.35 241.82 111.48 241.82 149.83Z" fill="#FECEC8"/>
<path d="M211 269.47C243.524 269.47 269.89 253.818 269.89 234.51C269.89 215.202 243.524 199.55 211 199.55C178.476 199.55 152.11 215.202 152.11 234.51C152.11 253.818 178.476 269.47 211 269.47Z" fill="#F0C3BD"/>
<path d="M228.34 201.08C228.34 201.58 228.41 202.08 228.41 202.59C228.41 207.115 226.613 211.454 223.413 214.653C220.214 217.853 215.875 219.65 211.35 219.65C206.826 219.65 202.486 217.853 199.287 214.653C196.087 211.454 194.29 207.115 194.29 202.59C194.29 202.04 194.29 201.5 194.37 200.96C169.94 205.22 152.11 218.63 152.11 234.51C152.11 253.82 178.48 269.51 211 269.51C243.52 269.51 269.9 253.86 269.9 234.51C269.9 218.78 252.4 205.48 228.34 201.08Z" fill="#E36868"/>
<path d="M194.37 200.96C169.94 205.22 152.11 218.63 152.11 234.51C152.11 252.32 174.54 267 203.54 269.18C198.04 247.12 194.29 209.18 194.29 202.59C194.29 202.04 194.32 201.5 194.37 200.96Z" fill="#252E3D"/>
<path d="M269.9 234.51C269.9 218.78 252.4 205.51 228.34 201.08C228.34 201.58 228.41 202.08 228.41 202.59C228.41 209.19 224.65 247.06 219.17 269.13C247.83 266.77 269.9 252.14 269.9 234.51Z" fill="#252E3D"/>
</g>
<rect x="133" y="139" width="32" height="32" rx="16" fill="white"/>
<g clip-path="url(#clip0_119_2470)">
<path fill-rule="evenodd" clip-rule="evenodd" d="M142.028 145.972L138.017 154.469C138.002 154.5 137.997 154.536 138.003 154.57C138.009 154.605 138.027 154.637 138.052 154.661L148.886 165.129C148.917 165.159 148.957 165.175 149 165.175C149.043 165.175 149.084 165.159 149.115 165.129L159.948 154.661C159.974 154.637 159.991 154.606 159.997 154.571C160.003 154.536 159.999 154.501 159.983 154.469L155.972 145.973C155.959 145.944 155.938 145.92 155.912 145.903C155.886 145.886 155.855 145.877 155.824 145.877H142.177C142.146 145.877 142.115 145.886 142.089 145.902C142.063 145.919 142.041 145.943 142.028 145.972Z" fill="#50AF95"/>
<path fill-rule="evenodd" clip-rule="evenodd" d="M150.392 155.341C150.314 155.347 149.913 155.371 149.016 155.371C148.303 155.371 147.797 155.35 147.619 155.341C144.864 155.219 142.808 154.735 142.808 154.156C142.808 153.577 144.864 153.094 147.619 152.97V154.859C147.8 154.872 148.315 154.903 149.028 154.903C149.884 154.903 150.312 154.867 150.39 154.86V152.971C153.139 153.095 155.191 153.578 155.191 154.156C155.191 154.734 153.14 155.218 150.39 155.34L150.392 155.341ZM150.392 152.776V151.085H154.229V148.507H143.782V151.085H147.619V152.775C144.501 152.92 142.156 153.542 142.156 154.289C142.156 155.035 144.501 155.657 147.619 155.803V161.221H150.392V155.801C153.503 155.656 155.844 155.034 155.844 154.288C155.844 153.542 153.505 152.92 150.392 152.775L150.392 152.776Z" fill="white"/>
</g>
<rect x="257" y="174" width="32" height="32" rx="16" fill="white"/>
<g clip-path="url(#clip1_119_2470)">
<path d="M273 202C279.65 202 285 196.65 285 190C285 183.35 279.65 178 273 178C266.35 178 261 183.35 261 190C261 196.65 266.35 202 273 202Z" fill="#2775CA"/>
<path d="M276.3 191.9C276.3 190.15 275.25 189.55 273.15 189.3C271.65 189.1 271.35 188.7 271.35 188C271.35 187.3 271.85 186.85 272.85 186.85C273.75 186.85 274.25 187.15 274.5 187.9C274.55 188.05 274.7 188.15 274.85 188.15H275.65C275.85 188.15 276 188 276 187.8V187.75C275.8 186.65 274.9 185.8 273.75 185.7V184.5C273.75 184.3 273.6 184.15 273.35 184.1H272.6C272.4 184.1 272.25 184.25 272.2 184.5V185.65C270.7 185.85 269.75 186.85 269.75 188.1C269.75 189.75 270.75 190.4 272.85 190.65C274.25 190.9 274.7 191.2 274.7 192C274.7 192.8 274 193.35 273.05 193.35C271.75 193.35 271.3 192.8 271.15 192.05C271.1 191.85 270.95 191.75 270.8 191.75H269.95C269.75 191.75 269.6 191.9 269.6 192.1V192.15C269.8 193.4 270.6 194.3 272.25 194.55V195.75C272.25 195.95 272.4 196.1 272.65 196.15H273.4C273.6 196.15 273.75 196 273.8 195.75V194.55C275.3 194.3 276.3 193.25 276.3 191.9V191.9Z" fill="white"/>
<path d="M270.45 197.15C266.55 195.75 264.55 191.4 266 187.55C266.75 185.45 268.4 183.85 270.45 183.1C270.65 183 270.75 182.85 270.75 182.6V181.9C270.75 181.7 270.65 181.55 270.45 181.5C270.4 181.5 270.3 181.5 270.25 181.55C265.5 183.05 262.9 188.1 264.4 192.85C265.3 195.65 267.45 197.8 270.25 198.7C270.45 198.8 270.65 198.7 270.7 198.5C270.75 198.45 270.75 198.4 270.75 198.3V197.6C270.75 197.45 270.6 197.25 270.45 197.15ZM275.75 181.55C275.55 181.45 275.35 181.55 275.3 181.75C275.25 181.8 275.25 181.85 275.25 181.95V182.65C275.25 182.85 275.4 183.05 275.55 183.15C279.45 184.55 281.45 188.9 280 192.75C279.25 194.85 277.6 196.45 275.55 197.2C275.35 197.3 275.25 197.45 275.25 197.7V198.4C275.25 198.6 275.35 198.75 275.55 198.8C275.6 198.8 275.7 198.8 275.75 198.75C280.5 197.25 283.1 192.2 281.6 187.45C280.7 184.6 278.5 182.45 275.75 181.55V181.55Z" fill="white"/>
</g>
<rect x="243" y="82" width="32" height="32" rx="16" fill="white"/>
<path fill-rule="evenodd" clip-rule="evenodd" d="M263.69 96.3413L263.69 96.3421C264.506 97.3652 264.993 98.661 264.993 100.07C264.993 101.501 264.491 102.814 263.653 103.844L263.581 103.933L263.562 103.82C263.546 103.724 263.526 103.628 263.504 103.53C263.085 101.687 261.719 100.107 259.47 98.8282C257.951 97.9666 257.082 96.9292 256.854 95.7506C256.706 94.9884 256.816 94.2229 257.028 93.5672C257.239 92.9117 257.554 92.3625 257.822 92.0318L258.697 90.9619C258.85 90.7744 259.137 90.7744 259.291 90.9619L263.69 96.3413ZM265.074 95.2725L259.21 88.1027C259.099 87.9658 258.889 87.9658 258.777 88.1027L252.914 95.2722L252.895 95.2963C251.816 96.6352 251.17 98.3367 251.17 100.189C251.17 104.503 254.673 108 258.994 108C263.315 108 266.818 104.503 266.818 100.189C266.818 98.3367 266.172 96.6352 265.093 95.2963L265.074 95.2725ZM254.316 96.3182L254.841 95.6766L254.857 95.7949C254.87 95.8887 254.885 95.983 254.903 96.0777C255.242 97.8581 256.454 99.3427 258.481 100.492C260.243 101.495 261.269 102.648 261.564 103.913C261.687 104.44 261.709 104.96 261.656 105.413L261.653 105.442L261.627 105.454C260.832 105.842 259.938 106.06 258.994 106.06C255.68 106.06 252.994 103.379 252.994 100.07C252.994 98.65 253.489 97.3449 254.316 96.3182Z" fill="#3898EC"/>
<path d="M963.136 306.14C963.136 306.86 962.956 307.527 962.596 308.14C962.236 308.74 961.703 309.227 960.996 309.6C960.29 309.96 959.43 310.14 958.416 310.14C957.416 310.14 956.523 309.973 955.736 309.64C954.95 309.293 954.316 308.8 953.836 308.16C953.37 307.52 953.103 306.773 953.036 305.92H956.036C956.103 306.493 956.33 306.973 956.716 307.36C957.116 307.733 957.643 307.92 958.296 307.92C958.883 307.92 959.33 307.767 959.636 307.46C959.956 307.14 960.116 306.733 960.116 306.24C960.116 305.8 959.99 305.44 959.736 305.16C959.483 304.867 959.163 304.633 958.776 304.46C958.39 304.287 957.856 304.087 957.176 303.86C956.296 303.567 955.576 303.28 955.016 303C954.456 302.707 953.976 302.287 953.576 301.74C953.19 301.193 952.996 300.48 952.996 299.6C952.996 298.387 953.43 297.433 954.296 296.74C955.176 296.033 956.336 295.68 957.776 295.68C959.27 295.68 960.456 296.04 961.336 296.76C962.23 297.48 962.736 298.44 962.856 299.64H959.816C959.736 299.133 959.523 298.72 959.176 298.4C958.83 298.067 958.356 297.9 957.756 297.9C957.236 297.9 956.816 298.04 956.496 298.32C956.176 298.587 956.016 298.98 956.016 299.5C956.016 299.913 956.136 300.26 956.376 300.54C956.63 300.807 956.943 301.027 957.316 301.2C957.703 301.373 958.223 301.567 958.876 301.78C959.783 302.1 960.516 302.4 961.076 302.68C961.65 302.96 962.136 303.38 962.536 303.94C962.936 304.5 963.136 305.233 963.136 306.14ZM970.194 298.78C971.62 298.78 972.807 299.167 973.754 299.94C974.714 300.713 975.314 301.767 975.554 303.1H972.574C972.454 302.513 972.18 302.053 971.754 301.72C971.327 301.373 970.787 301.2 970.134 301.2C969.387 301.2 968.76 301.48 968.254 302.04C967.76 302.587 967.514 303.393 967.514 304.46C967.514 305.527 967.76 306.34 968.254 306.9C968.76 307.447 969.387 307.72 970.134 307.72C970.787 307.72 971.327 307.553 971.754 307.22C972.18 306.873 972.454 306.407 972.574 305.82H975.554C975.314 307.153 974.714 308.207 973.754 308.98C972.807 309.753 971.62 310.14 970.194 310.14C969.114 310.14 968.154 309.913 967.314 309.46C966.474 308.993 965.82 308.333 965.354 307.48C964.887 306.627 964.654 305.62 964.654 304.46C964.654 303.3 964.887 302.293 965.354 301.44C965.82 300.573 966.474 299.913 967.314 299.46C968.154 299.007 969.114 298.78 970.194 298.78ZM981.897 298.78C982.831 298.78 983.631 299 984.297 299.44C984.964 299.88 985.437 300.473 985.717 301.22V298.92H988.517V310H985.717V307.68C985.437 308.427 984.964 309.027 984.297 309.48C983.631 309.92 982.831 310.14 981.897 310.14C980.964 310.14 980.124 309.913 979.377 309.46C978.631 309.007 978.044 308.353 977.617 307.5C977.204 306.633 976.997 305.62 976.997 304.46C976.997 303.3 977.204 302.293 977.617 301.44C978.044 300.573 978.631 299.913 979.377 299.46C980.124 299.007 980.964 298.78 981.897 298.78ZM982.777 301.24C981.897 301.24 981.191 301.527 980.657 302.1C980.124 302.673 979.857 303.46 979.857 304.46C979.857 305.46 980.124 306.247 980.657 306.82C981.191 307.38 981.897 307.66 982.777 307.66C983.631 307.66 984.331 307.373 984.877 306.8C985.437 306.213 985.717 305.433 985.717 304.46C985.717 303.473 985.437 302.693 984.877 302.12C984.331 301.533 983.631 301.24 982.777 301.24ZM993.893 295.2V310H991.073V295.2H993.893ZM999.264 295.2V310H996.444V295.2H999.264ZM1006.94 298.78C1008.02 298.78 1008.98 299.007 1009.84 299.46C1010.7 299.913 1011.38 300.573 1011.88 301.44C1012.37 302.293 1012.62 303.3 1012.62 304.46C1012.62 305.62 1012.37 306.627 1011.88 307.48C1011.38 308.333 1010.7 308.993 1009.84 309.46C1008.98 309.913 1008.02 310.14 1006.94 310.14C1005.86 310.14 1004.88 309.913 1004.02 309.46C1003.16 308.993 1002.49 308.333 1002 307.48C1001.5 306.627 1001.26 305.62 1001.26 304.46C1001.26 303.3 1001.5 302.293 1002 301.44C1002.49 300.573 1003.16 299.913 1004.02 299.46C1004.88 299.007 1005.86 298.78 1006.94 298.78ZM1006.94 301.22C1006.15 301.22 1005.48 301.5 1004.94 302.06C1004.39 302.607 1004.12 303.407 1004.12 304.46C1004.12 305.513 1004.39 306.32 1004.94 306.88C1005.48 307.427 1006.15 307.7 1006.94 307.7C1007.72 307.7 1008.39 307.427 1008.94 306.88C1009.48 306.32 1009.76 305.513 1009.76 304.46C1009.76 303.407 1009.48 302.607 1008.94 302.06C1008.39 301.5 1007.72 301.22 1006.94 301.22ZM1021.23 298.78C1022.16 298.78 1023 299.007 1023.75 299.46C1024.49 299.913 1025.07 300.573 1025.49 301.44C1025.91 302.293 1026.13 303.3 1026.13 304.46C1026.13 305.62 1025.91 306.633 1025.49 307.5C1025.07 308.353 1024.49 309.007 1023.75 309.46C1023 309.913 1022.16 310.14 1021.23 310.14C1020.29 310.14 1019.49 309.92 1018.83 309.48C1018.17 309.027 1017.71 308.427 1017.43 307.68V315.28H1014.61V298.92H1017.43V301.22C1017.71 300.473 1018.17 299.88 1018.83 299.44C1019.49 299 1020.29 298.78 1021.23 298.78ZM1020.35 301.24C1019.49 301.24 1018.79 301.533 1018.23 302.12C1017.68 302.693 1017.41 303.473 1017.41 304.46C1017.41 305.433 1017.68 306.213 1018.23 306.8C1018.79 307.373 1019.49 307.66 1020.35 307.66C1021.23 307.66 1021.93 307.38 1022.47 306.82C1023 306.247 1023.27 305.46 1023.27 304.46C1023.27 303.46 1023 302.673 1022.47 302.1C1021.93 301.527 1021.23 301.24 1020.35 301.24Z" fill="white"/>
<rect x="937" y="278" width="105" height="50" rx="7" stroke="white" stroke-width="2"/>
<path d="M989.044 266C1039.33 266 1080.09 225.258 1080.09 175C1080.09 124.742 1039.33 84 989.044 84C938.762 84 898 124.742 898 175C898 225.258 938.762 266 989.044 266Z" fill="#ECD1C4"/>
<path d="M1043.44 152.151C1048.73 147.432 1054.4 139.691 1051.56 135.915C1048.73 132.139 1034.19 132.139 1029.27 133.083C1022.66 126.853 1015.86 119.867 998.107 124.21C994.519 120.056 986.585 114.581 983.563 115.902C977.707 118.357 975.252 131.761 975.252 131.761C958.819 136.104 942.574 144.6 938.419 146.865C930.863 150.83 923.119 158.759 925.952 170.276C918.963 176.695 917.452 205.203 938.419 211.056C946.919 223.328 954.285 222.761 963.73 222.573C966.752 229.936 977.896 238.998 993.574 229.369C1004.15 231.635 1017 232.201 1026.82 222.195C1040.23 221.817 1056.66 209.923 1052.13 190.288C1060.63 178.772 1044.76 154.606 1043.44 152.151Z" fill="#070406"/>
<path d="M1024.74 220.495L1024.55 220.868L1024.74 220.495Z" fill="white"/>
<path d="M1050.43 173.486C1039.66 144.977 1023.98 129.496 1015.3 126.853C1005.66 123.832 996.029 127.608 973.929 135.16C950.507 143.089 934.262 149.886 930.107 159.704C925.951 169.332 933.696 181.226 942.951 183.303C942.951 182.17 942.951 180.849 943.14 179.716C943.329 178.017 946.351 164.801 961.651 158.948C952.396 164.046 940.873 177.262 947.296 189.345C950.696 193.498 956.173 196.708 965.429 194.253C965.996 182.359 975.629 167.067 987.718 157.06C979.596 166.5 969.773 179.716 968.451 192.177C968.262 193.121 968.262 197.652 970.718 200.861C978.462 208.036 992.818 211.056 1001.7 201.239C1010.57 190.289 1008.5 170.087 1007.17 159.704C1011.14 173.675 1011.71 189.722 1005.47 200.106C1010.57 205.392 1020.02 206.148 1028.52 199.351C1034.18 186.135 1034 169.332 1022.47 153.851C1034.37 168.011 1035.51 179.716 1031.92 197.841C1043.06 194.631 1056.1 191.421 1050.43 173.486Z" fill="#ADB2C1"/>
<path d="M938.988 196.709C933.699 195.199 925.199 188.213 925.388 178.962C924.065 184.437 922.365 202.939 940.31 208.792C938.421 205.016 938.421 200.485 938.988 196.709Z" fill="#ADB2C1"/>
<path d="M962.029 209.358C955.607 209.736 943.896 204.072 942.385 196.709C940.685 198.786 938.418 206.715 943.329 212.946C949.563 220.498 955.796 220.498 964.674 219.931C962.785 216.722 961.84 213.134 962.029 209.358Z" fill="#ADB2C1"/>
<path d="M1027.76 211.244C1023.42 215.964 1011.52 218.984 1000.94 214.076C1000.75 217.096 997.35 223.893 993.95 226.725C1000.94 228.235 1014.35 231.256 1024.55 221.25C1026.44 218.04 1027.57 214.642 1027.76 211.244Z" fill="#ADB2C1"/>
<path d="M964.107 209.548C963.729 213.324 964.107 217.289 965.429 220.876C968.262 226.728 977.896 236.168 992.818 227.106C996.595 223.896 997.54 218.799 997.54 215.212C990.551 220.498 970.151 220.12 964.107 209.548Z" fill="#ADB2C1"/>
<path d="M1030.03 210.299C1030.03 212.376 1029.27 215.585 1025.68 219.55C1038.34 219.361 1047.78 210.677 1049.67 201.803C1045.71 207.845 1037.02 211.432 1030.03 210.299Z" fill="#ADB2C1"/>
<path d="M965.432 220.876L965.243 220.12L965.432 220.876Z" fill="white"/>
<path d="M965.243 219.931C965.054 219.365 964.865 218.987 964.865 218.421C964.865 218.798 965.054 219.365 965.243 219.931Z" fill="white"/>
<path d="M993.008 226.915C994.141 225.971 995.274 224.838 995.841 223.516C995.086 224.838 994.141 225.971 993.008 226.915Z" fill="#717071"/>
<path d="M924.817 189.913C925.573 197.088 929.351 205.395 940.306 208.982C939.551 207.472 939.173 205.961 938.984 204.451C930.106 204.262 925.762 194.256 924.817 189.913Z" fill="#868C98"/>
<path d="M940.499 205.582C940.688 208.225 941.632 210.868 943.332 212.945C949.566 220.497 955.799 220.497 964.677 219.93C964.11 218.986 963.732 217.854 963.355 216.91C946.921 218.986 942.199 210.113 940.499 205.582Z" fill="#868C98"/>
<path d="M995.648 223.517C995.648 223.328 995.837 223.328 995.837 223.139C992.248 225.971 988.47 228.237 980.348 227.859C970.526 227.104 965.804 222.195 964.481 217.286C964.481 217.664 964.67 217.853 964.67 218.042V218.23C964.859 218.797 965.048 219.363 965.048 219.741V219.93L965.237 220.685C968.07 226.537 977.704 235.977 992.626 226.915C994.137 225.971 995.081 224.838 995.648 223.517Z" fill="#868C98"/>
<path d="M1024.36 221.062C1025.12 219.93 1025.87 218.608 1026.44 217.286C1015.29 228.237 1000.37 224.838 997.161 222.761C996.216 224.083 995.083 225.405 993.95 226.537C1000.75 228.237 1014.16 231.068 1024.36 221.062Z" fill="#868C98"/>
<path d="M1028.14 216.531C1027.38 217.664 1026.63 218.797 1025.68 219.741C1036.07 219.552 1044.2 213.888 1047.78 206.714C1044.01 214.077 1031.54 216.909 1028.14 216.531Z" fill="#868C98"/>
<path d="M927.466 173.673C926.711 174.805 926.144 176.127 925.766 177.449C925.389 183.112 933.322 196.139 943.333 194.818C943.711 202.181 957.689 210.299 963.922 206.712C968.266 217.096 990.933 219.928 999.811 211.243C1005.1 216.152 1024.18 215.585 1028.14 207.656C1034.19 210.866 1047.41 205.202 1050.06 198.405C1050.43 196.706 1050.24 194.818 1049.87 193.119C1047.03 196.517 1037.97 203.314 1030.79 200.859C1025.5 205.768 1013.41 210.488 1003.97 202.747C993.2 216.341 968.077 208.978 965.811 197.272C958.822 199.16 945.411 198.594 942.577 186.322C940.311 185.567 932.755 184.245 927.466 173.673Z" fill="#192444"/>
<path d="M978.836 130.628C982.614 129.117 990.548 126.663 995.27 125.341C992.625 122.509 986.581 118.356 984.881 118.733C982.425 119.3 979.592 126.663 978.836 130.628Z" fill="white"/>
<path d="M1031.72 135.726C1035.5 140.069 1038.9 144.789 1042.11 149.697C1045.7 146.677 1050.8 138.747 1049.29 137.614C1046.27 135.349 1035.5 135.16 1031.72 135.726Z" fill="white"/>
<path d="M972.235 135.918L971.479 136.295L971.102 136.484L970.346 136.862L969.779 136.673L968.646 137.051L967.513 137.428L967.135 137.617L966.379 137.995L966.002 138.183L965.246 138.561L964.868 138.75L962.224 139.316L961.846 139.505L961.09 139.883L960.713 140.071L959.957 140.449L959.579 140.638L958.446 141.015L957.313 141.393L956.935 141.582H956.557L956.179 141.771L955.424 142.148L955.046 142.337L953.157 143.092H952.779L952.024 143.47L951.646 143.658L950.89 144.036V143.847L949.002 144.602L948.813 144.791L948.246 145.169L947.868 145.358L947.113 145.546L946.924 145.735L945.224 146.679L945.035 146.868L944.468 147.246L944.279 147.434L943.713 147.812L943.335 147.623C942.768 147.812 942.39 148.19 941.824 148.378L941.635 148.567L941.068 148.945L940.879 149.134L940.313 149.511L940.124 149.7L939.557 149.889C948.813 145.546 980.735 133.841 996.79 145.735C1012.85 157.629 1033.62 143.658 1022.67 131.198C1020.4 129.499 1017.95 127.988 1015.3 127.044C1005.67 124.024 996.035 127.8 973.935 135.351L972.613 135.729L972.235 135.918Z" fill="white"/>
<path d="M976.382 168.766C967.126 180.472 964.671 189.345 958.815 190.289C954.282 191.044 948.804 191.611 945.215 185.003C945.404 186.702 945.971 188.212 946.726 189.723C950.126 193.876 955.604 197.086 964.86 194.631C965.615 186.513 969.96 177.073 976.382 168.766Z" fill="#868C98"/>
<path d="M968.642 196.519C969.02 198.03 969.587 199.54 970.531 200.673C978.275 207.847 992.631 210.868 1001.51 201.05C1006.42 195.009 1007.93 185.947 1008.12 177.262C1002.45 207.847 973.175 209.357 968.642 196.519Z" fill="#868C98"/>
<path d="M1029.09 197.65L1029.46 196.895C1029.46 196.706 1029.65 196.517 1029.65 196.329L1029.84 195.573L1030.03 195.007C1030.03 194.818 1030.22 194.629 1030.22 194.252C1030.22 193.874 1030.41 193.874 1030.41 193.685C1030.41 193.497 1030.6 193.308 1030.6 192.93L1030.79 192.364C1030.79 192.175 1030.97 191.986 1030.97 191.609C1030.97 191.231 1030.97 191.231 1031.16 191.042C1031.16 190.854 1031.16 190.665 1031.35 190.287C1031.35 190.098 1031.35 189.91 1031.54 189.721C1031.54 189.532 1031.54 189.343 1031.73 189.154C1031.73 188.966 1031.73 188.777 1031.92 188.588C1031.92 188.399 1031.92 188.21 1031.92 188.022C1031.92 187.455 1032.11 186.889 1032.11 186.511V186.134C1032.11 185.945 1032.11 185.567 1032.11 185.378C1032.11 185.001 1032.11 185.001 1032.11 184.812C1032.11 184.623 1031.73 184.057 1031.73 184.057V183.49V182.735V182.169V181.414V181.036V180.092V179.715L1032.49 178.771V178.393L1031.73 177.26V177.071C1031.73 177.071 1031.54 173.673 1031.16 171.974C1031.16 171.596 1030.97 171.219 1030.79 170.841V170.652C1030.6 170.275 1030.6 169.897 1030.41 169.52V169.331C1030.22 168.953 1030.22 168.576 1030.03 168.198V168.009C1029.84 167.632 1029.84 167.254 1029.65 166.876V166.688C1029.46 166.31 1029.27 165.932 1029.27 165.555C1028.33 163.289 1027.2 161.024 1026.06 158.947C1032.3 174.995 1030.97 194.441 1020.59 199.916C1016.81 201.993 1011.52 203.125 1006.23 199.916C1006.04 200.105 1006.04 200.482 1005.85 200.671C1010.95 205.957 1020.4 206.712 1028.9 199.916C1029.09 199.538 1029.27 199.161 1029.46 198.783L1029.09 197.65Z" fill="#868C98"/>
<path d="M1050.42 173.486C1045.32 159.892 1039.09 149.32 1033.05 141.768C1043.44 161.591 1049.48 175.562 1045.14 185.569C1043.44 188.967 1041.17 193.498 1033.42 195.575C1033.24 195.575 1032.67 195.575 1032.67 195.575C1032.48 196.141 1032.29 196.896 1032.1 197.652C1036.64 200.483 1057.41 192.365 1050.42 173.486Z" fill="#868C98"/>
<path d="M1047.78 142.332C1041.17 145.731 1034.56 137.801 1031.72 135.536C1035.5 139.878 1038.9 144.598 1042.11 149.506C1044.38 147.43 1046.27 144.975 1047.78 142.332Z" fill="#868C98"/>
<path d="M950.318 166.311C941.251 175.562 935.018 177.261 930.673 173.674C933.129 178.583 937.662 182.548 942.573 183.492C942.573 182.359 942.573 181.037 942.762 179.904C944.084 174.807 946.54 170.087 950.318 166.311Z" fill="#868C98"/>
<path d="M353 138.588C351.667 137.819 351.667 135.894 353 135.124L371 124.732C372.333 123.962 374 124.924 374 126.464L374 147.249C374 148.788 372.333 149.751 371 148.981L353 138.588Z" fill="white"/>
<rect x="367" y="134" width="483" height="5" rx="2.5" fill="white"/>
<rect x="562" y="121" width="77" height="32" rx="4" fill="white"/>
<path d="M572.929 131.72V143H571.473V131.72H572.929ZM579.894 134.072C580.918 134.072 581.744 134.403 582.374 135.064C583.003 135.715 583.318 136.659 583.318 137.896V143H581.862V138.024C581.862 137.149 581.638 136.477 581.19 136.008C580.742 135.539 580.134 135.304 579.366 135.304C578.566 135.304 577.926 135.565 577.446 136.088C576.966 136.6 576.726 137.352 576.726 138.344V143H575.27V134.216H576.726V136.296C576.95 135.581 577.344 135.032 577.91 134.648C578.486 134.264 579.147 134.072 579.894 134.072ZM589.743 141.72V143H588.655C587.759 143 587.087 142.787 586.639 142.36C586.201 141.933 585.983 141.219 585.983 140.216V135.48H584.671V134.216H585.983V132.024H587.455V134.216H589.727V135.48H587.455V140.248C587.455 140.813 587.556 141.203 587.759 141.416C587.972 141.619 588.335 141.72 588.847 141.72H589.743ZM599.6 138.12C599.6 138.429 599.578 138.696 599.536 138.92H592.512C592.544 139.923 592.826 140.675 593.36 141.176C593.904 141.677 594.565 141.928 595.344 141.928C596.048 141.928 596.634 141.752 597.104 141.4C597.584 141.037 597.877 140.557 597.984 139.96H599.536C599.429 140.568 599.189 141.112 598.816 141.592C598.453 142.072 597.978 142.445 597.392 142.712C596.805 142.979 596.144 143.112 595.408 143.112C594.565 143.112 593.818 142.931 593.168 142.568C592.517 142.205 592.005 141.688 591.632 141.016C591.269 140.333 591.088 139.533 591.088 138.616C591.088 137.699 591.269 136.899 591.632 136.216C592.005 135.533 592.517 135.011 593.168 134.648C593.818 134.285 594.565 134.104 595.408 134.104C596.261 134.104 597.002 134.285 597.632 134.648C598.272 135.011 598.757 135.496 599.088 136.104C599.429 136.712 599.6 137.384 599.6 138.12ZM598.128 138.216C598.16 137.565 598.053 137.021 597.808 136.584C597.562 136.147 597.226 135.821 596.8 135.608C596.373 135.395 595.909 135.288 595.408 135.288C594.608 135.288 593.936 135.539 593.392 136.04C592.848 136.531 592.554 137.256 592.512 138.216H598.128ZM602.96 135.992C603.248 135.384 603.669 134.915 604.224 134.584C604.779 134.243 605.44 134.072 606.208 134.072V135.656H605.76C604.939 135.656 604.267 135.869 603.744 136.296C603.221 136.712 602.96 137.405 602.96 138.376V143H601.504V134.216H602.96V135.992ZM615.725 138.12C615.725 138.429 615.703 138.696 615.661 138.92H608.637C608.669 139.923 608.951 140.675 609.485 141.176C610.029 141.677 610.69 141.928 611.469 141.928C612.173 141.928 612.759 141.752 613.229 141.4C613.709 141.037 614.002 140.557 614.109 139.96H615.661C615.554 140.568 615.314 141.112 614.941 141.592C614.578 142.072 614.103 142.445 613.517 142.712C612.93 142.979 612.269 143.112 611.533 143.112C610.69 143.112 609.943 142.931 609.293 142.568C608.642 142.205 608.13 141.688 607.757 141.016C607.394 140.333 607.213 139.533 607.213 138.616C607.213 137.699 607.394 136.899 607.757 136.216C608.13 135.533 608.642 135.011 609.293 134.648C609.943 134.285 610.69 134.104 611.533 134.104C612.386 134.104 613.127 134.285 613.757 134.648C614.397 135.011 614.882 135.496 615.213 136.104C615.554 136.712 615.725 137.384 615.725 138.12ZM614.253 138.216C614.285 137.565 614.178 137.021 613.933 136.584C613.687 136.147 613.351 135.821 612.925 135.608C612.498 135.395 612.034 135.288 611.533 135.288C610.733 135.288 610.061 135.539 609.517 136.04C608.973 136.531 608.679 137.256 608.637 138.216H614.253ZM620.381 134.104C621.373 134.104 622.168 134.365 622.765 134.888C623.373 135.4 623.741 136.093 623.869 136.968H622.477C622.413 136.445 622.194 136.019 621.821 135.688C621.458 135.347 620.968 135.176 620.349 135.176C619.826 135.176 619.416 135.304 619.117 135.56C618.829 135.805 618.685 136.141 618.685 136.568C618.685 136.888 618.781 137.149 618.973 137.352C619.176 137.544 619.421 137.693 619.709 137.8C620.008 137.896 620.413 138.003 620.925 138.12C621.576 138.269 622.098 138.424 622.493 138.584C622.898 138.733 623.24 138.979 623.517 139.32C623.805 139.661 623.949 140.12 623.949 140.696C623.949 141.411 623.677 141.992 623.133 142.44C622.6 142.888 621.885 143.112 620.989 143.112C619.944 143.112 619.09 142.861 618.429 142.36C617.768 141.859 617.378 141.16 617.261 140.264H618.669C618.722 140.797 618.952 141.229 619.357 141.56C619.773 141.891 620.317 142.056 620.989 142.056C621.49 142.056 621.88 141.928 622.157 141.672C622.445 141.416 622.589 141.08 622.589 140.664C622.589 140.323 622.488 140.051 622.285 139.848C622.082 139.645 621.832 139.491 621.533 139.384C621.234 139.277 620.824 139.165 620.301 139.048C619.65 138.899 619.128 138.749 618.733 138.6C618.349 138.451 618.018 138.216 617.741 137.896C617.474 137.565 617.341 137.123 617.341 136.568C617.341 135.832 617.613 135.24 618.157 134.792C618.701 134.333 619.442 134.104 620.381 134.104ZM630.087 141.72V143H628.999C628.103 143 627.431 142.787 626.983 142.36C626.545 141.933 626.327 141.219 626.327 140.216V135.48H625.015V134.216H626.327V132.024H627.799V134.216H630.071V135.48H627.799V140.248C627.799 140.813 627.9 141.203 628.103 141.416C628.316 141.619 628.679 141.72 629.191 141.72H630.087Z" fill="#334664"/>
<path d="M353 200.588C351.667 199.819 351.667 197.894 353 197.124L371 186.732C372.333 185.962 374 186.924 374 188.464L374 209.249C374 210.788 372.333 211.751 371 210.981L353 200.588Z" fill="#9CD0DD"/>
<path d="M847 200.588C848.333 199.819 848.333 197.894 847 197.124L829 186.732C827.667 185.962 826 186.924 826 188.464L826 209.249C826 210.788 827.667 211.751 829 210.981L847 200.588Z" fill="#9CD0DD"/>
<rect x="374" y="195.856" width="452" height="5" fill="#9CD0DD"/>
<rect x="428" y="183" width="77" height="32" rx="4" fill="#9CD0DD"/>
<path d="M446.899 199.352C446.899 200.493 446.669 201.491 446.211 202.344C445.752 203.187 445.075 203.843 444.179 204.312C443.293 204.771 442.227 205 440.979 205H437.395V193.72H440.979C442.227 193.72 443.293 193.949 444.179 194.408C445.075 194.856 445.752 195.507 446.211 196.36C446.669 197.203 446.899 198.2 446.899 199.352ZM440.867 203.688C442.339 203.688 443.464 203.309 444.243 202.552C445.021 201.795 445.411 200.728 445.411 199.352C445.411 197.976 445.021 196.909 444.243 196.152C443.475 195.384 442.349 195 440.867 195H438.851V203.688H440.867ZM456.943 200.12C456.943 200.429 456.922 200.696 456.879 200.92H449.855C449.887 201.923 450.17 202.675 450.703 203.176C451.247 203.677 451.909 203.928 452.687 203.928C453.391 203.928 453.978 203.752 454.447 203.4C454.927 203.037 455.221 202.557 455.327 201.96H456.879C456.773 202.568 456.533 203.112 456.159 203.592C455.797 204.072 455.322 204.445 454.735 204.712C454.149 204.979 453.487 205.112 452.751 205.112C451.909 205.112 451.162 204.931 450.511 204.568C449.861 204.205 449.349 203.688 448.975 203.016C448.613 202.333 448.431 201.533 448.431 200.616C448.431 199.699 448.613 198.899 448.975 198.216C449.349 197.533 449.861 197.011 450.511 196.648C451.162 196.285 451.909 196.104 452.751 196.104C453.605 196.104 454.346 196.285 454.975 196.648C455.615 197.011 456.101 197.496 456.431 198.104C456.773 198.712 456.943 199.384 456.943 200.12ZM455.471 200.216C455.503 199.565 455.397 199.021 455.151 198.584C454.906 198.147 454.57 197.821 454.143 197.608C453.717 197.395 453.253 197.288 452.751 197.288C451.951 197.288 451.279 197.539 450.735 198.04C450.191 198.531 449.898 199.256 449.855 200.216H455.471ZM463.696 196.104C464.474 196.104 465.168 196.285 465.776 196.648C466.384 197.011 466.858 197.533 467.2 198.216C467.552 198.899 467.728 199.699 467.728 200.616C467.728 201.533 467.552 202.333 467.2 203.016C466.858 203.688 466.384 204.205 465.776 204.568C465.168 204.931 464.474 205.112 463.696 205.112C462.842 205.112 462.117 204.899 461.52 204.472C460.933 204.035 460.528 203.464 460.304 202.76V209.16H458.848V196.216H460.304V198.456C460.528 197.752 460.933 197.187 461.52 196.76C462.117 196.323 462.842 196.104 463.696 196.104ZM463.28 197.4C462.714 197.4 462.202 197.533 461.744 197.8C461.285 198.056 460.928 198.429 460.672 198.92C460.416 199.411 460.288 199.976 460.288 200.616C460.288 201.256 460.416 201.821 460.672 202.312C460.928 202.792 461.285 203.165 461.744 203.432C462.202 203.699 462.714 203.832 463.28 203.832C464.186 203.832 464.906 203.549 465.44 202.984C465.984 202.408 466.256 201.619 466.256 200.616C466.256 199.613 465.984 198.829 465.44 198.264C464.906 197.688 464.186 197.4 463.28 197.4ZM473.613 196.104C474.456 196.104 475.208 196.285 475.869 196.648C476.541 197.011 477.064 197.533 477.437 198.216C477.821 198.899 478.013 199.699 478.013 200.616C478.013 201.533 477.821 202.333 477.437 203.016C477.064 203.688 476.541 204.205 475.869 204.568C475.208 204.931 474.456 205.112 473.613 205.112C472.77 205.112 472.013 204.931 471.341 204.568C470.68 204.205 470.157 203.688 469.773 203.016C469.389 202.333 469.197 201.533 469.197 200.616C469.197 199.699 469.389 198.899 469.773 198.216C470.157 197.533 470.68 197.011 471.341 196.648C472.013 196.285 472.77 196.104 473.613 196.104ZM473.613 197.384C473.09 197.384 472.605 197.501 472.157 197.736C471.72 197.971 471.362 198.333 471.085 198.824C470.818 199.304 470.685 199.901 470.685 200.616C470.685 201.32 470.818 201.917 471.085 202.408C471.362 202.888 471.72 203.245 472.157 203.48C472.605 203.715 473.09 203.832 473.613 203.832C474.136 203.832 474.616 203.715 475.053 203.48C475.501 203.245 475.858 202.888 476.125 202.408C476.402 201.917 476.541 201.32 476.541 200.616C476.541 199.901 476.402 199.304 476.125 198.824C475.858 198.333 475.501 197.971 475.053 197.736C474.616 197.501 474.136 197.384 473.613 197.384ZM482.662 196.104C483.654 196.104 484.449 196.365 485.046 196.888C485.654 197.4 486.022 198.093 486.15 198.968H484.758C484.694 198.445 484.476 198.019 484.102 197.688C483.74 197.347 483.249 197.176 482.63 197.176C482.108 197.176 481.697 197.304 481.398 197.56C481.11 197.805 480.966 198.141 480.966 198.568C480.966 198.888 481.062 199.149 481.254 199.352C481.457 199.544 481.702 199.693 481.99 199.8C482.289 199.896 482.694 200.003 483.206 200.12C483.857 200.269 484.38 200.424 484.774 200.584C485.18 200.733 485.521 200.979 485.798 201.32C486.086 201.661 486.23 202.12 486.23 202.696C486.23 203.411 485.958 203.992 485.414 204.44C484.881 204.888 484.166 205.112 483.27 205.112C482.225 205.112 481.372 204.861 480.71 204.36C480.049 203.859 479.66 203.16 479.542 202.264H480.95C481.004 202.797 481.233 203.229 481.638 203.56C482.054 203.891 482.598 204.056 483.27 204.056C483.772 204.056 484.161 203.928 484.438 203.672C484.726 203.416 484.87 203.08 484.87 202.664C484.87 202.323 484.769 202.051 484.566 201.848C484.364 201.645 484.113 201.491 483.814 201.384C483.516 201.277 483.105 201.165 482.582 201.048C481.932 200.899 481.409 200.749 481.014 200.6C480.63 200.451 480.3 200.216 480.022 199.896C479.756 199.565 479.622 199.123 479.622 198.568C479.622 197.832 479.894 197.24 480.438 196.792C480.982 196.333 481.724 196.104 482.662 196.104ZM487.92 193.64C487.92 193.373 488.01 193.16 488.192 193C488.373 192.829 488.613 192.744 488.912 192.744C489.21 192.744 489.45 192.829 489.632 193C489.813 193.16 489.904 193.373 489.904 193.64C489.904 193.907 489.813 194.125 489.632 194.296C489.45 194.456 489.21 194.536 488.912 194.536C488.613 194.536 488.373 194.456 488.192 194.296C488.01 194.125 487.92 193.907 487.92 193.64ZM489.632 196.216V205H488.176V196.216H489.632ZM496.165 203.72V205H495.077C494.181 205 493.509 204.787 493.061 204.36C492.623 203.933 492.405 203.219 492.405 202.216V197.48H491.093V196.216H492.405V194.024H493.877V196.216H496.149V197.48H493.877V202.248C493.877 202.813 493.978 203.203 494.181 203.416C494.394 203.619 494.757 203.72 495.269 203.72H496.165Z" fill="#334664"/>
<rect x="517" y="183" width="93" height="32" rx="4" fill="#9CD0DD"/>
<path d="M540.165 193.72L537.301 205H535.525L532.917 195.784L530.309 205H528.533L525.653 193.72H527.269L529.429 203.304L532.101 193.72H533.717L536.389 203.272L538.565 193.72H540.165ZM541.615 193.64C541.615 193.373 541.706 193.16 541.887 193C542.068 192.829 542.308 192.744 542.607 192.744C542.906 192.744 543.146 192.829 543.327 193C543.508 193.16 543.599 193.373 543.599 193.64C543.599 193.907 543.508 194.125 543.327 194.296C543.146 194.456 542.906 194.536 542.607 194.536C542.308 194.536 542.068 194.456 541.887 194.296C541.706 194.125 541.615 193.907 541.615 193.64ZM543.327 196.216V205H541.871V196.216H543.327ZM549.86 203.72V205H548.772C547.876 205 547.204 204.787 546.756 204.36C546.319 203.933 546.1 203.219 546.1 202.216V197.48H544.788V196.216H546.1V194.024H547.572V196.216H549.844V197.48H547.572V202.248C547.572 202.813 547.673 203.203 547.876 203.416C548.089 203.619 548.452 203.72 548.964 203.72H549.86ZM556.261 196.072C557.285 196.072 558.111 196.403 558.741 197.064C559.37 197.715 559.685 198.659 559.685 199.896V205H558.229V200.024C558.229 199.149 558.005 198.477 557.557 198.008C557.109 197.539 556.501 197.304 555.733 197.304C554.933 197.304 554.293 197.565 553.813 198.088C553.333 198.6 553.093 199.352 553.093 200.344V205H551.637V193.16H553.093V198.296C553.317 197.581 553.711 197.032 554.277 196.648C554.853 196.264 555.514 196.072 556.261 196.072ZM565.518 196.104C566.371 196.104 567.091 196.317 567.678 196.744C568.275 197.171 568.691 197.741 568.926 198.456V193.16H570.382V205H568.926V202.76C568.691 203.475 568.275 204.045 567.678 204.472C567.091 204.899 566.371 205.112 565.518 205.112C564.739 205.112 564.046 204.931 563.438 204.568C562.83 204.205 562.35 203.688 561.998 203.016C561.657 202.333 561.486 201.533 561.486 200.616C561.486 199.699 561.657 198.899 561.998 198.216C562.35 197.533 562.83 197.011 563.438 196.648C564.046 196.285 564.739 196.104 565.518 196.104ZM565.934 197.4C565.038 197.4 564.318 197.688 563.774 198.264C563.241 198.829 562.974 199.613 562.974 200.616C562.974 201.619 563.241 202.408 563.774 202.984C564.318 203.549 565.038 203.832 565.934 203.832C566.51 203.832 567.022 203.699 567.47 203.432C567.929 203.165 568.286 202.792 568.542 202.312C568.798 201.821 568.926 201.256 568.926 200.616C568.926 199.976 568.798 199.411 568.542 198.92C568.286 198.429 567.929 198.056 567.47 197.8C567.022 197.533 566.51 197.4 565.934 197.4ZM574.155 197.992C574.443 197.384 574.865 196.915 575.419 196.584C575.974 196.243 576.635 196.072 577.403 196.072V197.656H576.955C576.134 197.656 575.462 197.869 574.939 198.296C574.417 198.712 574.155 199.405 574.155 200.376V205H572.699V196.216H574.155V197.992ZM582.44 196.104C583.293 196.104 584.013 196.317 584.6 196.744C585.197 197.171 585.613 197.741 585.848 198.456V196.216H587.304V205H585.848V202.76C585.613 203.475 585.197 204.045 584.6 204.472C584.013 204.899 583.293 205.112 582.44 205.112C581.661 205.112 580.968 204.931 580.36 204.568C579.752 204.205 579.272 203.688 578.92 203.016C578.579 202.333 578.408 201.533 578.408 200.616C578.408 199.699 578.579 198.899 578.92 198.216C579.272 197.533 579.752 197.011 580.36 196.648C580.968 196.285 581.661 196.104 582.44 196.104ZM582.856 197.4C581.96 197.4 581.24 197.688 580.696 198.264C580.163 198.829 579.896 199.613 579.896 200.616C579.896 201.619 580.163 202.408 580.696 202.984C581.24 203.549 581.96 203.832 582.856 203.832C583.432 203.832 583.944 203.699 584.392 203.432C584.851 203.165 585.208 202.792 585.464 202.312C585.72 201.821 585.848 201.256 585.848 200.616C585.848 199.976 585.72 199.411 585.464 198.92C585.208 198.429 584.851 198.056 584.392 197.8C583.944 197.533 583.432 197.4 582.856 197.4ZM601.685 196.216L599.157 205H597.589L595.173 197.848L592.741 205H591.157L588.661 196.216H590.133L592.005 203.608L594.437 196.216H595.957L598.405 203.592L600.293 196.216H601.685Z" fill="#334664"/>
<rect x="622" y="183" width="72" height="32" rx="4" fill="#9CD0DD"/>
<path d="M636.711 199.16C637.404 199.309 637.964 199.64 638.391 200.152C638.828 200.664 639.047 201.267 639.047 201.96C639.047 202.877 638.732 203.613 638.103 204.168C637.484 204.723 636.583 205 635.399 205H631.207V193.72H635.335C636.466 193.72 637.324 193.971 637.911 194.472C638.498 194.973 638.791 195.661 638.791 196.536C638.791 197.261 638.594 197.848 638.199 198.296C637.815 198.744 637.319 199.032 636.711 199.16ZM632.663 198.664H635.095C635.81 198.664 636.354 198.499 636.727 198.168C637.111 197.837 637.303 197.373 637.303 196.776C637.303 196.2 637.116 195.747 636.743 195.416C636.37 195.085 635.799 194.92 635.031 194.92H632.663V198.664ZM635.127 203.784C635.895 203.784 636.487 203.608 636.903 203.256C637.33 202.904 637.543 202.408 637.543 201.768C637.543 201.139 637.324 200.648 636.887 200.296C636.46 199.933 635.863 199.752 635.095 199.752H632.663V203.784H635.127ZM644.847 196.104C645.69 196.104 646.442 196.285 647.103 196.648C647.775 197.011 648.298 197.533 648.671 198.216C649.055 198.899 649.247 199.699 649.247 200.616C649.247 201.533 649.055 202.333 648.671 203.016C648.298 203.688 647.775 204.205 647.103 204.568C646.442 204.931 645.69 205.112 644.847 205.112C644.005 205.112 643.247 204.931 642.575 204.568C641.914 204.205 641.391 203.688 641.007 203.016C640.623 202.333 640.431 201.533 640.431 200.616C640.431 199.699 640.623 198.899 641.007 198.216C641.391 197.533 641.914 197.011 642.575 196.648C643.247 196.285 644.005 196.104 644.847 196.104ZM644.847 197.384C644.325 197.384 643.839 197.501 643.391 197.736C642.954 197.971 642.597 198.333 642.319 198.824C642.053 199.304 641.919 199.901 641.919 200.616C641.919 201.32 642.053 201.917 642.319 202.408C642.597 202.888 642.954 203.245 643.391 203.48C643.839 203.715 644.325 203.832 644.847 203.832C645.37 203.832 645.85 203.715 646.287 203.48C646.735 203.245 647.093 202.888 647.359 202.408C647.637 201.917 647.775 201.32 647.775 200.616C647.775 199.901 647.637 199.304 647.359 198.824C647.093 198.333 646.735 197.971 646.287 197.736C645.85 197.501 645.37 197.384 644.847 197.384ZM652.601 197.992C652.889 197.384 653.31 196.915 653.865 196.584C654.419 196.243 655.081 196.072 655.849 196.072V197.656H655.401C654.579 197.656 653.907 197.869 653.385 198.296C652.862 198.712 652.601 199.405 652.601 200.376V205H651.145V196.216H652.601V197.992ZM658.741 197.992C659.029 197.384 659.451 196.915 660.005 196.584C660.56 196.243 661.221 196.072 661.989 196.072V197.656H661.541C660.72 197.656 660.048 197.869 659.525 198.296C659.003 198.712 658.741 199.405 658.741 200.376V205H657.285V196.216H658.741V197.992ZM667.41 196.104C668.252 196.104 669.004 196.285 669.666 196.648C670.338 197.011 670.86 197.533 671.234 198.216C671.618 198.899 671.81 199.699 671.81 200.616C671.81 201.533 671.618 202.333 671.234 203.016C670.86 203.688 670.338 204.205 669.666 204.568C669.004 204.931 668.252 205.112 667.41 205.112C666.567 205.112 665.81 204.931 665.138 204.568C664.476 204.205 663.954 203.688 663.57 203.016C663.186 202.333 662.994 201.533 662.994 200.616C662.994 199.699 663.186 198.899 663.57 198.216C663.954 197.533 664.476 197.011 665.138 196.648C665.81 196.285 666.567 196.104 667.41 196.104ZM667.41 197.384C666.887 197.384 666.402 197.501 665.954 197.736C665.516 197.971 665.159 198.333 664.882 198.824C664.615 199.304 664.482 199.901 664.482 200.616C664.482 201.32 664.615 201.917 664.882 202.408C665.159 202.888 665.516 203.245 665.954 203.48C666.402 203.715 666.887 203.832 667.41 203.832C667.932 203.832 668.412 203.715 668.85 203.48C669.298 203.245 669.655 202.888 669.922 202.408C670.199 201.917 670.338 201.32 670.338 200.616C670.338 199.901 670.199 199.304 669.922 198.824C669.655 198.333 669.298 197.971 668.85 197.736C668.412 197.501 667.932 197.384 667.41 197.384ZM685.771 196.216L683.243 205H681.675L679.259 197.848L676.827 205H675.243L672.747 196.216H674.219L676.091 203.608L678.523 196.216H680.043L682.491 203.592L684.379 196.216H685.771Z" fill="#334664"/>
<rect x="706" y="183" width="66" height="32" rx="4" fill="#9CD0DD"/>
<path d="M721.191 205L718.247 200.392H716.663V205H715.207V193.72H718.919C720.199 193.72 721.159 194.029 721.799 194.648C722.439 195.256 722.759 196.067 722.759 197.08C722.759 197.997 722.503 198.739 721.991 199.304C721.479 199.859 720.738 200.205 719.767 200.344L722.839 205H721.191ZM716.663 199.336H718.791C720.444 199.336 721.271 198.611 721.271 197.16C721.271 195.709 720.444 194.984 718.791 194.984H716.663V199.336ZM732.615 200.12C732.615 200.429 732.594 200.696 732.551 200.92H725.527C725.559 201.923 725.842 202.675 726.375 203.176C726.919 203.677 727.581 203.928 728.359 203.928C729.063 203.928 729.65 203.752 730.119 203.4C730.599 203.037 730.893 202.557 730.999 201.96H732.551C732.445 202.568 732.205 203.112 731.831 203.592C731.469 204.072 730.994 204.445 730.407 204.712C729.821 204.979 729.159 205.112 728.423 205.112C727.581 205.112 726.834 204.931 726.183 204.568C725.533 204.205 725.021 203.688 724.647 203.016C724.285 202.333 724.103 201.533 724.103 200.616C724.103 199.699 724.285 198.899 724.647 198.216C725.021 197.533 725.533 197.011 726.183 196.648C726.834 196.285 727.581 196.104 728.423 196.104C729.277 196.104 730.018 196.285 730.647 196.648C731.287 197.011 731.773 197.496 732.103 198.104C732.445 198.712 732.615 199.384 732.615 200.12ZM731.143 200.216C731.175 199.565 731.069 199.021 730.823 198.584C730.578 198.147 730.242 197.821 729.815 197.608C729.389 197.395 728.925 197.288 728.423 197.288C727.623 197.288 726.951 197.539 726.407 198.04C725.863 198.531 725.57 199.256 725.527 200.216H731.143ZM739.368 196.104C740.146 196.104 740.84 196.285 741.448 196.648C742.056 197.011 742.53 197.533 742.872 198.216C743.224 198.899 743.4 199.699 743.4 200.616C743.4 201.533 743.224 202.333 742.872 203.016C742.53 203.688 742.056 204.205 741.448 204.568C740.84 204.931 740.146 205.112 739.368 205.112C738.514 205.112 737.789 204.899 737.192 204.472C736.605 204.035 736.2 203.464 735.976 202.76V209.16H734.52V196.216H735.976V198.456C736.2 197.752 736.605 197.187 737.192 196.76C737.789 196.323 738.514 196.104 739.368 196.104ZM738.952 197.4C738.386 197.4 737.874 197.533 737.416 197.8C736.957 198.056 736.6 198.429 736.344 198.92C736.088 199.411 735.96 199.976 735.96 200.616C735.96 201.256 736.088 201.821 736.344 202.312C736.6 202.792 736.957 203.165 737.416 203.432C737.874 203.699 738.386 203.832 738.952 203.832C739.858 203.832 740.578 203.549 741.112 202.984C741.656 202.408 741.928 201.619 741.928 200.616C741.928 199.613 741.656 198.829 741.112 198.264C740.578 197.688 739.858 197.4 738.952 197.4ZM748.901 196.104C749.754 196.104 750.474 196.317 751.061 196.744C751.658 197.171 752.074 197.741 752.309 198.456V196.216H753.765V205H752.309V202.76C752.074 203.475 751.658 204.045 751.061 204.472C750.474 204.899 749.754 205.112 748.901 205.112C748.122 205.112 747.429 204.931 746.821 204.568C746.213 204.205 745.733 203.688 745.381 203.016C745.039 202.333 744.869 201.533 744.869 200.616C744.869 199.699 745.039 198.899 745.381 198.216C745.733 197.533 746.213 197.011 746.821 196.648C747.429 196.285 748.122 196.104 748.901 196.104ZM749.317 197.4C748.421 197.4 747.701 197.688 747.157 198.264C746.623 198.829 746.357 199.613 746.357 200.616C746.357 201.619 746.623 202.408 747.157 202.984C747.701 203.549 748.421 203.832 749.317 203.832C749.893 203.832 750.405 203.699 750.853 203.432C751.311 203.165 751.669 202.792 751.925 202.312C752.181 201.821 752.309 201.256 752.309 200.616C752.309 199.976 752.181 199.411 751.925 198.92C751.669 198.429 751.311 198.056 750.853 197.8C750.405 197.533 749.893 197.4 749.317 197.4ZM756.69 196.216L759.538 203.128L762.178 196.216H763.794L758.578 209.16H756.93L758.754 204.856L755.058 196.216H756.69Z" fill="#334664"/>
<path d="M353 262.588C351.667 261.819 351.667 259.894 353 259.124L371 248.732C372.333 247.962 374 248.924 374 250.464L374 271.249C374 272.788 372.333 273.751 371 272.981L353 262.588Z" fill="#E36868"/>
<path d="M847 262.588C848.333 261.819 848.333 259.894 847 259.124L829 248.732C827.667 247.962 826 248.924 826 250.464L826 271.249C826 272.788 827.667 273.751 829 272.981L847 262.588Z" fill="#E36868"/>
<rect x="374" y="257.856" width="452" height="5" fill="#E36868"/>
<rect x="540" y="245" width="132" height="32" rx="4" fill="#E36868"/>
<path d="M565.575 255.928V267H564.119V258.744L560.439 267H559.415L555.719 258.728V267H554.263V255.928H555.831L559.927 265.08L564.023 255.928H565.575ZM567.501 262.584C567.501 261.688 567.682 260.904 568.045 260.232C568.407 259.549 568.903 259.021 569.533 258.648C570.173 258.275 570.882 258.088 571.661 258.088C572.429 258.088 573.095 258.253 573.661 258.584C574.226 258.915 574.647 259.331 574.925 259.832V258.232H576.397V267H574.925V265.368C574.637 265.88 574.205 266.307 573.629 266.648C573.063 266.979 572.402 267.144 571.645 267.144C570.866 267.144 570.162 266.952 569.533 266.568C568.903 266.184 568.407 265.645 568.045 264.952C567.682 264.259 567.501 263.469 567.501 262.584ZM574.925 262.6C574.925 261.939 574.791 261.363 574.525 260.872C574.258 260.381 573.895 260.008 573.437 259.752C572.989 259.485 572.493 259.352 571.949 259.352C571.405 259.352 570.909 259.48 570.461 259.736C570.013 259.992 569.655 260.365 569.389 260.856C569.122 261.347 568.989 261.923 568.989 262.584C568.989 263.256 569.122 263.843 569.389 264.344C569.655 264.835 570.013 265.213 570.461 265.48C570.909 265.736 571.405 265.864 571.949 265.864C572.493 265.864 572.989 265.736 573.437 265.48C573.895 265.213 574.258 264.835 574.525 264.344C574.791 263.843 574.925 263.261 574.925 262.6ZM580.313 259.656C580.569 259.155 580.932 258.765 581.401 258.488C581.881 258.211 582.462 258.072 583.145 258.072V259.576H582.761C581.129 259.576 580.313 260.461 580.313 262.232V267H578.857V258.232H580.313V259.656ZM589.722 267L586.282 263.128V267H584.826V255.16H586.282V262.12L589.658 258.232H591.69L587.562 262.6L591.706 267H589.722ZM601.06 262.28C601.06 262.557 601.044 262.851 601.012 263.16H594.004C594.057 264.024 594.351 264.701 594.884 265.192C595.428 265.672 596.084 265.912 596.852 265.912C597.481 265.912 598.004 265.768 598.42 265.48C598.847 265.181 599.145 264.787 599.316 264.296H600.884C600.649 265.139 600.18 265.827 599.476 266.36C598.772 266.883 597.897 267.144 596.852 267.144C596.02 267.144 595.273 266.957 594.612 266.584C593.961 266.211 593.449 265.683 593.076 265C592.703 264.307 592.516 263.507 592.516 262.6C592.516 261.693 592.697 260.899 593.06 260.216C593.423 259.533 593.929 259.011 594.58 258.648C595.241 258.275 595.999 258.088 596.852 258.088C597.684 258.088 598.42 258.269 599.06 258.632C599.7 258.995 600.191 259.496 600.532 260.136C600.884 260.765 601.06 261.48 601.06 262.28ZM599.556 261.976C599.556 261.421 599.433 260.947 599.188 260.552C598.943 260.147 598.607 259.843 598.18 259.64C597.764 259.427 597.3 259.32 596.788 259.32C596.052 259.32 595.423 259.555 594.9 260.024C594.388 260.493 594.095 261.144 594.02 261.976H599.556ZM604.758 259.432V264.6C604.758 265.027 604.849 265.331 605.03 265.512C605.211 265.683 605.526 265.768 605.974 265.768H607.046V267H605.734C604.923 267 604.315 266.813 603.91 266.44C603.505 266.067 603.302 265.453 603.302 264.6V259.432H602.166V258.232H603.302V256.024H604.758V258.232H607.046V259.432H604.758ZM612.532 261.416C612.532 260.328 612.777 259.352 613.268 258.488C613.758 257.613 614.425 256.931 615.268 256.44C616.121 255.949 617.065 255.704 618.1 255.704C619.316 255.704 620.377 255.997 621.284 256.584C622.19 257.171 622.852 258.003 623.268 259.08H621.524C621.214 258.408 620.766 257.891 620.18 257.528C619.604 257.165 618.91 256.984 618.1 256.984C617.321 256.984 616.622 257.165 616.004 257.528C615.385 257.891 614.9 258.408 614.548 259.08C614.196 259.741 614.02 260.52 614.02 261.416C614.02 262.301 614.196 263.08 614.548 263.752C614.9 264.413 615.385 264.925 616.004 265.288C616.622 265.651 617.321 265.832 618.1 265.832C618.91 265.832 619.604 265.656 620.18 265.304C620.766 264.941 621.214 264.424 621.524 263.752H623.268C622.852 264.819 622.19 265.645 621.284 266.232C620.377 266.808 619.316 267.096 618.1 267.096C617.065 267.096 616.121 266.856 615.268 266.376C614.425 265.885 613.758 265.208 613.268 264.344C612.777 263.48 612.532 262.504 612.532 261.416ZM629.259 267.144C628.438 267.144 627.691 266.957 627.019 266.584C626.358 266.211 625.835 265.683 625.451 265C625.078 264.307 624.891 263.507 624.891 262.6C624.891 261.704 625.083 260.915 625.467 260.232C625.862 259.539 626.395 259.011 627.067 258.648C627.739 258.275 628.491 258.088 629.323 258.088C630.155 258.088 630.907 258.275 631.579 258.648C632.251 259.011 632.779 259.533 633.163 260.216C633.558 260.899 633.755 261.693 633.755 262.6C633.755 263.507 633.552 264.307 633.147 265C632.752 265.683 632.214 266.211 631.531 266.584C630.848 266.957 630.091 267.144 629.259 267.144ZM629.259 265.864C629.782 265.864 630.272 265.741 630.731 265.496C631.19 265.251 631.558 264.883 631.835 264.392C632.123 263.901 632.267 263.304 632.267 262.6C632.267 261.896 632.128 261.299 631.851 260.808C631.574 260.317 631.211 259.955 630.763 259.72C630.315 259.475 629.83 259.352 629.307 259.352C628.774 259.352 628.283 259.475 627.835 259.72C627.398 259.955 627.046 260.317 626.779 260.808C626.512 261.299 626.379 261.896 626.379 262.6C626.379 263.315 626.507 263.917 626.763 264.408C627.03 264.899 627.382 265.267 627.819 265.512C628.256 265.747 628.736 265.864 629.259 265.864ZM636.422 256.808C636.144 256.808 635.91 256.712 635.718 256.52C635.526 256.328 635.43 256.093 635.43 255.816C635.43 255.539 635.526 255.304 635.718 255.112C635.91 254.92 636.144 254.824 636.422 254.824C636.688 254.824 636.912 254.92 637.094 255.112C637.286 255.304 637.382 255.539 637.382 255.816C637.382 256.093 637.286 256.328 637.094 256.52C636.912 256.712 636.688 256.808 636.422 256.808ZM637.126 258.232V267H635.67V258.232H637.126ZM643.879 258.072C644.946 258.072 645.81 258.397 646.471 259.048C647.132 259.688 647.463 260.616 647.463 261.832V267H646.023V262.04C646.023 261.165 645.804 260.499 645.367 260.04C644.93 259.571 644.332 259.336 643.575 259.336C642.807 259.336 642.194 259.576 641.735 260.056C641.287 260.536 641.063 261.235 641.063 262.152V267H639.607V258.232H641.063V259.48C641.351 259.032 641.74 258.685 642.231 258.44C642.732 258.195 643.282 258.072 643.879 258.072ZM652.945 267.144C652.273 267.144 651.671 267.032 651.137 266.808C650.604 266.573 650.183 266.253 649.873 265.848C649.564 265.432 649.393 264.957 649.361 264.424H650.865C650.908 264.861 651.111 265.219 651.473 265.496C651.847 265.773 652.332 265.912 652.929 265.912C653.484 265.912 653.921 265.789 654.241 265.544C654.561 265.299 654.721 264.989 654.721 264.616C654.721 264.232 654.551 263.949 654.209 263.768C653.868 263.576 653.34 263.389 652.625 263.208C651.975 263.037 651.441 262.867 651.025 262.696C650.62 262.515 650.268 262.253 649.969 261.912C649.681 261.56 649.537 261.101 649.537 260.536C649.537 260.088 649.671 259.677 649.937 259.304C650.204 258.931 650.583 258.637 651.073 258.424C651.564 258.2 652.124 258.088 652.753 258.088C653.724 258.088 654.508 258.333 655.105 258.824C655.703 259.315 656.023 259.987 656.065 260.84H654.609C654.577 260.381 654.391 260.013 654.049 259.736C653.719 259.459 653.271 259.32 652.705 259.32C652.183 259.32 651.767 259.432 651.457 259.656C651.148 259.88 650.993 260.173 650.993 260.536C650.993 260.824 651.084 261.064 651.265 261.256C651.457 261.437 651.692 261.587 651.969 261.704C652.257 261.811 652.652 261.933 653.153 262.072C653.783 262.243 654.295 262.413 654.689 262.584C655.084 262.744 655.42 262.989 655.697 263.32C655.985 263.651 656.135 264.083 656.145 264.616C656.145 265.096 656.012 265.528 655.745 265.912C655.479 266.296 655.1 266.6 654.609 266.824C654.129 267.037 653.575 267.144 652.945 267.144Z" fill="white"/>
<defs>
<clipPath id="clip0_119_2470">
<rect width="22" height="19.2982" fill="white" transform="translate(138 145.877)"/>
</clipPath>
<clipPath id="clip1_119_2470">
<rect width="24" height="24" fill="white" transform="translate(261 178)"/>
</clipPath>
</defs>
</svg>
