<svg width="33" height="32" viewBox="0 0 33 32" fill="none" xmlns="http://www.w3.org/2000/svg">
<path d="M29.7373 4.1575C29.7294 3.33521 29.3977 2.54916 28.8141 1.96979C28.2306 1.39043 27.4421 1.06444 26.6198 1.0625L6.8398 1C6.01832 1.00016 5.23042 1.32606 4.64884 1.90623C4.06725 2.48641 3.73946 3.27352 3.7373 4.095V24.5C3.7373 26.2062 5.1298 27.5 6.8398 27.5H23.7373L22.9248 24.75L29.7373 31V4.1575ZM21.0279 20.6131C21.0279 20.6131 20.4829 19.9637 20.0279 19.4056C22.0117 18.8469 22.7686 17.625 22.7686 17.625C22.2237 17.9864 21.6398 18.2852 21.0279 18.5156C20.3215 18.809 19.5859 19.0266 18.8336 19.165C17.5373 19.4031 16.208 19.398 14.9136 19.15C14.1521 19.0086 13.4069 18.7908 12.6892 18.5C12.3095 18.3546 11.9403 18.1831 11.5842 17.9869C11.5386 17.9569 11.4936 17.9419 11.4479 17.9112C11.4173 17.8962 11.4023 17.8813 11.3854 17.8813C11.1129 17.73 10.9617 17.6244 10.9617 17.6244C10.9617 17.6244 11.6879 18.8175 13.6104 19.3906C13.1561 19.9644 12.5961 20.6287 12.5961 20.6287C9.25168 20.5231 7.98043 18.3494 7.98043 18.3494C7.98043 13.5331 10.1598 9.62313 10.1598 9.62313C12.3392 8.0075 14.3973 8.05313 14.3973 8.05313L14.5486 8.23438C11.8242 9.00437 10.5836 10.1969 10.5836 10.1969C10.5836 10.1969 10.9161 10.0156 11.4761 9.77375C13.0954 9.06438 14.3823 8.88312 14.9136 8.82312C14.9983 8.8055 15.0845 8.79526 15.1711 8.7925C16.1852 8.66091 17.2114 8.65084 18.2279 8.7625C19.824 8.94584 21.3703 9.43271 22.7836 10.1969C22.7836 10.1969 21.5879 9.0625 19.0148 8.29375L19.2267 8.0525C19.2267 8.0525 21.2998 8.00688 23.4648 9.625C23.4648 9.625 25.6442 13.535 25.6442 18.3512C25.6442 18.3337 24.3723 20.5075 21.0279 20.6131Z" fill="#A6ABB4"/>
<path d="M13.9905 13.625C13.128 13.625 12.4468 14.365 12.4468 15.2856C12.4468 16.2063 13.143 16.9463 13.9905 16.9463C14.853 16.9463 15.5343 16.2069 15.5343 15.2856C15.5499 14.3631 14.853 13.625 13.9905 13.625ZM19.5143 13.625C18.6518 13.625 17.9705 14.365 17.9705 15.2856C17.9705 16.2063 18.6668 16.9463 19.5143 16.9463C20.3774 16.9463 21.058 16.2069 21.058 15.2856C21.058 14.3644 20.3624 13.625 19.5143 13.625Z" fill="#A6ABB4"/>
</svg>
