<svg width="351" height="114" viewBox="0 0 351 114" fill="none" xmlns="http://www.w3.org/2000/svg">
<path d="M56.2775 113.25C87.3587 113.25 112.555 88.066 112.555 57C112.555 25.934 87.3587 0.75 56.2775 0.75C25.1963 0.75 0 25.934 0 57C0 88.066 25.1963 113.25 56.2775 113.25Z" fill="#ECD1C4"/>
<path d="M89.9039 42.8791C93.1732 39.9616 96.6759 35.1769 94.9246 32.8428C93.1732 30.5088 84.1828 30.5088 81.1471 31.0923C77.0605 27.2412 72.8572 22.9232 61.882 25.6074C59.6636 23.0399 54.7597 19.6556 52.8916 20.4725C49.2721 21.9896 47.7542 30.2754 47.7542 30.2754C37.5962 32.9595 27.555 38.2111 24.9864 39.6115C20.316 42.0622 15.5289 46.9637 17.2803 54.0825C12.9602 58.0503 12.0262 75.6722 24.9864 79.2899C30.2405 86.8755 34.794 86.5254 40.632 86.4087C42.5001 90.9601 49.3888 96.5617 59.0798 90.61C65.6182 92.0104 73.5578 92.3605 79.6292 86.1753C87.9191 85.9419 98.077 78.5897 95.2748 66.4528C100.529 59.334 90.7213 44.3963 89.9039 42.8791Z" fill="#070406"/>
<path d="M78.3452 85.125L78.2285 85.3584L78.3452 85.125Z" fill="white"/>
<path d="M94.2242 56.0664C87.569 38.4445 77.8781 28.875 72.5072 27.2412C66.5526 25.374 60.5979 27.708 46.9372 32.376C32.4592 37.2775 22.4179 41.4787 19.8493 47.5472C17.2806 53.499 22.0677 60.8511 27.7888 62.1348C27.7888 61.4346 27.7888 60.6177 27.9056 59.9175C28.0223 58.8672 29.8905 50.6981 39.3479 47.0804C33.6267 50.2313 26.5045 58.4004 30.4743 65.8693C32.5759 68.4367 35.9619 70.4206 41.6831 68.9035C42.0333 61.5513 47.988 52.0985 55.4605 45.9134C50.4399 51.7484 44.3685 59.9175 43.5512 67.6198C43.4344 68.2033 43.4344 71.0041 44.9523 72.9881C49.7394 77.4227 58.613 79.2899 64.1006 73.2215C69.5883 66.4528 68.3039 53.9658 67.4866 47.5472C69.9385 56.1831 70.2888 66.1027 66.4358 72.5213C69.5883 75.7889 75.4262 76.2557 80.6803 72.0545C84.183 63.8854 84.0663 53.499 76.944 43.9295C84.2998 52.682 85.0004 59.9175 82.7819 71.1208C89.6707 69.1369 97.727 67.153 94.2242 56.0664Z" fill="#ADB2C1"/>
<path d="M25.3364 70.4206C22.0672 69.487 16.8131 65.1691 16.9299 59.4507C16.1125 62.8351 15.0617 74.2718 26.1537 77.8895C24.9862 75.5555 24.9862 72.7547 25.3364 70.4206Z" fill="#ADB2C1"/>
<path d="M39.5808 78.2396C35.611 78.473 28.372 74.972 27.4379 70.4206C26.3871 71.7043 24.986 76.6058 28.0217 80.4569C31.8748 85.125 35.7278 85.125 41.2154 84.7749C40.0478 82.791 39.4641 80.5736 39.5808 78.2396Z" fill="#ADB2C1"/>
<path d="M80.2132 79.4066C77.5277 82.3241 70.172 84.1914 63.6335 81.1571C63.5168 83.0244 61.4151 87.2256 59.3135 88.9761C63.6335 89.9097 71.9234 91.7769 78.2283 85.5918C79.3959 83.6079 80.0964 81.5072 80.2132 79.4066Z" fill="#ADB2C1"/>
<path d="M40.8651 78.3563C40.6316 80.6903 40.8651 83.141 41.6824 85.3584C43.4338 88.9761 49.3885 94.8112 58.6124 89.2095C60.9475 87.2256 61.5313 84.0747 61.5313 81.8573C57.2113 85.125 44.6014 84.8916 40.8651 78.3563Z" fill="#ADB2C1"/>
<path d="M81.6141 78.8231C81.6141 80.1069 81.1471 82.0908 78.9287 84.5415C86.7515 84.4248 92.5894 79.0565 93.757 73.5716C91.3051 77.306 85.9342 79.5234 81.6141 78.8231Z" fill="#ADB2C1"/>
<path d="M41.6832 85.3584L41.5664 84.8916L41.6832 85.3584Z" fill="white"/>
<path d="M41.5655 84.7749C41.4488 84.4248 41.332 84.1914 41.332 83.8413C41.332 84.0747 41.4488 84.4248 41.5655 84.7749Z" fill="white"/>
<path d="M58.7295 89.0928C59.43 88.5093 60.1306 87.8091 60.4809 86.9922C60.0138 87.8091 59.43 88.5093 58.7295 89.0928Z" fill="#717071"/>
<path d="M16.5801 66.2194C17.0471 70.654 19.3823 75.7889 26.1543 78.0062C25.6872 77.0726 25.4537 76.139 25.3369 75.2054C19.8493 75.0887 17.1639 68.9035 16.5801 66.2194Z" fill="#868C98"/>
<path d="M26.2705 75.9056C26.3873 77.5394 26.9711 79.1732 28.0219 80.457C31.8749 85.125 35.7279 85.125 41.2156 84.7749C40.8653 84.1914 40.6318 83.4912 40.3983 82.9077C30.2403 84.1914 27.3213 78.7064 26.2705 75.9056Z" fill="#868C98"/>
<path d="M60.3637 86.9922C60.3637 86.8755 60.4805 86.8755 60.4805 86.7588C58.2621 88.5093 55.9269 89.9097 50.9063 89.6763C44.8349 89.2095 41.9159 86.1753 41.0986 83.1411C41.0986 83.3745 41.2154 83.4912 41.2154 83.6079V83.7246C41.3321 84.0747 41.4489 84.4248 41.4489 84.6582V84.7749L41.5657 85.2417C43.317 88.8594 49.2717 94.6945 58.4956 89.0928C59.4297 88.5093 60.0135 87.8091 60.3637 86.9922Z" fill="#868C98"/>
<path d="M78.1116 85.4751C78.5786 84.7749 79.0456 83.958 79.3959 83.1411C72.5072 89.9097 63.2833 87.8091 61.2984 86.5254C60.7146 87.3423 60.014 88.1592 59.3135 88.8594C63.5168 89.9097 71.8066 91.6603 78.1116 85.4751Z" fill="#868C98"/>
<path d="M80.4466 82.6743C79.9795 83.3745 79.5125 84.0747 78.9287 84.6582C85.3504 84.5415 90.371 81.0404 92.5894 76.6058C90.2543 81.1572 82.5482 82.9077 80.4466 82.6743Z" fill="#868C98"/>
<path d="M18.2141 56.1831C17.7471 56.8833 17.3968 57.7002 17.1633 58.5171C16.9298 62.0181 21.8336 70.0705 28.0218 69.2536C28.2553 73.805 36.8954 78.8231 40.7484 76.6058C43.4339 83.0244 57.4449 84.7749 62.9325 79.4066C66.2017 82.4409 77.9943 82.0907 80.4462 77.1893C84.1825 79.1732 92.3556 75.6722 93.9902 71.4709C94.2237 70.4206 94.107 69.2536 93.8734 68.2033C92.1221 70.3039 86.5177 74.5052 82.0809 72.9881C78.8116 76.0223 71.3391 78.9398 65.5012 74.1551C58.846 82.5576 43.3171 78.0062 41.916 70.7707C37.596 71.9377 29.3061 71.5876 27.5548 64.0021C26.1537 63.5353 21.4833 62.7183 18.2141 56.1831Z" fill="#192444"/>
<path d="M49.9727 29.5752C52.3078 28.6416 57.2117 27.1245 60.1306 26.3076C58.496 24.557 54.7597 21.9896 53.7089 22.223C52.1911 22.5731 50.4397 27.1245 49.9727 29.5752Z" fill="white"/>
<path d="M82.665 32.7261C85.0002 35.4103 87.1018 38.3278 89.0867 41.362C91.3051 39.4948 94.4576 34.5933 93.5235 33.8931C91.6554 32.4927 85.0002 32.376 82.665 32.7261Z" fill="white"/>
<path d="M45.8857 32.8428L45.4187 33.0762L45.1852 33.1929L44.7181 33.4263L44.3678 33.3096L43.6673 33.543L42.9667 33.7764L42.7332 33.8931L42.2662 34.1265L42.0327 34.2432L41.5656 34.4767L41.3321 34.5934L39.6975 34.9435L39.464 35.0602L38.997 35.2936L38.7634 35.4103L38.2964 35.6437L38.0629 35.7604L37.3623 35.9938L36.6618 36.2272L36.4283 36.3439H36.1948L35.9612 36.4606L35.4942 36.694L35.2607 36.8107L34.0931 37.2775H33.8596L33.3926 37.5109L33.1591 37.6276L32.692 37.861V37.7443L31.5244 38.2111L31.4077 38.3278L31.0574 38.5612L30.8239 38.6779L30.3569 38.7946L30.2401 38.9113L29.1893 39.4948L29.0725 39.6115L28.7222 39.8449L28.6055 39.9616L28.2552 40.195L28.0217 40.0783C27.6714 40.195 27.4379 40.4284 27.0876 40.5451L26.9709 40.6618L26.6206 40.8952L26.5038 41.0119L26.1536 41.2453L26.0368 41.362L25.6865 41.4787C31.4077 38.7946 51.1398 31.5591 61.0643 38.9113C70.9887 46.2635 83.8321 37.6276 77.0602 29.9253C75.6591 28.875 74.1412 27.9414 72.5066 27.3579C66.5519 25.4907 60.5972 27.8247 46.9365 32.4927L46.1192 32.7261L45.8857 32.8428Z" fill="white"/>
<path d="M48.4546 53.1489C42.7334 60.3843 41.2156 65.8693 37.596 66.4528C34.7938 66.9196 31.4079 67.2697 29.1895 63.1852C29.3062 64.2355 29.6565 65.1691 30.1235 66.1027C32.2252 68.6701 35.6112 70.654 41.3323 69.1369C41.7993 64.1188 44.4848 58.2837 48.4546 53.1489Z" fill="#868C98"/>
<path d="M43.668 70.3039C43.9015 71.2375 44.2518 72.1712 44.8356 72.8714C49.6226 77.306 58.4963 79.1732 63.9839 73.1048C67.0196 69.3703 67.9537 63.7687 68.0704 58.4004C64.5677 77.306 46.4702 78.2396 43.668 70.3039Z" fill="#868C98"/>
<path d="M81.0302 71.0041L81.2637 70.5373C81.2637 70.4206 81.3805 70.3039 81.3805 70.1872L81.4972 69.7204L81.614 69.3703C81.614 69.2536 81.7308 69.1369 81.7308 68.9035C81.7308 68.6701 81.8475 68.6701 81.8475 68.5534C81.8475 68.4367 81.9643 68.32 81.9643 68.0866L82.081 67.7365C82.081 67.6198 82.1978 67.5031 82.1978 67.2697C82.1978 67.0363 82.1978 67.0363 82.3145 66.9196C82.3145 66.8029 82.3145 66.6862 82.4313 66.4528C82.4313 66.3361 82.4313 66.2194 82.5481 66.1027C82.5481 65.986 82.5481 65.8693 82.6648 65.7526C82.6648 65.6359 82.6648 65.5192 82.7816 65.4025C82.7816 65.2858 82.7816 65.1691 82.7816 65.0524C82.7816 64.7023 82.8983 64.3522 82.8983 64.1188V63.8854C82.8983 63.7687 82.8983 63.5353 82.8983 63.4186C82.8983 63.1852 82.8983 63.1852 82.8983 63.0685C82.8983 62.9518 82.6648 62.6016 82.6648 62.6016V62.2515V61.7847V61.4346V60.9678V60.7344V60.1509V59.9175L83.1319 59.334V59.1006L82.6648 58.4004V58.2837C82.6648 58.2837 82.5481 56.1831 82.3145 55.1328C82.3145 54.8994 82.1978 54.666 82.081 54.4326V54.3159C81.9643 54.0825 81.9643 53.8491 81.8475 53.6157V53.499C81.7308 53.2655 81.7308 53.0321 81.614 52.7987V52.682C81.4972 52.4486 81.4972 52.2152 81.3805 51.9818V51.8651C81.2637 51.6317 81.147 51.3983 81.147 51.1649C80.5632 49.7645 79.8626 48.3641 79.1621 47.0804C83.0151 57 82.1978 69.0202 75.7761 72.4046C73.4409 73.6883 70.1717 74.3885 66.9025 72.4046C66.7857 72.5213 66.7857 72.7547 66.6689 72.8714C69.8214 76.139 75.6593 76.6058 80.9135 72.4046C81.0302 72.1711 81.147 71.9377 81.2637 71.7043L81.0302 71.0041Z" fill="#868C98"/>
<path d="M94.224 56.0664C91.0715 47.6639 87.2185 41.1286 83.4822 36.4606C89.9039 48.7142 93.6402 57.3501 90.9547 63.5353C89.9039 65.6359 88.5028 68.4367 83.7157 69.7204C83.599 69.7204 83.2487 69.7204 83.2487 69.7204C83.132 70.0705 83.0152 70.5373 82.8984 71.0041C85.7006 72.7547 98.544 67.7365 94.224 56.0664Z" fill="#868C98"/>
<path d="M92.5895 36.8107C88.5029 38.9113 84.4164 34.0099 82.665 32.6094C85.0002 35.2936 87.1018 38.2111 89.0867 41.2453C90.4878 39.9616 91.6554 38.4445 92.5895 36.8107Z" fill="#868C98"/>
<path d="M32.3421 51.6317C26.7377 57.3501 22.8847 58.4004 20.1992 56.1831C21.7171 59.2173 24.5193 61.6681 27.555 62.2516C27.555 61.5513 27.555 60.7344 27.6718 60.0342C28.4891 56.8833 30.0069 53.9658 32.3421 51.6317Z" fill="#868C98"/>
<path d="M136.14 78.0062C134.038 77.0726 132.17 75.6722 130.886 73.805C129.601 71.9378 128.901 69.7204 129.017 67.5031H136.373C136.49 69.2536 137.191 70.7707 138.475 71.9378C139.759 73.1048 141.511 73.6883 143.846 73.6883C146.181 73.6883 148.049 73.1048 149.333 71.9378C150.618 70.8875 151.318 69.2536 151.318 67.5031C151.318 66.2194 150.968 65.0524 150.034 64.1188C149.217 63.1852 148.166 62.485 146.998 62.1349C145.364 61.5513 143.612 60.9678 141.978 60.6177C139.759 60.0342 137.541 59.334 135.322 58.4004C133.571 57.7002 132.053 56.4165 131.002 54.8994C129.835 53.3823 129.251 51.2816 129.251 48.5975C129.251 46.3802 129.835 44.1629 131.002 42.2956C132.287 40.4284 134.038 39.028 136.023 38.2111C138.358 37.1608 140.927 36.694 143.496 36.8107C147.582 36.8107 150.851 37.861 153.42 39.8449C155.989 41.8288 157.39 44.6297 157.74 48.1307H150.151C150.034 46.6136 149.217 45.2132 147.932 44.2796C146.648 43.2293 144.897 42.6458 142.678 42.6458C140.927 42.5291 139.292 43.1126 137.891 44.1629C136.607 45.2132 136.023 46.6136 136.023 48.4808C136.023 49.6478 136.373 50.8148 137.191 51.6317C138.008 52.4487 139.059 53.1489 140.11 53.6157C141.744 54.1992 143.379 54.7827 145.013 55.1328C147.349 55.7163 149.567 56.5332 151.785 57.4668C153.537 58.2837 155.055 59.4507 156.222 60.9678C157.39 62.6017 158.09 64.7023 158.09 67.2697C158.09 69.3703 157.506 71.471 156.339 73.2215C155.171 75.2054 153.42 76.7225 151.318 77.7728C148.983 78.9398 146.298 79.5233 143.612 79.5233C141.16 79.5233 138.592 78.9398 136.14 78.0062Z" fill="#231815"/>
<path d="M166.847 53.6157C168.131 51.1649 170.116 49.0643 172.568 47.7806C175.137 46.3802 177.939 45.68 180.858 45.68C184.828 45.68 188.097 46.6136 190.666 48.4808C193.234 50.348 194.986 53.0322 195.92 56.5332H188.681C188.097 55.0161 187.163 53.7324 185.879 52.7988C184.478 51.8652 182.726 51.3984 180.975 51.3984C178.406 51.2817 175.954 52.4487 174.436 54.3159C172.802 56.2998 171.984 58.9839 171.984 62.485C171.984 65.986 172.802 68.7868 174.436 70.7708C176.071 72.7547 178.523 73.805 181.092 73.6883C184.945 73.6883 187.63 71.9378 188.798 68.5534H196.037C195.219 71.7044 193.351 74.5052 190.666 76.4891C188.097 78.473 184.828 79.4066 180.975 79.4066C178.056 79.4066 175.254 78.7064 172.685 77.306C170.233 75.9056 168.365 73.805 166.964 71.3543C165.563 68.6701 164.862 65.6359 164.862 62.485C164.745 59.334 165.446 56.2998 166.847 53.6157Z" fill="#231815"/>
<path d="M203.626 53.4989C206.195 48.4808 211.332 45.3299 216.936 45.4466C219.272 45.4466 221.607 45.9134 223.708 46.9637C225.46 47.8973 227.094 49.181 228.262 50.8148V46.0301H235.034V78.9398H228.262V74.0384C226.978 75.6722 225.46 76.9559 223.592 77.8895C219.038 80.2235 213.551 79.9901 209.114 77.306C206.779 75.7889 204.794 73.6883 203.626 71.2375C202.225 68.4367 201.524 65.4025 201.524 62.3682C201.524 59.334 202.225 56.2998 203.626 53.4989ZM226.978 56.5332C226.16 54.8994 224.876 53.6156 223.241 52.682C221.724 51.7484 220.089 51.3983 218.338 51.3983C214.718 51.3983 211.449 53.2655 209.697 56.5332C208.763 58.4004 208.18 60.3843 208.296 62.4849C208.296 64.5856 208.763 66.6862 209.697 68.5534C210.515 70.1872 211.799 71.5876 213.434 72.5212C214.952 73.4549 216.586 73.9217 218.338 73.9217C220.089 73.9217 221.724 73.4549 223.241 72.6379C224.759 71.7043 226.044 70.4206 226.978 68.7868C227.912 66.9196 228.496 64.9357 228.379 62.835C228.496 60.3843 228.029 58.2837 226.978 56.5332Z" fill="#231815"/>
<path d="M251.847 34.4767V78.9398H245.075V34.4767H251.847Z" fill="#231815"/>
<path d="M268.077 34.4767V78.9398H261.305V34.4767H268.077Z" fill="#231815"/>
<path d="M283.723 77.306C281.154 75.9056 279.169 73.805 277.768 71.2375C276.25 68.4367 275.55 65.4025 275.55 62.2516C275.55 59.1006 276.25 56.0664 277.768 53.2656C279.169 50.6981 281.271 48.5975 283.84 47.1971C289.211 44.3963 295.632 44.3963 301.12 47.1971C303.689 48.5975 305.79 50.6981 307.191 53.2656C308.709 55.9497 309.526 59.1006 309.41 62.2516C309.41 65.4025 308.709 68.4367 307.075 71.2375C305.557 73.805 303.455 75.9056 300.886 77.306C298.201 78.7064 295.165 79.5233 292.129 79.4066C289.211 79.5233 286.292 78.8231 283.723 77.306ZM297.15 72.2879C298.785 71.3542 300.069 70.0705 300.886 68.4367C301.937 66.5695 302.404 64.4689 302.287 62.2516C302.404 60.1509 301.82 58.0503 300.886 56.1831C300.069 54.5493 298.785 53.2656 297.267 52.4486C295.749 51.6317 293.998 51.1649 292.363 51.1649C290.612 51.1649 288.977 51.6317 287.459 52.4486C285.941 53.3823 284.657 54.666 283.84 56.1831C282.906 58.0503 282.439 60.1509 282.555 62.2516C282.555 65.8693 283.489 68.5534 285.241 70.5373C286.992 72.4046 289.561 73.5716 292.129 73.4549C293.881 73.5716 295.632 73.1048 297.15 72.2879Z" fill="#231815"/>
<path d="M328.324 47.0804C330.426 46.0301 332.761 45.4466 335.096 45.5633C340.701 45.4466 345.955 48.5975 348.523 53.6157C349.924 56.2998 350.625 59.334 350.508 62.3683C350.508 65.4025 349.924 68.5534 348.523 71.2376C347.239 73.805 345.371 75.9056 342.919 77.306C340.584 78.7064 337.782 79.5233 335.096 79.5233C332.761 79.5233 330.426 79.0565 328.441 78.0062C326.573 77.0726 324.938 75.7889 323.654 74.1551V94.6945H316.882V46.0301H323.654V50.9315C324.938 49.2977 326.456 47.8973 328.324 47.0804ZM342.452 56.2998C341.635 54.666 340.234 53.3823 338.716 52.5654C337.198 51.7484 335.446 51.2816 333.695 51.2816C331.944 51.2816 330.309 51.7484 328.791 52.5654C327.157 53.499 325.872 54.7827 325.055 56.4165C324.121 58.2837 323.537 60.2676 323.654 62.3683C323.654 64.4689 324.121 66.5695 325.055 68.32C326.806 71.471 330.076 73.5716 333.695 73.5716C335.446 73.5716 337.198 73.1048 338.716 72.1712C340.35 71.2376 341.635 69.8371 342.452 68.2033C343.386 66.3361 343.97 64.2355 343.853 62.1349C343.853 60.1509 343.386 58.0503 342.452 56.2998Z" fill="#231815"/>
</svg>
