<svg width="39" height="22" viewBox="0 0 39 22" fill="none" xmlns="http://www.w3.org/2000/svg">
<path d="M21.8501 10.9998C21.8501 17.0749 16.9588 22 10.9249 22C4.89095 22 0 17.0764 0 10.9998C0 4.92322 4.89132 0 10.9249 0C16.9584 0 21.8501 4.92471 21.8501 10.9998ZM33.8353 10.9998C33.8353 16.7188 31.3894 21.3545 28.3726 21.3545C25.3559 21.3545 22.91 16.7173 22.91 10.9998C22.91 5.28233 25.3559 0.645127 28.3726 0.645127C31.3894 0.645127 33.8353 5.28233 33.8353 10.9998ZM38.7373 10.9998C38.7373 16.1237 37.877 20.2772 36.816 20.2772C35.7551 20.2772 34.8948 16.1223 34.8948 10.9998C34.8948 5.87738 35.7551 1.72244 36.8164 1.72244C37.8778 1.72244 38.7373 5.87626 38.7373 10.9998Z" fill="#B4B6B8"/>
</svg>
