<svg width="386" height="226" viewBox="0 0 386 226" fill="none" xmlns="http://www.w3.org/2000/svg">
<g opacity="0.4">
<path opacity="0.4" d="M325.805 162.239C327.326 158.097 329.788 157.783 323.697 151.809C327.122 152.277 329.496 155.836 329.944 156.641C331.623 154.917 351.16 142.865 367.415 150.043C370.64 151.81 369.993 157.049 358.868 158.621C347.743 160.193 336.416 160.69 330.236 158.589C328.401 160.268 326.969 161.724 325.805 162.239Z" fill="#4A8B9C"/>
<path opacity="0.4" d="M289.331 142.175C292.014 135.145 292.506 133.421 288.429 127.513C292.886 131.496 294.163 133.555 296.871 131.785C299.579 130.015 316.451 114.83 331.206 120.734C334.139 122.926 321.096 140.729 298.171 135.545C293.38 134.518 291.21 139.152 289.331 142.175Z" fill="#4A8B9C"/>
<path opacity="0.4" d="M236.644 161.719C237.874 158.002 240.113 158.472 237.088 153.033C238.544 154.465 240.403 156.86 241.007 156.524C241.611 156.188 258.89 147.897 265.204 151.901C267.443 153.557 259.992 161.261 242.598 158.672C240.986 158.382 239.598 158.494 236.644 161.719Z" fill="#8EBCC8"/>
<path opacity="0.4" d="M279.239 101.505C280.312 96.5572 282.102 95.0342 277.623 91.7231C280.847 92.3037 282.527 95.325 284.497 94.3615C286.466 93.3981 306.652 78.4802 331.412 81.9839C333.919 82.6991 335.356 91.9214 285.102 96.3984C283.289 96.2201 280.894 98.0792 279.239 101.505Z" fill="#4A8B9C"/>
<path opacity="0.4" d="M221.141 82.3907C224.431 80.9565 229.579 79.544 223.622 75.4724C225.929 76.2997 227.899 77.7091 227.899 77.7091C235.151 76.0493 250.033 66.0587 267.543 74.7814C262.217 79.1938 252.729 86.3166 228.728 78.9623C226.893 80.6421 225.08 81.6502 221.141 82.3907Z" fill="#4A8B9C"/>
<path opacity="0.4" d="M214.54 192.867C218.075 188.791 220.784 189.395 216.416 181.539C219.506 184.963 219.24 189.462 224.88 187.512C230.52 185.562 254.379 175.59 260.719 186.041C257.722 192.982 243.444 202.637 222.083 189.595C220.717 189.036 219.195 189.619 214.54 192.867Z" fill="#4A8B9C"/>
<path opacity="0.4" d="M200.821 149.467C202.833 144.788 204.042 144.116 199.384 140.245C203.884 141.698 204.221 144.675 208.026 142.032C213.374 138.134 228.994 126.151 245.966 134.382C237.776 141.705 235.494 143.766 207.781 144.674C205.878 144.809 203.752 145.727 200.821 149.467Z" fill="#4A8B9C"/>
<path opacity="0.4" d="M163.313 171.646C163.67 169.206 169.133 170.256 163.488 162.714C166.22 163.832 166.602 167.839 168.572 168.062C170.587 168.128 188.603 159.032 198.971 166.056C197.943 169.661 179.187 177.191 168.483 169.562C167.207 168.689 165.506 169.899 163.313 171.646Z" fill="#4A8B9C"/>
<path opacity="0.4" d="M158.135 107.804C160.17 103.64 160.797 102.632 156.743 99.6117C160.885 101.132 160.73 104.647 165.743 101.331C170.756 98.0161 190.072 91.4933 200.35 97.6449C204.985 101.001 195.007 113.407 163.618 104.623C162.722 104.198 162.208 104.221 158.135 107.804Z" fill="#4A8B9C"/>
<path opacity="0.4" d="M152.215 135.095C153.49 133.595 155.37 132.945 155.841 133.079C154.295 130.774 153.958 127.797 154.181 127.013C155.571 130.46 156.781 133.347 158.504 132.652C160.228 131.958 173.478 127.094 178.362 134.927C174.154 137.794 166.746 140.596 157.341 134.354C156.535 133.616 153.938 134.4 152.215 135.095Z" fill="#8EBCC8"/>
<path opacity="0.4" d="M115.954 145.767C118.281 142.363 115.347 138.984 115.301 136.768C117.653 140.998 117.9 143.102 120.654 143.549C123.251 143.95 138.314 139.265 144.474 147.97C138.298 151.801 127.664 151.649 120.05 145.071C119.087 144.288 117.901 144.288 115.954 145.767Z" fill="#4A8B9C"/>
<path opacity="0.4" d="M79.8083 159.013C83.77 157.601 86.1434 158.786 82.1339 153.236C83.7464 154.713 84.7324 157.197 86.277 157.13C87.8216 157.062 100.783 156.183 107.903 160.926C102.51 163.793 93.757 164.178 85.7627 158.339C84.9118 157.757 81.2856 158.587 79.8083 159.013Z" fill="#8EBCC8"/>
<path opacity="0.4" d="M39.3375 165.433C40.5234 164.246 41.8892 164.805 39.2002 158.785C41.328 161.425 41.3738 163.642 43.5447 162.566C45.7157 161.491 56.1229 156.494 60.6699 162.536C58.3206 165.425 50.8458 170.241 42.7395 164.201C41.9333 163.462 39.3375 165.433 39.3375 165.433Z" fill="#8EBCC8"/>
<path opacity="0.4" d="M2.95284 149.801C4.65309 147.405 4.92131 146.465 3.17373 143.085C5.09959 144.651 5.70493 146.688 6.73465 146.643C7.80908 146.441 15.2606 139.924 19.8964 144.466C16.8983 147.847 11.3032 150.827 6.37703 147.897C5.68284 147.36 2.95284 149.801 2.95284 149.801Z" fill="#8EBCC8"/>
<path opacity="0.4" d="M67.7073 131.327C68.6014 128.193 68.5556 125.977 64.2332 121.524C66.7859 123.269 68.5335 126.648 71.5327 125.64C74.532 124.631 89.035 117.752 98.3956 125.337C95.7108 128.808 79.6843 132.71 71.2877 128.281C69.9667 127.565 69.1167 129.357 67.7073 131.327Z" fill="#4A8B9C"/>
<path opacity="0.4" d="M22.8792 103.118C25.4971 100.476 26.3034 101.214 22.4059 95.8656C24.3317 97.4317 25.5866 100.162 27.0192 99.893C29.3247 99.5338 43.135 95.6773 49.8082 100.801C47.5268 105.234 31.8117 104.48 26.9303 101.393C26.0794 100.811 24.7814 101.797 22.8792 103.118Z" fill="#8EBCC8"/>
<path opacity="0.4" d="M221.313 116.842C223.505 113.909 224.401 114.334 219.72 109.948C221.78 111.044 223.438 113.551 224.96 112.968C227.198 112.251 240.336 105.999 247.725 109.802C246.182 114.615 230.536 116.592 225.073 114.356C223.975 114.043 222.946 115.275 221.313 116.842Z" fill="#8EBCC8"/>
<path opacity="0.4" d="M97.4244 104.384C98.8785 102.256 100.557 101.718 100.96 101.494C100.96 101.494 97.7126 98.0259 97.5102 95.765C100.063 98.6964 101.408 102.3 106.758 100.775C112.107 99.2507 126.434 100.117 130.197 104.75C126.102 107.818 115.403 110.867 102.953 102.232C102.057 101.807 99.4833 103.107 97.4244 104.384Z" fill="#8EBCC8"/>
</g>
</svg>
