<svg width="385" height="312" viewBox="0 0 385 312" fill="none" xmlns="http://www.w3.org/2000/svg">
<g clip-path="url(#clip0_2234_877)">
<path d="M154.875 140.073C154.875 141.833 155.747 143.264 157.499 144.365C159.243 145.398 161.352 146.253 163.824 146.922C166.296 147.531 168.759 148.259 171.231 149.114C173.695 149.902 175.803 151.307 177.556 153.313C179.3 155.261 180.18 157.784 180.18 160.882C180.18 165.022 178.58 168.332 175.388 170.83C172.256 173.327 168.226 174.572 163.282 174.572C158.888 174.572 155.12 173.598 151.988 171.651C148.856 169.704 146.629 167.122 145.3 163.896L152.073 159.976C152.792 162.169 154.155 163.896 156.136 165.174C158.126 166.453 160.505 167.088 163.273 167.088C165.864 167.088 168.006 166.597 169.691 165.632C171.375 164.599 172.222 163.016 172.222 160.89C172.222 159.13 171.35 157.724 169.597 156.691C167.853 155.599 165.745 154.744 163.273 154.135C160.801 153.466 158.337 152.704 155.865 151.857C153.393 151.002 151.285 149.605 149.541 147.658C147.797 145.711 146.925 143.222 146.925 140.174C146.925 136.221 148.432 132.97 151.446 130.413C154.519 127.856 158.346 126.578 162.918 126.578C166.592 126.578 169.843 127.433 172.679 129.134C175.575 130.777 177.733 133.088 179.189 136.068L172.594 139.81C170.969 135.916 167.743 133.969 162.926 133.969C160.7 133.969 158.803 134.519 157.237 135.611C155.671 136.644 154.883 138.134 154.883 140.081" fill="white"/>
<path d="M220.208 127.754H228.073V173.369H220.208V166.8C217.025 171.972 212.14 174.555 205.579 174.555C200.27 174.555 196.029 172.878 192.837 169.534C189.645 166.131 188.045 161.534 188.045 155.76V127.754H195.91V155.303C195.91 159.011 196.901 161.898 198.89 163.972C200.88 165.979 203.614 166.986 207.111 166.986C211.031 166.986 214.189 165.767 216.601 163.337C219.006 160.84 220.208 157.038 220.208 151.933V127.754Z" fill="white"/>
<path d="M240.035 173.369V127.754H247.9V173.369H240.035ZM244.014 119.449C242.507 119.449 241.245 118.933 240.221 117.9C239.197 116.867 238.68 115.622 238.68 114.158C238.68 112.693 239.188 111.449 240.221 110.416C241.245 109.324 242.507 108.773 244.014 108.773C245.521 108.773 246.698 109.324 247.722 110.416C248.747 111.449 249.263 112.693 249.263 114.158C249.263 115.622 248.755 116.867 247.722 117.9C246.698 118.933 245.47 119.449 244.014 119.449Z" fill="white"/>
<path fill-rule="evenodd" clip-rule="evenodd" d="M66.5491 138.98L59.8101 150.807C54.6712 159.815 54.6712 170.575 59.8101 179.583C64.949 188.591 74.1516 193.967 84.421 193.967C91.2446 193.967 99.9223 191.123 102.597 187.355C105.273 183.596 105.612 180.464 102.775 173.335C100.473 167.544 94.9274 162.913 86.2836 159.586C76.5221 155.836 70.1811 149.986 67.4381 142.197C67.0571 141.122 66.7692 140.047 66.5491 138.98ZM76.6152 121.32L82.516 110.966C83.3627 109.484 85.4707 109.484 86.3088 110.966L109.023 150.807C113.197 158.13 113.984 166.596 111.377 174.351C111.106 173.09 110.725 171.795 110.217 170.482C107.076 162.465 99.9815 156.276 89.128 152.094C81.6611 149.224 76.8947 145.008 74.9644 139.556C72.4669 132.529 75.0745 124.867 76.6238 121.32H76.6152ZM52.9272 183.605C59.4969 195.135 71.2733 202.01 84.421 202.01C97.5686 202.01 109.337 195.127 115.915 183.605C122.484 172.082 122.484 158.316 115.915 146.794L88.2137 98.216C86.529 95.2613 82.3128 95.2613 80.6282 98.216L52.9272 146.786C46.3576 158.308 46.3576 172.074 52.9272 183.596V183.605Z" fill="white"/>
<path d="M145.724 214.802V214.734C145.724 213.998 147.138 213.964 147.138 212.584V190.597C147.138 189.184 145.724 189.184 145.724 188.447V188.379C145.724 188.058 145.978 187.931 146.435 187.931H162.673C163.282 187.931 163.511 188.252 163.638 188.828L164.569 192.655C164.696 193.171 164.442 193.425 164.053 193.425H163.892C162.673 193.425 161.767 189.539 159.71 189.539H151.768C151.057 189.539 150.642 189.929 150.642 190.758V201.722H157.779C159.1 201.722 159.193 199.436 159.964 199.436H160.192C160.514 199.436 160.708 199.665 160.708 200.08V204.837C160.708 205.227 160.514 205.481 160.192 205.481H159.964C159.193 205.481 159.066 203.33 157.779 203.33H150.676V212.618C150.676 213.998 152.192 214.032 152.192 214.768V214.836C152.192 215.157 151.87 215.285 151.421 215.285H146.536C146.088 215.285 145.732 215.124 145.732 214.836V214.802H145.724Z" fill="white"/>
<path d="M164.561 205.735C164.561 200.367 168.641 196.38 173.916 196.38C179.707 196.38 183.719 200.782 183.719 206.184C183.719 211.585 180.054 215.666 174.618 215.666C168.48 215.666 164.552 211.001 164.552 205.76V205.726L164.561 205.735ZM180.342 207.31C180.342 201.908 177.48 197.633 173.56 197.633C170.284 197.633 167.998 200.334 167.998 204.643C167.998 209.595 170.859 214.353 175.101 214.353C178.123 214.353 180.342 211.619 180.342 207.31Z" fill="white"/>
<path d="M205.968 214.666C205.968 215.309 205.198 215.47 203.589 215.47C201.854 215.47 200.694 214.759 200.762 212.609L200.694 212.38C199.568 214.437 197.477 215.631 194.751 215.631C190.543 215.631 187.614 212.541 187.614 206.852V200.037C187.614 198.555 186.2 198.462 186.2 197.785V197.658C186.2 197.404 186.429 197.141 186.776 197.082L190.027 196.506C190.67 196.379 191.06 196.472 191.06 196.955V207.08C191.026 211.551 192.635 214.09 195.564 214.09C198.298 214.09 200.449 211.779 200.449 208.24V199.977C200.449 198.496 198.933 198.436 198.933 197.725V197.598C198.933 197.344 199.128 197.082 199.509 197.023L202.785 196.447C203.429 196.32 203.784 196.413 203.784 196.896V211.94C203.784 214.768 205.935 213.548 205.935 214.674H205.968V214.666Z" fill="white"/>
<path d="M228.082 214.641V214.802C228.082 215.124 227.76 215.319 227.277 215.319H222.68C222.164 215.319 221.876 215.124 221.876 214.802V214.641C221.876 213.905 223.358 213.905 223.256 212.516L222.867 204.804C222.672 200.113 220.775 197.861 218.109 197.861C215.247 197.861 213.283 200.147 213.283 203.195V212.55C213.283 213.905 214.824 213.905 214.824 214.641V214.802C214.824 215.124 214.502 215.319 214.019 215.319H209.194C208.745 215.319 208.423 215.124 208.423 214.802V214.641C208.423 213.905 209.93 213.905 209.93 212.55V200.884C209.93 199.216 208.322 199.309 208.322 198.598V198.471C208.322 198.217 208.55 198.056 208.931 197.895L211.827 196.515C212.563 196.126 212.919 196.515 212.919 197.091V199.919C214.045 197.768 216.263 196.38 218.93 196.38C222.723 196.38 225.872 198.92 226.261 204.897L226.676 212.482C226.744 213.896 228.056 213.896 228.056 214.633L228.082 214.641Z" fill="white"/>
<path d="M249.619 214.734V214.861C249.619 215.115 249.425 215.276 249.044 215.276H245.793C245.403 215.276 245.183 215.022 245.149 214.666L245.081 212.736C243.761 214.666 241.484 215.665 239.232 215.665C234.541 215.665 230.325 211.839 230.325 205.989C230.325 200.139 234.211 196.38 239.358 196.38C241.704 196.38 243.634 197.379 244.954 198.886V190.462C244.954 188.853 243.346 188.887 243.346 188.176V188.108C243.346 187.787 243.574 187.592 243.922 187.465L247.037 186.432C247.841 186.11 248.222 186.364 248.222 187.008V212.567C248.222 213.947 249.636 214.074 249.636 214.717H249.602L249.619 214.734ZM244.929 208.85H244.963V206.886L244.929 203.026C244.929 200.553 242.457 197.624 239.308 197.624C236.158 197.624 233.686 200.52 233.652 204.829C233.585 210.103 236.192 214.345 240.053 214.378C242.237 214.378 244.938 212.516 244.938 208.816V208.85H244.929Z" fill="white"/>
<path d="M270.36 214.666C270.36 215.242 269.328 215.47 267.888 215.47C266.154 215.47 265.221 215.056 265.061 212.931C264.164 214.539 262.326 215.631 259.499 215.631C255.257 215.631 252.328 213.506 252.328 209.815C252.294 206.116 255.384 204.092 259.373 204.092C261.429 204.092 263.071 204.668 264.13 205.633L264.061 204.6C263.646 200.037 262.394 197.59 259.303 197.59C255.283 197.59 255.901 201.993 253.97 201.993C253.039 201.993 252.463 201.442 252.463 200.579C252.463 198.521 255.096 196.371 259.278 196.371C264.036 196.371 266.863 199.427 267.381 204.507L268.151 212.194C268.379 214.573 270.301 213.735 270.301 214.7L270.368 214.666H270.36ZM264.57 210.162L264.408 208.427C264.019 206.624 262.444 205.345 260.168 205.345C257.534 205.345 255.731 206.954 255.731 209.366C255.731 212.194 257.594 214.412 260.362 214.412C262.937 214.412 264.638 212.516 264.57 210.171V210.162Z" fill="white"/>
<path d="M273.731 209.815V198.31H271.192C270.836 198.31 270.615 198.081 270.615 197.734V197.345C270.615 196.989 270.811 196.769 271.192 196.769H272.571C274.434 196.769 275.305 195.288 275.501 193.103C275.535 192.587 275.821 192.333 276.143 192.333H276.533C276.981 192.333 277.143 192.587 277.143 193.103V196.769H282.509C282.832 196.769 283.086 197.023 283.086 197.345V197.734C283.086 198.09 282.832 198.31 282.509 198.31H277.177V209.883C277.177 212.008 278.175 213.134 279.623 213.134C281.324 213.134 282.324 212.135 282.484 210.823C282.714 210.247 283.644 210.273 283.644 210.984C283.644 213.363 281.781 215.674 278.693 215.674C275.602 215.674 273.705 213.777 273.705 209.858L273.739 209.824L273.731 209.815Z" fill="white"/>
<path d="M285.726 214.768V214.607C285.726 213.87 287.107 213.87 287.107 212.516V201.036C287.107 199.529 285.726 199.232 285.726 198.657V198.589C285.726 198.335 285.956 198.199 286.303 198.013L289.257 196.532C290.061 196.142 290.442 196.532 290.442 197.082V212.541C290.442 213.896 291.983 213.896 291.983 214.632V214.793C291.983 215.115 291.627 215.309 291.179 215.309H286.421C285.972 215.309 285.684 215.115 285.684 214.793L285.718 214.759L285.726 214.768ZM286.116 190.724C286.116 189.31 287.116 188.277 288.69 188.277C290.265 188.277 291.196 189.276 291.196 190.724C291.196 192.172 290.198 193.103 288.69 193.103C287.183 193.103 286.116 192.138 286.116 190.724Z" fill="white"/>
<path d="M294.692 205.735C294.692 200.367 298.772 196.38 304.048 196.38C309.829 196.38 313.85 200.782 313.85 206.184C313.85 211.585 310.185 215.666 304.749 215.666C298.612 215.666 294.684 211.001 294.684 205.76V205.726L294.692 205.735ZM310.474 207.31C310.474 201.908 307.613 197.633 303.693 197.633C300.417 197.633 298.13 200.334 298.13 204.643C298.13 209.595 300.991 214.353 305.234 214.353C308.255 214.353 310.474 211.619 310.474 207.31Z" fill="white"/>
<path d="M336.421 214.641V214.802C336.421 215.124 336.099 215.319 335.617 215.319H331.021C330.503 215.319 330.215 215.124 330.215 214.802V214.641C330.215 213.905 331.697 213.905 331.596 212.516L331.206 204.804C331.011 200.113 329.116 197.861 326.449 197.861C323.587 197.861 321.623 200.147 321.623 203.195V212.55C321.623 213.905 323.164 213.905 323.164 214.641V214.802C323.164 215.124 322.842 215.319 322.36 215.319H317.533C317.084 215.319 316.764 215.124 316.764 214.802V214.641C316.764 213.905 318.27 213.905 318.27 212.55V200.884C318.27 199.216 316.661 199.309 316.661 198.598V198.471C316.661 198.217 316.891 198.056 317.272 197.895L320.166 196.515C320.903 196.126 321.259 196.515 321.259 197.091V199.919C322.385 197.768 324.602 196.38 327.27 196.38C331.063 196.38 334.213 198.92 334.602 204.897L335.017 212.482C335.084 213.896 336.396 213.896 336.396 214.633L336.421 214.641Z" fill="white"/>
</g>
<defs>
<clipPath id="clip0_2234_877">
<rect width="288.421" height="120" fill="white" transform="translate(48 96)"/>
</clipPath>
</defs>
</svg>
