<svg width="32" height="32" viewBox="0 0 32 32" fill="none" xmlns="http://www.w3.org/2000/svg">
<path d="M26.3335 2H4.3335C2.67725 2 1.3335 3.34375 1.3335 5V27C1.3335 28.6562 2.67725 30 4.3335 30H26.3335C27.9897 30 29.3335 28.6562 29.3335 27V5C29.3335 3.34375 27.9897 2 26.3335 2ZM23.2772 11.925C23.2897 12.1 23.2897 12.2813 23.2897 12.4563C23.2897 17.875 19.1647 24.1187 11.6272 24.1187C9.30225 24.1187 7.146 23.4438 5.3335 22.2812C5.66475 22.3188 5.9835 22.3312 6.321 22.3312C8.23975 22.3312 10.0022 21.6812 11.4085 20.5812C9.6085 20.5437 8.096 19.3625 7.57725 17.7375C8.2085 17.8312 8.77725 17.8313 9.42725 17.6625C7.55225 17.2813 6.146 15.6312 6.146 13.6375V13.5875C6.68975 13.8937 7.32725 14.0812 7.996 14.1062C7.43376 13.7323 6.97286 13.2249 6.65442 12.6295C6.33597 12.034 6.16989 11.369 6.171 10.6938C6.171 9.93125 6.371 9.23125 6.72725 8.625C8.746 11.1125 11.7772 12.7375 15.1772 12.9125C14.596 10.1313 16.6772 7.875 19.1772 7.875C20.3585 7.875 21.421 8.36875 22.171 9.16875C23.096 8.99375 23.9835 8.65 24.771 8.18125C24.4647 9.13125 23.821 9.93125 22.971 10.4375C23.796 10.35 24.596 10.1188 25.3335 9.8C24.7772 10.6188 24.0772 11.3438 23.2772 11.925Z" fill="#A6ABB4"/>
</svg>
