<svg id="be582cee-5c59-4890-8d09-7a336bbf24da" data-name="圖層 1" xmlns="http://www.w3.org/2000/svg" viewBox="0 0 1500.5 500">
	<defs>
		<style>
			.e71200a7-bfc0-4b28-94a7-7c48414f5c14{fill:#aca495;}
			.abe3fb93-c4f6-494f-9545-f00b85f09877{fill:#7199a4;}
			.b1a58a8c-1adb-4ac0-b275-01e4b829befe{fill:#d3c9b5;}
			.fcbc6e44-8173-4851-b5cc-a2e2f71c406c{fill:#53747d;}
			.f087289d-c50c-4054-9367-9c0c8f786330{fill:#e5dac4;}
			.e979acc5-020d-4b5e-9fd1-325ed7244d4e{fill:#358465;stroke:#2c7659;}
			.a26d80f4-0752-47f2-933e-6b6f873c3daa,.e9558280-360d-4acd-b6d5-166f1c430391,.e979acc5-020d-4b5e-9fd1-325ed7244d4e{stroke-miterlimit:10;}
			.a26d80f4-0752-47f2-933e-6b6f873c3daa{fill:#69a97b;stroke:#5f9b71;}
			.e9558280-360d-4acd-b6d5-166f1c430391{fill:#68a97c;stroke:#5f9b72;}

			.be31d6df-160d-4494-911f-b1b729ef865e{fill:#fff;}
			.e24f318b-d935-4099-a37e-b535c9c5b4a9{fill:#c7e6e9;}
			.b84ba159-8986-4b30-8c66-2ad0d6fdd2e0{fill:#79bfcd;}
			.a76744d7-a495-4874-9c4a-469b774bd43c {
				transform: translate(0px, 100px) scale(0);
				animation: pop 5s linear infinite;
			}
			@keyframes pop {
				0% { transform: translate(0px, 100px) scale(0)}
				20% { transform: translate(10px, 70px) scale(0.5) }
				40% { transform: translate(0px, 50px) scale(1) }
				60% { transform: translate(10px, 30px) scale(1) }
				80% { transform: translate(0px, 10px) scale(1) }
				100% { transform: translate(5px, 0px) scale(1) }
			}
		</style>
	</defs>
	<path class="e71200a7-bfc0-4b28-94a7-7c48414f5c14" d="M-329.35,548.1c97.93-1.28,176.52,3.36,227.14,7.37,202.91,16.1,293.61,49,489.67,56.63,75.46,2.94,136.44,1,172.6-.8l610.59,2.31V714.77h-1500Z" transform="translate(329.35 -214.77)"/>
	<polygon class="abe3fb93-c4f6-494f-9545-f00b85f09877" points="81.24 0 107.88 28.6 113.86 93.3 140.87 102.18 175.13 142.78 175.13 170.69 171 194.64 187.81 210.37 187.81 231.59 205.57 260.77 232.22 286.64 246.17 310.25 338.65 339.75 410.18 432.03 0 432.03 0 0 81.24 0"/>
	<polygon class="abe3fb93-c4f6-494f-9545-f00b85f09877" points="1500 53.86 1455.26 60.32 1436.23 79.35 1428.85 105.11 1411.83 136.73 1389.29 156.79 1385.93 179.75 1360.98 220.29 1328.39 250 1328.39 274.73 1316.97 289.95 1292.87 301.37 1273.84 336.34 1252.27 360.09 1500 360.09 1500 53.86"/>
	<path class="b1a58a8c-1adb-4ac0-b275-01e4b829befe" d="M1170.65,548.1c-308.33,16.48-479.91,41.67-590.29,50.51-28.52,2.29-220.8,20.83-373,29.18-38.87,2.13-58.31,3.21-87.57,3.41-155.57,1-210.81-25-333-16.73a769,769,0,0,0-116.13,17v83.33h1500Z" transform="translate(329.35 -214.77)"/>
	<polygon class="fcbc6e44-8173-4851-b5cc-a2e2f71c406c" points="0 139.53 25.16 115.49 76.92 135.79 99.24 203.5 136.28 246.99 154.97 301.71 186.45 331.86 209.77 395.89 0 395.89 0 139.53"/>
	<path class="f087289d-c50c-4054-9367-9c0c8f786330" d="M-329.35,589.77c50.29,3.35,130.26,9.51,228.41,20.89,169,19.61,269,57.21,413,43.78,15.21-1.42,29.51-3.23,76-7.71,79-7.62,152.06-14.66,209.5-17C723.74,624.48,822.93,639.8,843,643a1132.14,1132.14,0,0,1,253.11,71.75H-329.35Z" transform="translate(329.35 -214.77)"/>
	<path id="f43ec3f0-67e5-4a02-873b-8429a0294e88" data-name="海扇" class="abe3fb93-c4f6-494f-9545-f00b85f09877" d="M-123.06,338.48c-.3-.12-.62-.18-.91-.31a5.08,5.08,0,0,1-.76-.42c-.14-.08-.14-.21,0-.33s.36-.39.55-.57c.4-.39.84-.74,1.22-1.16a1.31,1.31,0,0,0,.32-1.52,1.29,1.29,0,0,0-1.82-.65,4.44,4.44,0,0,0-1.47,1.1,6.45,6.45,0,0,0-1.44,2.3,9.1,9.1,0,0,1-3.57-2.51,1.94,1.94,0,0,1,.23-.25,9.19,9.19,0,0,1,.74-.66,31.67,31.67,0,0,1,5-2.93,1.86,1.86,0,0,1,1.84.09,4.73,4.73,0,0,0,3.42.43,2.75,2.75,0,0,0,1-.49,1.29,1.29,0,0,0,.49-1.45,1.46,1.46,0,0,0-1.23-1.09,9,9,0,0,0-1.27,0,10.6,10.6,0,0,1-1.26,0,1.33,1.33,0,0,1-.87-2,3,3,0,0,1,.51-.61c.5-.41,1-.79,1.55-1.2a9.83,9.83,0,0,0,1.24-1.07.85.85,0,0,0-.51-1.45,1.54,1.54,0,0,0-.3,0,4.64,4.64,0,0,0-3.36,1.28,8,8,0,0,0-2.32,4.48,1.23,1.23,0,0,1-.86,1.09,23.68,23.68,0,0,0-4.46,2.66c-1.43,1-2.84,2-4.34,2.88a12.88,12.88,0,0,1-6,1.89c-.55,0-1.11,0-1.66,0a8.26,8.26,0,0,1,.75-.72,18.31,18.31,0,0,0,3-3.82c.56-.91,1.1-1.83,1.63-2.75a.29.29,0,0,1,.43-.15,13.09,13.09,0,0,0,1.5.48,5.11,5.11,0,0,0,5.07-1.53,1.11,1.11,0,0,0,.26-1.34,1.35,1.35,0,0,0-1.45-.68c-.38.09-.75.23-1.13.35s-1,.38-1.56.53a2.4,2.4,0,0,1-1.52-.06.55.55,0,0,1-.42-.75,2.56,2.56,0,0,1,.19-.63c.43-1,.86-1.92,1.33-2.85a11.94,11.94,0,0,1,2-2.89A.24.24,0,0,1-133,319a18.52,18.52,0,0,0,4.91,2,7.69,7.69,0,0,0,3,.25,3.12,3.12,0,0,0,2.66-2,1.07,1.07,0,0,0-.83-1.62,4.64,4.64,0,0,0-2.16,0,9.3,9.3,0,0,1-2.88.26,4.71,4.71,0,0,1-2.61-1.05c-.3-.25-.31-.28,0-.56a6.08,6.08,0,0,1,1-.93c1-.65,2-1.25,3-1.84a6.91,6.91,0,0,1,2.06-.76,16.82,16.82,0,0,0,1.76-.46,2.34,2.34,0,0,0,1.49-1.34A.63.63,0,0,0-122,310a1.84,1.84,0,0,0-.41-.16,3.53,3.53,0,0,0-1.88,0,17.32,17.32,0,0,0-3.78,1.5,21.91,21.91,0,0,0-5,3.6,24.09,24.09,0,0,0-3.2,3.71c-.32.46-.62.93-.94,1.41a1.08,1.08,0,0,1-.51-.76c-.07-.35-.08-.71-.14-1.06A5.93,5.93,0,0,0-138,317a1.27,1.27,0,0,0-1.89-.56,2.73,2.73,0,0,0-.9,2.84,8.43,8.43,0,0,0,1.36,2.32,2.13,2.13,0,0,1,.38,2.49c0,.11-.08.23-.13.34-.29.68-.59,1.36-.87,2.05a17.91,17.91,0,0,1-2.14,4.09,19,19,0,0,1-2.81,3,12,12,0,0,1-2.2,1.59,2,2,0,0,1-1.49.2l-1.12-.29a19.47,19.47,0,0,0-4.69-.37h-.57l.2-.23a29.29,29.29,0,0,0,2.94-4c.66-1.07,1.26-2.18,1.89-3.26.07-.12.1-.28.31-.24l1.73.22a.28.28,0,0,1,.19.14A5,5,0,0,0-146,329.8a3,3,0,0,0,1.37.62,1.41,1.41,0,0,0,1.6-1.08,1.4,1.4,0,0,0-.8-1.73,6.73,6.73,0,0,1-.73-.32,1.91,1.91,0,0,1-.55-.47c-.18-.26-.14-.32.14-.47l.35-.18a7.33,7.33,0,0,0,2.32-1.74,2.39,2.39,0,0,0,.65-2.13,1,1,0,0,0-1.71-.64,8.63,8.63,0,0,0-1.11,1.07,5.22,5.22,0,0,1-2.24,1.54,4.18,4.18,0,0,1-2.27.13s0-.06,0-.08a59.7,59.7,0,0,0,1.17-6.76,1.37,1.37,0,0,1,.52-1,9.91,9.91,0,0,1,1-.75,8.62,8.62,0,0,1,3.26-1.2,64.81,64.81,0,0,0,7.15-1.75,28.85,28.85,0,0,0,7.69-3.64,9.29,9.29,0,0,0,2.57-2.43,2,2,0,0,0-.15-2.7.85.85,0,0,0-1.15-.18,4,4,0,0,0-.91.74c-.57.61-1.09,1.26-1.65,1.89a4.35,4.35,0,0,1-1.58,1.17c-.42.18-.62.12-.8-.25a5.25,5.25,0,0,1-.17-5.19,7.8,7.8,0,0,0,.59-1.57,1.18,1.18,0,0,0-.42-1.24,1.11,1.11,0,0,0-1.22-.08,3.19,3.19,0,0,0-1.86,2.23,16.6,16.6,0,0,0-.3,2.23c0,.26-.05.53-.08.84-.29-.09-.54-.14-.77-.23-.47-.19-.92-.43-1.4-.6a5.34,5.34,0,0,0-1.39-.39,1,1,0,0,0-1,1.27,2.07,2.07,0,0,0,.28.65,3.66,3.66,0,0,0,2.07,1.51c.73.22,1.49.31,2.24.46a.4.4,0,0,1,.25.15c.26.72.49,1.44.75,2.16a.29.29,0,0,1-.17.41,11.6,11.6,0,0,1-3.69,1.34c-1.36.24-2.72.43-4.09.65A14.19,14.19,0,0,0-147,313.5l-.54.3a.68.68,0,0,1,0-.15c0-.89.05-1.78.09-2.67,0-.07.11-.17.19-.19.3-.06.61-.1.92-.15a6,6,0,0,0,1.42-.27,5.86,5.86,0,0,0,1.44-1,3.33,3.33,0,0,0,1.15-1.9,1.3,1.3,0,0,0-.86-1.47c-.63-.27-1-.14-1.48.45a4.06,4.06,0,0,1-.69.74,2,2,0,0,1-1.86.36.55.55,0,0,1,0-.13,11.76,11.76,0,0,1,1.67-5.68c.1-.17.2-.16.36-.13a15.37,15.37,0,0,0,4.44.3,3.16,3.16,0,0,0,2.59-1.44,1.56,1.56,0,0,0,0-1.9,1.76,1.76,0,0,0-1.66-.62,6.43,6.43,0,0,0-1.17.39c-.37.14-.73.34-1.11.48a2,2,0,0,1-1.44,0,1.26,1.26,0,0,1,.4-.89c.6-.55,1.23-1.07,1.85-1.61A5.1,5.1,0,0,0-140,295a.82.82,0,0,0-.19-1.1,2,2,0,0,0-2.15-.39,4.52,4.52,0,0,0-1.55,1,14.51,14.51,0,0,0-2.6,3.48c-.31.54-.58,1.1-.9,1.71-.28-.34-.55-.64-.8-1a6.72,6.72,0,0,1-1.21-3.47,9.23,9.23,0,0,0-.36-1.72,2.29,2.29,0,0,0-1.49-1.51.63.63,0,0,0-.57.07,2.74,2.74,0,0,0-1,1.24,4.09,4.09,0,0,0-.07,2.94,10.87,10.87,0,0,0,1.18,2.51l.14.26a1.46,1.46,0,0,1-1.13.1c-.52-.14-1-.35-1.52-.5a5.92,5.92,0,0,0-1.31-.3,1.38,1.38,0,0,0-1.3.82,1.17,1.17,0,0,0,.11,1.39,5.52,5.52,0,0,0,1.06,1,4.32,4.32,0,0,0,3,.86,13.29,13.29,0,0,0,1.72-.47c.36-.1.72-.23,1.08-.34a.28.28,0,0,1,.24,0c.28.31.54.63.81.94a.49.49,0,0,1,.08.48c-.31,1.16-.65,2.3-.89,3.47a37.3,37.3,0,0,0-.63,8v.55l-.2,0A11.75,11.75,0,0,1-155,311.9a5.26,5.26,0,0,1-1.33-2.53.45.45,0,0,1,.23-.52c.53-.31,1.06-.62,1.57-1a3.13,3.13,0,0,0,1.47-2.05,1.41,1.41,0,0,0-.82-1.53,1.14,1.14,0,0,0-1.45.45,11.7,11.7,0,0,0-.68,1,2.05,2.05,0,0,1-1.43,1,.62.62,0,0,1-.73-.35,2,2,0,0,1-.15-.33,23.27,23.27,0,0,1-1.33-5,5.32,5.32,0,0,1,.6-3.41,5.86,5.86,0,0,0,.51-1.21,1.4,1.4,0,0,0-.75-1.83,1,1,0,0,0-1.54.5,3.1,3.1,0,0,0-.19.66c-.06.31-.07.62-.14.93a6.54,6.54,0,0,1-.24.75.27.27,0,0,1-.44.14l-1.38-.9c-.36-.22-.72-.44-1.1-.63a.63.63,0,0,0-.75.05,1.36,1.36,0,0,0-.35,1.91,2.79,2.79,0,0,0,.46.51,7.84,7.84,0,0,0,2.6,1.52.32.32,0,0,1,.23.32c0,.5,0,1,0,1.49s0,.84,0,1.31c-.4,0-.76-.06-1.1-.13a10,10,0,0,1-2.78-1.18,15.33,15.33,0,0,0-1.68-.82.87.87,0,0,0-.93.18,1.28,1.28,0,0,0-.43,1.22,2.08,2.08,0,0,0,.7,1.25,6.78,6.78,0,0,0,3,1.53c1.12.26,2.26.45,3.4.65a.54.54,0,0,1,.5.4,23.85,23.85,0,0,0,1.08,2.35,30.32,30.32,0,0,0,5.13,6.49l.92.93-.61.19c-.18.05-.38.07-.56.13a1.11,1.11,0,0,0-.57,1.78,1.87,1.87,0,0,0,1.88.79,4.82,4.82,0,0,0,1.85-.75c.23-.14.49-.37.72-.36s.49.27.74.4.23.27.21.48a21.66,21.66,0,0,1-2,7,31.2,31.2,0,0,1-3.79,6c-.35.43-.73.84-1.12,1.29,0-.13,0-.22,0-.3a19,19,0,0,0-.17-5.53,16.53,16.53,0,0,0-2.09-5.51c-.07-.12-.15-.22,0-.38a16.67,16.67,0,0,0,1.43-1.6,4.47,4.47,0,0,0,1-3,2.72,2.72,0,0,0-1.15-2.3,1.17,1.17,0,0,0-1.85.89,3.72,3.72,0,0,0,0,.58,4.24,4.24,0,0,1-.36,2.25,2,2,0,0,1-.73.88l-4.35-6.33a1.37,1.37,0,0,1-.19-1.13c.11-.42.24-.83.37-1.24a1.69,1.69,0,0,0-.68-2.35.91.91,0,0,0-1-.16,1.92,1.92,0,0,0-.64.49,4,4,0,0,0-.69,1.7c-.1.39-.18.78-.27,1.16-.05,0-.07,0-.09,0a6,6,0,0,1-3.69-2.68,2.41,2.41,0,0,0-.65-.7.85.85,0,0,0-1.26.25,2.63,2.63,0,0,0,.26,3.11,6.63,6.63,0,0,0,2.82,1.9,12.13,12.13,0,0,0,2.79.63,1.63,1.63,0,0,1,1.23.74c.93,1.49,1.9,3,2.79,4.46.58,1,1,2.08,1.56,3.07a18.5,18.5,0,0,1,2,5.16,12.84,12.84,0,0,1,.16,6.19c-.13.5-.29,1-.44,1.46h-.09c-.06-.37-.14-.74-.17-1.11a9.25,9.25,0,0,0-1.5-4.31,14.72,14.72,0,0,0-4.32-4.5c-.55-.36-1.16-.66-1.57-.89-.09-.53-.19-1-.24-1.44a.86.86,0,0,1,.62-1,3.11,3.11,0,0,0,1.76-3.2,1.33,1.33,0,0,0-.72-1,.77.77,0,0,0-1.06.18,6.41,6.41,0,0,0-.48.68c-.22.33-.42.67-.67,1.06a4.86,4.86,0,0,0-.23-.43c-.5-.85-.95-1.73-1.51-2.53a5.56,5.56,0,0,0-2.59-2.07,2.83,2.83,0,0,0-1.12-.18c-.43,0-.69.31-.91.67a.73.73,0,0,0,.09.87c.52.73,1.05,1.46,1.59,2.18s1.25,1.51,1.82,2.31a3.35,3.35,0,0,1,.64,2.4c-.06.46-.09.49-.56.53a3.62,3.62,0,0,1-2.09-.52c-.84-.49-1.63-1.06-2.45-1.59a3.91,3.91,0,0,0-1.46-.68.91.91,0,0,0-1,.42,1.37,1.37,0,0,0,0,1.6,6,6,0,0,0,2.54,2.23,12,12,0,0,0,3.16.93,15.29,15.29,0,0,1,6.29,2.52,8.6,8.6,0,0,1,2.53,2.8,17.45,17.45,0,0,1,2.29,8.95c-.18,3.85-1.33,4.19-2.39,5.61s.26,3.64,2.76,3.29c1.47-.2,2.45-2.83,3.21-5.27s.54-3.55,3.06-3.47a18.18,18.18,0,0,1,1.81.18,1.37,1.37,0,0,1,1.25,1.21,9.62,9.62,0,0,0,.91,2.59,3.24,3.24,0,0,0,1.83,1.62,2.06,2.06,0,0,0,.65.11.8.8,0,0,0,.83-1,4,4,0,0,0-.44-1c-.24-.41-.52-.8-.76-1.21a3.87,3.87,0,0,1-.25-.59l.06,0c.48.35.94.7,1.42,1a14,14,0,0,0,6.72,2.65c.08,0,.22.09.23.16a8.28,8.28,0,0,0,1.82,3.39,4.88,4.88,0,0,0,1.37,1.42,2.39,2.39,0,0,0,1.8.31,1.43,1.43,0,0,0,1-1.14,1,1,0,0,0-.52-1.26c-.53-.3-1.09-.53-1.62-.83a2.63,2.63,0,0,1-1.16-1.36.62.62,0,0,1,.46-.93,26.83,26.83,0,0,1,4.53-.78,4.74,4.74,0,0,1,2.7.71,10.9,10.9,0,0,0,1.18.6,1,1,0,0,0,1.23-.14,1.41,1.41,0,0,0,.44-1.38,3.28,3.28,0,0,0-1.13-1.56,3.28,3.28,0,0,0-1.91-.78,3.58,3.58,0,0,1-.53-.1,10.08,10.08,0,0,0,1.06-1.12A.93.93,0,0,0-132,339a2.67,2.67,0,0,0-1.77.72,3.17,3.17,0,0,0-.95,1.2l-.15.29a1.53,1.53,0,0,1-1.34,1,16.46,16.46,0,0,0-2.31.53,9,9,0,0,1-7.39-1,26,26,0,0,1-4.54-3.63h.36c1.83.1,3.67.23,5.51.31a21.59,21.59,0,0,0,10.75-2.4.38.38,0,0,1,.45,0l2.16,1.62a7.32,7.32,0,0,0,2.67,1.38,6.72,6.72,0,0,1,2.65,1.47c.2.16.42.31.63.45a2.14,2.14,0,0,0,2.46-.21l.18-.11.36-.42A1.18,1.18,0,0,0-123.06,338.48Z" transform="translate(329.35 -214.77)"/>
	<path id="afb272e1-293c-4183-b43e-9a56d3a8f26a" data-name="海扇" class="fcbc6e44-8173-4851-b5cc-a2e2f71c406c" d="M-191.43,412c.25.41.41.88.66,1.29a9,9,0,0,0,.8,1c.16.18.34.15.49,0s.51-.63.74-1c.49-.69.92-1.43,1.45-2.08a2,2,0,0,1,2.19-.82,2,2,0,0,1,1.38,2.58,6.55,6.55,0,0,1-1.32,2.43,9.75,9.75,0,0,1-3.1,2.66,13.77,13.77,0,0,0,4.53,4.76,4.26,4.26,0,0,0,.33-.4c.28-.41.57-.82.81-1.25a45.27,45.27,0,0,0,3.24-8.17,2.76,2.76,0,0,0-.53-2.71,7.24,7.24,0,0,1-1.41-5,4,4,0,0,1,.52-1.59,1.92,1.92,0,0,1,2.05-1.05,2.18,2.18,0,0,1,1.89,1.59,12.92,12.92,0,0,1,.3,1.88,16.75,16.75,0,0,0,.31,1.88,2,2,0,0,0,3.23.85,4.82,4.82,0,0,0,.78-.91c.51-.84,1-1.72,1.45-2.56a14.57,14.57,0,0,1,1.32-2.1,1.27,1.27,0,0,1,2.27.44,1.84,1.84,0,0,1,.13.44,7,7,0,0,1-1.16,5.3,12.25,12.25,0,0,1-6.17,4.45,1.83,1.83,0,0,0-1.42,1.52,36,36,0,0,1-3,7.24c-1.15,2.35-2.36,4.68-3.32,7.1a19.38,19.38,0,0,0-1.48,9.43c.09.83.28,1.64.43,2.46a14.47,14.47,0,0,0,.9-1.28,27.06,27.06,0,0,1,5-5.27c1.23-1,2.48-2,3.73-3,.26-.21.32-.36.14-.68a19.05,19.05,0,0,1-1.06-2.12,7.71,7.71,0,0,1,1.16-7.9,1.65,1.65,0,0,1,1.94-.68,2,2,0,0,1,1.33,2c0,.59-.17,1.18-.28,1.77-.14.81-.33,1.62-.44,2.45a3.62,3.62,0,0,0,.44,2.25.84.84,0,0,0,1.21.45,4.37,4.37,0,0,0,.9-.43c1.32-.85,2.65-1.69,3.94-2.6a17.75,17.75,0,0,0,3.86-3.63.35.35,0,0,0,0-.53,27.55,27.55,0,0,1-4.05-6.88,11.91,11.91,0,0,1-1-4.38,4.72,4.72,0,0,1,2.39-4.41,1.63,1.63,0,0,1,2.61.88,6.93,6.93,0,0,1,.43,3.22,14.36,14.36,0,0,0,.24,4.34,7.18,7.18,0,0,0,2.16,3.67c.43.39.48.4.84-.06a9.25,9.25,0,0,0,1.17-1.66c.74-1.62,1.42-3.27,2.08-4.93a10.8,10.8,0,0,0,.66-3.24,24.59,24.59,0,0,1,.3-2.72,3.56,3.56,0,0,1,1.66-2.53,1,1,0,0,1,1.47.3,4.08,4.08,0,0,1,.32.58,5.2,5.2,0,0,1,.39,2.81,26.06,26.06,0,0,1-1.4,6,32.84,32.84,0,0,1-4.26,8.18,35.73,35.73,0,0,1-4.81,5.6c-.61.58-1.25,1.13-1.89,1.72a1.6,1.6,0,0,0,1.24.59c.53,0,1.07,0,1.61,0a8.94,8.94,0,0,1,1.94.07,1.89,1.89,0,0,1,1.25,2.68c-.52,1-2.39,2.4-4,2a12.21,12.21,0,0,1-3.76-1.51,3.23,3.23,0,0,0-3.8,0c-.16.1-.32.17-.47.27-1,.58-1.91,1.18-2.87,1.75a27.58,27.58,0,0,0-5.62,4.11,28.57,28.57,0,0,0-3.84,4.84,17.67,17.67,0,0,0-1.88,3.64,3,3,0,0,0,0,2.27c.22.53.46,1.07.67,1.61a28.6,28.6,0,0,1,1.6,6.9c0,.25.09.5.15.84l.29-.34a43.33,43.33,0,0,1,5.3-5.28c1.45-1.21,3-2.36,4.44-3.54.16-.13.38-.21.29-.52-.26-.83-.47-1.68-.72-2.51a.4.4,0,0,0-.26-.26,7.55,7.55,0,0,1-4-2.23,4.42,4.42,0,0,1-1.22-1.9,2.13,2.13,0,0,1,1.24-2.64,2.15,2.15,0,0,1,2.77.81,9.63,9.63,0,0,0,.63,1,2.86,2.86,0,0,0,.83.72c.42.22.51.14.67-.32.06-.18.12-.37.19-.55a11.22,11.22,0,0,1,2.07-3.85,3.63,3.63,0,0,1,3-1.44,1.54,1.54,0,0,1,1.33,2.4,12.5,12.5,0,0,1-1.35,1.89,7.69,7.69,0,0,0-1.79,3.69,6.3,6.3,0,0,0,.3,3.41h.12a86.83,86.83,0,0,1,9.82-3.25,2.16,2.16,0,0,0,1.33-1,16.69,16.69,0,0,0,.89-1.6,13.06,13.06,0,0,0,1.07-5.13,99.77,99.77,0,0,1,1-11,43.54,43.54,0,0,1,3.72-12.27,14,14,0,0,1,3-4.37,3.06,3.06,0,0,1,4.06-.37,1.26,1.26,0,0,1,.53,1.66,6.87,6.87,0,0,1-.89,1.53c-.79,1-1.65,1.91-2.46,2.87a6.79,6.79,0,0,0-1.4,2.62c-.17.66,0,.95.56,1.14,2.72.89,5.34.95,7.77-.9a10.81,10.81,0,0,1,2.21-1.22,1.77,1.77,0,0,1,1.94.34,1.64,1.64,0,0,1,.38,1.81,4.74,4.74,0,0,1-2.91,3.26,27,27,0,0,1-3.25.95l-1.23.29c.19.41.33.78.52,1.11.38.65.84,1.27,1.2,1.94a9.05,9.05,0,0,1,.89,2,1.5,1.5,0,0,1-1.66,1.85,3.09,3.09,0,0,1-1-.28,5.52,5.52,0,0,1-2.72-2.75c-.49-1-.79-2.15-1.18-3.23-.05-.13-.16-.32-.27-.34-1.13-.22-2.26-.41-3.39-.64-.33-.06-.46.05-.58.35a17.67,17.67,0,0,0-1.17,5.79c-.07,2.08,0,4.16-.06,6.24a21.71,21.71,0,0,1-1.07,7.28c-.1.28-.21.56-.32.87a1.1,1.1,0,0,0,.24,0c1.32-.24,2.64-.47,3.95-.72a.45.45,0,0,0,.24-.32c0-.47,0-.94,0-1.41a8.21,8.21,0,0,1,.09-2.17,8.56,8.56,0,0,1,1.16-2.37,5,5,0,0,1,2.57-2.14,2,2,0,0,1,2.38.95c.54.88.43,1.47-.35,2.3a6.43,6.43,0,0,0-1,1.2,3,3,0,0,0-.11,2.86l.19,0a17.71,17.71,0,0,0,8.09-3.75c.24-.19.19-.35.11-.56a23.12,23.12,0,0,1-1.42-6.56,4.71,4.71,0,0,1,1.56-4.18,2.34,2.34,0,0,1,2.82-.47,2.65,2.65,0,0,1,1.3,2.33,9.48,9.48,0,0,1-.32,1.83c-.13.6-.35,1.17-.47,1.77a3,3,0,0,0,.29,2.15,2,2,0,0,0,1.24-.79c.69-1,1.32-2.07,2-3.11a7.4,7.4,0,0,1,1.72-2.17,1.23,1.23,0,0,1,1.67,0,3,3,0,0,1,1.06,3.12,6.89,6.89,0,0,1-1.19,2.54,21.86,21.86,0,0,1-4.61,4.65c-.73.58-1.51,1.11-2.35,1.71.57.35,1.08.69,1.63,1a10.07,10.07,0,0,0,5.43,1,13.82,13.82,0,0,1,2.65.15,3.44,3.44,0,0,1,2.58,1.89.91.91,0,0,1,0,.86,4.13,4.13,0,0,1-1.62,1.79,6.13,6.13,0,0,1-4.37.76,16.92,16.92,0,0,1-4-1.2l-.42-.15a2.28,2.28,0,0,0,.1,1.71c.33.73.75,1.42,1.09,2.15a9.38,9.38,0,0,1,.73,1.88,2.07,2.07,0,0,1-.93,2.13,1.76,1.76,0,0,1-2.1.14,7.75,7.75,0,0,1-1.7-1.37,6.38,6.38,0,0,1-1.95-4.32,20.35,20.35,0,0,1,.3-2.68c.08-.56.2-1.11.28-1.68a.47.47,0,0,0-.12-.35c-.52-.35-1.05-.66-1.58-1a.71.71,0,0,0-.73,0c-1.65.71-3.29,1.47-5,2.09a56.66,56.66,0,0,1-11.72,2.71l-.82.12c.06.13.09.21.13.28a17.51,17.51,0,0,0,5.68,6.11,7.83,7.83,0,0,0,4.07,1.42.65.65,0,0,0,.72-.45c.35-.86.7-1.73,1.1-2.56a4.78,4.78,0,0,1,2.73-2.65,2.12,2.12,0,0,1,2.46.88,1.72,1.72,0,0,1-.34,2.27c-.42.44-.89.83-1.34,1.23a3.12,3.12,0,0,0-1.16,2.35.92.92,0,0,0,.69,1,2.32,2.32,0,0,0,.51.16,34.75,34.75,0,0,0,7.75.87,8,8,0,0,0,4.94-1.65,8.63,8.63,0,0,1,1.69-1,2.14,2.14,0,0,1,2.9.72,1.52,1.52,0,0,1-.41,2.41,5.33,5.33,0,0,1-.94.43c-.45.15-.91.25-1.35.41a8.19,8.19,0,0,0-1.07.53.39.39,0,0,0-.12.68c.55.62,1.11,1.24,1.65,1.87A18.79,18.79,0,0,1-119,464.1a1,1,0,0,1,.09,1.14,2,2,0,0,1-2.77.94,5,5,0,0,1-.87-.56,12.18,12.18,0,0,1-2.84-3.54.44.44,0,0,0-.52-.27c-.74.1-1.49.15-2.23.24l-2,.28c.16.59.26,1.12.44,1.62a15.34,15.34,0,0,0,2.38,3.88,24.4,24.4,0,0,1,1.59,2.32,1.29,1.29,0,0,1-.06,1.42,1.93,1.93,0,0,1-1.72.92,3.11,3.11,0,0,1-2-.77,10,10,0,0,1-2.95-4.15c-.65-1.62-1.18-3.29-1.73-4.94a.88.88,0,0,0-.71-.66,34.89,34.89,0,0,1-3.75-1.08,45.13,45.13,0,0,1-10.8-6.2l-1.59-1.16c-.06.37-.11.66-.15.94s0,.59-.08.87a1.67,1.67,0,0,1-2.52,1.25A2.79,2.79,0,0,1-155.4,454a7.25,7.25,0,0,1,.7-2.93c.16-.38.45-.81.38-1.16s-.52-.66-.77-1a.61.61,0,0,0-.75-.2,32.17,32.17,0,0,0-9.91,4.58,46.77,46.77,0,0,0-8.14,7c-.57.61-1.09,1.26-1.68,1.95l.45-.1a28.51,28.51,0,0,1,8.27-1,24.9,24.9,0,0,1,8.68,1.89c.2.08.36.18.56-.09a28.92,28.92,0,0,1,2.07-2.48,6.83,6.83,0,0,1,4.18-2.2,4.1,4.1,0,0,1,3.69,1.2,1.78,1.78,0,0,1-.91,3,6.15,6.15,0,0,1-.86.13,6.52,6.52,0,0,0-3.29,1,3.1,3.1,0,0,0-1.14,1.29l10.39,5.07a2.08,2.08,0,0,0,1.74,0c.6-.24,1.18-.53,1.76-.82,1.69-.84,2.27-.75,3.66.49a1.37,1.37,0,0,1,.46,1.46,2.8,2.8,0,0,1-.6,1.06,6,6,0,0,1-2.37,1.41c-.56.23-1.12.44-1.67.65,0,.08,0,.11,0,.13,1.09,2.15,2.44,4,4.82,4.92a3.55,3.55,0,0,1,1.19.81,1.28,1.28,0,0,1-.1,1.93,4,4,0,0,1-4.68.31,9.86,9.86,0,0,1-3.46-3.79,18.23,18.23,0,0,1-1.57-4,2.37,2.37,0,0,0-1.37-1.66c-2.42-1.06-4.82-2.18-7.27-3.17-1.6-.64-3.32-1-4.92-1.64a28.19,28.19,0,0,0-8.14-1.88,19.15,19.15,0,0,0-9.27,1.14c-.7.29-1.38.65-2.07,1l0,.13c.57,0,1.14.05,1.7,0a14,14,0,0,1,6.75,1.28,21.85,21.85,0,0,1,7.66,5.44c.67.75,1.25,1.58,1.69,2.15.81,0,1.51.05,2.2,0a1.29,1.29,0,0,0,1.35-1.15c.37-2,2.66-3.32,4.38-3.33a2,2,0,0,1,1.68.84,1.18,1.18,0,0,1,0,1.63,10.48,10.48,0,0,1-.9.86c-.45.4-.91.78-1.43,1.23.31.11.5.17.69.25,1.37.55,2.78,1,4.11,1.68a8.48,8.48,0,0,1,3.66,3.41,4.58,4.58,0,0,1,.52,1.63,1.69,1.69,0,0,1-.81,1.5,1.1,1.1,0,0,1-1.31.06c-1.21-.6-2.41-1.23-3.6-1.88s-2.54-1.53-3.86-2.19a4.93,4.93,0,0,0-3.71-.43c-.68.19-.72.24-.66.95a5.53,5.53,0,0,0,1.23,3c.92,1.14,1.94,2.2,2.91,3.29a5.92,5.92,0,0,1,1.35,2,1.39,1.39,0,0,1-.41,1.54,2.08,2.08,0,0,1-2.39.42,8.91,8.91,0,0,1-3.87-3.29,17.79,17.79,0,0,1-2.09-4.51,23,23,0,0,0-5.16-8.81,13.05,13.05,0,0,0-4.73-3.15,26.19,26.19,0,0,0-13.84-1.42c-5.71,1.13-6,2.91-7.85,4.8s-5.47.44-5.51-3.38c0-2.23,3.68-4.27,7.14-5.94s5.18-1.6,4.49-5.35c-.16-.89-.42-1.78-.66-2.66a2.09,2.09,0,0,0-2.08-1.59,14.16,14.16,0,0,1-4.07-.77,4.87,4.87,0,0,1-2.82-2.37,3.24,3.24,0,0,1-.31-.94,1.21,1.21,0,0,1,1.38-1.48,7.1,7.1,0,0,1,1.54.44c.67.26,1.31.6,2,.88a7,7,0,0,0,.93.23l0-.1c-.62-.63-1.25-1.24-1.85-1.88a21.17,21.17,0,0,1-5.44-9.42c0-.13-.19-.31-.29-.31-2-.07-3.73-1.05-5.46-2a7.17,7.17,0,0,1-2.41-1.73,3.63,3.63,0,0,1-.87-2.62,2.13,2.13,0,0,1,1.49-1.69,1.51,1.51,0,0,1,2,.49c.55.73,1,1.51,1.59,2.23a3.94,3.94,0,0,0,2.28,1.42c.74.17,1.24-.14,1.28-.88a40.11,40.11,0,0,0,.17-6.93,7.19,7.19,0,0,0-1.67-3.87,14,14,0,0,1-1.15-1.62,1.49,1.49,0,0,1-.06-1.86,2.09,2.09,0,0,1,1.95-1,4.9,4.9,0,0,1,2.58,1.33,4.8,4.8,0,0,1,1.58,2.68,6.58,6.58,0,0,0,.27.76,16.8,16.8,0,0,1,1.43-1.83,1.39,1.39,0,0,1,2.46.8,4.11,4.11,0,0,1-.66,2.81,5,5,0,0,1-1.58,1.68c-.14.09-.27.2-.41.28a2.32,2.32,0,0,0-1.15,2.22,24.87,24.87,0,0,1-.26,3.56A13.42,13.42,0,0,0-191,446.72a38.39,38.39,0,0,0,6.42,6c0-.23,0-.38-.09-.53-.56-2.72-1.16-5.42-1.68-8.14a32.46,32.46,0,0,1,1.17-16.56.55.55,0,0,0-.13-.66c-1-1-1.93-1.91-2.89-2.87a11,11,0,0,1-2.66-3.67,10.28,10.28,0,0,0-2.78-3.62,7.13,7.13,0,0,1-.8-.85,3.19,3.19,0,0,1-.24-3.69c.05-.1.08-.2.13-.3l.54-.63A1.77,1.77,0,0,1-191.43,412Z" transform="translate(329.35 -214.77)"/>
	<path id="f03f7461-6c96-4dc5-95a8-2febb04ccc6d" data-name="珊瑚" class="abe3fb93-c4f6-494f-9545-f00b85f09877" d="M-161,280.69s4.5-.64,3-1.9c-2.4-1.82-8,2.4-9.17.76s5.25-7.28,3.22-8.52c-.94-.57-1.9-.67-2.7,1.49-3.66,9.1-16.1,16.16-16.83,15s4.68-3.29,3.32-4.4c-.69-.57-2.4,1.57-2.86.88s.12-4.05,1-5.3,6.4-4.8,5.79-5.78-1.43-.08-4,1.79-1.81,0-.74-2.57-1.17-2.31-1.87-.95-2.58,5.75-2.31,6.91-1.64,10.33-3.2,11.73-7.62,7.71-9.6,4.53c-2.49-4,10-15.26,8.76-16.72-.25-.29-.32-.41-1.72.82-7.76,6.84-6.5,4-5.86,1.71s-.12-2.69-.79-1.93c-1,1.21-2.25,6.14-1.61,7,1.78,2.18-1.42,4-1.68,6.48s-3.18,6.26-7.66,9.19c0-1,1.73-5.42,4.67-8.29s2.94-3.19,3.64-5.62-.2-2.48-.86-2.08c-1.27.73-1.23-.95-1.47-3.51,7-7.3,19.92-12.55,24.66-15.15s8.38-1.15,10.39-.95,1.9-1,.72-1.5c-1.76-.75-4.88-.35-6.92-1.09a7.64,7.64,0,0,0,3.53-3.47c.69-1.59.35-3.87-.49-2s-9.3,8.42-10.75,9.26c-.72-.76,1-3.4.26-3.66-2-.57-2.55,3-3.48,4.5s-7.34,3.3-10.1,5.78c-.75-2.25,1.54-2.42,3.07-3.63s1.35-2.28,4.3-5.15a12.52,12.52,0,0,1,8.26-3.59c2.22-.18,4.52-2.18,3.1-3.06s-5.38,1.4-6.1,0,2-3.53,3.87-6,1.73-2.34,5.84-2.73,4.62-2.37,4.34-2.87-1.52-1.47-4.27-.27c-5.64,2.45-3.89-1.48-3.08-4s-1.1-3.62-1.91-1-3.26,10.93-6.84,13.67c0-1.16-.42-8.07-2.19-9s-2.16,2.79-1.52,4.83c3.19,10.19-5.61,17-7.14,18.31s-2.14.31-2.34-.66.41-4.25-.16-6.3-1.3-1.4-1.18-1,.13,3.29-.57,3.23-3.22-.86-2.27.34c3.86,4.91,2.11,8.27.94,10.88s-6.23,4.55-7.35,7.49a10,10,0,0,1-4.6,5.06,27.28,27.28,0,0,1,5.46-8.87,18.3,18.3,0,0,0,3.34-4.76c.44-1,1-2,.28-2.52s-1.27,1-1.77,1.48-3.29.29-2.19,1.52-1.93,5.55-3,4.54.29-3.74.85-4.88,2.37-6.48,2.37-6.48,2.78-5.52,4.49-7.14,3.23-1.67,4.92-2.42,4.39-1.8,3.52-3.17-2.46.3-4.41.9-1.58-.21-.88-2-.22-2.3-.22-2.3c-2.15-1.7-3.15,3.1-3.15,3.53a6.84,6.84,0,0,1-1,3.54c-.59.66-4,4-4.71.16-.93-5,1.39-6.43,3.37-8.63s3.59-5.9,3.12-6.5-2.85,1.92-3.59,2.83-.3,3.3-2.25,3.71-3-1.71-2.43-3.09.79-2.89-.4-2a4.4,4.4,0,0,0-.25,6.66c2,1.86-1.33,3.64-.6,5.8,3,8.31-.73,8.5-.08,11.38,1.2,4.2-5.25,10-3.85,13.65,2,6.38-2.86,8.59-2.45,9.72s-1.05,5.84-1.89,6.83.76,4.24-.35,7.55c.62,1.42,7,1.64,10.86-.24,3.69-2.61,7-4.22,9.66-4.34,6.28,3,7.59,2.71,8,2.43.62-.44-.56-2-1.69-2.53,0,0,.71-1,3.29-.67,3,.41,3.9-1.12,2.75-1.35s-4.34.91-5.6-1.37c-1.36-2.45,5.25-3.17,6.47-5.1,2.55-3.95,9.72-5.72,12.09-7.42A34.57,34.57,0,0,1-161,280.69Zm-51.89,16.57c.35-5.45,5.28-11.55,7.72-13.32.46.49.54,3.3.29,4.46a35.79,35.79,0,0,0-3.65,5.22A11.6,11.6,0,0,1-212.87,297.26Z" transform="translate(329.35 -214.77)"/>
	<g id="a66153e9-af90-462b-aaa9-68af122e2ce0" data-name="右海草">
		<g id="bb7a91ff-aa7d-4e48-801f-e22517e06b15" data-name="右後海草">
			<path class="e979acc5-020d-4b5e-9fd1-325ed7244d4e" d="M1165.26,548.49c7.16-6.34-3-22-.58-31.08-8,9.35-5.33,19-2.82,25.48-9.48-14.79-20.95-26.22-32.8-35.75-2.28-10.29,1.2-17.4,6.39-21.6-12,4-15,9.46-11.29,17.77-6.37-4.83-12.78-9.19-19-13.29,9.65-6.12-7.26-16.07-.69-25.19-13.37,11.17-4.2,18.9-2.63,23-8.19-5.36-15.94-10.35-22.68-15.5,9.51-13.92-3.34-23.77,4.38-31.36-16.74,9.91-6.23,23.89-6.74,29.52-8-6.4-14.37-13.15-18-21.25,20.53-6.62,10.53-22.56,15.23-28.46-18.65,10.74-11.2,21.76-16.11,26.33a41.23,41.23,0,0,1-2.17-19.93c9.3-7,12.27-24.53.85-32.67-8,12-8.46,19.56-3.86,32.67a49.89,49.89,0,0,0-.46,8.57c-5.22-9.25-19.41-10.83-17.46-23.53-13,23,10.36,22.79,18.12,29.74a38.27,38.27,0,0,0,3.51,10.36c-6.49-2.92-20.69-3.6-24.8-17.27-2.89,16.78,2.07,23,27.34,21.63,4,6.05,9.58,11.36,16.18,16.5-11.19-5.35-24.84-4.21-31.05-9.53,7.56,11.75,22.42,13.36,36.28,13.43,4,2.89,8.34,5.77,12.84,8.74-11.8-2.84-26.52,2-32.31-2.5,9.06,9.71,25.17,3.14,36.27,5.11,6.67,4.39,13.66,9,20.66,14.24-4,.21-13.59,5.87-28.17-3,15.14,16,26,6,31.83,5.74a176.36,176.36,0,0,1,22.27,20.22c-15.45-13-28-8.91-42.68-9.62,16.76,13.35,28.77,2.92,46.65,14.13q4.46,5.26,8.57,11.22c-10-7.55-20.94-2.72-27-8,.74,13.18,21.49,10.25,31.22,14.55a144.15,144.15,0,0,1,10.11,19.91v-8.93Q1168.12,553.44,1165.26,548.49Z" transform="translate(329.35 -214.77)"/>
			<path class="e979acc5-020d-4b5e-9fd1-325ed7244d4e" d="M1147.08,556.23c9,6.34,15.9,20.93,23.57,21.88V567.85C1165.63,568.44,1157.39,554.32,1147.08,556.23Z" transform="translate(329.35 -214.77)"/>
		</g>
		<g id="a8a003e9-2cfd-44fc-ae18-ecf27c0928c5" data-name="右前海草">
			<path class="a26d80f4-0752-47f2-933e-6b6f873c3daa" d="M1147.08,567.13c2.06,3.82,1.93,21,.38,28.56a207.85,207.85,0,0,1-14.8-16.75c-.08-20.39,17.23-25.32-2.5-42,4.64,11.8-6.49,8.21-.93,37.58-6.06-8-11.33-16.06-16.2-23.93,21.29-8,12.12-27.47-4-30.88,6.24,3,6.91,18.22,1.22,26.32-4.91-8.1-9.48-16-14.15-23.5,2.8-9.13,15.56-20,.08-32.64,3.11,7-5.38,14.42-4.15,26.25-2.56-3.91-5.18-7.69-7.94-11.32,4.45-7.49,3.85-28.09-10.9-37-1.65,21,9.44,24.69,7.72,32.93a103.26,103.26,0,0,0-21.08-19.8c5.6-14.08-.15-27-23.28-29,13.6,6.15,11.7,16.68,15.48,24.12a101.2,101.2,0,0,0-14.45-6.59c-5.43-8.85-3.76-25.22-32.91-24,13.44,4.19,13.46,12.45,23.65,21.08-4-1.09-8.21-2.05-12.7-2.84-7.14-5.71-24.58-13.48-45.52-8.41,14.59,13.32,29.18,16.49,45,12.05a72.14,72.14,0,0,1,33.93,10.43c-10.56-3-31.39-6.68-44.4,1.15,22.83,10.57,32.93,2.5,46.59.22a103.12,103.12,0,0,1,22.1,20.19c-17.32-10.94-40.55-10-43.79-4.39,17.49-2.3,25.93,10.67,47.83,9.38,5.17,6.62,10.08,13.83,14.95,21.39-8.89-6.3-23.17-11.31-36.29-2.22,14-5.18,21.87,10.52,42.37,11.8,4.86,7.76,9.79,15.76,15,23.77-13.92-11.89-20.26-15.75-39.61-6.08,25.31-3.08,14,6.5,42.31,10.18,2.33,3.51,4.73,7,7.21,10.49-8.23-5.73-20.37-5.63-28.48-5.44,7,3.34,1.4,14.64,34.17,13.16,3.86,5.05,7.92,10,12.25,14.78a48.18,48.18,0,0,0-28.76-2.89c12.37,2.07,13.32,15.07,37.93,12.35h0a163.65,163.65,0,0,0,13,11.28l-.17-.12c-9.74-1.14-15.92-1.3-20.36,1.55,9.83,3.81,13,16.81,27.69,12V615.81a201.84,201.84,0,0,1-20.5-17.45C1163.75,582.74,1160,571.18,1147.08,567.13Z" transform="translate(329.35 -214.77)"/>
			<path class="a26d80f4-0752-47f2-933e-6b6f873c3daa" d="M1151.18,563.48s3.41,7.73,19.47,11.38V563.48A56.14,56.14,0,0,0,1151.18,563.48Z" transform="translate(329.35 -214.77)"/>
			<path class="a26d80f4-0752-47f2-933e-6b6f873c3daa" d="M1170.65,464.84V450.67c-11.05,5.28-18.2,23.29-21.22,36.59a223.33,223.33,0,0,1-3.36-32.73c11,1.06,27.76-8,13.64-27.54.66,8-6.92,20.18-13.78,23.29-.27-9.88-.25-19.31-.69-28.41,5.7-3.25,22.3-9.79,15.9-26-2.22,8.36-6.24,5.82-9.94,10.79-2.92,3.92-3.87,8.56-6.17,11.54a141.92,141.92,0,0,0-1.81-15.86c14.8-10.59,10.06-33.05,7.88-37.55-10.89,10.6-5.85,22.64-8.77,33.16a81.89,81.89,0,0,0-10.08-25.34c12.41-13.51,9.22-28-5.89-35.84,4.94,2.93,8,20.7,1,28.74a98.09,98.09,0,0,0-9.14-10.4c3.75-16.17-.92-28-18.75-35.25,8,3.28,5.91,16.49,11,28.2-3.08-2.58-6.42-5.16-10.07-7.75-2.38-2.53-10.15-16.17-34.41-22.83,3.81,18.55,19,26,31.75,26.16a106.55,106.55,0,0,1,22,19c-11.08-2.29-14.23-14.16-37.33-11.15,8.24,2.37,14.78,16.56,40.3,14.76a81.49,81.49,0,0,1,14.11,28.49c-9.26-11.61-25.64-22.95-38.34-21.05,15.07,6.75,22.17,22.18,39.57,26a167.69,167.69,0,0,1,3.43,28.59c-5.26-1.78-4.72-18.54-25-16,9.24.42,6.27,21.2,25.23,20.86.33,8.8.44,17.86.87,27.15-3.44-1.54-5.45-8.34-8.33-11.32-1.63-1.89-13.39-9.45-23-.11,17.21-3.95,18.22,18.7,31.47,15.11.34,6,.85,12.12,1.65,18.32-4.2-5.21-11.93-13.35-21.28-14.61,5.43,14.87,15.62,20.28,22.07,20.06a158.66,158.66,0,0,0,6,25.15c-5.8-2.89-11.11-17.57-23.89-14.55,8.27,3.52,6.45,19.56,25.91,20.18a146,146,0,0,0,13,26c-4.55-.43-4.19-16.84-30.83-15.26,9.2,1.27,10.15,11.63,15.73,16.82,7.81,7.25,12.59,1.5,16.74,1,.88,1.35,1.79,2.69,2.73,4V543.5a181.11,181.11,0,0,1-14-29.7c3.29-1.86,9.31-6.51,14-10.37V483c-3.58,2.88-10.41,19.84-15.08,27.76a165.63,165.63,0,0,1-5.53-20.42C1156.05,473.74,1166.24,477.35,1170.65,464.84Z" transform="translate(329.35 -214.77)"/>
		</g>
	</g>
	<g id="b159562e-da61-4ff9-bfb3-d258168f1df4" data-name="左海草">
		<path id="ea63ed13-3ab3-425e-991a-0db40c893fec" data-name="左後海草" class="e979acc5-020d-4b5e-9fd1-325ed7244d4e" d="M-224.72,599.65c.05-2.92.17-5.81.32-8.67-14.42-15-4-14.6-19.58-24.72,14.93,4,16.89,8.9,19.77,21.38.41-6.48,1-12.82,1.47-19-11-10.12-8.89-21.75-18.93-25.58,11.18,1.44,17.13,10.58,19.51,17.9.41-6.1.66-12,.51-17.79-12.88-9.47-12.21-20-23-26.87,4.17-1.37,17.63,8.89,22.82,22.46a73,73,0,0,0-4-20.48c-8.65-5.15-17.7-5.71-26.15-21.63,10.6,2,20.8,13.5,25.49,19.92a56.64,56.64,0,0,0-14.76-21c-10.78-5.07-17.68-13.42-20.33-26.94,13.91,7.09,20.49,19.1,22.12,25.3,2.2,2.48,4.18,4.92,6,7.32-2.14-9.1,1.3-13.32-4.52-21.65,16.91,12.85,9.14,20.42,8.5,27.43a75.34,75.34,0,0,1,5.39,10c1-5.54,6.44-10,1.35-19.43,12.2,11.69,10,20.93,1,25.51a72.79,72.79,0,0,1,3.6,19.81c4.41-3.4-.29-10.41,9.4-20.32,4.6,11.33-3.66,22.09-9.29,23.84,0,3.13-.06,6.26-.25,9.44,4.24-6.6,12.13-6.46,13.29-11.44,3.44,13.57-8.28,13.21-13.67,16.56-.5,6-1.23,12.11-1.84,18.5,6.59-1.49,12.57-9.56,10.3-14,7.66,9.19,4.69,23.34-10.63,17.57a134.63,134.63,0,0,0-.85,16.78Z" transform="translate(329.35 -214.77)"/>
		<g id="b8b58c71-9b9e-414c-afaa-c6fee384e6aa" data-name="左前海草">
			<path class="e9558280-360d-4acd-b6d5-166f1c430391" d="M-159.38,529.12c18.39-4.87,26.43-16.29,26-27.7-13.11,3.8-19.46,8-28.76,25.79a124.78,124.78,0,0,0-11.67,11c6-9.72,1.82-20.56,9.17-31.25-22.52,11.9-12.21,23.47-13.72,36.59h0a67.64,67.64,0,0,0-7,10.92c1.66-9.41-9.29-17.36-2.5-27.36-16.82,11.74-12.2,24.59,0,32.89h0c-3.06,7.69-5,16.53-6,27.35h0c-4.84-2.4-3.21-12.49-5.27-19.79s-6.5-6.81-7.13-14.11c-8.57,23.31,4.44,30.13,12.05,38.38-.2,3-.26,7.41-.27,12.8-5.31-13.11-15.91-10-16.86-20.89-10.78,17,14,20.3,16.88,27.91,0,6.88.13,14.71.19,22.74l0-.06c-2.63-.63-14-9.51-13.55-20.93-12.41,21.67,6.28,27.73,13.6,24.87.06,11.66,0,23.5-.41,33.29-3-24.45-17.54-26-20.09-35-5.16,27.16,15.73,20.57,20,36.69-.41,8.51-1.13,15.3-2.34,18.77-1.78-.88-3.85-2.8-5.06-6.67-3.2-11.22-10.71-11.76-10-16.6-10.15,12.61,4.76,22.37,11.18,24h6.42a4.6,4.6,0,0,1-.69-.06h.84l-.15.06,12.37-.06c5-1.21,3.17-10.56,8.41-14.37-8.62-1.8-11.4,6.82-16.62,11.76,1.14-4.24,1.42-11.53,1.29-20.62,4.89-.78,13.12-6.54,18.82-21.22-9.73,3.16-15.08,7.5-18.93,15.94-.14-5-.36-10.37-.62-16,13.94-1.15,8.67-19.18,26.68-19.18-20.66-11.39-21.23,13-26.85,15.39-.36-7.85-.75-16.08-1-24.24,14.78-2.19,13.37-24.65,24.53-26.36-19.43-2.39-20.35,15-24.72,19.61-.21-9.33-.19-18.4.27-26.56,14.37-4.14,22-25.31,32.54-27.94-20.1-2.41-26.47,19.91-32.11,22.17a96.45,96.45,0,0,1,1.82-12.34,55.62,55.62,0,0,1,6.29-15.22c21.89,2.22,28.23-15.54,35.63-18.5-19.08-1-26.76,13.25-33.57,15.13C-173.23,539.17-164,530.35-159.38,529.12Z" transform="translate(329.35 -214.77)"/>
			<path class="a26d80f4-0752-47f2-933e-6b6f873c3daa" d="M-239.52,687a180.14,180.14,0,0,0,1.11-27.22c19.43.5,8.37-21,13.71-27.9-10,6.15-13.43,11.35-14.54,15.94a155.23,155.23,0,0,0-3-18.51c13.28-7.37,4.23-18,8.35-26.28-8.1,3.17-9.86,11.12-10.4,18.46a114.23,114.23,0,0,0-8-20.32c4.93-2.37,9-10.48,7.06-26.32-11,11-8,14.66-8.59,23.46l-.71-1.29c-2.52-5.27-5.19-10.4-7.92-15.41,11.38-6.31.69-21.73,15.95-27.8-23.46.39-15.91,16.38-17.71,24.6-4.23-7.63-8.57-15-12.71-22.15,12-10.06-.05-23.5,11-34-17.92,7.14-15.74,18.53-14.71,27.48a237,237,0,0,1-12.13-24c17.35-16.08,7.41-27.35,18.12-37.29-13.8,1.38-18.83,18.36-19.91,32.84-3.56-9.42-5.7-18.74-5.57-28.18,20.87-6.57,21.13-21.72,25.48-30.83-14.8,3.13-21,18.33-25.38,28.12A61.36,61.36,0,0,1-291.41,463c8.67-4.65,16.5-12.05,13.11-37.85-18.18,19.67-17.76,32.78-16.7,38.49-.83,1.8-2.15,4.3-3.48,7.56-1.28-7.39-6.93-13-5.88-28.34-18.44,13.61-1.63,27.63,2.7,38.75a61.41,61.41,0,0,0-1.28,12.3c-3.76-10.64-12.42-7.23-11.88-26.15-16.75,18.11,2.73,32.57,12.18,33.15a93,93,0,0,0,5.75,23.93c-7.08-9.29-18.61-20.83-25.23-25.2-.3,15.74,15,30.46,28,31.91.91,2.06,1.88,4.15,3,6.31.57,1.16,1.17,2.31,1.77,3.47-10.05-7.6-20.6-2.63-23.5-11.72,0,20.9,18.11,16.83,27.35,18.9,4.1,7.44,8.56,15,13,22.75-5.94-4.21-14.95-1.52-22.11-14.9-4.37,14.95,6.49,20.59,14.51,21.3,3.83.34,5.44-1.79,7.61-2.08a4.29,4.29,0,0,1,3.37,1.64c4.7,8.39,9.27,17,13.26,26.06-7.32-8.19-22.2-19.48-35.58-23.55,4.2,26.8,23.89,12.57,36.7,26.13a171.36,171.36,0,0,1,6.8,18.8c-7.32-7.81-24-11.52-26.61-18.53-4.63,20.21,18.91,20,28,23.5a124.21,124.21,0,0,1,3.9,36.45c-3.65-20.24-18.72-17.84-23.65-25,0,18.76,19.56,22.25,23.53,27.22a125,125,0,0,1-2.07,16c-6.15-14.19-16.65-15.86-19.26-23.15-2.71,22.32,10.29,21.21,18.11,28.52-.22.94-.45,1.88-.7,2.83l2.07,0-.06,0h2.52v0l2,0v0l2,0c4.61-3.22,21.84-13.58,22.8-25.52C-229.53,668.11-234.12,679.25-239.52,687Z" transform="translate(329.35 -214.77)"/>
		</g>
	</g>
	<svg x="150" y="70">
		<g class="a76744d7-a495-4874-9c4a-469b774bd43c" style="animation-delay:1s">
			<path class="be31d6df-160d-4494-911f-b1b729ef865e" d="M415.19,299.84c1.12,3.61,4.49,4.63,8.16,3.48s4.84-3.56,3.72-7.17-3.57-6-7.25-4.9A6.91,6.91,0,0,0,415.19,299.84Z" transform="translate(-414.89 -290.96)"/>
			<path class="be31d6df-160d-4494-911f-b1b729ef865e" d="M415.39,299.76c1.08,3.48,4.33,4.47,7.88,3.36s4.67-3.44,3.59-6.92-3.45-5.84-7-4.74A6.67,6.67,0,0,0,415.39,299.76Z" transform="translate(-414.89 -290.96)"/>
			<path class="e24f318b-d935-4099-a37e-b535c9c5b4a9" d="M415.76,299.62c1,3.32,4.08,4.27,7.4,3.24s4.35-3.25,3.32-6.57-3.26-5.57-6.58-4.54A6.28,6.28,0,0,0,415.76,299.62Z" transform="translate(-414.89 -290.96)"/>
			<path class="b84ba159-8986-4b30-8c66-2ad0d6fdd2e0" d="M416.76,296.14a5.07,5.07,0,0,0,.33,3.56,5.18,5.18,0,0,0,3.88,2.59c.41.06,1.8.26,2.22-.42a.81.81,0,0,0,0-1c-.26-.18-.66.19-1.2.37a3.52,3.52,0,0,1-3.52-1,3.28,3.28,0,0,1-.88-2.59,8.72,8.72,0,0,1,.88-2.22c.29-.56.54-.95.37-1.2s-.52-.21-.79-.14C417.18,294.34,416.89,295.6,416.76,296.14Z" transform="translate(-414.89 -290.96)"/>
			<path class="be31d6df-160d-4494-911f-b1b729ef865e" d="M421.13,296.81c.65,1.13,2.44,1.09,3.35.57s.81-1.88.16-3a2.22,2.22,0,0,0-3-.56A2.18,2.18,0,0,0,421.13,296.81Z" transform="translate(-414.89 -290.96)"/>
		</g>
	</svg>
	<svg x="280" y="200">
		<g class="a76744d7-a495-4874-9c4a-469b774bd43c" style="animation-delay:2s">
			<path class="be31d6df-160d-4494-911f-b1b729ef865e" d="M415.19,299.84c1.12,3.61,4.49,4.63,8.16,3.48s4.84-3.56,3.72-7.17-3.57-6-7.25-4.9A6.91,6.91,0,0,0,415.19,299.84Z" transform="translate(-414.89 -290.96)"/>
			<path class="be31d6df-160d-4494-911f-b1b729ef865e" d="M415.39,299.76c1.08,3.48,4.33,4.47,7.88,3.36s4.67-3.44,3.59-6.92-3.45-5.84-7-4.74A6.67,6.67,0,0,0,415.39,299.76Z" transform="translate(-414.89 -290.96)"/>
			<path class="e24f318b-d935-4099-a37e-b535c9c5b4a9" d="M415.76,299.62c1,3.32,4.08,4.27,7.4,3.24s4.35-3.25,3.32-6.57-3.26-5.57-6.58-4.54A6.28,6.28,0,0,0,415.76,299.62Z" transform="translate(-414.89 -290.96)"/>
			<path class="b84ba159-8986-4b30-8c66-2ad0d6fdd2e0" d="M416.76,296.14a5.07,5.07,0,0,0,.33,3.56,5.18,5.18,0,0,0,3.88,2.59c.41.06,1.8.26,2.22-.42a.81.81,0,0,0,0-1c-.26-.18-.66.19-1.2.37a3.52,3.52,0,0,1-3.52-1,3.28,3.28,0,0,1-.88-2.59,8.72,8.72,0,0,1,.88-2.22c.29-.56.54-.95.37-1.2s-.52-.21-.79-.14C417.18,294.34,416.89,295.6,416.76,296.14Z" transform="translate(-414.89 -290.96)"/>
			<path class="be31d6df-160d-4494-911f-b1b729ef865e" d="M421.13,296.81c.65,1.13,2.44,1.09,3.35.57s.81-1.88.16-3a2.22,2.22,0,0,0-3-.56A2.18,2.18,0,0,0,421.13,296.81Z" transform="translate(-414.89 -290.96)"/>
		</g>
	</svg>
	<svg x="100" y="300">
		<g class="a76744d7-a495-4874-9c4a-469b774bd43c">
			<path class="be31d6df-160d-4494-911f-b1b729ef865e" d="M415.19,299.84c1.12,3.61,4.49,4.63,8.16,3.48s4.84-3.56,3.72-7.17-3.57-6-7.25-4.9A6.91,6.91,0,0,0,415.19,299.84Z" transform="translate(-414.89 -290.96)"/>
			<path class="be31d6df-160d-4494-911f-b1b729ef865e" d="M415.39,299.76c1.08,3.48,4.33,4.47,7.88,3.36s4.67-3.44,3.59-6.92-3.45-5.84-7-4.74A6.67,6.67,0,0,0,415.39,299.76Z" transform="translate(-414.89 -290.96)"/>
			<path class="e24f318b-d935-4099-a37e-b535c9c5b4a9" d="M415.76,299.62c1,3.32,4.08,4.27,7.4,3.24s4.35-3.25,3.32-6.57-3.26-5.57-6.58-4.54A6.28,6.28,0,0,0,415.76,299.62Z" transform="translate(-414.89 -290.96)"/>
			<path class="b84ba159-8986-4b30-8c66-2ad0d6fdd2e0" d="M416.76,296.14a5.07,5.07,0,0,0,.33,3.56,5.18,5.18,0,0,0,3.88,2.59c.41.06,1.8.26,2.22-.42a.81.81,0,0,0,0-1c-.26-.18-.66.19-1.2.37a3.52,3.52,0,0,1-3.52-1,3.28,3.28,0,0,1-.88-2.59,8.72,8.72,0,0,1,.88-2.22c.29-.56.54-.95.37-1.2s-.52-.21-.79-.14C417.18,294.34,416.89,295.6,416.76,296.14Z" transform="translate(-414.89 -290.96)"/>
			<path class="be31d6df-160d-4494-911f-b1b729ef865e" d="M421.13,296.81c.65,1.13,2.44,1.09,3.35.57s.81-1.88.16-3a2.22,2.22,0,0,0-3-.56A2.18,2.18,0,0,0,421.13,296.81Z" transform="translate(-414.89 -290.96)"/>
		</g>
	</svg>
	<svg x="1300" y="250">
		<g class="a76744d7-a495-4874-9c4a-469b774bd43c" style="animation-delay:1.5s">
			<path class="be31d6df-160d-4494-911f-b1b729ef865e" d="M415.19,299.84c1.12,3.61,4.49,4.63,8.16,3.48s4.84-3.56,3.72-7.17-3.57-6-7.25-4.9A6.91,6.91,0,0,0,415.19,299.84Z" transform="translate(-414.89 -290.96)"/>
			<path class="be31d6df-160d-4494-911f-b1b729ef865e" d="M415.39,299.76c1.08,3.48,4.33,4.47,7.88,3.36s4.67-3.44,3.59-6.92-3.45-5.84-7-4.74A6.67,6.67,0,0,0,415.39,299.76Z" transform="translate(-414.89 -290.96)"/>
			<path class="e24f318b-d935-4099-a37e-b535c9c5b4a9" d="M415.76,299.62c1,3.32,4.08,4.27,7.4,3.24s4.35-3.25,3.32-6.57-3.26-5.57-6.58-4.54A6.28,6.28,0,0,0,415.76,299.62Z" transform="translate(-414.89 -290.96)"/>
			<path class="b84ba159-8986-4b30-8c66-2ad0d6fdd2e0" d="M416.76,296.14a5.07,5.07,0,0,0,.33,3.56,5.18,5.18,0,0,0,3.88,2.59c.41.06,1.8.26,2.22-.42a.81.81,0,0,0,0-1c-.26-.18-.66.19-1.2.37a3.52,3.52,0,0,1-3.52-1,3.28,3.28,0,0,1-.88-2.59,8.72,8.72,0,0,1,.88-2.22c.29-.56.54-.95.37-1.2s-.52-.21-.79-.14C417.18,294.34,416.89,295.6,416.76,296.14Z" transform="translate(-414.89 -290.96)"/>
			<path class="be31d6df-160d-4494-911f-b1b729ef865e" d="M421.13,296.81c.65,1.13,2.44,1.09,3.35.57s.81-1.88.16-3a2.22,2.22,0,0,0-3-.56A2.18,2.18,0,0,0,421.13,296.81Z" transform="translate(-414.89 -290.96)"/>
		</g>
	</svg>
	<svg x="1400" y="50">
		<g class="a76744d7-a495-4874-9c4a-469b774bd43c" style="animation-delay:3s">
			<path class="be31d6df-160d-4494-911f-b1b729ef865e" d="M415.19,299.84c1.12,3.61,4.49,4.63,8.16,3.48s4.84-3.56,3.72-7.17-3.57-6-7.25-4.9A6.91,6.91,0,0,0,415.19,299.84Z" transform="translate(-414.89 -290.96)"/>
			<path class="be31d6df-160d-4494-911f-b1b729ef865e" d="M415.39,299.76c1.08,3.48,4.33,4.47,7.88,3.36s4.67-3.44,3.59-6.92-3.45-5.84-7-4.74A6.67,6.67,0,0,0,415.39,299.76Z" transform="translate(-414.89 -290.96)"/>
			<path class="e24f318b-d935-4099-a37e-b535c9c5b4a9" d="M415.76,299.62c1,3.32,4.08,4.27,7.4,3.24s4.35-3.25,3.32-6.57-3.26-5.57-6.58-4.54A6.28,6.28,0,0,0,415.76,299.62Z" transform="translate(-414.89 -290.96)"/>
			<path class="b84ba159-8986-4b30-8c66-2ad0d6fdd2e0" d="M416.76,296.14a5.07,5.07,0,0,0,.33,3.56,5.18,5.18,0,0,0,3.88,2.59c.41.06,1.8.26,2.22-.42a.81.81,0,0,0,0-1c-.26-.18-.66.19-1.2.37a3.52,3.52,0,0,1-3.52-1,3.28,3.28,0,0,1-.88-2.59,8.72,8.72,0,0,1,.88-2.22c.29-.56.54-.95.37-1.2s-.52-.21-.79-.14C417.18,294.34,416.89,295.6,416.76,296.14Z" transform="translate(-414.89 -290.96)"/>
			<path class="be31d6df-160d-4494-911f-b1b729ef865e" d="M421.13,296.81c.65,1.13,2.44,1.09,3.35.57s.81-1.88.16-3a2.22,2.22,0,0,0-3-.56A2.18,2.18,0,0,0,421.13,296.81Z" transform="translate(-414.89 -290.96)"/>
		</g>
	</svg>
</svg>