<svg width="1920" height="535" viewBox="0 0 1920 535" fill="none" xmlns="http://www.w3.org/2000/svg">
    <path d="M-34 251.161C17.1874 242.012 32.9477 288.433 2.37 337.277C58.272 332.568 89.3886 343.063 83.1922 376.299C93.9685 372.262 106.092 380.335 102.051 391.1C215.202 391.1 221.937 434.158 173.444 436.849C130.204 439.271 57.5985 439.54 -34 438.194V251.161Z" fill="#F5FAFF"/>
    <path d="M190.955 428.775C160.647 440.213 19.208 432.139 -34 431.467V255.198C1.29237 247.663 26.0779 277.938 -2.07522 333.779C-3.96107 337.546 -5.98163 341.314 -8.40629 345.216C-8.40629 345.216 -8.4063 345.216 -8.541 345.351C-3.96107 343.871 0.618853 342.66 5.33348 341.718C43.0505 334.048 83.1922 344.543 79.8246 372.935C79.5552 375.626 78.747 378.586 77.6694 381.681C78.8817 381.143 79.9593 380.604 81.1717 380.201C89.1192 377.24 96.3932 378.182 98.4137 382.892C99.4914 385.448 99.222 389.081 96.5279 393.791C101.377 393.656 106.092 393.791 110.672 393.925C154.046 395.136 186.106 405.766 195.67 415.589C200.789 420.568 199.711 425.412 190.955 428.775Z" fill="white"/>
    <path d="M190.955 428.775C172.231 435.772 111.076 435.503 54.635 434.023C19.7468 433.081 -13.525 431.736 -33.8653 431.467L-34 431.467V292.201C-31.8447 301.216 -26.9954 308.751 -19.8561 315.076C-34.6735 364.861 -13.1209 407.919 65.0072 399.846C22.845 424.604 64.3337 422.855 117.542 417.338C112.154 438.867 203.752 424.066 195.805 415.454C200.789 420.568 199.711 425.412 190.955 428.775Z" fill="#F6FAFF"/>
    <path d="M54.635 434.023C19.6121 433.081 -13.525 431.736 -33.8653 431.467L-34 431.063V325.436C-30.4977 335.663 -27.9383 347.369 -27.9383 364.861C-27.9383 393.118 -12.5821 404.555 17.8609 413.301C27.2902 415.993 63.6602 430.794 54.635 434.023Z" fill="#EEF5FF"/>
    <path d="M5.46818 341.718C-4.63459 345.62 -8.6757 349.387 -18.5091 348.715C-10.5616 344.409 -5.30811 338.757 -2.07522 333.779C-3.28755 336.201 -4.63459 338.757 -6.11633 341.314C-6.78985 342.66 -7.59807 343.871 -8.40629 345.216C-8.40629 345.216 -8.4063 345.216 -8.541 345.351C-6.78985 344.812 -4.904 344.274 -3.15285 343.736C-0.189371 342.929 2.63941 342.256 5.46818 341.718Z" fill="#F6FAFF"/>
    <path d="M-11.7739 364.861C-6.52045 373.607 -0.728189 374.146 5.73759 367.552C6.81522 366.745 8.29696 367.014 9.7787 367.552C13.1463 370.378 20.1509 369.571 29.9843 366.207C22.9797 372.262 15.571 374.549 7.08463 370.244C0.349441 378.317 -12.4474 374.684 -11.7739 364.861Z" fill="#F6FAFF"/>
    <path d="M79.9593 372.935C79.9593 373.338 79.8246 373.742 79.8246 374.146C79.6899 374.818 79.5552 375.626 79.4205 376.433C79.4205 376.702 79.2858 376.971 79.2858 377.24C78.8817 378.586 78.4776 380.066 77.9388 381.681C77.8041 381.815 77.5347 381.95 77.4 382.084C75.7835 383.026 72.82 383.968 69.3177 384.91C62.1784 386.659 52.3451 387.467 45.6099 384.507C54.0962 385.583 68.3748 380.066 79.9593 372.935Z" fill="#F6FAFF"/>
    <path d="M133.033 407.247C137.074 409.938 142.462 409.938 146.503 409.938C150.544 409.938 150.544 416.665 165.361 411.283C168.19 410.207 165.361 416.665 153.238 416.665C147.85 416.665 147.85 413.974 143.809 412.629C139.768 411.283 137.074 411.283 133.033 407.247Z" fill="#F6FAFF"/>
    <path d="M79.4205 376.433C79.4205 376.702 79.2858 376.971 79.2858 377.24C78.8817 378.586 78.4776 380.066 77.9388 381.681C77.8041 381.815 77.5347 381.95 77.4 382.084C75.3794 383.295 72.6853 384.237 69.3177 384.91C66.0848 385.583 62.1784 385.852 57.7332 385.852C62.9867 384.641 74.5712 382.084 79.4205 376.433Z" fill="#EEF5FF"/>
    <path d="M-15.1415 348.042C-14.3333 347.773 -13.6597 347.638 -12.9862 347.369C-13.7944 347.773 -14.468 348.042 -15.1415 348.042Z" fill="#F6FAFF"/>
    <path d="M-3.01815 343.736C-3.42226 344.005 -6.11633 345.351 -12.9862 347.504C-10.5616 346.293 -7.86748 343.467 -6.11633 341.449C-6.78985 342.794 -7.59807 344.005 -8.4063 345.351C-8.4063 345.351 -8.4063 345.351 -8.541 345.485C-6.65515 344.812 -4.7693 344.274 -3.01815 343.736Z" fill="#EEF5FF"/>
    <path d="M110.806 393.925C102.724 394.733 95.4503 393.791 85.8863 396.482C91.1397 395.406 100.704 389.754 98.5484 382.892C99.6261 385.448 99.3567 389.081 96.6626 393.791C101.512 393.656 106.227 393.791 110.806 393.925Z" fill="#F6FAFF"/>
</svg>
