
<svg id="e293eaad-80fa-491b-839f-8ce5b4ae6b3d" xmlns="http://www.w3.org/2000/svg" viewBox="0 0 1280 375.41">
	<defs>
	<style>
		.a3cf1202-e7b0-49f4-8b04-2435c0e606d6,.f53752ac-e497-4c6e-b920-b7eca841c05c{fill:#fff;}
		.f53752ac-e497-4c6e-b920-b7eca841c05c{opacity:0;}
	</style>
	</defs>
	<rect class="f53752ac-e497-4c6e-b920-b7eca841c05c" y="280" width="1280" height="95.41"/>
	<path class="a3cf1202-e7b0-49f4-8b04-2435c0e606d6" d="M1280,0H951.54c-26.64,6.34-96.42,60-81.83,119.58-28.87-4.44-56.94,14.59-62.49,33-18.08-15.22-70.41.64-77.71,33.94-35.94-9.35-75.7,11-85,36.37-34.89-28.76-137.66-2.75-154.78,26.64-16.92-4.65-38.7.11-46,13.12-3.17-9.84-31.4-13.64-40.59-5.93-19.35-19.13-110.28-24.31-129.1-8-9.93-15.44-128.48-46.52-178.84-16.07-9.35-25.8-52.49-52.86-67.71-50.75C29,174,17.76,136.6,0,132.16V280H1280Z"/>
</svg>