
<svg id="b40629db-fa37-44fd-aa6e-72b0905774e5" xmlns="http://www.w3.org/2000/svg" viewBox="0 0 1280 375.41">
	<defs>
		<style>
			.f485b801-b21a-48d9-bac0-f16187974fcf{fill:#d0e9f9;}
			.f53752ac-e497-4c6e-b920-b7eca841c05c{opacity:0;}
		</style>
	</defs>
	<rect class="f53752ac-e497-4c6e-b920-b7eca841c05c" y="280" width="1280" height="95.41"/>
	<path class="f485b801-b21a-48d9-bac0-f16187974fcf" d="M702.38,296c-16.49,0-57.09,32.67-55.82,55.7-44-26-85,8.88-72.32,54.55-17.34-4.65-44.83,8.88-45.67,32.35-18.08-18.07-74.21-10.85-77.08,6.35-20-17.13-198.87,19-171.59,32H928.08v-280H712.85C688.33,221.57,683.26,266.5,702.38,296Z" transform="translate(351.92 -196.87)"/>
	<path class="f485b801-b21a-48d9-bac0-f16187974fcf" d="M-124.61,476.87c8.55-4.47-42.13-14-51.81-7.22-6.55-12.9-46.25-11.37-56.4-4.6.55-3.13-3.85-5.51-7.3-3.17,2.22-11.42-27-22.52-39-12.69,8.25-31.08-39.38-45.09-59.47-37.9,3.8-7.07-6.81-21.56-13.32-27.81v93.39Z" transform="translate(351.92 -196.87)"/>
</svg>