<svg id="e0f01600-b7c0-45f2-b4bb-91a6e75c3e87" xmlns="http://www.w3.org/2000/svg" viewBox="0 0 1925.06 831.25">
    <path d="M.94,248.1c63.88,35,92.07,92,97.7,147.48,50,12.56,93.2,28.19,109,55.49,34.57,2.78,63.69,12.56,78.91,40.89,14.66.15,23.49,6.13,30.07,14.6,20.29-5.69,38.7-2.19,56.36,5.84,31.76-15,63.13-17.23,94,0,27-16.93,62.19-20.88,103.34-4.38,23.67-41.32,63.69-57.38,118.37-51.1,53.36-85.58,123.26-127.34,219.64-99.3,36.08-42.35,84.37-59.44,150.32-40.89,21.42-54.76,75.53-73.16,150.31-68.63,8.64-42.5,48.1-65.42,116.49-70.09,6.58-78.71,46.41-138.88,124-178H1924l2,828.25H.94Z" transform="translate(-0.94 3)" fill="#fff" />
    <path d="M1923.06-3,1926,828.25H.94V296.5C37,314.31,61.25,347,65.76,405c-19,4.23-34.38,10.8-45.09,20.44C86.24,407.77,141.48,415.36,182.25,459a84.21,84.21,0,0,0-35.7,5.84c68.21-7.16,109.92,3.36,125.89,30.66-7.33,0-12,1.17-15,2.92,27.24,2.63,42.65,9.79,52.61,19,21.42-8.18,42.65-5.41,63.88,7.3,39.08-11.54,74.22-14.17,95.83,14.6,5.63-35.05,97.7-27.75,122.12,8.76-18.78-48.19,47-97.84,129.65-64.25-7.14-80.9,139-172.16,229-93.46A75.63,75.63,0,0,0,928,367c43.22-46.73,125.89-71.55,176.62-7.3-2.26-11.25-7.7-21.47-20.67-29.21,33.63-54.61,84.36-81,157.83-70.09,8.45-65.86,109-103.68,215.89-39.43-55.81-102.8,13.15-185.3,146.55-224Z" transform="translate(-0.94 3)" fill="#e9f3ff" />
    <path d="M1753,70.09c-31.19-2.77-50,10.52-60.13,35.05-28-9.93-59.93-2.92-93.94,11.68,16.91-17.08,43.59-25.7,84.55-21.9,5.82-17.09,21.42-28.77,47-35.05-6.39-23.95,4-44.39,19.17-59.87H1757C1742.69,21.17,1737.61,47,1753,70.09Z" transform="translate(-0.94 3)" fill="#fff" />
    <path d="M1326.88,353.24c-7-11.83-26.68-18.69-52.61-23.37,18.79.3,37.58.3,52.61,8.76,5.26-10.07,25.74-21.61,43.22-29.2C1340.6,328.27,1329.7,344.77,1326.88,353.24Z" transform="translate(-0.94 3)" fill="#fff" />
    <path d="M1142.75,417.49c-18.22-5.41-38.7-3.22-54.49,1.46,25.74-3.36,47.16,1.75,58.25,10.22,6.2-22.05,19.16-35.63,33.82-46.73C1163,389.3,1149.89,400.4,1142.75,417.49Z" transform="translate(-0.94 3)" fill="#fff" />
</svg>