<svg width="1920" height="631" viewBox="0 0 1920 631" fill="none" xmlns="http://www.w3.org/2000/svg">
<path d="M-1.06055 247.098C62.8223 282.144 91.0059 339.094 96.6426 394.584C146.621 407.142 189.836 422.767 205.619 450.074C240.191 452.848 269.314 462.632 284.533 490.961C299.189 491.107 308.02 497.094 314.596 505.564C334.888 499.869 353.301 503.373 370.963 511.405C402.716 496.364 434.094 494.174 464.908 511.405C491.964 494.466 527.1 490.523 568.248 507.024C591.922 465.699 631.943 449.636 686.619 455.915C739.98 370.344 809.875 328.58 906.263 356.617C942.338 314.27 990.626 297.185 1056.58 315.73C1078 260.97 1132.11 242.571 1206.89 247.098C1215.53 204.604 1254.99 181.678 1323.38 177.006C1329.96 98.2976 1369.79 38.1349 1447.39 -1H1922V631H-1.06055V247.098Z" fill="white"/>
<path d="M1921.06 -1V630.27H-2L-1.06055 298.499C35.0145 316.314 59.2523 349.024 63.7617 406.996C44.7848 411.231 29.3777 417.802 18.668 427.44C84.2418 409.771 139.482 417.364 180.254 461.026C167.289 460.442 155.452 462.486 144.555 466.867C212.759 459.712 254.471 470.225 270.441 497.532C263.114 497.532 258.416 498.701 255.41 500.453C282.654 503.081 298.061 510.237 308.02 519.436C329.439 511.259 350.671 514.033 371.902 526.737C410.984 515.201 446.119 512.573 467.727 541.34C473.363 506.294 565.43 513.595 589.855 550.102C571.066 501.913 636.828 452.264 719.5 485.85C712.36 404.952 858.539 313.686 948.539 392.394C942.714 383.194 935.386 375.163 925.992 369.03C969.207 322.301 1051.88 297.477 1102.61 361.728C1100.35 350.484 1094.91 340.262 1081.94 332.523C1115.57 277.909 1166.3 251.479 1239.77 262.431C1248.22 196.573 1348.75 158.752 1455.66 223.004C1399.85 120.201 1468.81 37.6969 1602.21 -1H1921.06Z" fill="#E9F3FF"/>
<path d="M1751.02 69.0924C1719.83 66.3179 1701.04 79.6063 1690.89 104.139C1662.9 94.2089 1630.96 101.218 1596.95 115.821C1613.86 98.7357 1640.54 90.1201 1681.5 93.9168C1687.32 76.8318 1702.92 65.1497 1728.47 58.8706C1722.08 34.9224 1732.42 14.4787 1747.64 -1H1754.97C1740.69 20.1738 1735.61 46.0203 1751.02 69.0924Z" fill="white"/>
<path d="M1324.88 352.237C1317.93 340.409 1298.2 333.545 1272.27 328.872C1291.06 329.165 1309.85 329.165 1324.88 337.634C1330.14 327.558 1350.62 316.022 1368.1 308.429C1338.6 327.266 1327.7 343.767 1324.88 352.237Z" fill="white"/>
<path d="M1140.75 416.488C1122.53 411.085 1102.05 413.275 1086.26 417.948C1112 414.59 1133.42 419.701 1144.51 428.17C1150.71 406.12 1163.67 392.54 1178.33 381.442C1161.04 388.305 1147.89 399.403 1140.75 416.488Z" fill="white"/>
</svg>
