<svg id="fbcd8e47-a445-4a43-83a1-f22aaf5dfff5" xmlns="http://www.w3.org/2000/svg" viewBox="0 0 1280 375.41">
	<defs>
		<style>
			.fbe4c708-deea-46cf-a746-b5ed651795c1{fill:#fff;}
			.f1dc82d4-7cee-493a-9deb-cf5bf65b1124{fill:#75807b;}
			.f53752ac-e497-4c6e-b920-b7eca841c05c{opacity:0;}
		</style>
	</defs>
	<rect class="f53752ac-e497-4c6e-b920-b7eca841c05c" y="280" width="1280" height="95.41"/>
	<path class="fbe4c708-deea-46cf-a746-b5ed651795c1" d="M200.56,359.09l-1.46.21c-.91-5.81-9.43-9.46-18.87-5.27-3-5.7-32.42-7.63-33.48,11.08-9.59-2.69-54.64,4.73-42,39.13-3.65-2.47-9,.43-9,.43,2.59-4.19-2.74-17.41-20.09-13.33-1.06-9.78-36.68-13-34.7,18.28-3.19-.65-7.46,3.22-1.83,5.48s45.05,2.58,51.14,0h14.77c2.28,2.58,14.45,5,19.63.11,4.87,3,21.76,9.35,44.9,1.18.76,4.84,14.61,7,16.89-1.41,3.28,2.36,8.18,4.47,14.09,6.15Z" transform="translate(1077 -230)"/>
</svg>