<svg width="273" height="181" viewBox="0 0 273 181" fill="none" xmlns="http://www.w3.org/2000/svg">
<g opacity="0.5">
<path opacity="0.5" d="M4.55773 99.0346C9.32309 92.4205 17.0122 90.1272 23.7721 86.2244C23.0967 84.6829 22.2853 83.6492 21.4241 81.7858C29.3987 81.4737 35.533 76.859 42.0888 73.7178C63.2977 63.6189 85.2585 61.8844 107.903 68.7683C111.204 69.6526 114.232 71.5525 117.26 73.4523C120.034 75.2841 122.641 75.7105 125.216 74.2237C132.992 70.593 140.93 72.4479 148.682 73.9809C155.419 75.2418 159.68 79.6488 160.128 87.1156C160.06 87.3695 159.992 87.6234 159.992 87.6234C156.86 88.1445 153.727 88.6656 150.594 89.1867C148.291 89.658 145.92 90.3831 143.431 90.5325C140.434 90.5459 137.438 90.5592 134.645 89.8109C130.837 88.7905 127.097 87.5163 122.218 89.4744C124.181 90.2724 125.383 90.8665 126.838 91.5285C136.145 95.3828 134.821 98.2932 132.019 105.705C131.152 107.922 128.949 110.053 127.321 112.066C124.914 114.958 122.76 117.918 119.913 120.42C118.099 122.111 115.914 123.158 113.914 124.527C111.915 125.896 109.848 127.519 108.102 128.956C104.153 132.524 100.204 136.091 96.2549 139.659C95.543 140.284 94.1376 140.452 93.1719 141.01C92.9363 139.858 92.1929 138.57 92.533 137.301C93.4173 134.001 94.5555 130.768 96.1334 127.926C99.8833 121.04 103.887 114.222 107.959 107.15C108.943 105.508 109.487 103.477 110.421 101.007C103.834 102.235 98.0759 103.413 92.4542 104.084C87.0864 104.822 82.3442 106.272 78.1413 109.772C77.0395 110.837 75.43 111.766 73.8885 112.442C72.0251 113.303 70.6513 115.384 67.945 113.298C66.9975 112.772 64.8122 113.819 63.3388 114.241C51.4151 118.12 39.9228 115.313 28.4984 112.252C27.7368 112.048 27.1112 111.336 26.2998 110.302C36.1195 110.213 45.7534 109.801 54.3268 104.207C55.3606 103.396 56.3943 102.584 57.7499 101.587C51.1492 99.8184 45.0562 98.1858 38.9632 96.5532C38.3692 97.7545 37.4534 99.1417 37.1132 100.411C35.6531 103.829 32.5884 104.097 29.6598 103.856C26.4092 103.801 25.1082 101.548 26.4323 98.6376C26.6363 97.8759 27.0943 97.1823 26.9266 95.7769C25.961 96.3345 24.9272 97.1459 23.9615 97.7034C22.148 99.3943 20.5883 101.153 18.8427 102.59C14.1138 107.037 7.74873 106.42 4.01353 101.066C4.08155 100.812 4.35366 99.7962 4.55773 99.0346Z" fill="#88B5C1"/>
<path opacity="0.5" d="M174.632 77.6686C177.633 73.5751 182.375 72.1248 186.56 69.7087C186.003 68.743 185.631 68.0992 185.073 67.1335C190.051 66.8347 193.796 64.0288 197.845 62.1205C210.956 55.8381 224.553 54.8555 238.38 59.1046C240.411 59.6488 242.306 60.7008 244.133 62.0066C245.774 62.9905 247.297 63.3987 249.16 62.5374C253.853 60.2575 258.93 61.618 263.636 62.3347C267.766 63.1692 270.336 65.7626 270.703 70.4867C270.635 70.7405 270.635 70.7405 270.567 70.9944C268.586 71.2799 266.605 71.5653 264.877 71.9188C263.472 72.0864 261.931 72.7618 260.593 72.6755C258.68 72.7071 256.767 72.7386 254.99 72.2625C252.705 71.6502 250.166 70.97 247.151 72.0669C248.352 72.6609 249.114 72.8649 249.808 73.3229C255.443 75.6491 254.645 77.6121 252.912 82.0458C252.25 83.501 251.149 84.5663 249.979 85.8854C248.419 87.6443 247.113 89.4712 245.622 90.9763C244.52 92.0415 243.232 92.785 241.945 93.5284C240.589 94.5256 239.302 95.269 238.2 96.3343C235.742 98.3969 233.471 100.781 230.945 103.098C230.556 103.538 229.726 103.587 229.082 103.959C229.032 103.129 228.407 102.418 228.611 101.656C229.155 99.6249 229.953 97.6619 231.005 95.767C233.245 91.4694 235.739 87.2397 238.233 83.0101C238.827 81.8088 239.099 80.7933 239.761 79.3381C235.798 79.909 232.276 80.8698 228.635 81.2548C225.249 81.7079 222.302 82.5509 219.776 84.8673C219.065 85.4929 218.099 86.0504 217.201 86.3541C215.982 86.8436 215.066 88.2308 213.493 86.993C213.053 86.6031 211.511 87.2785 210.614 87.5821C203.178 89.9435 196.256 88.3607 189.147 86.456C188.64 86.3199 188.2 85.93 187.828 85.2862C193.822 85.2595 199.883 84.9789 205.169 81.4976C205.813 81.1259 206.525 80.5004 207.237 79.8748C203.175 78.7864 199.367 77.766 195.559 76.7456C195.101 77.4392 194.643 78.1328 194.371 79.1483C193.573 81.1113 191.591 81.3967 189.678 81.4283C187.765 81.4598 186.836 79.8503 187.82 78.2093C187.956 77.7015 188.092 77.1938 188.042 76.3641C187.398 76.7358 186.754 77.1075 186.365 77.5473C185.263 78.6126 184.161 79.6778 183.127 80.4893C180.212 83.2454 176.2 82.9867 173.833 79.6316C174.359 78.6842 174.496 78.1764 174.632 77.6686Z" fill="#8EBCC8"/>
</g>
</svg>
