<svg width="80" height="89" viewBox="0 0 80 89" fill="none" xmlns="http://www.w3.org/2000/svg">
<path d="M18.3991 32.8884C18.1194 32.2865 17.9183 31.6334 17.7035 31.0452C18.213 30.8816 18.7874 30.7317 19.3107 30.5031C19.8339 30.2746 20.4871 30.0735 20.6994 29.7113C20.8467 29.3354 20.5944 28.6036 20.2735 28.1965C19.6827 27.461 18.856 26.8791 18.1866 26.1947C16.4482 24.4701 14.1728 23.0391 14.1652 20.188C14.1927 20.0581 13.8817 19.9245 13.8443 19.7809C13.1586 18.2111 11.8985 16.7913 12.9737 14.9155C14.3811 12.4315 15.7884 9.9476 17.3768 7.56979C18.4757 5.90258 20.2441 4.9197 22.101 4.15911C24.9258 2.99263 27.8756 3.48081 30.819 3.35709C32.46 3.2971 33.8475 3.7941 35.1663 4.61579C38.3608 6.51266 40.3578 9.58097 42.5395 12.417C43.5536 13.717 44.8 15.2018 43.3864 17.0738C43.3727 17.1388 43.3452 17.2686 43.3315 17.3336C44.3655 19.1806 43.103 20.3383 42.049 21.4722C39.1506 24.5906 39.0582 24.7068 41.1263 28.4007C41.8669 29.7107 41.9444 30.9483 41.2014 32.2159C40.7631 33.0052 40.0275 33.5959 39.4219 34.2141C38.83 34.7673 38.3679 35.348 39.1809 35.9949C40.3561 36.854 40.4373 37.7532 39.6431 38.9421C39.0474 39.8338 39.1049 40.5244 40.4174 40.7341C40.872 40.8303 41.5588 41.1113 41.685 41.4772C42.142 42.5237 42.3631 43.7238 42.6766 44.8077C42.5842 44.9239 42.5055 44.9751 42.3482 45.0775C41.7162 44.5368 41.0843 43.996 40.4524 43.4553C39.9878 43.0857 39.4721 42.6374 38.98 42.3976C36.9844 41.5684 36.3837 40.5594 36.9019 38.4302C36.9431 38.2354 36.998 37.9756 37.0392 37.7808C36.9093 37.7533 36.7932 37.6609 36.6633 37.6334C36.3449 38.1767 36.0914 38.7337 35.7729 39.2769C35.6431 39.2494 35.5781 39.2357 35.4482 39.2082C35.4557 38.5314 35.4495 37.9194 35.4569 37.2426C34.5054 38.5339 34.1795 39.754 35.3097 41.1464C36.2726 42.3677 36.7909 43.7664 36.721 45.3799C36.6998 46.1217 37.027 47.1407 37.5428 47.589C39.8007 49.4235 40.0206 51.9124 39.912 54.671C38.7743 53.9555 38.0949 52.9977 37.7302 51.835C37.5154 51.2468 37.0134 50.7336 36.6549 50.1829C35.9893 49.1601 34.7766 48.1573 34.7229 47.1283C34.6192 44.7318 33.5851 42.8848 32.2775 41.0478C31.6494 40.1687 30.6415 39.4806 30.1844 38.4341C29.5874 37.0866 29.4213 35.6268 29.1116 34.2044C28.9754 33.565 29.1128 32.9156 29.0865 31.7567C28.4946 32.3099 27.9713 32.5385 27.9164 32.7982C27.8265 33.8647 27.658 34.9824 27.9202 35.9877C28.6084 38.5078 29.4402 40.9905 30.2208 43.3944C27.7755 40.8419 28.1963 36.9281 25.9533 33.7399C25.4663 35.4009 25.0205 36.867 24.5747 38.3331C25.2129 39.4858 26.7914 40.3624 25.7712 41.9784C25.5589 42.3406 24.9195 42.4767 24.6048 42.6815C24.3051 41.5326 24.1314 40.7496 23.8929 39.9529C23.6031 39.0774 23.1186 38.1608 22.8938 37.2991C22.5978 35.8118 22.4966 34.3657 23.7079 33.1293C26.5239 30.4005 26.4727 30.3219 23.6003 27.5433C23.4979 27.386 23.3168 27.2798 23.2144 27.1225C21.9406 25.7675 20.7592 24.2964 20.7678 22.3308C19.1718 21.8575 17.7057 21.4117 16.1746 20.9522C15.8499 20.8835 15.5115 20.8798 15.1868 20.8111C15.183 21.1496 14.9433 21.6416 15.0969 21.8776C15.609 22.6644 16.1859 23.4649 16.8553 24.1492C18.0917 25.3605 19.4067 26.5206 20.6431 27.732C21.3125 28.4163 21.9032 29.1518 21.5261 30.2933C21.149 31.4347 20.2673 31.1125 19.5118 31.1563C18.4827 31.21 18.0307 32.0642 18.7925 32.6324C20.0051 33.6352 20.0963 34.8078 19.8728 36.1853C19.3783 34.9952 18.8562 33.9349 18.3991 32.8884ZM38.7109 19.6128C37.9516 19.995 37.1274 20.3634 37.2186 21.5361C37.2386 22.083 36.8927 22.7562 36.588 23.2345C35.7525 24.6182 35.9874 25.7534 37.1213 26.8073C38.1391 27.7689 39.2082 28.8092 38.7349 30.4052C38.5051 31.1707 38.0019 31.9462 37.4612 32.5781C36.5371 33.7396 36.6557 34.7823 37.8109 35.0945C38.3791 34.3327 38.8823 33.5572 39.5155 32.8091C40.5969 31.5453 40.7555 30.1541 40.0561 28.6493C40.0186 28.5057 39.9025 28.4133 39.865 28.2696C37.978 24.6818 38.0916 23.8239 40.9113 20.7567C41.6231 19.9574 42.2325 19.0008 43.0917 17.8256C41.3783 18.5487 39.9934 19.0021 38.7109 19.6128ZM32.5143 21.9658C33.3398 23.8365 32.7941 26.0956 34.6387 27.6391C36.186 28.9841 36.1748 29.9994 35.0996 31.8751C34.2367 33.3887 34.223 33.4537 35.7778 34.1218C36.3223 33.1514 36.6719 32.1398 37.3188 31.3268C38.0855 30.2678 37.8744 29.3412 37.1813 28.4483C36.8603 28.0412 36.5256 27.699 36.2559 27.3706C35.047 26.0294 34.6723 24.5933 35.6413 22.8986C35.8674 22.4715 36.0422 21.9657 36.3643 21.084C34.9282 21.4587 33.858 21.7073 32.5143 21.9658ZM26.6275 29.2691C27.1732 27.0099 26.9733 25.068 26.5512 23.2148C26.4625 22.9925 25.9055 22.739 25.5021 22.7215C24.357 22.6829 23.1981 22.7091 21.8443 22.6942C22.2928 25.7063 24.8828 26.9326 26.6275 29.2691ZM33.7011 39.4493C34.7626 37.6385 34.4966 36.9716 32.2487 35.4106C32.105 35.4481 32.0126 35.5643 31.869 35.6017C32.4285 36.8056 32.988 38.0094 33.7011 39.4493ZM33.9069 27.8914C33.9157 29.4537 33.877 30.5989 33.9132 32.0313C34.8136 30.6613 35.0608 29.4924 33.9069 27.8914Z" fill="url(#paint0_linear_913_1737)"/>
<path d="M67.7315 70.0531C67.1682 69.1877 66.851 68.4422 67.4092 67.4069C67.7414 66.7987 67.1469 66.4016 66.4801 66.6676C65.9705 66.8312 65.4573 67.3332 64.9177 66.6764C64.3133 66.0058 64.5156 65.3701 64.7179 64.7345C65.1737 63.5418 65.7456 62.4416 66.1877 61.3139C66.4549 60.692 66.5411 59.9639 66.6784 59.3145C66.7196 59.1197 66.4361 58.8562 66.3474 58.6339C66.1114 58.7875 65.8891 58.8762 65.7181 59.0435C64.8252 59.7367 63.9835 60.5085 63.0768 61.2665C63.6738 62.614 63.2692 63.8853 62.8646 65.1566C62.8372 65.2865 62.7448 65.4026 62.7173 65.5325C61.6721 68.2288 61.6721 68.2288 64.3034 69.2602C65.4961 69.716 65.837 70.6701 66.0718 71.8053C66.208 72.4447 66.1218 73.1727 66.1793 73.8633C66.2505 74.489 66.3354 75.0497 66.4953 75.8977C66.2218 75.9077 65.8047 75.9551 65.5075 75.7566C64.3835 74.9761 65.1502 73.9171 65.2776 72.9942C64.5707 72.1662 63.8639 71.3383 63.0546 70.353C62.4777 73.0804 63.8565 75.5431 63.0099 77.9421C62.8475 76.1438 62.6988 74.2805 62.3553 72.3761C62.2329 71.6718 61.837 70.9774 61.4411 70.2831C61.3387 70.1257 60.9354 70.1083 60.3647 69.9197C60.6819 70.6653 60.9379 71.0586 61.0366 71.5544C61.2989 72.5597 61.5474 73.6299 61.5362 74.6452C61.515 75.387 61.0767 76.1763 60.9119 76.9556C60.5822 78.5141 60.4611 80.0489 61.0681 81.6699C61.3203 82.4017 60.8408 83.3858 60.6623 84.23C60.5661 84.6846 60.3913 85.1903 60.4388 85.6074C60.52 86.5066 60.3552 87.2859 59.8382 88.1263C58.934 86.3068 58.4057 84.6347 59.351 82.7314C59.577 82.3043 59.4683 81.5351 59.2398 81.0118C58.7177 79.9516 58.6128 78.8439 58.9762 77.7674C59.3021 76.5473 58.7114 75.8117 57.741 75.2673C57.9184 75.7118 58.1095 76.0915 58.2868 76.536C58.2081 76.5873 58.1944 76.6522 58.1295 76.6384C57.781 76.3612 57.4326 76.084 57.0842 75.8068C57.0055 75.858 56.9918 75.9229 56.9131 75.9741C57.0155 76.1315 57.053 76.2751 57.1691 76.3675C58.1182 77.6538 58.0046 78.5117 56.9644 79.5807C56.6872 79.9291 56.4749 80.2913 56.2488 80.7184C55.9953 81.2754 55.7556 81.7674 55.5021 82.3244C55.4371 82.3107 55.3073 82.2832 55.2423 82.2695C55.1474 81.4353 54.9875 80.5873 54.9575 79.7668C54.9475 79.4934 55.3034 79.0937 55.5532 78.8752C56.3399 78.3631 56.2412 77.8673 55.5169 77.4428C54.6115 76.912 54.4754 76.2726 55.0061 75.3672C55.417 74.7078 54.86 74.4544 54.3542 74.2795C53.7323 74.0123 53.0966 73.81 52.632 73.4404C51.8053 72.8584 51.4506 71.9693 51.6054 70.9165C51.9125 67.8606 51.8613 67.782 48.9977 66.5657C47.935 66.1374 46.8073 65.6953 46.9146 64.2255C46.9284 64.1605 46.8772 64.0818 46.8122 64.0681C45.3498 63.2839 45.7682 61.9476 46.0291 60.7138C46.6947 58.2086 47.1142 55.5836 48.6614 53.4006C49.3358 52.4577 50.0988 51.7371 51.2102 51.2938C53.1971 50.5606 55.0066 49.3829 57.1945 49.3029C58.6269 49.2667 60.083 49.439 61.2857 50.1683C63.0178 51.2809 64.6576 52.5097 66.3623 53.7523C67.5887 54.6901 67.1703 56.0263 67.1829 57.2502C67.1554 57.3801 67.063 57.4962 67.0355 57.6261C67.8473 59.5617 66.7759 61.0991 66.1453 62.7975C65.878 63.4194 65.5458 64.0276 65.3298 64.7282C65.2611 65.0529 65.2674 65.6648 65.4347 65.8359C65.667 66.0207 66.1491 65.987 66.5662 65.9395C66.9696 65.957 67.4004 65.8446 67.8038 65.8621C67.8375 66.3441 67.8712 66.8262 67.905 67.3082C67.7639 68.296 67.7801 69.1814 67.7315 70.0531ZM47.0783 64.735C47.9837 65.2657 48.6293 65.7415 49.3811 66.0362C52.1148 67.225 52.4733 67.7757 52.2586 70.7154C52.2311 70.8453 52.2173 70.9103 52.2548 71.0539C52.2024 72.264 52.7657 73.1294 53.8147 73.6227C54.4229 73.9548 54.9661 74.2733 55.5743 74.6054C56.3098 74.0147 56.0438 73.3479 55.0735 72.8034C54.5165 72.5499 53.987 72.1665 53.6011 71.7457C52.7781 70.8253 53.2576 69.8412 53.5935 68.8946C54.0218 67.8319 53.8482 67.0488 52.9053 66.3745C52.5569 66.0973 52.1435 65.8063 52.0174 65.4404C51.7139 64.63 51.102 64.6362 50.5038 64.5775C49.4235 64.5526 48.4457 64.685 47.0783 64.735ZM52.5306 64.9384C52.9815 65.3729 53.2512 65.7014 53.5484 65.8999C54.6587 66.7454 54.8423 67.8019 54.4514 69.0083C54.3178 69.3192 54.2492 69.6439 54.1018 70.0198C53.8583 70.8503 53.9945 71.4897 54.8487 71.9417C55.5081 72.3526 56.075 72.8795 56.6557 73.3416C57.46 72.4262 57.4737 72.3612 56.4659 71.6732C55.2258 70.8003 54.8948 70.1197 55.5217 68.7597C56.2684 67.1537 55.2543 65.8537 55.2968 64.3701C54.3052 64.5674 53.5359 64.6761 52.5306 64.9384ZM62.5124 61.6899C61.6232 62.0446 60.8777 62.3618 60.1184 62.744C59.8824 62.8976 59.5402 63.2323 59.5777 63.3759C59.8362 64.7196 60.2247 66.0908 61.3037 67.4046C61.7807 65.4701 63.1256 63.9228 62.5124 61.6899ZM59.6779 73.1667C59.548 73.1392 59.4694 73.1904 59.3395 73.1629C58.3055 74.8439 58.3255 75.3909 59.5656 76.2638C59.6043 75.1186 59.6155 74.1033 59.6779 73.1667ZM57.3276 71.4484C56.9079 70.5455 56.6044 69.735 56.1473 68.6885C55.7802 70.1034 56.3197 70.7603 57.3276 71.4484Z" fill="url(#paint1_linear_913_1737)"/>
<defs>
<linearGradient id="paint0_linear_913_1737" x1="33.2835" y1="3.66344" x2="47.3373" y2="50.5949" gradientUnits="userSpaceOnUse">
<stop stop-color="#3B5D70"/>
<stop offset="1" stop-color="#274962"/>
</linearGradient>
<linearGradient id="paint1_linear_913_1737" x1="60.2102" y1="49.6334" x2="73.2655" y2="83.6236" gradientUnits="userSpaceOnUse">
<stop stop-color="#3B5D70"/>
<stop offset="1" stop-color="#274962"/>
</linearGradient>
</defs>
</svg>
