<svg width="544" height="305" viewBox="0 0 544 305" fill="none" xmlns="http://www.w3.org/2000/svg">
<g opacity="0.7">
<path opacity="0.7" d="M464.806 277.403C468.472 271.048 473.116 271.537 463.828 259.317C469.938 261.272 472.871 268.116 473.604 269.338C477.026 266.893 514.42 253.94 541.061 271.782C546.193 275.937 543.749 284.491 523.708 283.024C503.667 281.558 483.87 278.381 473.36 272.759C469.694 274.959 467.25 276.914 464.806 277.403Z" fill="#7096A0"/>
<path opacity="0.7" d="M405.905 231.209C412.504 220.455 413.726 217.767 408.105 206.524C414.948 214.589 416.659 218.5 422.036 216.545C427.413 214.589 460.897 195.281 485.338 210.434C489.737 215.078 462.119 240.008 423.503 223.388C414.948 219.966 410.06 227.054 405.905 231.209Z" fill="#7096A0"/>
<path opacity="0.7" d="M308.386 244.896C311.319 239.03 315.229 240.741 311.563 230.476C313.763 233.409 316.207 237.808 317.673 237.564C318.895 237.32 351.401 229.498 361.667 238.542C365.333 241.963 349.935 251.984 320.117 241.719C316.94 240.986 314.496 240.741 308.386 244.896Z" fill="#8EBCC8"/>
<path opacity="0.7" d="M399.061 160.331C402.483 152.51 405.904 150.555 398.816 143.467C404.193 145.667 406.637 151.044 410.304 150.311C413.97 149.577 453.564 131.736 496.091 146.4C500.246 148.355 500.246 164.242 410.792 153.732C407.371 153.244 402.727 155.443 399.061 160.331Z" fill="#7096A0"/>
<path opacity="0.7" d="M301.786 108.028C307.896 106.806 317.428 106.073 307.896 97.2739C311.562 99.2292 314.74 102.406 314.74 102.406C327.938 102.162 356.533 90.9194 384.885 111.694C374.375 117.071 356.045 125.625 315.473 104.851C312.54 107.295 309.118 108.028 301.786 108.028Z" fill="#7096A0"/>
<path opacity="0.7" d="M261.459 288.646C268.547 283.024 273.191 285.224 267.814 270.56C272.213 277.403 270.746 284.735 281.012 283.513C291.277 282.291 336.003 274.226 344.313 293.778C337.225 304.043 309.363 315.042 275.635 285.957C272.946 284.491 270.258 284.735 261.459 288.646Z" fill="#7096A0"/>
<path opacity="0.7" d="M248.75 211.901C253.394 204.813 256.082 204.08 248.506 196.259C256.082 200.414 255.838 205.302 263.17 202.369C273.435 197.97 304.231 183.305 331.604 203.102C315.229 212.39 310.585 214.834 261.948 206.524C258.771 206.035 254.616 206.768 248.75 211.901Z" fill="#7096A0"/>
<path opacity="0.7" d="M176.649 235.364C177.871 231.454 187.403 235.12 179.338 220.7C183.982 223.633 183.493 230.476 186.915 231.454C190.336 232.431 224.553 223.633 240.684 239.03C237.996 244.407 202.801 250.517 186.181 234.142C184.47 231.698 181.293 233.164 176.649 235.364Z" fill="#7096A0"/>
<path opacity="0.7" d="M184.715 127.825C189.359 121.471 190.825 120.249 184.471 113.894C191.314 117.805 190.092 123.426 199.868 119.76C209.645 116.094 245.084 111.939 261.704 126.114C269.036 133.202 248.261 150.555 195.469 124.648C193.514 123.67 192.536 123.426 184.715 127.825Z" fill="#7096A0"/>
<path opacity="0.7" d="M166.873 170.842C169.562 168.886 172.983 168.397 173.716 168.886C171.761 164.487 172.006 159.599 172.25 158.132C173.716 164.243 175.183 169.619 178.36 169.131C181.537 168.642 206.223 165.22 212.577 179.885C204.512 183.062 190.581 185.017 175.916 171.575C174.938 170.108 170.295 170.353 166.873 170.842Z" fill="#8EBCC8"/>
<path opacity="0.7" d="M100.64 175.729C105.528 171.086 101.373 164.242 101.617 160.576C104.55 168.397 104.55 172.063 109.194 173.774C113.838 175.485 141.211 173.041 150.01 189.416C138.034 193.571 119.459 189.661 107.727 175.974C106.505 174.263 104.061 174.019 100.64 175.729Z" fill="#7096A0"/>
<path opacity="0.7" d="M33.6709 183.061C41.0031 182.572 44.6692 185.75 39.7811 174.751C41.9808 177.929 42.714 182.572 45.4025 183.061C48.091 183.55 70.8209 188.438 81.3304 199.681C70.8209 201.881 55.6676 198.215 44.1804 185.017C42.9584 183.55 36.6038 183.306 33.6709 183.061Z" fill="#8EBCC8"/>
<path opacity="0.7" d="M13.1426 70.1454C17.2975 66.7237 19.0084 63.5464 16.8087 52.7925C19.0084 57.925 18.5195 64.5241 23.8965 65.9905C29.0291 67.457 56.8915 72.8339 63.7349 93.1197C56.6471 95.3194 29.5179 84.0767 21.208 69.4122C19.7416 66.9681 16.8087 68.679 13.1426 70.1454Z" fill="#7096A0"/>
<path opacity="0.7" d="M-17.165 11.4871C-11.2993 9.28748 -10.566 10.9983 -13.2545 0C-11.0549 3.66611 -10.8104 9.04308 -8.12195 9.7763C-4.21143 10.9983 20.7181 15.1533 28.2948 28.1069C21.6958 33.4838 -3.2338 20.5302 -9.34399 11.976C-10.3216 10.0207 -13.0101 10.7539 -17.165 11.4871Z" fill="#8EBCC8"/>
<path opacity="0.7" d="M292.987 165.22C297.631 161.065 299.098 162.287 292.01 153.244C295.431 155.933 297.631 160.576 300.32 160.332C304.475 159.843 329.16 154.222 341.136 163.265C336.981 170.597 309.118 168.397 300.075 162.776C298.609 161.554 296.409 163.02 292.987 165.22Z" fill="#8EBCC8"/>
<path opacity="0.7" d="M79.8652 49.3699C83.5313 47.1702 86.7086 47.6591 87.4418 47.6591C87.4418 47.6591 84.5089 39.838 85.4866 36.1719C87.6862 42.7709 87.9307 49.1255 97.4626 50.8363C107.239 52.5472 129.969 64.5232 133.146 74.5439C124.592 76.2547 105.039 73.0774 90.1303 50.3475C89.1527 48.8811 84.0202 49.1255 79.8652 49.3699Z" fill="#8EBCC8"/>
</g>
</svg>
