<svg id="a7ebfae1-dff8-4a23-bd5d-be2bc79249af" xmlns="http://www.w3.org/2000/svg" viewBox="0 0 221.99 411.47">
	<defs>
		<style>
			.f5b3848f-ea56-4c62-89af-43b5e448a9e6{fill:#9e9e9f;opacity:0.25;}
			.b952d500-268e-47c5-b00c-7e3a39d8dccf{fill:#fff;}
			.a0d6288c-cfbe-417b-8812-06aab497fe08{fill:#c7e6e9;}
			.bb15a1fd-f03a-4b8a-a4e2-e4b9c3e641c6{fill:#79bfcd;}
		</style>
	</defs>
	<path class="f5b3848f-ea56-4c62-89af-43b5e448a9e6" d="M197.86,758.68c1.48-1.38,3-3.61,2.27-4.72s-4.83-1.11-6.23-.82c-1.84-1.81-3.73-3.87-8.71-2.6-1-1.19-3.23-2.82-4.05-2.44-1.63.71-2.29,4.61-2.29,4.61a47.2,47.2,0,0,0-10.24,4.37c-2.08,1.16-4.24,3.44-3.46,6.82-1.92,1.83-2.35,10.17,3.49,11.89,2.38,3.58,4.43,3.42,7.08,3.38.82,2.12,3.95,4.78,8.3,2,3,.68,6.55.85,9.3-2.06a7.45,7.45,0,0,0,7-9.25C202.64,766.46,198.23,759.4,197.86,758.68Z" transform="translate(-148.53 -370.89)"/>
	<path class="b952d500-268e-47c5-b00c-7e3a39d8dccf" d="M160,754.85a1,1,0,1,1,1.69,1.17,1.25,1.25,0,0,1-1.61.27c-.44-.25-.39-.9-.08-1.44" transform="translate(-148.53 -370.89)"/>
	<path class="b952d500-268e-47c5-b00c-7e3a39d8dccf" d="M150.83,743.45a1.48,1.48,0,0,1-1.91.33c-.53-.31-.47-1.08-.1-1.72" transform="translate(-148.53 -370.89)"/>
	<path class="b952d500-268e-47c5-b00c-7e3a39d8dccf" d="M160.37,726.79a1.37,1.37,0,0,1,.3,1.89,1.66,1.66,0,0,1-2.12.36" transform="translate(-148.53 -370.89)"/>
	<path class="b952d500-268e-47c5-b00c-7e3a39d8dccf" d="M370.38,375.17c-.54,1.73-2.16,2.22-3.93,1.67a2.43,2.43,0,0,1-1.79-3.45c.54-1.73,1.72-2.91,3.49-2.36A3.32,3.32,0,0,1,370.38,375.17Z" transform="translate(-148.53 -370.89)"/>
	<path class="a0d6288c-cfbe-417b-8812-06aab497fe08" d="M370.11,375.06c-.5,1.6-2,2.06-3.56,1.56s-2.1-1.56-1.61-3.16,1.57-2.69,3.17-2.19A3,3,0,0,1,370.11,375.06Z" transform="translate(-148.53 -370.89)"/>
	<path class="bb15a1fd-f03a-4b8a-a4e2-e4b9c3e641c6" d="M369.62,373.38a2.4,2.4,0,0,1-.15,1.72,2.53,2.53,0,0,1-1.87,1.25c-.2,0-.87.12-1.07-.2-.1-.16-.09-.4,0-.47s.32.09.58.18a1.7,1.7,0,0,0,1.69-.49,1.56,1.56,0,0,0,.42-1.25,4,4,0,0,0-.42-1.07c-.14-.27-.26-.46-.18-.58s.25-.1.38-.07C369.42,372.52,369.56,373.13,369.62,373.38Z" transform="translate(-148.53 -370.89)"/>
	<path class="b952d500-268e-47c5-b00c-7e3a39d8dccf" d="M367.52,373.71a1.26,1.26,0,0,1-1.61.27c-.44-.25-.39-.9-.08-1.45a1.06,1.06,0,0,1,1.46-.26A1,1,0,0,1,367.52,373.71Z" transform="translate(-148.53 -370.89)"/>
</svg>