<svg width="1920" height="535" viewBox="0 0 1920 535" fill="none" xmlns="http://www.w3.org/2000/svg">
<path d="M-34 251.161C17.1874 242.012 32.9477 288.433 2.37 337.277C58.272 332.568 89.3886 343.063 83.1922 376.299C93.9685 372.262 106.092 380.335 102.051 391.1C215.202 391.1 221.937 434.158 173.444 436.849C130.204 439.271 57.5985 439.54 -34 438.194V251.161Z" fill="#F5FAFF"/>
<path d="M190.955 428.775C160.647 440.213 19.208 432.139 -34 431.467V255.198C1.29237 247.663 26.0779 277.938 -2.07522 333.779C-3.96107 337.546 -5.98163 341.314 -8.40629 345.216C-8.40629 345.216 -8.4063 345.216 -8.541 345.351C-3.96107 343.871 0.618853 342.66 5.33348 341.718C43.0505 334.048 83.1922 344.543 79.8246 372.935C79.5552 375.626 78.747 378.586 77.6694 381.681C78.8817 381.143 79.9593 380.604 81.1717 380.201C89.1192 377.24 96.3932 378.182 98.4137 382.892C99.4914 385.448 99.222 389.081 96.5279 393.791C101.377 393.656 106.092 393.791 110.672 393.925C154.046 395.136 186.106 405.766 195.67 415.589C200.789 420.568 199.711 425.412 190.955 428.775Z" fill="white"/>
<path d="M190.955 428.775C172.231 435.772 111.076 435.503 54.635 434.023C19.7468 433.081 -13.525 431.736 -33.8653 431.467L-34 431.467V292.201C-31.8447 301.216 -26.9954 308.751 -19.8561 315.076C-34.6735 364.861 -13.1209 407.919 65.0072 399.846C22.845 424.604 64.3337 422.855 117.542 417.338C112.154 438.867 203.752 424.066 195.805 415.454C200.789 420.568 199.711 425.412 190.955 428.775Z" fill="#F6FAFF"/>
<path d="M54.635 434.023C19.6121 433.081 -13.525 431.736 -33.8653 431.467L-34 431.063V325.436C-30.4977 335.663 -27.9383 347.369 -27.9383 364.861C-27.9383 393.118 -12.5821 404.555 17.8609 413.301C27.2902 415.993 63.6602 430.794 54.635 434.023Z" fill="#EEF5FF"/>
<path d="M5.46818 341.718C-4.63459 345.62 -8.6757 349.387 -18.5091 348.715C-10.5616 344.409 -5.30811 338.757 -2.07522 333.779C-3.28755 336.201 -4.63459 338.757 -6.11633 341.314C-6.78985 342.66 -7.59807 343.871 -8.40629 345.216C-8.40629 345.216 -8.4063 345.216 -8.541 345.351C-6.78985 344.812 -4.904 344.274 -3.15285 343.736C-0.189371 342.929 2.63941 342.256 5.46818 341.718Z" fill="#F6FAFF"/>
<path d="M-11.7739 364.861C-6.52045 373.607 -0.728189 374.146 5.73759 367.552C6.81522 366.745 8.29696 367.014 9.7787 367.552C13.1463 370.378 20.1509 369.571 29.9843 366.207C22.9797 372.262 15.571 374.549 7.08463 370.244C0.349441 378.317 -12.4474 374.684 -11.7739 364.861Z" fill="#F6FAFF"/>
<path d="M79.9593 372.935C79.9593 373.338 79.8246 373.742 79.8246 374.146C79.6899 374.818 79.5552 375.626 79.4205 376.433C79.4205 376.702 79.2858 376.971 79.2858 377.24C78.8817 378.586 78.4776 380.066 77.9388 381.681C77.8041 381.815 77.5347 381.95 77.4 382.084C75.7835 383.026 72.82 383.968 69.3177 384.91C62.1784 386.659 52.3451 387.467 45.6099 384.507C54.0962 385.583 68.3748 380.066 79.9593 372.935Z" fill="#F6FAFF"/>
<path d="M133.033 407.247C137.074 409.938 142.462 409.938 146.503 409.938C150.544 409.938 150.544 416.665 165.361 411.283C168.19 410.207 165.361 416.665 153.238 416.665C147.85 416.665 147.85 413.974 143.809 412.629C139.768 411.283 137.074 411.283 133.033 407.247Z" fill="#F6FAFF"/>
<path d="M79.4205 376.433C79.4205 376.702 79.2858 376.971 79.2858 377.24C78.8817 378.586 78.4776 380.066 77.9388 381.681C77.8041 381.815 77.5347 381.95 77.4 382.084C75.3794 383.295 72.6853 384.237 69.3177 384.91C66.0848 385.583 62.1784 385.852 57.7332 385.852C62.9867 384.641 74.5712 382.084 79.4205 376.433Z" fill="#EEF5FF"/>
<path d="M-15.1415 348.042C-14.3333 347.773 -13.6597 347.638 -12.9862 347.369C-13.7944 347.773 -14.468 348.042 -15.1415 348.042Z" fill="#F6FAFF"/>
<path d="M-3.01815 343.736C-3.42226 344.005 -6.11633 345.351 -12.9862 347.504C-10.5616 346.293 -7.86748 343.467 -6.11633 341.449C-6.78985 342.794 -7.59807 344.005 -8.4063 345.351C-8.4063 345.351 -8.4063 345.351 -8.541 345.485C-6.65515 344.812 -4.7693 344.274 -3.01815 343.736Z" fill="#EEF5FF"/>
<path d="M110.806 393.925C102.724 394.733 95.4503 393.791 85.8863 396.482C91.1397 395.406 100.704 389.754 98.5484 382.892C99.6261 385.448 99.3567 389.081 96.6626 393.791C101.512 393.656 106.227 393.791 110.806 393.925Z" fill="#F6FAFF"/>
<path d="M1920 73.1925C1906.18 63.987 1873.93 62.4528 1850.89 67.0555C1860.11 -43.4101 1632.82 -8.12247 1634.36 105.412C1576 94.6719 1529.93 166.781 1560.65 211.274C1519.18 215.877 1454.68 255.768 1462.36 304.863C1402.47 281.85 1327.22 297.192 1288.83 357.028C1251.97 334.014 1198.22 357.028 1185.94 399.987C1162.9 384.644 1118.37 391.395 1098.4 413.795C1036.51 359.636 908.59 432.973 980.153 501.247C1013.94 533.466 1113.76 513.521 1178.26 521.192C1238.61 528.403 1580.61 525.795 1746.47 530.397C1808.51 532.085 1869.32 527.329 1920 535C1920 450.617 1920 73.1925 1920 73.1925Z" fill="#F5FAFF"/>
<path d="M1920 90.0692V521.192C1920 521.192 1919.85 521.192 1919.69 521.192C1899.58 521.038 1106.54 512.753 1072.3 510.452C1037.74 508.151 973.243 517.356 967.868 459.822C966.946 450.003 970.171 440.491 976.468 432.052C993.36 409.345 1032.06 395.077 1069.22 407.351C1079.82 410.726 1090.11 416.403 1099.94 424.534C1100.86 423.46 1101.63 422.54 1102.55 421.619C1113.61 409.806 1125.43 403.055 1137.87 400.6C1153.84 397.532 1170.89 401.367 1189.01 410.726C1189.01 410.573 1189.16 410.419 1189.16 410.266C1204.52 373.291 1226.02 358.869 1245.68 355.493C1266.1 351.965 1284.37 360.403 1291.9 367.767C1292.05 367.461 1292.21 367.154 1292.36 366.847C1295.12 361.784 1298.2 356.874 1301.57 352.272C1329.06 315.757 1377.9 298.266 1429.65 305.937C1429.65 305.937 1429.81 305.937 1429.96 305.937C1429.96 305.937 1429.96 305.937 1430.11 305.937C1443.32 307.932 1456.68 311.614 1470.04 316.984C1469.89 314.376 1469.73 311.767 1469.73 309.313C1469.58 281.696 1482.02 260.217 1505.21 243.8C1521.95 231.987 1544.21 222.628 1571.55 215.724C1560.49 197.313 1558.19 179.055 1562.03 163.253C1564.18 154.354 1568.33 146.069 1574.01 139.012C1589.06 120.294 1614.7 109.554 1642.19 114.464C1635.9 73.8062 1666.92 40.6665 1706.38 22.5624C1733.26 10.135 1763.97 4.76519 1789.47 8.75423C1821.72 13.8172 1845.37 33.7624 1841.99 73.6528C1841.99 73.9596 1841.99 74.2665 1841.83 74.7267C1875.77 69.6637 1902.65 73.6528 1920 90.0692Z" fill="white"/>
<path d="M1841.68 73.6528C1841.53 73.6528 1841.37 73.6528 1841.07 73.8062C1826.63 76.1076 1809.28 80.7103 1793.92 90.0692C1798.53 79.3295 1810.81 71.6582 1827.7 67.0555C1826.48 33.3021 1808.51 20.4145 1789.16 8.90766C1793.61 9.52135 1797.76 10.5953 1801.75 11.8227C1827.4 19.6474 1844.75 39.2857 1841.68 73.6528Z" fill="#F6FAFF"/>
<path d="M1708.84 143.001C1704.23 146.069 1644.65 95.439 1573.85 139.165C1588.9 120.447 1614.55 109.707 1642.04 114.617C1641.89 113.85 1641.89 113.083 1641.73 112.316C1638.97 89.4555 1648.03 69.05 1663.54 52.4802C1674.9 40.3597 1689.8 30.2337 1706.08 22.7159C1685.65 44.809 1650.33 89.302 1673.37 119.987C1704.23 130.727 1707.31 139.932 1708.84 143.001Z" fill="#F6FAFF"/>
<path d="M1612.09 245.795C1572.16 225.85 1524.1 232.754 1505.05 243.954C1513.81 237.817 1523.94 232.294 1535.46 227.537C1535.46 227.537 1535.46 227.537 1535.61 227.537C1546.36 223.088 1558.34 219.253 1571.4 215.877C1567.25 208.973 1564.33 202.069 1562.49 195.165C1559.42 183.965 1559.42 173.225 1561.88 163.406C1566.02 190.562 1576.77 225.85 1612.09 245.795Z" fill="#F6FAFF"/>
<path d="M1515.34 348.589C1510.74 353.192 1466.51 314.376 1430.27 306.244H1430.11C1435.79 307.165 1441.63 308.239 1447.47 309.773C1454.99 311.767 1462.52 314.222 1470.04 317.291C1470.04 316.984 1470.04 316.524 1469.89 316.217C1469.73 313.915 1469.58 311.767 1469.58 309.62C1484.63 317.904 1519.95 343.987 1515.34 348.589Z" fill="#F6FAFF"/>
<path d="M1430.11 306.398C1399.4 309.466 1348.11 312.535 1301.57 352.425C1329.06 315.91 1377.9 298.42 1429.65 306.091C1429.81 306.244 1429.96 306.244 1430.11 306.398Z" fill="#F6FAFF"/>
<path d="M1305.72 387.713C1290.36 367.767 1267.33 358.562 1245.68 355.493C1266.1 351.965 1284.37 360.403 1291.9 367.767C1292.05 367.461 1292.21 367.154 1292.36 366.847C1299.73 374.825 1305.11 383.11 1305.72 387.713Z" fill="#F6FAFF"/>
<path d="M1205.9 429.137C1187.47 410.726 1164.44 403.055 1137.87 400.6C1153.84 397.532 1170.89 401.367 1189.01 410.726C1189.01 410.573 1189.16 410.419 1189.16 410.266C1194.84 415.943 1200.53 422.233 1205.9 429.137Z" fill="#F6FAFF"/>
<path d="M1109.15 444.48C1101.47 432.206 1090.88 414.715 1069.22 407.351C1079.82 410.726 1090.11 416.403 1099.94 424.534C1100.86 423.46 1101.63 422.54 1102.55 421.619C1109.15 433.74 1110.69 439.877 1109.15 444.48Z" fill="#F6FAFF"/>
<path d="M1919.54 255.768V271.417C1919.54 370.682 1919.54 521.345 1919.54 521.345C1899.42 521.192 1106.39 512.907 1072.14 510.606C1037.59 508.304 973.089 517.51 967.714 459.975C967.561 457.828 967.561 455.68 967.714 453.532C968.328 446.014 971.4 438.803 976.314 432.206C978.464 499.866 1075.21 507.537 1119.75 469.181C1123.89 465.499 1132.03 467.647 1109 484.523C1124.36 492.195 1182.71 501.4 1221.1 472.249C1216.5 481.455 1208.82 486.058 1208.82 486.058C1218.03 495.263 1293.28 493.729 1297.89 453.838C1314.78 450.77 1317.85 464.578 1333.21 467.647C1348.57 470.715 1440.71 487.592 1460.67 423.154C1462.21 444.633 1472.8 483.449 1569.71 470.715C1628.06 463.044 1611.17 430.825 1598.89 409.345C1628.06 447.702 1703.31 453.838 1697.17 409.345C1674.13 403.208 1663.38 383.263 1663.38 378.661C1684.88 400.14 1741.24 414.102 1786.24 354.113C1800.06 335.702 1780.1 309.62 1764.74 303.483C1749.38 297.346 1734.03 277.4 1734.03 277.4C1755.68 284.918 1833.23 317.137 1919.54 255.768Z" fill="#F6FAFF"/>
<path d="M1841.68 73.6528C1841.53 73.6528 1841.37 73.6528 1841.07 73.8062C1836.46 73.6528 1826.63 73.6528 1817.72 77.0281C1820.79 73.9596 1826.94 69.3569 1836.15 70.8911C1836.15 35.6035 1820.79 27.9323 1801.75 11.8227C1827.4 19.6474 1844.75 39.2857 1841.68 73.6528Z" fill="#EEF5FF"/>
<path d="M1650.49 110.781C1653.25 116.305 1648.49 125.817 1641.73 112.316C1638.97 89.4555 1648.03 69.05 1663.54 52.4802C1650.79 72.5788 1642.35 94.5185 1650.49 110.781Z" fill="#EEF5FF"/>
<path d="M1579.08 223.548C1577.54 229.685 1547.44 223.855 1535.61 227.537C1546.36 223.088 1558.34 219.253 1571.4 215.877C1567.25 208.973 1564.33 202.069 1562.49 195.165C1570.94 206.979 1580.3 218.485 1579.08 223.548Z" fill="#EEF5FF"/>
<path d="M1447.31 309.62C1454.84 311.614 1462.36 314.069 1469.89 317.137C1469.89 316.83 1469.89 316.37 1469.73 316.063C1481.71 321.74 1492.77 330.025 1497.53 335.548C1491.54 330.946 1462.36 317.137 1447.31 309.62Z" fill="#EEF5FF"/>
<path d="M1058.47 498.178C1064.62 493.575 1073.83 493.575 1086.12 488.973C1098.4 484.37 1115.29 476.699 1109.15 482.836C1103.01 488.973 1069.22 508.918 1058.47 498.178Z" fill="#EEF5FF"/>
<path d="M1205.9 485.904C1185.94 492.041 1150.62 493.575 1162.9 498.178C1175.19 502.781 1198.22 490.507 1205.9 485.904Z" fill="#EEF5FF"/>
<path d="M1305.72 447.548C1301.11 465.959 1281.15 487.438 1282.69 488.973C1284.22 490.507 1307.26 481.301 1305.72 447.548Z" fill="#EEF5FF"/>
<path d="M1459.29 450.617C1474.65 473.63 1509.51 488.512 1545.29 481.302C1552.97 479.767 1542.22 475.778 1519.18 476.699C1482.33 478.233 1459.29 447.548 1459.29 450.617Z" fill="#EEF5FF"/>
<path d="M1609.79 424.534C1617.47 438.343 1634.82 455.833 1668.15 447.548C1674.29 446.014 1626.68 441.411 1609.79 424.534Z" fill="#EEF5FF"/>
<path d="M1683.5 395.384C1705 410.726 1732.64 423 1766.43 389.247C1771.04 384.644 1765.82 386.485 1752.61 392.315C1738.79 398.452 1712.68 407.658 1683.5 395.384Z" fill="#EEF5FF"/>
<path d="M1919.54 271.263C1919.54 370.529 1919.54 521.192 1919.54 521.192C1899.42 521.038 1106.39 512.753 1072.14 510.452C1037.59 508.151 973.089 517.356 967.714 459.822C967.561 457.674 967.561 455.526 967.714 453.378C980 505.543 1024.69 504.315 1047.57 504.315C1070.61 504.315 1133.57 507.384 1175.03 508.918C1216.5 510.452 1288.67 507.384 1296.35 502.781C1304.03 498.178 1304.03 496.644 1311.71 498.178C1319.39 499.712 1380.82 507.384 1414.6 507.384C1448.39 507.384 1446.85 504.315 1476.03 498.178C1496.15 493.882 1503.67 499.712 1519.03 495.11C1534.39 490.507 1605.03 498.178 1635.74 488.973C1649.26 484.83 1652.64 481.301 1660.31 482.836C1729.42 496.644 1741.71 461.356 1737.1 449.082C1733.72 440.03 1732.49 438.343 1741.71 436.808C1838.3 420.699 1830.78 324.809 1766.28 295.658C1835.54 324.809 1883.14 294.124 1919.54 271.263Z" fill="#EEF5FF"/>
</svg>
