<svg width="450" height="343" viewBox="0 0 450 343" fill="none" xmlns="http://www.w3.org/2000/svg">
<g opacity="0.4">
<path opacity="0.4" d="M369.801 238.376C372.316 233.944 375.181 234.05 369.368 226.092C373.183 227.273 375.216 231.776 375.575 232.779C377.813 231.131 402.351 221.087 419.518 232.337C422.859 234.96 421.132 240.807 408.159 240.497C395.185 240.187 382.184 238.615 375.539 235.053C373.131 236.62 371.225 238.009 369.801 238.376Z" fill="#7096A0"/>
<path opacity="0.4" d="M332.03 208.625C336.415 201.121 337.301 199.249 333.771 191.747C338.097 197.127 339.164 199.714 342.583 198.209C346.003 196.704 368.097 182.587 383.795 192.101C386.723 195.153 368.499 212.976 343.355 202.739C338.089 200.664 334.742 205.535 332.03 208.625Z" fill="#7096A0"/>
<path opacity="0.4" d="M268.301 220.944C270.404 216.941 272.867 217.899 270.448 211.131C271.836 213.037 273.502 216.117 274.254 215.848C275.006 215.579 296.26 209.396 302.699 215.151C304.938 217.46 294.993 224.832 275.66 218.596C273.878 217.961 272.276 217.827 268.301 220.944Z" fill="#8EBCC8"/>
<path opacity="0.4" d="M328.21 160.376C330.366 154.94 332.693 153.543 328.215 148.924C331.779 150.194 333.123 153.955 335.55 153.229C337.976 152.503 363.794 139.316 391.346 147.985C394.068 149.273 393.964 160.053 335.855 155.664C333.822 155.118 330.742 156.785 328.21 160.376Z" fill="#7096A0"/>
<path opacity="0.4" d="M265.617 127.623C269.637 126.61 275.77 125.973 269.752 120.208C272.223 121.586 274.203 123.564 274.203 123.564C282.78 123.043 301.625 114.469 319.929 127.716C313.027 131.738 300.87 138.062 274.91 125.149C272.502 126.717 270.246 127.523 265.617 127.623Z" fill="#7096A0"/>
<path opacity="0.4" d="M237.231 252.263C242.029 248.286 245.002 249.485 241.508 239.709C244.383 244.194 243.229 249.27 250.025 248.114C256.82 246.957 285.89 240.1 291.141 253.206C286.415 260.549 268.322 268.854 246.444 249.959C244.993 249.064 243.149 249.441 237.231 252.263Z" fill="#7096A0"/>
<path opacity="0.4" d="M229.795 200.218C232.972 195.266 234.476 194.728 229.9 189.438C234.753 191.943 234.575 195.4 239.409 193.106C246.24 189.675 266.302 178.97 284.087 191.554C273.371 198.353 270.381 200.27 238.631 196.07C236.437 195.865 233.841 196.51 229.795 200.218Z" fill="#7096A0"/>
<path opacity="0.4" d="M182.868 218.407C183.735 215.694 189.762 217.921 184.754 208.262C187.655 210.052 187.334 214.69 189.537 215.316C191.82 215.772 214.068 208.809 224.555 218.772C222.703 222.685 199.909 227.723 189.153 217.008C187.863 215.773 185.696 216.83 182.868 218.407Z" fill="#7096A0"/>
<path opacity="0.4" d="M189.024 144.682C192.13 140.321 193.034 139.291 188.986 135.084C193.418 137.598 192.578 141.574 198.916 138.743C205.254 135.912 228.497 132.127 239.046 141.078C243.694 145.777 229.981 158.029 195.873 142.092C194.933 141.439 194.342 141.368 189.024 144.682Z" fill="#7096A0"/>
<path opacity="0.4" d="M177.125 174.662C178.862 173.193 181.127 172.807 181.637 173.049C180.311 170.13 180.489 166.674 180.892 165.824C181.824 170.013 182.658 173.532 184.753 173.066C186.848 172.6 202.865 169.56 206.951 179.408C201.615 181.881 192.644 183.674 183.106 174.785C182.327 173.792 179.22 174.195 177.125 174.662Z" fill="#8EBCC8"/>
<path opacity="0.4" d="M133.791 179.974C137.085 176.535 134.38 172.13 134.746 169.596C136.628 174.86 136.512 177.305 139.565 178.333C142.449 179.282 160.498 176.788 165.873 187.871C158.112 191.069 146.024 188.888 138.59 179.954C137.641 178.88 136.289 178.657 133.791 179.974Z" fill="#7096A0"/>
<path opacity="0.4" d="M90.1017 188.241C94.8826 187.38 97.3632 189.179 93.8426 182.098C95.4011 184.085 96.0554 187.102 97.8283 187.316C99.6011 187.531 114.536 188.977 121.754 195.726C115.067 197.975 105.021 196.76 97.0139 188.597C96.1541 187.774 91.8654 188.034 90.1017 188.241Z" fill="#8EBCC8"/>
<path opacity="0.4" d="M42.7728 187.913C44.3483 186.785 45.799 187.68 43.872 180.312C45.7979 183.722 45.4315 186.256 48.1084 185.441C50.7853 184.625 63.5878 180.897 67.6279 188.641C64.4054 191.489 54.9784 195.565 46.8822 187.151C46.103 186.158 42.7728 187.913 42.7728 187.913Z" fill="#8EBCC8"/>
<path opacity="0.4" d="M4.26495 163.229C6.65488 160.82 7.1381 159.799 5.785 155.618C7.68371 157.767 7.98881 160.202 9.1707 160.345C10.4331 160.318 20.1549 154.298 24.5796 160.35C20.5245 163.637 13.5863 165.976 8.52642 161.706C7.8368 160.963 4.26495 163.229 4.26495 163.229Z" fill="#8EBCC8"/>
<path opacity="0.4" d="M81.5413 154.408C83.152 151.005 83.5184 148.471 79.434 142.581C82.0133 145.051 83.3664 149.232 86.9745 148.649C90.5826 148.066 108.408 142.967 117.642 153.378C113.927 156.826 94.9279 158.245 86.1964 151.613C84.8263 150.548 83.5195 152.429 81.5413 154.408Z" fill="#7096A0"/>
<path opacity="0.4" d="M35.7879 113.798C39.2701 111.281 40.0493 112.275 36.6183 105.444C38.517 107.593 39.4312 110.941 41.1144 110.905C43.8094 110.931 60.2744 109.145 66.9108 116.243C63.4739 120.864 45.7092 117.037 40.7299 112.597C39.8702 111.774 38.205 112.651 35.7879 113.798Z" fill="#8EBCC8"/>
<path opacity="0.4" d="M259.307 166.913C262.359 163.984 263.3 164.637 258.795 158.756C260.935 160.394 262.35 163.563 264.195 163.187C266.881 162.792 283.032 158.15 290.733 163.878C288.066 169.072 269.864 168.369 264.061 164.789C262.87 164.226 261.465 165.435 259.307 166.913Z" fill="#8EBCC8"/>
<path opacity="0.4" d="M120.49 129.318C122.549 127.169 124.563 126.873 125.065 126.694C125.065 126.694 122.019 122.128 122.216 119.514C124.571 123.336 125.423 127.696 131.807 126.969C138.19 126.242 154.352 129.936 157.765 135.925C152.519 138.648 139.752 140.102 127.196 127.911C126.256 127.257 123.077 128.252 120.49 129.318Z" fill="#8EBCC8"/>
</g>
</svg>
