<svg width="404" height="375" viewBox="0 0 404 375" fill="none" xmlns="http://www.w3.org/2000/svg">
<g opacity="0.4">
<path opacity="0.4" d="M316.979 270.909C319.996 266.802 322.829 267.244 317.989 258.659C321.638 260.279 323.13 264.989 323.369 266.027C325.784 264.653 351.331 257.554 367.061 270.738C370.071 273.734 367.672 279.339 354.824 277.51C341.976 275.682 329.249 272.597 323.067 268.281C320.492 269.556 318.436 270.711 316.979 270.909Z" fill="#7096A0"/>
<path opacity="0.4" d="M282.953 236.937C288.187 229.998 289.286 228.243 286.66 220.379C290.326 226.229 291.081 228.923 294.654 227.83C298.227 226.736 321.822 215.305 336.297 226.593C338.848 229.967 318.66 245.531 294.889 232.419C289.903 229.74 286.008 234.186 282.953 236.937Z" fill="#7096A0"/>
<path opacity="0.4" d="M218.221 241.703C220.778 237.974 223.112 239.213 221.502 232.208C222.658 234.265 223.951 237.518 224.73 237.339C225.508 237.16 247.34 233.51 253.06 239.981C255.013 242.536 244.273 248.691 225.804 240.233C224.109 239.394 222.533 239.073 218.221 241.703Z" fill="#8EBCC8"/>
<path opacity="0.4" d="M284.815 188.572C287.594 183.427 290.069 182.312 286.163 177.2C289.553 178.88 290.448 182.771 292.942 182.335C295.437 181.898 322.622 171.828 348.969 183.666C351.521 185.265 350.154 195.958 292.96 184.789C291.005 184.009 287.751 185.303 284.815 188.572Z" fill="#7096A0"/>
<path opacity="0.4" d="M226.492 148.71C230.603 148.175 236.768 148.261 231.467 141.831C233.76 143.489 235.493 145.686 235.493 145.686C244.073 146.173 263.792 139.867 280.419 155.167C273.093 158.352 260.278 163.209 236.011 147.342C233.435 148.617 231.1 149.153 226.492 148.71Z" fill="#7096A0"/>
<path opacity="0.4" d="M183.695 269.164C188.926 265.777 191.738 267.316 189.413 257.198C191.743 261.989 190.002 266.895 196.886 266.543C203.77 266.19 233.444 262.787 237.122 276.419C231.569 283.157 212.627 289.285 193.114 267.956C191.778 266.897 189.902 267.055 183.695 269.164Z" fill="#7096A0"/>
<path opacity="0.4" d="M182.409 216.606C186.145 212.061 187.701 211.703 183.776 205.913C188.303 208.97 187.721 212.382 192.79 210.67C199.976 208.064 221.154 199.784 237.342 214.365C225.903 219.861 222.709 221.414 191.67 213.523C189.516 213.062 186.862 213.398 182.409 216.606Z" fill="#7096A0"/>
<path opacity="0.4" d="M133.673 229.171C134.852 226.578 140.576 229.496 136.735 219.317C139.407 221.434 138.544 226.003 140.658 226.883C142.873 227.603 165.783 223.295 175.03 234.418C172.732 238.087 149.505 240.419 140.078 228.518C138.942 227.14 136.667 227.936 133.673 229.171Z" fill="#7096A0"/>
<path opacity="0.4" d="M148.427 156.675C152.022 152.708 153.041 151.791 149.514 147.139C153.621 150.156 152.32 154.006 158.947 151.937C165.573 149.868 189.099 148.833 198.527 158.959C202.592 164.17 187.537 174.731 155.532 154.907C154.675 154.147 154.096 154.007 148.427 156.675Z" fill="#7096A0"/>
<path opacity="0.4" d="M133.096 185.054C134.993 183.799 137.288 183.681 137.766 183.981C136.792 180.927 137.374 177.516 137.873 176.718C138.308 180.988 138.723 184.58 140.859 184.363C142.994 184.146 159.257 183.004 162.16 193.263C156.571 195.093 147.452 195.822 139.022 185.878C138.364 184.8 135.231 184.836 133.096 185.054Z" fill="#8EBCC8"/>
<path opacity="0.4" d="M89.4378 185.251C93.1121 182.221 90.9417 177.53 91.6025 175.057C92.8543 180.505 92.4529 182.919 95.3647 184.299C98.117 185.578 116.335 185.217 120.374 196.853C112.291 199.12 100.542 195.537 94.206 185.794C93.3891 184.616 92.0726 184.235 89.4378 185.251Z" fill="#7096A0"/>
<path opacity="0.4" d="M45.0807 188.341C49.9296 188.046 52.1823 190.123 49.5158 182.678C50.8306 184.835 51.1269 187.908 52.8624 188.328C54.5979 188.749 69.2603 191.936 75.638 199.484C68.7328 200.934 58.8983 198.55 51.9036 189.505C51.1462 188.586 46.8565 188.342 45.0807 188.341Z" fill="#8EBCC8"/>
<path opacity="0.4" d="M-1.8832 182.47C-0.18629 181.533 1.14951 182.592 0.0992977 175.049C1.61223 178.662 0.95141 181.135 3.7054 180.639C6.4594 180.143 19.6106 177.941 22.7154 186.105C19.1813 188.556 9.34158 191.499 2.28721 182.194C1.62981 181.116 -1.8832 182.47 -1.8832 182.47Z" fill="#8EBCC8"/>
<path opacity="0.4" d="M40.5448 153.738C42.5431 150.548 43.204 148.074 39.838 141.746C42.11 144.501 42.9638 148.812 46.6154 148.656C50.2669 148.5 68.5668 145.525 76.517 156.945C72.4237 159.934 53.3893 159.118 45.4953 151.508C44.2594 150.29 42.7413 152.004 40.5448 153.738Z" fill="#7096A0"/>
<path opacity="0.4" d="M-0.134786 108.046C3.6184 105.955 4.27581 107.033 1.66892 99.8473C3.30279 102.203 3.81828 105.636 5.49418 105.797C8.16755 106.139 24.7284 106.294 30.4872 114.122C26.5325 118.308 9.33872 112.425 4.91398 107.433C4.15666 106.514 2.40007 107.191 -0.134786 108.046Z" fill="#8EBCC8"/>
<path opacity="0.4" d="M215.62 186.989C218.994 184.439 219.852 185.198 216.067 178.829C218 180.706 219.035 184.02 220.91 183.862C223.624 183.785 240.208 181.067 247.185 187.658C243.928 192.504 225.933 189.673 220.59 185.438C219.473 184.738 217.936 185.774 215.62 186.989Z" fill="#8EBCC8"/>
<path opacity="0.4" d="M82.1658 133.386C84.4622 131.493 86.4975 131.435 87.0164 131.316C87.0164 131.316 84.527 126.425 85.0283 123.851C86.9199 127.924 87.2548 132.354 93.6797 132.38C100.105 132.406 115.722 137.968 118.41 144.316C112.881 146.405 100.031 146.353 88.9903 132.774C88.1331 132.015 84.8602 132.631 82.1658 133.386Z" fill="#8EBCC8"/>
</g>
</svg>
