<svg id="圖層_1" data-name="圖層 1" xmlns="http://www.w3.org/2000/svg" viewBox="0 0 675.13 216.3">
    <defs>
        <style>.cls-1{fill:#ecd1c4;}.cls-2{fill:#070406;}.cls-3{fill:#fff;}.cls-4{fill:#adb2c1;}.cls-5{fill:#717071;}.cls-6{fill:#868c98;}.cls-7{fill:#192444;}.cls-8{font-size:115px;fill:#231815;font-family:Poppins-Medium, Poppins;font-weight:500;letter-spacing:0.01em;}</style>
    </defs>
    <title>LOGO</title>
    <circle class="cls-1" cx="107.49" cy="107.49" r="107.49" />
    <g id="主扇貝">
        <path class="cls-2" d="M184.33,85.72c6.28-5.63,12.9-14.71,9.69-19.18s-20.42-4.47-26.37-3.27c-7.72-7.3-15.72-15.66-36.79-10.42C126.69,48,117.25,41.43,113.79,43,106.85,45.86,104,61.73,104,61.73,84.5,66.85,65.35,76.88,60.64,79.59c-8.82,4.74-18,14-14.69,27.71-8.16,7.48-10.08,41.31,14.6,48.24,10,14.48,18.71,13.82,29.87,13.63,3.48,8.6,16.67,19.34,35.12,8,12.51,2.7,27.69,3.34,39.32-8.47,15.84-.55,35.26-14.46,29.93-37.66C204.48,117.24,185.89,88.6,184.33,85.72Z" transform="translate(-12.6 -5.26)" />
        <path class="cls-3" d="M162.24,166.5l-.39.4Z" transform="translate(-12.6 -5.26)" />
        <path class="cls-4" d="M192.38,111C179.67,77.27,161.27,59.13,151,56c-11.33-3.49-22.74,1-48.91,9.85-27.74,9.37-46.77,17.36-51.82,29-4.88,11.26,4.14,25.46,15.15,27.85a20.84,20.84,0,0,1,.16-4.17c.31-1.9,3.82-17.61,21.76-24.43-10.84,6.07-24.45,21.7-17,35.83,3.91,5,10.56,8.71,21.48,5.9,1-14.54,12.29-32.41,26.59-44.36-9.52,11.15-21.15,26.68-22.8,41.49-.13,1.16-.16,6.44,2.7,10.2,9.08,8.48,26.18,12.05,36.57.48,10.46-12.87,8-36.68,6.5-49.11,4.59,16.56,5.35,35.33-2,47.76,6,6.19,17.2,7.23,27.3-1,6.7-15.56,6.56-35.46-7.08-53.76,14.08,16.68,15.48,30.49,11.16,52C183.77,135.94,199.08,132.15,192.38,111Z" transform="translate(-12.6 -5.26)" />
        <path class="cls-4" d="M60.91,138.41c-6.2-1.81-16.28-10.07-16-21-1.46,6.4-3.52,28.38,17.63,35.25C60.36,148.15,60.37,142.82,60.91,138.41Z" transform="translate(-12.6 -5.26)" />
        <path class="cls-4" d="M88.07,153.26c-7.56.53-21.48-6.14-23.09-15-2,2.46-4.62,11.87,1.06,19.14h0c7.4,8.83,14.63,9,25.14,8.34A24.34,24.34,0,0,1,88.07,153.26Z" transform="translate(-12.6 -5.26)" />
        <path class="cls-4" d="M165.64,155.39h0c-5.11,5.59-19.15,9.09-31.62,3.32-.2,3.48-4.13,11.66-8.31,14.86,8.14,1.89,24,5.36,36-6.55A21.88,21.88,0,0,0,165.64,155.39Z" transform="translate(-12.6 -5.26)" />
        <path class="cls-4" d="M90.72,153.44a28.86,28.86,0,0,0,1.56,13.34c3.3,6.86,14.76,18.08,32.34,7.29,4.51-3.83,5.61-9.83,5.49-14C121.79,166.36,97.65,166.08,90.72,153.44Z" transform="translate(-12.6 -5.26)" />
        <path class="cls-4" d="M168.45,154.45h0c-.06,2.41-.91,6.21-5.21,11,14.95-.19,26.17-10.42,28.2-21C187,151.45,176.62,155.79,168.45,154.45Z" transform="translate(-12.6 -5.26)" />
        <path class="cls-3" d="M92.28,166.78l-.3-.86Z" transform="translate(-12.6 -5.26)" />
        <path class="cls-3" d="M91.91,165.7q-.3-.9-.54-1.86Q91.61,164.8,91.91,165.7Z" transform="translate(-12.6 -5.26)" />
        <path class="cls-5" d="M92,165.92c0-.08,0-.15-.07-.22S92,165.84,92,165.92Z" transform="translate(-12.6 -5.26)" />
        <path class="cls-5" d="M124.62,174.07a9.58,9.58,0,0,0,3.27-4.07A14.14,14.14,0,0,1,124.62,174.07Z" transform="translate(-12.6 -5.26)" />
        <path class="cls-5" d="M91.37,163.84l-.06-.24Z" transform="translate(-12.6 -5.26)" />
        <path class="cls-6" d="M44.36,130.24c1,8.47,5.3,18.28,18.2,22.47a19,19,0,0,1-1.63-5.37h0C50.42,147.16,45.47,135.41,44.36,130.24Z" transform="translate(-12.6 -5.26)" />
        <path class="cls-6" d="M62.67,148.71A16.31,16.31,0,0,0,66,157.4h0c7.4,8.83,14.63,9,25.14,8.34a26.27,26.27,0,0,1-1.64-3.64h0C70.4,164.67,64.81,154.2,62.67,148.71Z" transform="translate(-12.6 -5.26)" />
        <path class="cls-6" d="M127.89,170c.09-.16.17-.32.25-.49-4.31,3.26-8.74,6-18.26,5.56-11.55-.92-17.07-6.76-18.79-12.47.07.34.14.67.22,1l.06.24q.24,1,.54,1.86c0,.07,0,.14.07.22l.3.86c3.3,6.86,14.76,18.08,32.34,7.29A14.14,14.14,0,0,0,127.89,170Z" transform="translate(-12.6 -5.26)" />
        <path class="cls-6" d="M161.74,167a22.8,22.8,0,0,0,2.37-4.43c-13.18,12.83-30.67,9-34.5,6.57h0a18.74,18.74,0,0,1-3.9,4.41C133.85,175.45,149.7,178.92,161.74,167Z" transform="translate(-12.6 -5.26)" />
        <path class="cls-6" d="M166.1,161.66a25.52,25.52,0,0,1-2.86,3.81c12.21-.16,21.93-7,26.19-15.28C184.81,158.9,170.13,162.08,166.1,161.66Z" transform="translate(-12.6 -5.26)" />
        <path class="cls-7" d="M47.44,111.19a12.33,12.33,0,0,0-2,4.45c-.4,6.61,8.9,22.14,20.78,20.6.51,8.69,16.85,18.25,24.37,14,5.2,12.33,31.78,15.52,42.25,5.4,6.33,5.81,28.8,5.12,33.45-4.17,7.15,3.86,22.78-2.82,25.79-11a14.43,14.43,0,0,0-.27-6.15c-3.24,4-14,12-22.42,9.25-6.28,5.76-20.61,11.45-31.6,2.14-12.65,16.08-42.43,7.45-45.1-6.47-8.33,2.24-24,1.49-27.49-13C62.57,125.1,53.61,123.59,47.44,111.19Z" transform="translate(-12.6 -5.26)" />
        <path class="cls-3" d="M107.94,60.3c4.49-1.7,13.81-4.62,19.32-6.22-3.19-3.3-10.21-8.34-12.19-7.91C112.23,47,108.93,55.64,107.94,60.3Z" transform="translate(-12.6 -5.26)" />
        <path class="cls-3" d="M170.39,66.27a126.13,126.13,0,0,1,12.18,16.42c4.33-3.66,10.32-12.92,8.48-14.28C187.47,65.78,174.82,65.65,170.39,66.27Z" transform="translate(-12.6 -5.26)" />
        <path class="cls-3" d="M100.15,66.51l-1,.34-.5.18-1,.34-.46.16L95.76,68l0,0-1.36.47-.45.16L93,69l-.47.17-1,.35-.42.14-2.67,1-.4.15-.92.34-.45.16-.91.35-.39.14-1.27.49h0l-1.24.48-.36.15-.88.34-.41.16-.86.35L80,73.9l-2.34,1L77.3,75l-.83.35-.37.16-.81.36L75,76,72.8,77l-.3.14-.76.36-.34.16-.74.36-.3.14-2,1-.27.14-.69.36-.31.16-.68.37-.26.14c-.61.33-1.21.67-1.8,1l-.25.15-.62.37-.27.16-.62.38-.23.14-.81.52h0c11-5.2,48.67-19.05,67.51-5s43.51-2.38,30.56-17.18A28.39,28.39,0,0,0,151,56c-11.33-3.49-22.74,1-48.91,9.85l-1.46.5Z" transform="translate(-12.6 -5.26)" />
        <path class="cls-6" d="M105.21,105.26c-11,13.89-13.9,24.29-20.66,25.52-5.4,1-11.87,1.64-16.08-6.32a18.59,18.59,0,0,0,1.87,5.47c3.91,5,10.56,8.71,21.48,5.9C92.46,126.21,97.63,115.12,105.21,105.26Z" transform="translate(-12.6 -5.26)" />
        <path class="cls-6" d="M96.06,138.17a13.27,13.27,0,0,0,2.25,5c9.08,8.48,26.18,12.05,36.57.48,5.87-7.22,7.67-17.87,7.85-28C135.84,151.58,101.31,153.33,96.06,138.17Z" transform="translate(-12.6 -5.26)" />
        <path class="cls-6" d="M167.4,139.4l.36-1c.07-.19.13-.39.2-.58l.3-.86.21-.64c.08-.27.17-.55.25-.83s.14-.44.2-.66.15-.55.23-.82l.18-.69c.07-.27.13-.54.2-.8s.11-.48.17-.72.11-.53.16-.79.11-.5.16-.75.09-.51.14-.77.09-.52.13-.78.07-.44.1-.66c.1-.62.18-1.23.25-1.85l.06-.51c0-.32.06-.65.08-1s0-.39.05-.59,0-.65.06-1l0-.59c0-.33,0-.67,0-1s0-.38,0-.58,0-.68,0-1v-.54l0-1.07,0-.5-.06-1.13c0-.13,0-.26,0-.39,0-.42-.06-.83-.11-1.24,0-.05,0-.1,0-.15a52.7,52.7,0,0,0-1-6.09v0c-.1-.47-.22-.94-.34-1.4l-.06-.23c-.12-.45-.25-.89-.38-1.34,0-.1-.05-.19-.08-.29q-.19-.66-.42-1.32l-.09-.29c-.15-.45-.31-.89-.47-1.34l-.09-.24c-.17-.47-.35-.93-.53-1.4l-.05-.11a57.87,57.87,0,0,0-3.85-7.78h0c7.42,19,5.86,41.88-6.48,48.42-4.5,2.38-10.8,3.84-17,0h0c-.16.28-.31.56-.48.83,6,6.19,17.2,7.23,27.3-1,.2-.46.39-.93.58-1.4Z" transform="translate(-12.6 -5.26)" />
        <path class="cls-6" d="M192.38,111c-6-16-13.34-28.45-20.45-37.49,12.34,23.41,19.3,40,14.26,51.79-1.93,4-4.57,9.36-13.83,11.77-.16.05-.9,0-1,.06-.13.73-.45,1.63-.6,2.38C176.14,142.85,200.77,133.11,192.38,111Z" transform="translate(-12.6 -5.26)" />
        <path class="cls-6" d="M189.4,74.23c-7.71,4.12-15.67-5.44-19-8a126.13,126.13,0,0,1,12.18,16.42A36.78,36.78,0,0,0,189.4,74.23Z" transform="translate(-12.6 -5.26)" />
        <path class="cls-6" d="M74.4,102.41c-10.8,10.92-18.1,12.88-23.08,8.64,2.94,5.75,8.24,10.38,14.1,11.65a20.84,20.84,0,0,1,.16-4.17A32.73,32.73,0,0,1,74.4,102.41Z" transform="translate(-12.6 -5.26)" />
    </g>
    <text class="cls-8" transform="translate(239.4 149.37)">Scallop</text>
</svg>