<svg id="bc096b2d-89d6-42b2-bc03-41fd1dce7898" xmlns="http://www.w3.org/2000/svg" viewBox="0 0 64.45 57.15">
	<defs>
	<style>.f5c61238-2dce-4f21-8b4f-524de0126c31{fill:#020507;}.f679b2d3-4885-4ba7-bd38-8147adb07292{fill:#fff;}.ae08c746-9017-471e-824e-1e1e4973ecd6{fill:#b1b6c6;}.ad40cdbe-7516-4731-bc33-b7bee1ec90d0{fill:#717171;}.abf66c8f-658e-4b86-8969-858d9331ade4{fill:#89909c;}.b17114b0-07ec-4730-bdd2-65b13b89f0a8{fill:#1c2647;}
	</style>
	</defs>
	<g id="a69fe648-71b6-4af6-9aa4-b048de038f79">
		<path class="f5c61238-2dce-4f21-8b4f-524de0126c31" d="M503.51,428.77c2.57-2.3,5.29-6,4-7.87s-8.38-1.83-10.82-1.34c-3.16-3-6.44-6.42-15.09-4.27-1.71-2-5.58-4.68-7-4.05-2.85,1.18-4,7.7-4,7.7a83.4,83.4,0,0,0-17.79,7.32c-3.62,1.95-7.37,5.75-6,11.37-3.34,3.07-4.13,16.94,6,19.79,4.12,5.93,7.67,5.67,12.25,5.59,1.43,3.53,6.84,7.93,14.41,3.28,5.13,1.11,11.36,1.37,16.13-3.47,6.5-.23,14.46-5.93,12.28-15.45C511.77,441.7,504.15,430,503.51,428.77Z" transform="translate(-444.49 -411.15)"/>
		<path class="f679b2d3-4885-4ba7-bd38-8147adb07292" d="M494.45,461.91l-.17.17Z" transform="translate(-444.49 -411.15)"/>
		<path class="ae08c746-9017-471e-824e-1e1e4973ecd6" d="M506.81,439.13c-5.22-13.82-12.76-21.26-17-22.55-4.64-1.43-9.32.42-20.06,4-11.38,3.85-19.19,7.13-21.26,11.9s1.7,10.44,6.22,11.42a7.65,7.65,0,0,1,.07-1.7,13.87,13.87,0,0,1,8.92-10c-4.45,2.49-10,8.9-7,14.7,1.6,2,4.33,3.57,8.81,2.42.39-6,5-13.3,10.91-18.2-3.91,4.58-8.68,10.95-9.36,17a6.73,6.73,0,0,0,1.11,4.19c3.73,3.48,10.74,4.94,15,.19,4.29-5.27,3.28-15,2.67-20.14,1.88,6.79,2.19,14.49-.84,19.59,2.48,2.54,7.06,3,11.2-.42a21.72,21.72,0,0,0-2.9-22.05c5.77,6.84,6.34,12.5,4.57,21.31C503.28,449.38,509.56,447.82,506.81,439.13Z" transform="translate(-444.49 -411.15)"/>
		<path class="ae08c746-9017-471e-824e-1e1e4973ecd6" d="M452.88,450.39c-2.54-.74-6.68-4.13-6.56-8.6-.59,2.63-1.44,11.65,7.24,14.46A10.59,10.59,0,0,1,452.88,450.39Z" transform="translate(-444.49 -411.15)"/>
		<path class="ae08c746-9017-471e-824e-1e1e4973ecd6" d="M464,456.48c-3.1.22-8.81-2.52-9.47-6.15a7.08,7.08,0,0,0,.43,7.85h0c3,3.62,6,3.69,10.32,3.42A9.94,9.94,0,0,1,464,456.48Z" transform="translate(-444.49 -411.15)"/>
		<path class="ae08c746-9017-471e-824e-1e1e4973ecd6" d="M495.84,457.35h0c-2.1,2.29-7.86,3.73-13,1.36a11.24,11.24,0,0,1-3.41,6.1c3.34.77,9.84,2.2,14.78-2.69A9,9,0,0,0,495.84,457.35Z" transform="translate(-444.49 -411.15)"/>
		<path class="ae08c746-9017-471e-824e-1e1e4973ecd6" d="M465.11,456.56a11.67,11.67,0,0,0,.64,5.47c1.35,2.81,6.05,7.41,13.26,3a7.34,7.34,0,0,0,2.26-5.75C477.85,461.85,468,461.74,465.11,456.56Z" transform="translate(-444.49 -411.15)"/>
		<path class="ae08c746-9017-471e-824e-1e1e4973ecd6" d="M497,457h0a7.05,7.05,0,0,1-2.13,4.52c6.13-.08,10.73-4.28,11.56-8.62A10.12,10.12,0,0,1,497,457Z" transform="translate(-444.49 -411.15)"/>
		<path class="f679b2d3-4885-4ba7-bd38-8147adb07292" d="M465.75,462l-.13-.36Z" transform="translate(-444.49 -411.15)"/>
		<path class="f679b2d3-4885-4ba7-bd38-8147adb07292" d="M465.59,461.58c-.08-.24-.15-.5-.22-.76C465.44,461.08,465.51,461.34,465.59,461.58Z" transform="translate(-444.49 -411.15)"/>
		<path class="ad40cdbe-7516-4731-bc33-b7bee1ec90d0" d="M465.62,461.67l0-.09Z" transform="translate(-444.49 -411.15)"/>
		<path class="ad40cdbe-7516-4731-bc33-b7bee1ec90d0" d="M479,465a4,4,0,0,0,1.35-1.67A5.91,5.91,0,0,1,479,465Z" transform="translate(-444.49 -411.15)"/>
		<path class="ad40cdbe-7516-4731-bc33-b7bee1ec90d0" d="M465.37,460.82l0-.1Z" transform="translate(-444.49 -411.15)"/>
		<path class="abf66c8f-658e-4b86-8969-858d9331ade4" d="M446.09,447a10.41,10.41,0,0,0,7.47,9.21,7.78,7.78,0,0,1-.67-2.2h0C448.58,454,446.54,449.16,446.09,447Z" transform="translate(-444.49 -411.15)"/>
		<path class="abf66c8f-658e-4b86-8969-858d9331ade4" d="M453.6,454.61a6.76,6.76,0,0,0,1.38,3.57h0c3,3.62,6,3.69,10.32,3.42a10.82,10.82,0,0,1-.68-1.49h0C456.77,461.16,454.48,456.87,453.6,454.61Z" transform="translate(-444.49 -411.15)"/>
		<path class="abf66c8f-658e-4b86-8969-858d9331ade4" d="M480.36,463.35a1.24,1.24,0,0,1,.1-.2,10.15,10.15,0,0,1-7.49,2.28c-4.74-.38-7-2.77-7.71-5.12l.09.41,0,.1c.07.26.14.52.22.76l0,.09.13.36c1.35,2.81,6.05,7.41,13.26,3A5.91,5.91,0,0,0,480.36,463.35Z" transform="translate(-444.49 -411.15)"/>
		<path class="abf66c8f-658e-4b86-8969-858d9331ade4" d="M494.24,462.12a9.22,9.22,0,0,0,1-1.82c-5.41,5.27-12.58,3.71-14.15,2.7h0a7.77,7.77,0,0,1-1.6,1.81C482.8,465.58,489.3,467,494.24,462.12Z" transform="translate(-444.49 -411.15)"/>
		<path class="abf66c8f-658e-4b86-8969-858d9331ade4" d="M496,459.93a12.15,12.15,0,0,1-1.17,1.56,12.24,12.24,0,0,0,10.74-6.27C503.7,458.79,497.68,460.1,496,459.93Z" transform="translate(-444.49 -411.15)"/>
		<path class="b17114b0-07ec-4730-bdd2-65b13b89f0a8" d="M447.35,439.22a5,5,0,0,0-.84,1.83c-.16,2.71,3.65,9.08,8.53,8.45.2,3.56,6.91,7.49,10,5.73,2.14,5.06,13,6.37,17.33,2.21,2.6,2.39,11.82,2.1,13.73-1.71,2.93,1.59,9.34-1.15,10.57-4.52a5.87,5.87,0,0,0-.11-2.52c-1.32,1.63-5.76,4.9-9.19,3.79-2.58,2.36-8.46,4.7-13,.88-5.2,6.59-17.41,3.05-18.51-2.66-3.41.92-9.84.61-11.27-5.33A11,11,0,0,1,447.35,439.22Z" transform="translate(-444.49 -411.15)"/>
		<path class="f679b2d3-4885-4ba7-bd38-8147adb07292" d="M472.17,418.34c1.84-.69,5.67-1.89,7.93-2.54-1.31-1.36-4.19-3.43-5-3.25C473.93,412.87,472.58,416.44,472.17,418.34Z" transform="translate(-444.49 -411.15)"/>
		<path class="f679b2d3-4885-4ba7-bd38-8147adb07292" d="M497.79,420.8a52.07,52.07,0,0,1,5,6.73c1.77-1.5,4.23-5.3,3.47-5.86C504.79,420.59,499.61,420.54,497.79,420.8Z" transform="translate(-444.49 -411.15)"/>
		<path class="f679b2d3-4885-4ba7-bd38-8147adb07292" d="M469,420.89l-.42.15-.21.07-.41.14-.19.06-.57.2h0l-.56.2-.18.06-.4.14-.19.07-.4.14-.17.06-1.1.4-.16.06-.38.14-.18.07-.38.14-.16.06-.52.2h0l-.51.2-.15.06-.36.14-.16.07-.35.14-.15.06-1,.39-.14.06-.34.15-.15.06-.33.15-.13.05-.89.4-.13.06-.31.15-.14.06-.3.15-.12.06-.82.4-.11.06-.29.15-.12.07-.28.15-.11.05-.74.42-.1.06-.25.15-.12.07-.25.15-.09.06-.34.21h0c4.53-2.13,20-7.81,27.7-2s17.85-1,12.53-7.05a11.65,11.65,0,0,0-3.54-2c-4.64-1.43-9.32.42-20.06,4l-.6.21Z" transform="translate(-444.49 -411.15)"/>
		<path class="abf66c8f-658e-4b86-8969-858d9331ade4" d="M471.05,436.79c-4.52,5.7-5.7,10-8.48,10.47-2.21.4-4.86.67-6.59-2.59a7.55,7.55,0,0,0,.77,2.24c1.6,2,4.33,3.57,8.81,2.42C465.82,445.38,467.94,440.84,471.05,436.79Z" transform="translate(-444.49 -411.15)"/>
		<path class="abf66c8f-658e-4b86-8969-858d9331ade4" d="M467.3,450.29a5.51,5.51,0,0,0,.92,2c3.73,3.48,10.74,4.94,15,.19,2.41-3,3.15-7.33,3.22-11.5C483.62,455.79,469.45,456.51,467.3,450.29Z" transform="translate(-444.49 -411.15)"/>
		<path class="abf66c8f-658e-4b86-8969-858d9331ade4" d="M496.56,450.79l.15-.39c0-.07.05-.15.08-.23s.09-.24.12-.36l.09-.26a3.37,3.37,0,0,0,.1-.34l.09-.27.09-.33c0-.1.05-.19.07-.29s.06-.22.08-.33.05-.2.07-.29.05-.22.07-.33.05-.2.07-.3,0-.21.05-.32l.06-.32c0-.09,0-.18,0-.27,0-.25.07-.5.1-.76a1.49,1.49,0,0,0,0-.21c0-.13,0-.27,0-.4s0-.16,0-.24,0-.27,0-.4,0-.17,0-.25,0-.27,0-.41v-.23a3.09,3.09,0,0,0,0-.43v-.22c0-.15,0-.29,0-.44s0-.13,0-.2l0-.47c0-.05,0-.1,0-.16s0-.34,0-.51v-.06a22.49,22.49,0,0,0-.42-2.5v0c0-.19-.09-.38-.14-.57a.3.3,0,0,1,0-.1c-.05-.18-.1-.36-.16-.54l0-.12c-.06-.18-.11-.36-.17-.54a.56.56,0,0,1,0-.12c-.06-.19-.13-.37-.19-.55a.69.69,0,0,1,0-.1c-.07-.19-.14-.38-.22-.58l0,0a22.49,22.49,0,0,0-1.58-3.19h0c3,7.78,2.4,17.18-2.66,19.86a6.72,6.72,0,0,1-7,0h0l-.2.34c2.48,2.54,7.06,3,11.2-.42l.24-.57C496.51,450.92,496.54,450.86,496.56,450.79Z" transform="translate(-444.49 -411.15)"/>
		<path class="abf66c8f-658e-4b86-8969-858d9331ade4" d="M506.81,439.13a57.92,57.92,0,0,0-8.39-15.38c5.06,9.6,7.92,16.4,5.85,21.25a7.77,7.77,0,0,1-5.67,4.82c-.07,0-.37,0-.43,0-.05.29-.18.67-.25,1C500.15,452.21,510.25,448.22,506.81,439.13Z" transform="translate(-444.49 -411.15)"/>
		<path class="abf66c8f-658e-4b86-8969-858d9331ade4" d="M505.59,424.06c-3.17,1.69-6.43-2.23-7.8-3.26a52.07,52.07,0,0,1,5,6.73A15.28,15.28,0,0,0,505.59,424.06Z" transform="translate(-444.49 -411.15)"/>
		<path class="abf66c8f-658e-4b86-8969-858d9331ade4" d="M458.41,435.62c-4.43,4.48-7.42,5.29-9.47,3.55a9,9,0,0,0,5.79,4.77,7.65,7.65,0,0,1,.07-1.7A13.35,13.35,0,0,1,458.41,435.62Z" transform="translate(-444.49 -411.15)"/>
	</g>
</svg>