<svg width="74" height="24" viewBox="0 0 74 24" fill="none" xmlns="http://www.w3.org/2000/svg">
<path opacity="0.74" d="M-0.000198364 21.603L0.6707 21.67C3.08594 21.9384 3.82393 21.4688 7.04424 19.6574C8.18478 18.9865 9.66075 18.1814 11.6064 17.175C13.4849 16.1687 16.0343 15.7661 19.2546 15.9674C20.5964 17.1079 20.7306 18.4497 20.8648 19.389C20.9319 19.9928 20.9989 20.4624 21.4015 20.6637C21.6028 20.7979 21.8711 20.7979 22.2737 20.6637C22.7433 20.5295 23.0787 20.2612 23.5484 20.0599C24.756 19.389 26.4332 18.3826 30.9283 17.8459C31.5321 17.9801 32.203 18.1143 32.8739 18.2485C36.1613 18.9865 39.5829 19.7244 43.0715 20.2612C43.0044 20.3953 42.9374 20.5295 42.8703 20.7308C42.7361 21.4017 43.2728 22.1397 43.8095 22.8106L44.0108 23.0789L44.2792 22.8777C44.2792 22.8777 44.8159 22.4751 45.9564 21.7371C46.2248 22.4751 46.5602 22.8106 46.8957 22.9448C47.4995 23.146 48.1704 22.7435 49.1767 22.0055C49.5793 21.7371 49.9818 21.4688 50.5185 21.1333C59.3744 21.7371 66.6201 20.5966 69.3037 20.127C73.8658 19.2548 73.9329 18.7181 74 18.5168C74 18.3826 74 18.2485 73.8658 18.1814C73.5975 17.8459 72.8595 17.8459 71.048 17.8459C69.6391 17.8459 67.9619 17.8459 66.3517 17.6447C66.2847 17.6447 66.1505 17.6447 66.0834 17.5776C65.9492 17.5776 65.815 17.5105 65.6808 17.5105H65.6138C66.2176 17.4434 66.9556 17.3092 67.5594 17.2421C70.5784 16.9067 71.8531 16.7054 71.9873 16.0345C72.0544 15.5649 71.5177 15.2294 71.3164 15.1623C66.0834 12.2775 60.3137 10.6002 53.5376 10.0635C51.592 9.45968 50.116 8.72169 48.9084 8.05079C47.0298 7.11153 45.688 6.37354 44.4804 7.37989C44.2792 7.58116 44.0779 7.71534 43.8766 7.91661C42.6019 8.99005 41.931 9.52677 39.8512 9.66095H39.7841C39.4487 9.66095 39.1132 9.66095 38.7107 9.66095C38.3082 9.66095 37.8385 9.66095 37.3689 9.72804C36.7651 9.79513 36.0942 9.79513 35.3562 9.86222C34.9537 9.92931 34.484 9.92931 34.0815 9.9964C33.6119 10.0635 33.1422 10.0635 32.6726 10.1306H32.5384C29.1839 10.2648 25.1585 7.44698 23.0117 5.971C22.0053 5.23302 21.5357 4.96465 21.2673 4.96465C20.9989 4.96465 20.8648 5.09883 20.8648 5.16593C20.6635 5.43428 20.8648 5.70264 21.2673 6.44063C21.9382 7.51407 23.0116 9.3255 22.6091 10.9357H22.3408C21.9382 10.9357 21.4686 10.9357 21.066 10.9357H20.7977C20.6635 10.9357 20.5293 10.9357 20.3951 10.9357C19.9926 10.9357 19.523 10.8686 19.0533 10.8686C18.785 10.8686 18.4495 10.8015 18.1141 10.8015C17.6445 10.7344 17.1748 10.6673 16.7052 10.6002C16.571 10.6002 16.4368 10.5331 16.3697 10.5331C11.2709 9.52677 8.6544 6.44063 6.57462 3.95831C5.16573 2.34815 4.0252 0.939259 2.41505 0.46963L1.00615 0L2.14668 1.00635C3.42139 2.14688 3.62266 3.3545 3.82393 4.62921C4.02519 5.83682 4.22646 7.11153 5.2999 8.38624C5.90371 9.12423 6.23917 9.72804 6.44044 10.2648C6.91007 11.5395 6.37335 12.2775 5.76954 13.2838C5.50118 13.6863 5.23281 14.156 4.96445 14.6927C4.83028 14.9611 4.76318 15.2294 4.62901 15.4307C3.89101 17.175 3.48848 18.1143 0.402344 21.2004L-0.000198364 21.603ZM19.523 15.3636H19.3888C15.9672 15.1623 13.2836 15.5649 11.2709 16.6383C9.3253 17.7117 7.84933 18.5168 6.70879 19.1206C3.89102 20.7308 3.08595 21.1333 1.40869 21.0662C4.15938 18.2485 4.56191 17.2421 5.2999 15.5649C5.36699 15.3636 5.50117 15.0952 5.63535 14.8269C5.83662 14.3572 6.10499 13.8876 6.37334 13.4851C7.04424 12.4116 7.71515 11.4053 7.11134 9.86222C6.91007 9.25841 6.44043 8.58751 5.83662 7.78243C4.89736 6.6419 4.6961 5.43428 4.49483 4.36085C4.36064 3.48868 4.15938 2.54942 3.68975 1.67725C4.49483 2.28106 5.29991 3.22032 6.10499 4.22667C8.25187 6.77608 10.9355 9.9964 16.3027 11.0027C16.4368 11.0027 16.571 11.0698 16.7052 11.0698C17.1748 11.1369 17.6445 11.204 18.1141 11.2711C18.4495 11.3382 18.7179 11.3382 19.0533 11.3382C19.523 11.4053 19.9926 11.4053 20.3951 11.4053C20.5964 11.4053 20.8648 11.4053 21.066 11.4053H21.3344C21.6699 11.4053 22.0053 11.4053 22.3408 11.4053H22.4078H22.8775C23.2129 11.4053 23.5484 11.4053 23.8838 11.4053H24.1522V11.1369H23.9509V10.8015C23.8838 10.8015 23.8167 10.8015 23.7496 10.8015H23.5484C23.4142 10.8015 23.3471 10.8015 23.2129 10.8015C23.5484 8.92296 22.4078 7.04444 21.804 5.971C21.804 5.90391 21.7369 5.83682 21.6699 5.76973C21.9382 5.971 22.2737 6.17227 22.6091 6.37354C24.2864 7.51407 27.1041 9.45968 29.9219 10.2648C29.6536 10.2648 29.4523 10.3319 29.1839 10.3319C29.1168 10.3319 29.0497 10.3319 28.9827 10.3319L29.0497 10.9357C29.1168 10.9357 29.1839 10.9357 29.251 10.9357C29.3852 10.9357 29.5194 10.9357 29.6535 10.8686L29.989 10.8015L29.9219 10.1977C30.0561 10.2648 30.1903 10.2648 30.3244 10.2648L30.3915 10.7344C30.727 10.7344 30.9953 10.6673 31.3308 10.6673L32.5384 10.5331C32.5384 10.5331 32.5384 10.5331 32.6055 10.5331H32.8068C33.2764 10.466 33.746 10.3989 34.2157 10.3989C34.6182 10.3319 35.0878 10.3319 35.4904 10.2648C36.2284 10.1977 36.8993 10.1306 37.436 10.1306C37.9056 10.1306 38.3752 10.0635 38.7778 10.0635C39.1132 10.0635 39.3816 10.0635 39.717 10.0635H39.8512C39.9854 10.0635 40.1867 10.0635 40.3209 10.0635V10.1306H40.3879V10.0635C40.7234 10.0635 40.9918 9.9964 41.2601 9.92931V10.1977V9.92931C42.5348 9.66095 43.2057 9.05714 44.2121 8.25206C44.4133 8.11788 44.6146 7.91661 44.8159 7.71534C45.688 7.04444 46.6273 7.44698 48.5729 8.45333C49.3109 8.85587 50.1831 9.3255 51.2565 9.72804C51.2565 9.72804 51.2565 9.72804 51.1894 9.72804V10.3989C51.2565 10.3989 51.3907 10.3989 51.4578 10.3989C51.592 10.3989 51.659 10.3989 51.7932 10.3989V9.92931H51.8603V10.3319C52.397 10.3319 52.8667 10.3989 53.4034 10.466C60.0453 11.0027 65.815 12.68 70.981 15.4978C71.1822 15.5649 71.2493 15.632 71.2493 15.699C70.8468 16.0345 68.6999 16.2358 67.3581 16.3699C65.4125 16.5712 64.339 16.7054 63.9365 17.0408L63.3327 17.5105L64.0707 17.5776C64.0707 17.5776 64.0707 17.5776 64.1378 17.5776H64.2049C64.339 17.6447 64.4732 17.6447 64.6074 17.7117H64.7416C64.8087 17.7117 64.9429 17.7788 65.0099 17.7788C65.077 17.7788 65.1441 17.7788 65.1441 17.7788H65.2783C65.3454 17.7788 65.3454 17.7788 65.4125 17.7788C65.5467 17.7788 65.6809 17.8459 65.815 17.8459C65.9492 17.8459 66.0163 17.8459 66.0834 17.913C67.7606 18.1143 69.505 18.1143 70.9139 18.1143C71.6518 18.1143 72.524 18.1143 72.9266 18.1814C72.3898 18.3826 71.1151 18.7852 69.0353 19.1877C66.3517 19.7244 59.106 20.7979 50.2502 20.1941C49.7134 20.127 49.1767 20.127 48.64 20.0599H48.5729L48.5058 20.6637C48.7742 20.6637 49.0425 20.7308 49.3109 20.7308C49.1096 20.865 48.9084 20.9991 48.7071 21.1333C47.902 21.67 47.2982 22.0726 46.9628 22.0055C46.7615 21.9384 46.4931 21.5359 46.2248 20.7979L46.0906 20.3953L45.7551 20.5966C44.8159 21.1333 44.2792 21.5359 43.9437 21.7371C43.6083 21.2675 43.2728 20.7979 43.3399 20.4624C43.3399 20.2612 43.4741 20.127 43.7424 19.9257L44.4804 19.4561L43.6083 19.3219C39.9183 18.7181 36.2955 17.9801 32.8068 17.2421H32.7397L32.1359 17.1079C31.7333 17.0408 31.3308 16.9067 30.9283 16.8396C28.7814 16.3699 26.5674 15.9003 24.4205 15.5649L24.2864 16.1687C25.8294 16.437 27.5067 16.7725 29.0497 17.0408C25.6952 17.6447 24.2193 18.4497 23.1458 19.0535C22.7433 19.3219 22.4078 19.5232 22.0053 19.6574C21.7369 19.7244 21.7369 19.7244 21.7369 19.7244C21.6698 19.6574 21.6028 19.2548 21.5357 18.9194C21.4015 17.913 21.2002 16.3699 19.5901 15.0281L19.523 15.3636ZM39.8512 9.9964L40.0525 10.1977C39.9854 10.2648 39.9183 10.2648 39.8512 10.2648V9.9964ZM47.3653 20.865L47.4324 20.2612H47.2982L47.2311 20.865H47.3653ZM24.2864 11.4724C24.5547 11.4724 24.8902 11.4724 25.1585 11.4053H25.2256V10.7344C24.8902 10.7344 24.6218 10.7344 24.2864 10.8015V11.4724ZM25.5611 11.4053C25.9636 11.4053 26.3661 11.3382 26.7016 11.3382H26.97C27.2383 11.3382 27.4396 11.2711 27.7079 11.2711C27.775 11.2711 27.775 11.2711 27.8421 11.2711L27.775 10.6673C27.7079 10.6673 27.7079 10.6673 27.6409 10.6673C26.9029 10.7344 26.1649 10.8015 25.494 10.8015L25.5611 11.4053ZM27.8421 11.2711H28.1776C28.513 11.2711 28.7814 11.204 29.0497 11.204L28.9827 10.6002C28.5801 10.6673 28.1776 10.6673 27.775 10.7344L27.8421 11.2711ZM46.2248 10.466H46.9628V9.79513C46.6944 9.79513 46.4931 9.79513 46.2248 9.79513V10.466ZM46.9628 9.79513V10.1306V9.79513ZM47.2311 10.466H47.6337V9.79513H47.2311V10.466ZM47.7007 10.466C47.902 10.466 48.1704 10.466 48.3716 10.466V9.79513C48.1704 9.79513 47.902 9.79513 47.7007 9.79513V10.466ZM48.64 10.466H48.9755V9.79513H48.64V10.466ZM49.9818 10.466C50.0489 10.466 50.0489 10.466 50.0489 10.466C50.116 10.466 50.1831 10.466 50.2502 10.466H50.3173C50.3843 10.466 50.3843 10.466 50.4514 10.466C50.6527 10.466 50.854 10.466 51.0552 10.466V9.79513C50.854 9.79513 50.6527 9.79513 50.5185 9.79513C50.4514 9.79513 50.3843 9.79513 50.3173 9.79513C50.2502 9.79513 50.1831 9.79513 50.116 9.79513H50.0489L49.9818 10.466Z" fill="#A6A7A7"/>
<path d="M22.8781 11.2042C26.1655 11.2042 29.52 10.8017 32.5391 10.4662C27.7757 10.6675 22.0059 5.36739 21.268 5.23321C20.53 5.16612 23.8174 8.38644 22.8781 11.2042Z" fill="#90B0BD"/>
<path d="M5.30025 14.6927C4.2939 16.9738 4.22681 17.7118 0.671043 21.3346C3.82427 21.6701 3.89136 20.865 11.4054 16.9067C13.5523 15.7662 16.2359 15.4307 19.322 15.632C22.7436 15.8333 26.6348 16.5713 30.8615 17.5105C35.9603 18.584 41.5959 19.8587 47.2314 20.5296C47.4998 20.5967 47.8353 20.5967 48.1036 20.5967C48.8416 20.6637 49.5796 20.7308 50.3176 20.7979C57.8988 21.3346 64.8761 20.5967 69.1699 19.7916C71.9205 19.2549 73.5307 18.7181 73.5978 18.4498C73.6649 17.7789 69.7066 18.3827 66.2179 17.9131C66.1508 17.9131 66.0166 17.9131 65.9495 17.846C65.4128 17.7789 64.8761 17.6447 64.3394 17.5105C64.2723 17.5105 64.2723 17.5105 64.2052 17.5105C65.0774 16.8396 73.732 16.9067 71.1155 15.4307C64.9432 12.0091 58.7709 10.8015 53.4708 10.3319C52.9341 10.2648 52.3974 10.2648 51.9277 10.1977C51.391 10.1977 50.8543 10.1306 50.3847 10.1306C49.9821 10.1306 49.6467 10.1306 49.2441 10.1306C48.7074 10.1306 48.1707 10.1306 47.634 10.1306C47.2315 10.1306 46.8289 10.1306 46.4935 10.1306C45.8226 10.1306 45.2188 10.1306 44.6149 10.1306C44.2795 10.1306 43.944 10.1306 43.6086 10.1306C42.8035 10.1306 41.9984 10.1306 41.3275 10.0635C41.1934 10.0635 41.0592 10.0635 40.925 9.99645C40.7908 9.99645 40.6566 9.99645 40.5225 9.99645C40.3212 9.99645 40.0528 9.99645 39.8516 9.99645C39.5161 9.99645 39.1136 9.99645 38.7781 9.99645C38.3756 9.99645 37.906 9.99645 37.4363 10.0635C36.8325 10.1306 36.1616 10.1306 35.4236 10.1977C35.0211 10.2648 34.5515 10.2648 34.1489 10.3319C33.6793 10.399 33.1426 10.4661 32.6729 10.4661H32.6059C32.2033 10.5332 31.8008 10.5332 31.3311 10.6003C30.7944 10.6673 30.2577 10.7344 29.6539 10.8015C29.1172 10.8686 28.6475 10.9357 28.1108 10.9357C27.6412 11.0028 27.1716 11.0028 26.7019 11.0699C26.1652 11.137 25.6956 11.137 25.1589 11.137C24.7563 11.137 24.2867 11.2041 23.8842 11.2041C23.5487 11.2041 23.2133 11.2041 22.8778 11.2041C22.7436 11.2041 22.5424 11.2041 22.3411 11.2041C21.8715 11.2041 21.4689 11.2041 21.0664 11.2041C20.8651 11.2041 20.5967 11.2041 20.3955 11.2041C19.9258 11.2041 19.5233 11.137 19.0537 11.137C18.7182 11.137 18.4499 11.0699 18.1144 11.0699C17.6448 11.0028 17.1752 10.9357 16.7055 10.8686C16.5714 10.8686 16.4372 10.8015 16.3701 10.8015C7.84966 9.12428 6.23951 1.87857 2.41539 0.738037C4.96481 2.952 3.48882 5.56851 5.6357 8.18502C6.2395 8.92301 6.64204 9.59391 6.84332 10.1306C7.58131 11.9421 6.10532 12.9484 5.30025 14.6927Z" fill="#A2C2DD"/>
<path d="M19.3883 15.6318C22.1389 17.9129 20.4617 20.999 22.1389 20.3281C23.7491 19.7243 24.6884 18.2483 30.9277 17.4433C26.7011 16.5711 22.8098 15.8331 19.3883 15.6318Z" fill="#274661"/>
<path d="M46.0236 21.2004C46.8958 23.6828 47.5667 22.4752 50.3174 20.7979C49.5794 20.7308 48.8414 20.6637 48.1034 20.5966C47.8351 20.5966 47.4996 20.5295 47.2312 20.5295C46.8287 20.7308 46.4262 20.9992 46.0236 21.2004Z" fill="#274661"/>
<path d="M39.8514 9.9292C40.254 9.9292 40.5894 9.9292 40.9249 9.99629C43.6756 10.2647 48.1706 9.9292 53.4707 10.3317C48.506 8.78868 46.4263 6.17217 44.6819 7.58106C42.9376 8.98995 42.4009 9.86211 39.8514 9.9292Z" fill="#90B0BD"/>
<g style="mix-blend-mode:multiply">
<path d="M0.737999 21.3346C3.89122 21.67 3.95831 20.865 11.4724 16.9066C13.6193 15.7661 16.3029 15.4307 19.389 15.6319C22.8106 15.8332 26.7018 16.5712 30.9285 17.5105C36.0273 18.5839 41.6629 19.8586 47.2984 20.5295C47.5668 20.5966 47.9022 20.5966 48.1706 20.5966C48.9086 20.6637 49.6466 20.7308 50.3846 20.7979C57.9657 21.3346 64.9431 20.5966 69.2368 19.7915C70.3103 18.7852 67.2912 18.4497 66.1507 18.4497C65.0102 18.5168 65.2114 18.0472 65.9494 17.8459C65.3456 17.7788 64.8089 17.6446 64.2722 17.4434C62.9304 17.7788 61.4544 17.4434 61.186 16.9737C60.9177 16.437 56.691 15.0952 56.3556 15.3636C56.0201 15.6319 55.1479 16.2358 53.739 15.7661C50.1833 14.6256 40.9249 13.9547 34.5513 13.2167C25.0916 12.1433 14.5585 14.6256 6.84317 10.0635C7.58117 12.0091 6.10519 13.0154 5.3672 14.7598C4.29376 16.9737 4.22668 17.7788 0.737999 21.3346Z" fill="#B2B9C1"/>
</g>
<path d="M61.2524 19.2548C63.2651 18.1143 65.6133 18.1143 66.2842 17.913C66.2171 17.913 66.0829 17.913 66.0158 17.8459C65.4791 17.7789 64.9424 17.6447 64.4057 17.5105C63.3322 17.8459 61.7221 18.651 61.2524 19.2548Z" fill="#375871"/>
<path d="M44.0108 22.5422C44.0108 22.5422 44.6146 22.0055 46.0235 21.2004C46.7615 20.7308 47.7679 20.1941 48.9755 19.5903C49.2438 19.4561 49.5793 19.3219 49.8477 19.1877C41.9981 19.1877 42.6019 20.7979 44.0108 22.5422Z" fill="#315067"/>
<path d="M50.3847 10.1978C50.3176 14.5586 51.391 12.2775 51.9277 10.2648C51.391 10.1978 50.8543 10.1978 50.3847 10.1978Z" fill="#020B20"/>
<path d="M47.634 10.1306C47.9023 15.4978 48.9087 12.8142 49.2441 10.1306C48.7074 10.1306 48.1707 10.1306 47.634 10.1306Z" fill="#020B20"/>
<path d="M44.6146 10.1306C43.9437 19.7916 45.5539 14.8269 46.4932 10.1306C45.8223 10.1306 45.2185 10.1306 44.6146 10.1306Z" fill="#020B20"/>
<path d="M41.3273 10.0635C41.1932 11.4053 40.8577 15.9674 41.5286 16.0345C43.0046 16.1687 42.8033 11.8749 43.6084 10.1977C42.7362 10.1306 41.9982 10.0635 41.3273 10.0635Z" fill="#020B20"/>
<path d="M39.1139 15.7661C39.7177 15.9673 39.9189 11.204 40.5898 9.99634C40.3886 9.99634 40.1202 9.99634 39.9189 9.99634C39.5835 9.99634 39.181 9.99634 38.8455 9.99634C37.8392 11.8078 38.5101 15.4977 39.1139 15.7661Z" fill="#020B20"/>
<path d="M36.1608 15.4977C37.1001 15.5648 36.6976 11.6736 37.4355 9.99634C36.8317 10.0634 36.1608 10.0634 35.4228 10.1305C35.0874 12.0761 35.2216 15.4306 36.1608 15.4977Z" fill="#020B20"/>
<path d="M32.8066 15.3635C33.5446 15.7661 33.2092 12.6799 34.1484 10.3318C33.6788 10.3989 33.1421 10.466 32.6725 10.466C32.6725 10.466 32.6725 10.466 32.6725 10.5331C32.2699 12.2774 32.0016 14.961 32.8066 15.3635Z" fill="#020B20"/>
<path d="M30.5931 15.0951C31.264 15.028 30.9956 12.5457 31.3311 10.6001C30.7943 10.6672 30.2576 10.7343 29.6538 10.8014C29.3854 12.1432 29.9222 15.2293 30.5931 15.0951Z" fill="#020B20"/>
<path d="M26.7018 11.07C26.7018 11.8751 26.5676 14.7599 27.2385 14.827C27.8423 14.8941 27.9094 13.0156 28.1777 10.9358C27.641 10.9358 27.1714 11.0029 26.7018 11.07Z" fill="#020B20"/>
<path d="M23.8835 11.2039C23.8164 11.9419 23.8835 14.4913 24.4873 14.5584C25.0911 14.6255 25.024 12.5457 25.1582 11.2039C24.7557 11.1368 24.3531 11.2039 23.8835 11.2039Z" fill="#020B20"/>
<path d="M21.0664 11.2041C21.0664 12.2105 21.536 13.8877 22.0057 13.9548C22.4753 14.0219 22.3411 12.5459 22.4082 11.2041C21.9386 11.2041 21.536 11.2041 21.0664 11.2041Z" fill="#020B20"/>
<path d="M19.0537 11.0698C18.9866 12.0091 19.1879 13.3509 19.6575 13.418C20.1272 13.4851 20.2613 12.2104 20.3955 11.204C19.993 11.1369 19.5233 11.1369 19.0537 11.0698Z" fill="#020B20"/>
<path d="M16.7725 10.7344C16.9066 11.3382 16.9737 13.0825 17.5775 13.1496C18.1813 13.2167 17.8459 12.0762 18.1143 10.9356C17.7117 10.9356 17.2421 10.8686 16.7725 10.7344Z" fill="#020B20"/>
<path d="M56.1534 15.1624C56.1534 16.7725 57.2268 18.0472 58.837 18.2485C60.2459 18.3827 61.118 17.7118 61.5877 16.5042C61.6548 16.3029 61.7219 16.0345 61.7219 15.8333C61.856 14.2231 60.9839 13.0826 59.3737 12.68C59.2395 12.68 58.9712 12.613 58.9712 12.613C57.1597 12.3446 56.1534 13.7535 56.1534 15.1624Z" fill="#7396B4"/>
<path d="M56.6242 15.1624C56.8255 16.5042 57.4964 17.6447 58.9053 17.7789C60.1129 17.9131 61.1863 17.1751 61.5888 16.1687C61.6559 15.9675 61.723 15.7662 61.723 15.5649C61.8572 14.2231 60.7838 13.1497 59.442 12.8143C59.3078 12.8143 59.2407 12.7472 59.1065 12.7472C57.4293 12.613 56.4229 13.6864 56.6242 15.1624Z" fill="#F6F6F7"/>
<path opacity="0.22" d="M59.1733 16.3699C59.5759 16.5712 60.5151 16.1687 60.3809 16.5712C60.2468 16.8396 60.9177 16.7054 61.5215 16.1687C61.5886 15.9674 61.6556 15.7661 61.6556 15.5648C61.7898 14.223 60.7164 13.1496 59.3746 12.8142C59.2404 12.8142 59.1733 12.7471 59.0391 12.7471C58.4353 12.8813 57.9657 13.2167 57.8315 13.6192C57.5632 14.6927 58.167 15.9674 59.1733 16.3699Z" stroke="#F1F2F3" stroke-miterlimit="10"/>
<path d="M57.0936 15.1622C57.2278 14.1559 58.167 13.2837 59.2405 13.5521C60.1797 13.7533 60.7835 14.5584 60.9177 15.4977C60.9848 16.504 59.9785 17.3091 58.905 17.242C57.7645 17.0407 56.9594 16.1686 57.0936 15.1622Z" fill="#D9D5D4"/>
<path d="M57.5625 15.1624C57.4954 15.9675 58.0992 16.7726 58.9043 16.8397C59.7094 16.9068 60.6487 16.3029 60.5816 15.4979C60.5145 14.7599 59.9107 14.0219 59.2398 13.8206C58.4347 13.6193 57.6296 14.3573 57.5625 15.1624Z" fill="#5E3E26"/>
<path opacity="0.74" d="M56.6232 15.1622C56.8245 16.504 57.4954 17.6446 58.9043 17.7787C60.1119 17.9129 61.1854 17.1749 61.5879 16.1686C60.9841 16.7053 60.3803 16.8395 60.4474 16.5711C60.5815 16.1686 59.6423 16.5711 59.2397 16.3698C58.2334 15.9002 57.5625 14.6255 57.8979 13.6862C58.0321 13.2837 58.5018 12.9483 59.1056 12.8141C57.4283 12.6128 56.422 13.6862 56.6232 15.1622Z" fill="#A6A7A7"/>
<path d="M55.1476 13.284C52.7324 16.2359 56.3552 18.7183 56.2881 19.7917C54.6109 18.5841 52.7995 15.9005 54.0742 13.8878C54.8793 12.546 55.5502 12.9485 55.1476 13.284Z" fill="#020B20"/>
<path d="M46.0234 15.3637C46.2918 15.6991 48.2374 16.2358 49.445 17.6447C49.9817 18.3156 50.8539 17.7118 51.5248 17.3764C51.659 17.3093 51.7932 17.2422 51.9273 17.1751C52.397 17.0409 51.7932 17.108 51.1223 17.2422C50.7197 17.3093 50.2501 17.3764 50.1159 17.3764C49.8475 17.3093 48.4387 16.1688 47.4323 15.632C47.231 15.4979 47.0298 15.4308 46.8956 15.4308C47.231 15.1624 51.2564 14.9611 53.4033 16.6384C52.4641 15.4979 48.9754 14.089 46.0905 15.2295C45.9563 15.2295 45.9563 15.2966 46.0234 15.3637Z" fill="#020B20"/>
<path d="M46.5603 16.437C47.9692 17.2421 49.3781 18.3155 49.9819 18.3826C50.6528 18.4497 51.9946 17.3763 52.3301 17.4434C51.8604 17.3763 51.5921 17.3763 51.525 17.4434C50.787 17.7788 49.9148 18.3155 49.4452 17.7117C48.2376 16.3028 46.292 15.699 46.0236 15.4307C45.554 15.4978 45.3527 15.699 46.5603 16.437Z" fill="#B2B9C1"/>
</svg>
