<svg width="1200" height="500" viewBox="0 0 1200 500" fill="none" xmlns="http://www.w3.org/2000/svg">
<rect width="1200" height="500" rx="24" fill="white" fill-opacity="0.1"/>
<circle cx="82" cy="258" r="6" fill="white"/>
<path d="M122.046 262.16H116.386L115.386 265H112.406L117.606 251.04H120.826L126.006 265H123.026L122.046 262.16ZM121.286 260.02L119.206 254.06L117.126 260.02H121.286ZM143.388 253.92L140.408 265H137.288L134.908 256.94L132.468 265H129.348L126.388 253.92H129.208L131.008 262.48L133.468 253.92H136.448L138.928 262.48L140.748 253.92H143.388ZM149.134 253.78C150.067 253.78 150.867 254 151.534 254.44C152.2 254.88 152.674 255.473 152.954 256.22V253.92H155.754V265H152.954V262.68C152.674 263.427 152.2 264.027 151.534 264.48C150.867 264.92 150.067 265.14 149.134 265.14C148.2 265.14 147.36 264.913 146.614 264.46C145.867 264.007 145.28 263.353 144.854 262.5C144.44 261.633 144.234 260.62 144.234 259.46C144.234 258.3 144.44 257.293 144.854 256.44C145.28 255.573 145.867 254.913 146.614 254.46C147.36 254.007 148.2 253.78 149.134 253.78ZM150.014 256.24C149.134 256.24 148.427 256.527 147.894 257.1C147.36 257.673 147.094 258.46 147.094 259.46C147.094 260.46 147.36 261.247 147.894 261.82C148.427 262.38 149.134 262.66 150.014 262.66C150.867 262.66 151.567 262.373 152.114 261.8C152.674 261.213 152.954 260.433 152.954 259.46C152.954 258.473 152.674 257.693 152.114 257.12C151.567 256.533 150.867 256.24 150.014 256.24ZM161.129 256.04C161.543 255.333 162.089 254.78 162.769 254.38C163.449 253.967 164.209 253.76 165.049 253.76V256.78H164.229C162.163 256.78 161.129 257.74 161.129 259.66V265H158.309V253.92H161.129V256.04ZM170.95 253.78C171.883 253.78 172.677 254 173.33 254.44C173.997 254.88 174.477 255.473 174.77 256.22V250.2H177.57V265H174.77V262.68C174.477 263.427 173.997 264.027 173.33 264.48C172.677 264.92 171.883 265.14 170.95 265.14C170.017 265.14 169.177 264.913 168.43 264.46C167.683 264.007 167.097 263.353 166.67 262.5C166.257 261.633 166.05 260.62 166.05 259.46C166.05 258.3 166.257 257.293 166.67 256.44C167.097 255.573 167.683 254.913 168.43 254.46C169.177 254.007 170.017 253.78 170.95 253.78ZM171.83 256.24C170.95 256.24 170.243 256.527 169.71 257.1C169.177 257.673 168.91 258.46 168.91 259.46C168.91 260.46 169.177 261.247 169.71 261.82C170.243 262.38 170.95 262.66 171.83 262.66C172.683 262.66 173.383 262.373 173.93 261.8C174.49 261.213 174.77 260.433 174.77 259.46C174.77 258.473 174.49 257.693 173.93 257.12C173.383 256.533 172.683 256.24 171.83 256.24ZM194.181 261.14C194.181 261.86 194.001 262.527 193.641 263.14C193.281 263.74 192.748 264.227 192.041 264.6C191.335 264.96 190.475 265.14 189.461 265.14C188.461 265.14 187.568 264.973 186.781 264.64C185.995 264.293 185.361 263.8 184.881 263.16C184.415 262.52 184.148 261.773 184.081 260.92H187.081C187.148 261.493 187.375 261.973 187.761 262.36C188.161 262.733 188.688 262.92 189.341 262.92C189.928 262.92 190.375 262.767 190.681 262.46C191.001 262.14 191.161 261.733 191.161 261.24C191.161 260.8 191.035 260.44 190.781 260.16C190.528 259.867 190.208 259.633 189.821 259.46C189.435 259.287 188.901 259.087 188.221 258.86C187.341 258.567 186.621 258.28 186.061 258C185.501 257.707 185.021 257.287 184.621 256.74C184.235 256.193 184.041 255.48 184.041 254.6C184.041 253.387 184.475 252.433 185.341 251.74C186.221 251.033 187.381 250.68 188.821 250.68C190.315 250.68 191.501 251.04 192.381 251.76C193.275 252.48 193.781 253.44 193.901 254.64H190.861C190.781 254.133 190.568 253.72 190.221 253.4C189.875 253.067 189.401 252.9 188.801 252.9C188.281 252.9 187.861 253.04 187.541 253.32C187.221 253.587 187.061 253.98 187.061 254.5C187.061 254.913 187.181 255.26 187.421 255.54C187.675 255.807 187.988 256.027 188.361 256.2C188.748 256.373 189.268 256.567 189.921 256.78C190.828 257.1 191.561 257.4 192.121 257.68C192.695 257.96 193.181 258.38 193.581 258.94C193.981 259.5 194.181 260.233 194.181 261.14ZM206.859 253.92V265H204.039V262.76C203.745 263.507 203.259 264.093 202.579 264.52C201.912 264.933 201.139 265.14 200.259 265.14C198.979 265.14 197.959 264.72 197.199 263.88C196.439 263.04 196.059 261.867 196.059 260.36V253.92H198.859V260.04C198.859 260.92 199.085 261.607 199.539 262.1C199.992 262.58 200.605 262.82 201.379 262.82C202.192 262.82 202.839 262.56 203.319 262.04C203.799 261.52 204.039 260.773 204.039 259.8V253.92H206.859ZM209.103 250.74C209.103 250.287 209.263 249.92 209.583 249.64C209.903 249.347 210.323 249.2 210.843 249.2C211.363 249.2 211.783 249.347 212.103 249.64C212.423 249.92 212.583 250.287 212.583 250.74C212.583 251.18 212.423 251.547 212.103 251.84C211.783 252.12 211.363 252.26 210.843 252.26C210.323 252.26 209.903 252.12 209.583 251.84C209.263 251.547 209.103 251.18 209.103 250.74ZM212.243 253.92V265H209.423V253.92H212.243ZM225.689 250.74C227.409 250.74 228.836 251.167 229.969 252.02C231.102 252.86 231.829 254 232.149 255.44H229.189C228.909 254.8 228.462 254.293 227.849 253.92C227.249 253.533 226.536 253.34 225.709 253.34C224.896 253.34 224.176 253.527 223.549 253.9C222.922 254.273 222.436 254.807 222.089 255.5C221.742 256.193 221.569 257.007 221.569 257.94C221.569 259.42 221.962 260.573 222.749 261.4C223.549 262.227 224.636 262.64 226.009 262.64C227.022 262.64 227.889 262.34 228.609 261.74C229.342 261.14 229.816 260.307 230.029 259.24H225.249V257.22H232.389V259.94C232.189 260.873 231.796 261.733 231.209 262.52C230.636 263.307 229.876 263.94 228.929 264.42C227.996 264.887 226.922 265.12 225.709 265.12C224.322 265.12 223.096 264.82 222.029 264.22C220.976 263.607 220.156 262.76 219.569 261.68C218.996 260.587 218.709 259.34 218.709 257.94C218.709 256.54 218.996 255.3 219.569 254.22C220.156 253.127 220.976 252.273 222.029 251.66C223.082 251.047 224.302 250.74 225.689 250.74ZM237.321 256.04C237.734 255.333 238.281 254.78 238.961 254.38C239.641 253.967 240.401 253.76 241.241 253.76V256.78H240.421C238.354 256.78 237.321 257.74 237.321 259.66V265H234.501V253.92H237.321V256.04ZM247.141 253.78C248.075 253.78 248.875 254 249.541 254.44C250.208 254.88 250.681 255.473 250.961 256.22V253.92H253.761V265H250.961V262.68C250.681 263.427 250.208 264.027 249.541 264.48C248.875 264.92 248.075 265.14 247.141 265.14C246.208 265.14 245.368 264.913 244.621 264.46C243.875 264.007 243.288 263.353 242.861 262.5C242.448 261.633 242.241 260.62 242.241 259.46C242.241 258.3 242.448 257.293 242.861 256.44C243.288 255.573 243.875 254.913 244.621 254.46C245.368 254.007 246.208 253.78 247.141 253.78ZM248.021 256.24C247.141 256.24 246.435 256.527 245.901 257.1C245.368 257.673 245.101 258.46 245.101 259.46C245.101 260.46 245.368 261.247 245.901 261.82C246.435 262.38 247.141 262.66 248.021 262.66C248.875 262.66 249.575 262.373 250.121 261.8C250.681 261.213 250.961 260.433 250.961 259.46C250.961 258.473 250.681 257.693 250.121 257.12C249.575 256.533 248.875 256.24 248.021 256.24ZM262.917 253.76C264.197 253.76 265.217 254.18 265.977 255.02C266.737 255.86 267.117 257.04 267.117 258.56V265H264.317V258.88C264.317 258 264.09 257.32 263.637 256.84C263.184 256.347 262.564 256.1 261.777 256.1C260.977 256.1 260.337 256.36 259.857 256.88C259.377 257.4 259.137 258.147 259.137 259.12V265H256.317V253.92H259.137V256.14C259.43 255.393 259.91 254.813 260.577 254.4C261.257 253.973 262.037 253.76 262.917 253.76ZM273.938 253.78C274.872 253.78 275.665 254 276.318 254.44C276.985 254.88 277.465 255.473 277.758 256.22V250.2H280.558V265H277.758V262.68C277.465 263.427 276.985 264.027 276.318 264.48C275.665 264.92 274.872 265.14 273.938 265.14C273.005 265.14 272.165 264.913 271.418 264.46C270.672 264.007 270.085 263.353 269.658 262.5C269.245 261.633 269.038 260.62 269.038 259.46C269.038 258.3 269.245 257.293 269.658 256.44C270.085 255.573 270.672 254.913 271.418 254.46C272.165 254.007 273.005 253.78 273.938 253.78ZM274.818 256.24C273.938 256.24 273.232 256.527 272.698 257.1C272.165 257.673 271.898 258.46 271.898 259.46C271.898 260.46 272.165 261.247 272.698 261.82C273.232 262.38 273.938 262.66 274.818 262.66C275.672 262.66 276.372 262.373 276.918 261.8C277.478 261.213 277.758 260.433 277.758 259.46C277.758 258.473 277.478 257.693 276.918 257.12C276.372 256.533 275.672 256.24 274.818 256.24Z" fill="white"/>
<circle cx="440" cy="258" r="6" fill="white"/>
<path d="M480.98 261.14C480.98 261.86 480.8 262.527 480.44 263.14C480.08 263.74 479.547 264.227 478.84 264.6C478.133 264.96 477.273 265.14 476.26 265.14C475.26 265.14 474.367 264.973 473.58 264.64C472.793 264.293 472.16 263.8 471.68 263.16C471.213 262.52 470.947 261.773 470.88 260.92H473.88C473.947 261.493 474.173 261.973 474.56 262.36C474.96 262.733 475.487 262.92 476.14 262.92C476.727 262.92 477.173 262.767 477.48 262.46C477.8 262.14 477.96 261.733 477.96 261.24C477.96 260.8 477.833 260.44 477.58 260.16C477.327 259.867 477.007 259.633 476.62 259.46C476.233 259.287 475.7 259.087 475.02 258.86C474.14 258.567 473.42 258.28 472.86 258C472.3 257.707 471.82 257.287 471.42 256.74C471.033 256.193 470.84 255.48 470.84 254.6C470.84 253.387 471.273 252.433 472.14 251.74C473.02 251.033 474.18 250.68 475.62 250.68C477.113 250.68 478.3 251.04 479.18 251.76C480.073 252.48 480.58 253.44 480.7 254.64H477.66C477.58 254.133 477.367 253.72 477.02 253.4C476.673 253.067 476.2 252.9 475.6 252.9C475.08 252.9 474.66 253.04 474.34 253.32C474.02 253.587 473.86 253.98 473.86 254.5C473.86 254.913 473.98 255.26 474.22 255.54C474.473 255.807 474.787 256.027 475.16 256.2C475.547 256.373 476.067 256.567 476.72 256.78C477.627 257.1 478.36 257.4 478.92 257.68C479.493 257.96 479.98 258.38 480.38 258.94C480.78 259.5 480.98 260.233 480.98 261.14ZM488.037 253.78C489.464 253.78 490.651 254.167 491.597 254.94C492.557 255.713 493.157 256.767 493.397 258.1H490.417C490.297 257.513 490.024 257.053 489.597 256.72C489.171 256.373 488.631 256.2 487.977 256.2C487.231 256.2 486.604 256.48 486.097 257.04C485.604 257.587 485.357 258.393 485.357 259.46C485.357 260.527 485.604 261.34 486.097 261.9C486.604 262.447 487.231 262.72 487.977 262.72C488.631 262.72 489.171 262.553 489.597 262.22C490.024 261.873 490.297 261.407 490.417 260.82H493.397C493.157 262.153 492.557 263.207 491.597 263.98C490.651 264.753 489.464 265.14 488.037 265.14C486.957 265.14 485.997 264.913 485.157 264.46C484.317 263.993 483.664 263.333 483.197 262.48C482.731 261.627 482.497 260.62 482.497 259.46C482.497 258.3 482.731 257.293 483.197 256.44C483.664 255.573 484.317 254.913 485.157 254.46C485.997 254.007 486.957 253.78 488.037 253.78ZM499.741 253.78C500.674 253.78 501.474 254 502.141 254.44C502.808 254.88 503.281 255.473 503.561 256.22V253.92H506.361V265H503.561V262.68C503.281 263.427 502.808 264.027 502.141 264.48C501.474 264.92 500.674 265.14 499.741 265.14C498.808 265.14 497.968 264.913 497.221 264.46C496.474 264.007 495.888 263.353 495.461 262.5C495.048 261.633 494.841 260.62 494.841 259.46C494.841 258.3 495.048 257.293 495.461 256.44C495.888 255.573 496.474 254.913 497.221 254.46C497.968 254.007 498.808 253.78 499.741 253.78ZM500.621 256.24C499.741 256.24 499.034 256.527 498.501 257.1C497.968 257.673 497.701 258.46 497.701 259.46C497.701 260.46 497.968 261.247 498.501 261.82C499.034 262.38 499.741 262.66 500.621 262.66C501.474 262.66 502.174 262.373 502.721 261.8C503.281 261.213 503.561 260.433 503.561 259.46C503.561 258.473 503.281 257.693 502.721 257.12C502.174 256.533 501.474 256.24 500.621 256.24ZM511.737 250.2V265H508.917V250.2H511.737ZM517.108 250.2V265H514.288V250.2H517.108ZM524.779 253.78C525.859 253.78 526.826 254.007 527.679 254.46C528.546 254.913 529.226 255.573 529.719 256.44C530.212 257.293 530.459 258.3 530.459 259.46C530.459 260.62 530.212 261.627 529.719 262.48C529.226 263.333 528.546 263.993 527.679 264.46C526.826 264.913 525.859 265.14 524.779 265.14C523.699 265.14 522.726 264.913 521.859 264.46C521.006 263.993 520.332 263.333 519.839 262.48C519.346 261.627 519.099 260.62 519.099 259.46C519.099 258.3 519.346 257.293 519.839 256.44C520.332 255.573 521.006 254.913 521.859 254.46C522.726 254.007 523.699 253.78 524.779 253.78ZM524.779 256.22C523.992 256.22 523.326 256.5 522.779 257.06C522.232 257.607 521.959 258.407 521.959 259.46C521.959 260.513 522.232 261.32 522.779 261.88C523.326 262.427 523.992 262.7 524.779 262.7C525.566 262.7 526.232 262.427 526.779 261.88C527.326 261.32 527.599 260.513 527.599 259.46C527.599 258.407 527.326 257.607 526.779 257.06C526.232 256.5 525.566 256.22 524.779 256.22ZM539.072 253.78C540.005 253.78 540.845 254.007 541.592 254.46C542.339 254.913 542.919 255.573 543.332 256.44C543.759 257.293 543.972 258.3 543.972 259.46C543.972 260.62 543.759 261.633 543.332 262.5C542.919 263.353 542.339 264.007 541.592 264.46C540.845 264.913 540.005 265.14 539.072 265.14C538.139 265.14 537.339 264.92 536.672 264.48C536.019 264.027 535.552 263.427 535.272 262.68V270.28H532.452V253.92H535.272V256.22C535.552 255.473 536.019 254.88 536.672 254.44C537.339 254 538.139 253.78 539.072 253.78ZM538.192 256.24C537.339 256.24 536.632 256.533 536.072 257.12C535.525 257.693 535.252 258.473 535.252 259.46C535.252 260.433 535.525 261.213 536.072 261.8C536.632 262.373 537.339 262.66 538.192 262.66C539.072 262.66 539.779 262.38 540.312 261.82C540.845 261.247 541.112 260.46 541.112 259.46C541.112 258.46 540.845 257.673 540.312 257.1C539.779 256.527 539.072 256.24 538.192 256.24ZM547.948 250.88L551.728 262.06L555.528 250.88H558.548L553.548 265H549.928L544.928 250.88H547.948ZM559.029 253.52V250.88H564.109V265H561.149V253.52H559.029ZM576.146 253.78C577.226 253.78 578.193 254.007 579.046 254.46C579.913 254.913 580.593 255.573 581.086 256.44C581.579 257.293 581.826 258.3 581.826 259.46C581.826 260.62 581.579 261.627 581.086 262.48C580.593 263.333 579.913 263.993 579.046 264.46C578.193 264.913 577.226 265.14 576.146 265.14C575.066 265.14 574.093 264.913 573.226 264.46C572.373 263.993 571.699 263.333 571.206 262.48C570.713 261.627 570.466 260.62 570.466 259.46C570.466 258.3 570.713 257.293 571.206 256.44C571.699 255.573 572.373 254.913 573.226 254.46C574.093 254.007 575.066 253.78 576.146 253.78ZM576.146 256.22C575.359 256.22 574.693 256.5 574.146 257.06C573.599 257.607 573.326 258.407 573.326 259.46C573.326 260.513 573.599 261.32 574.146 261.88C574.693 262.427 575.359 262.7 576.146 262.7C576.933 262.7 577.599 262.427 578.146 261.88C578.693 261.32 578.966 260.513 578.966 259.46C578.966 258.407 578.693 257.607 578.146 257.06C577.599 256.5 576.933 256.22 576.146 256.22ZM590.419 253.76C591.699 253.76 592.719 254.18 593.479 255.02C594.239 255.86 594.619 257.04 594.619 258.56V265H591.819V258.88C591.819 258 591.592 257.32 591.139 256.84C590.686 256.347 590.066 256.1 589.279 256.1C588.479 256.1 587.839 256.36 587.359 256.88C586.879 257.4 586.639 258.147 586.639 259.12V265H583.819V253.92H586.639V256.14C586.932 255.393 587.412 254.813 588.079 254.4C588.759 253.973 589.539 253.76 590.419 253.76ZM611.156 261.14C611.156 261.86 610.976 262.527 610.616 263.14C610.256 263.74 609.722 264.227 609.016 264.6C608.309 264.96 607.449 265.14 606.436 265.14C605.436 265.14 604.542 264.973 603.756 264.64C602.969 264.293 602.336 263.8 601.856 263.16C601.389 262.52 601.122 261.773 601.056 260.92H604.056C604.122 261.493 604.349 261.973 604.736 262.36C605.136 262.733 605.662 262.92 606.316 262.92C606.902 262.92 607.349 262.767 607.656 262.46C607.976 262.14 608.136 261.733 608.136 261.24C608.136 260.8 608.009 260.44 607.756 260.16C607.502 259.867 607.182 259.633 606.796 259.46C606.409 259.287 605.876 259.087 605.196 258.86C604.316 258.567 603.596 258.28 603.036 258C602.476 257.707 601.996 257.287 601.596 256.74C601.209 256.193 601.016 255.48 601.016 254.6C601.016 253.387 601.449 252.433 602.316 251.74C603.196 251.033 604.356 250.68 605.796 250.68C607.289 250.68 608.476 251.04 609.356 251.76C610.249 252.48 610.756 253.44 610.876 254.64H607.836C607.756 254.133 607.542 253.72 607.196 253.4C606.849 253.067 606.376 252.9 605.776 252.9C605.256 252.9 604.836 253.04 604.516 253.32C604.196 253.587 604.036 253.98 604.036 254.5C604.036 254.913 604.156 255.26 604.396 255.54C604.649 255.807 604.962 256.027 605.336 256.2C605.722 256.373 606.242 256.567 606.896 256.78C607.802 257.1 608.536 257.4 609.096 257.68C609.669 257.96 610.156 258.38 610.556 258.94C610.956 259.5 611.156 260.233 611.156 261.14ZM623.833 253.92V265H621.013V262.76C620.72 263.507 620.233 264.093 619.553 264.52C618.886 264.933 618.113 265.14 617.233 265.14C615.953 265.14 614.933 264.72 614.173 263.88C613.413 263.04 613.033 261.867 613.033 260.36V253.92H615.833V260.04C615.833 260.92 616.06 261.607 616.513 262.1C616.966 262.58 617.58 262.82 618.353 262.82C619.166 262.82 619.813 262.56 620.293 262.04C620.773 261.52 621.013 260.773 621.013 259.8V253.92H623.833ZM626.077 250.74C626.077 250.287 626.237 249.92 626.557 249.64C626.877 249.347 627.297 249.2 627.817 249.2C628.337 249.2 628.757 249.347 629.077 249.64C629.397 249.92 629.557 250.287 629.557 250.74C629.557 251.18 629.397 251.547 629.077 251.84C628.757 252.12 628.337 252.26 627.817 252.26C627.297 252.26 626.877 252.12 626.557 251.84C626.237 251.547 626.077 251.18 626.077 250.74ZM629.217 253.92V265H626.397V253.92H629.217ZM645.724 250.88V253.12H641.824V265H639.004V253.12H635.124V250.88H645.724ZM657.696 259.04C657.696 259.32 657.663 259.64 657.596 260H649.476C649.516 260.987 649.783 261.713 650.276 262.18C650.769 262.647 651.383 262.88 652.116 262.88C652.769 262.88 653.309 262.72 653.736 262.4C654.176 262.08 654.456 261.647 654.576 261.1H657.556C657.409 261.873 657.096 262.567 656.616 263.18C656.136 263.793 655.516 264.273 654.756 264.62C654.009 264.967 653.176 265.14 652.256 265.14C651.176 265.14 650.216 264.913 649.376 264.46C648.536 263.993 647.883 263.333 647.416 262.48C646.949 261.627 646.716 260.62 646.716 259.46C646.716 258.3 646.949 257.293 647.416 256.44C647.883 255.573 648.536 254.913 649.376 254.46C650.216 254.007 651.176 253.78 652.256 253.78C653.349 253.78 654.303 254.007 655.116 254.46C655.943 254.913 656.576 255.54 657.016 256.34C657.469 257.127 657.696 258.027 657.696 259.04ZM654.856 258.76C654.896 257.853 654.656 257.167 654.136 256.7C653.629 256.233 653.003 256 652.256 256C651.496 256 650.856 256.233 650.336 256.7C649.816 257.167 649.529 257.853 649.476 258.76H654.856ZM663.518 253.78C664.865 253.78 665.945 254.12 666.758 254.8C667.571 255.48 668.078 256.387 668.278 257.52H665.638C665.531 256.987 665.291 256.56 664.918 256.24C664.545 255.92 664.058 255.76 663.458 255.76C662.978 255.76 662.605 255.873 662.338 256.1C662.071 256.327 661.938 256.633 661.938 257.02C661.938 257.327 662.045 257.573 662.258 257.76C662.471 257.947 662.738 258.093 663.058 258.2C663.378 258.307 663.838 258.433 664.438 258.58C665.278 258.767 665.958 258.967 666.478 259.18C667.011 259.38 667.465 259.707 667.838 260.16C668.225 260.6 668.418 261.2 668.418 261.96C668.418 262.907 668.045 263.673 667.298 264.26C666.565 264.847 665.571 265.14 664.318 265.14C662.878 265.14 661.725 264.82 660.858 264.18C659.991 263.527 659.465 262.6 659.278 261.4H661.978C662.045 261.947 662.285 262.38 662.698 262.7C663.111 263.007 663.651 263.16 664.318 263.16C664.798 263.16 665.165 263.047 665.418 262.82C665.671 262.58 665.798 262.273 665.798 261.9C665.798 261.58 665.685 261.32 665.458 261.12C665.245 260.92 664.971 260.767 664.638 260.66C664.318 260.553 663.858 260.427 663.258 260.28C662.431 260.093 661.758 259.907 661.238 259.72C660.731 259.52 660.291 259.207 659.918 258.78C659.558 258.353 659.378 257.767 659.378 257.02C659.378 256.06 659.745 255.28 660.478 254.68C661.211 254.08 662.225 253.78 663.518 253.78ZM676.438 262.58V265H674.958C673.718 265 672.765 264.7 672.098 264.1C671.445 263.5 671.118 262.5 671.118 261.1V256.3H669.578V253.92H671.118V251.18H673.938V253.92H676.418V256.3H673.938V261.14C673.938 261.673 674.045 262.047 674.258 262.26C674.472 262.473 674.832 262.58 675.338 262.58H676.438ZM685.068 253.76C686.348 253.76 687.368 254.18 688.128 255.02C688.888 255.86 689.268 257.04 689.268 258.56V265H686.468V258.88C686.468 258 686.241 257.32 685.788 256.84C685.334 256.347 684.714 256.1 683.928 256.1C683.128 256.1 682.488 256.36 682.008 256.88C681.528 257.4 681.288 258.147 681.288 259.12V265H678.468V253.92H681.288V256.14C681.581 255.393 682.061 254.813 682.728 254.4C683.408 253.973 684.188 253.76 685.068 253.76ZM702.169 259.04C702.169 259.32 702.135 259.64 702.069 260H693.949C693.989 260.987 694.255 261.713 694.749 262.18C695.242 262.647 695.855 262.88 696.589 262.88C697.242 262.88 697.782 262.72 698.209 262.4C698.649 262.08 698.929 261.647 699.049 261.1H702.029C701.882 261.873 701.569 262.567 701.089 263.18C700.609 263.793 699.989 264.273 699.229 264.62C698.482 264.967 697.649 265.14 696.729 265.14C695.649 265.14 694.689 264.913 693.849 264.46C693.009 263.993 692.355 263.333 691.889 262.48C691.422 261.627 691.189 260.62 691.189 259.46C691.189 258.3 691.422 257.293 691.889 256.44C692.355 255.573 693.009 254.913 693.849 254.46C694.689 254.007 695.649 253.78 696.729 253.78C697.822 253.78 698.775 254.007 699.589 254.46C700.415 254.913 701.049 255.54 701.489 256.34C701.942 257.127 702.169 258.027 702.169 259.04ZM699.329 258.76C699.369 257.853 699.129 257.167 698.609 256.7C698.102 256.233 697.475 256 696.729 256C695.969 256 695.329 256.233 694.809 256.7C694.289 257.167 694.002 257.853 693.949 258.76H699.329ZM710.091 262.58V265H708.611C707.371 265 706.417 264.7 705.751 264.1C705.097 263.5 704.771 262.5 704.771 261.1V256.3H703.231V253.92H704.771V251.18H707.591V253.92H710.071V256.3H707.591V261.14C707.591 261.673 707.697 262.047 707.911 262.26C708.124 262.473 708.484 262.58 708.991 262.58H710.091ZM718.78 246.06L713.36 268.62H710.64L716.06 246.06H718.78ZM483.7 281.92C483.7 283.32 483.407 284.553 482.82 285.62C482.233 286.687 481.38 287.52 480.26 288.12C479.153 288.707 477.833 289 476.3 289H471.28V274.88H476.3C477.833 274.88 479.153 275.173 480.26 275.76C481.38 276.333 482.233 277.153 482.82 278.22C483.407 279.273 483.7 280.507 483.7 281.92ZM476.06 286.48C477.58 286.48 478.753 286.08 479.58 285.28C480.42 284.48 480.84 283.36 480.84 281.92C480.84 280.467 480.42 279.34 479.58 278.54C478.753 277.74 477.58 277.34 476.06 277.34H474.1V286.48H476.06ZM496.231 283.04C496.231 283.32 496.198 283.64 496.131 284H488.011C488.051 284.987 488.318 285.713 488.811 286.18C489.305 286.647 489.918 286.88 490.651 286.88C491.305 286.88 491.845 286.72 492.271 286.4C492.711 286.08 492.991 285.647 493.111 285.1H496.091C495.945 285.873 495.631 286.567 495.151 287.18C494.671 287.793 494.051 288.273 493.291 288.62C492.545 288.967 491.711 289.14 490.791 289.14C489.711 289.14 488.751 288.913 487.911 288.46C487.071 287.993 486.418 287.333 485.951 286.48C485.485 285.627 485.251 284.62 485.251 283.46C485.251 282.3 485.485 281.293 485.951 280.44C486.418 279.573 487.071 278.913 487.911 278.46C488.751 278.007 489.711 277.78 490.791 277.78C491.885 277.78 492.838 278.007 493.651 278.46C494.478 278.913 495.111 279.54 495.551 280.34C496.005 281.127 496.231 282.027 496.231 283.04ZM493.391 282.76C493.431 281.853 493.191 281.167 492.671 280.7C492.165 280.233 491.538 280 490.791 280C490.031 280 489.391 280.233 488.871 280.7C488.351 281.167 488.065 281.853 488.011 282.76H493.391ZM503.053 286.18L505.853 277.92H508.853L504.753 289H501.313L497.213 277.92H500.233L503.053 286.18ZM517.021 277.76C518.301 277.76 519.321 278.18 520.081 279.02C520.841 279.86 521.221 281.04 521.221 282.56V289H518.421V282.88C518.421 282 518.194 281.32 517.741 280.84C517.287 280.347 516.667 280.1 515.881 280.1C515.081 280.1 514.441 280.36 513.961 280.88C513.481 281.4 513.241 282.147 513.241 283.12V289H510.421V277.92H513.241V280.14C513.534 279.393 514.014 278.813 514.681 278.4C515.361 277.973 516.141 277.76 517.021 277.76ZM534.122 283.04C534.122 283.32 534.089 283.64 534.022 284H525.902C525.942 284.987 526.209 285.713 526.702 286.18C527.195 286.647 527.809 286.88 528.542 286.88C529.195 286.88 529.735 286.72 530.162 286.4C530.602 286.08 530.882 285.647 531.002 285.1H533.982C533.835 285.873 533.522 286.567 533.042 287.18C532.562 287.793 531.942 288.273 531.182 288.62C530.435 288.967 529.602 289.14 528.682 289.14C527.602 289.14 526.642 288.913 525.802 288.46C524.962 287.993 524.309 287.333 523.842 286.48C523.375 285.627 523.142 284.62 523.142 283.46C523.142 282.3 523.375 281.293 523.842 280.44C524.309 279.573 524.962 278.913 525.802 278.46C526.642 278.007 527.602 277.78 528.682 277.78C529.775 277.78 530.729 278.007 531.542 278.46C532.369 278.913 533.002 279.54 533.442 280.34C533.895 281.127 534.122 282.027 534.122 283.04ZM531.282 282.76C531.322 281.853 531.082 281.167 530.562 280.7C530.055 280.233 529.429 280 528.682 280C527.922 280 527.282 280.233 526.762 280.7C526.242 281.167 525.955 281.853 525.902 282.76H531.282ZM542.044 286.58V289H540.564C539.324 289 538.37 288.7 537.704 288.1C537.05 287.5 536.724 286.5 536.724 285.1V280.3H535.184V277.92H536.724V275.18H539.544V277.92H542.024V280.3H539.544V285.14C539.544 285.673 539.65 286.047 539.864 286.26C540.077 286.473 540.437 286.58 540.944 286.58H542.044Z" fill="white"/>
<circle cx="440" cy="330" r="6" fill="white"/>
<path d="M480.98 333.14C480.98 333.86 480.8 334.527 480.44 335.14C480.08 335.74 479.547 336.227 478.84 336.6C478.133 336.96 477.273 337.14 476.26 337.14C475.26 337.14 474.367 336.973 473.58 336.64C472.793 336.293 472.16 335.8 471.68 335.16C471.213 334.52 470.947 333.773 470.88 332.92H473.88C473.947 333.493 474.173 333.973 474.56 334.36C474.96 334.733 475.487 334.92 476.14 334.92C476.727 334.92 477.173 334.767 477.48 334.46C477.8 334.14 477.96 333.733 477.96 333.24C477.96 332.8 477.833 332.44 477.58 332.16C477.327 331.867 477.007 331.633 476.62 331.46C476.233 331.287 475.7 331.087 475.02 330.86C474.14 330.567 473.42 330.28 472.86 330C472.3 329.707 471.82 329.287 471.42 328.74C471.033 328.193 470.84 327.48 470.84 326.6C470.84 325.387 471.273 324.433 472.14 323.74C473.02 323.033 474.18 322.68 475.62 322.68C477.113 322.68 478.3 323.04 479.18 323.76C480.073 324.48 480.58 325.44 480.7 326.64H477.66C477.58 326.133 477.367 325.72 477.02 325.4C476.673 325.067 476.2 324.9 475.6 324.9C475.08 324.9 474.66 325.04 474.34 325.32C474.02 325.587 473.86 325.98 473.86 326.5C473.86 326.913 473.98 327.26 474.22 327.54C474.473 327.807 474.787 328.027 475.16 328.2C475.547 328.373 476.067 328.567 476.72 328.78C477.627 329.1 478.36 329.4 478.92 329.68C479.493 329.96 479.98 330.38 480.38 330.94C480.78 331.5 480.98 332.233 480.98 333.14ZM488.037 325.78C489.464 325.78 490.651 326.167 491.597 326.94C492.557 327.713 493.157 328.767 493.397 330.1H490.417C490.297 329.513 490.024 329.053 489.597 328.72C489.171 328.373 488.631 328.2 487.977 328.2C487.231 328.2 486.604 328.48 486.097 329.04C485.604 329.587 485.357 330.393 485.357 331.46C485.357 332.527 485.604 333.34 486.097 333.9C486.604 334.447 487.231 334.72 487.977 334.72C488.631 334.72 489.171 334.553 489.597 334.22C490.024 333.873 490.297 333.407 490.417 332.82H493.397C493.157 334.153 492.557 335.207 491.597 335.98C490.651 336.753 489.464 337.14 488.037 337.14C486.957 337.14 485.997 336.913 485.157 336.46C484.317 335.993 483.664 335.333 483.197 334.48C482.731 333.627 482.497 332.62 482.497 331.46C482.497 330.3 482.731 329.293 483.197 328.44C483.664 327.573 484.317 326.913 485.157 326.46C485.997 326.007 486.957 325.78 488.037 325.78ZM499.741 325.78C500.674 325.78 501.474 326 502.141 326.44C502.808 326.88 503.281 327.473 503.561 328.22V325.92H506.361V337H503.561V334.68C503.281 335.427 502.808 336.027 502.141 336.48C501.474 336.92 500.674 337.14 499.741 337.14C498.808 337.14 497.968 336.913 497.221 336.46C496.474 336.007 495.888 335.353 495.461 334.5C495.048 333.633 494.841 332.62 494.841 331.46C494.841 330.3 495.048 329.293 495.461 328.44C495.888 327.573 496.474 326.913 497.221 326.46C497.968 326.007 498.808 325.78 499.741 325.78ZM500.621 328.24C499.741 328.24 499.034 328.527 498.501 329.1C497.968 329.673 497.701 330.46 497.701 331.46C497.701 332.46 497.968 333.247 498.501 333.82C499.034 334.38 499.741 334.66 500.621 334.66C501.474 334.66 502.174 334.373 502.721 333.8C503.281 333.213 503.561 332.433 503.561 331.46C503.561 330.473 503.281 329.693 502.721 329.12C502.174 328.533 501.474 328.24 500.621 328.24ZM511.737 322.2V337H508.917V322.2H511.737ZM517.108 322.2V337H514.288V322.2H517.108ZM524.779 325.78C525.859 325.78 526.826 326.007 527.679 326.46C528.546 326.913 529.226 327.573 529.719 328.44C530.212 329.293 530.459 330.3 530.459 331.46C530.459 332.62 530.212 333.627 529.719 334.48C529.226 335.333 528.546 335.993 527.679 336.46C526.826 336.913 525.859 337.14 524.779 337.14C523.699 337.14 522.726 336.913 521.859 336.46C521.006 335.993 520.332 335.333 519.839 334.48C519.346 333.627 519.099 332.62 519.099 331.46C519.099 330.3 519.346 329.293 519.839 328.44C520.332 327.573 521.006 326.913 521.859 326.46C522.726 326.007 523.699 325.78 524.779 325.78ZM524.779 328.22C523.992 328.22 523.326 328.5 522.779 329.06C522.232 329.607 521.959 330.407 521.959 331.46C521.959 332.513 522.232 333.32 522.779 333.88C523.326 334.427 523.992 334.7 524.779 334.7C525.566 334.7 526.232 334.427 526.779 333.88C527.326 333.32 527.599 332.513 527.599 331.46C527.599 330.407 527.326 329.607 526.779 329.06C526.232 328.5 525.566 328.22 524.779 328.22ZM539.072 325.78C540.005 325.78 540.845 326.007 541.592 326.46C542.339 326.913 542.919 327.573 543.332 328.44C543.759 329.293 543.972 330.3 543.972 331.46C543.972 332.62 543.759 333.633 543.332 334.5C542.919 335.353 542.339 336.007 541.592 336.46C540.845 336.913 540.005 337.14 539.072 337.14C538.139 337.14 537.339 336.92 536.672 336.48C536.019 336.027 535.552 335.427 535.272 334.68V342.28H532.452V325.92H535.272V328.22C535.552 327.473 536.019 326.88 536.672 326.44C537.339 326 538.139 325.78 539.072 325.78ZM538.192 328.24C537.339 328.24 536.632 328.533 536.072 329.12C535.525 329.693 535.252 330.473 535.252 331.46C535.252 332.433 535.525 333.213 536.072 333.8C536.632 334.373 537.339 334.66 538.192 334.66C539.072 334.66 539.779 334.38 540.312 333.82C540.845 333.247 541.112 332.46 541.112 331.46C541.112 330.46 540.845 329.673 540.312 329.1C539.779 328.527 539.072 328.24 538.192 328.24ZM547.948 322.88L551.728 334.06L555.528 322.88H558.548L553.548 337H549.928L544.928 322.88H547.948ZM559.029 325.52V322.88H564.109V337H561.149V325.52H559.029ZM576.146 325.78C577.226 325.78 578.193 326.007 579.046 326.46C579.913 326.913 580.593 327.573 581.086 328.44C581.579 329.293 581.826 330.3 581.826 331.46C581.826 332.62 581.579 333.627 581.086 334.48C580.593 335.333 579.913 335.993 579.046 336.46C578.193 336.913 577.226 337.14 576.146 337.14C575.066 337.14 574.093 336.913 573.226 336.46C572.373 335.993 571.699 335.333 571.206 334.48C570.713 333.627 570.466 332.62 570.466 331.46C570.466 330.3 570.713 329.293 571.206 328.44C571.699 327.573 572.373 326.913 573.226 326.46C574.093 326.007 575.066 325.78 576.146 325.78ZM576.146 328.22C575.359 328.22 574.693 328.5 574.146 329.06C573.599 329.607 573.326 330.407 573.326 331.46C573.326 332.513 573.599 333.32 574.146 333.88C574.693 334.427 575.359 334.7 576.146 334.7C576.933 334.7 577.599 334.427 578.146 333.88C578.693 333.32 578.966 332.513 578.966 331.46C578.966 330.407 578.693 329.607 578.146 329.06C577.599 328.5 576.933 328.22 576.146 328.22ZM590.419 325.76C591.699 325.76 592.719 326.18 593.479 327.02C594.239 327.86 594.619 329.04 594.619 330.56V337H591.819V330.88C591.819 330 591.592 329.32 591.139 328.84C590.686 328.347 590.066 328.1 589.279 328.1C588.479 328.1 587.839 328.36 587.359 328.88C586.879 329.4 586.639 330.147 586.639 331.12V337H583.819V325.92H586.639V328.14C586.932 327.393 587.412 326.813 588.079 326.4C588.759 325.973 589.539 325.76 590.419 325.76ZM611.156 333.14C611.156 333.86 610.976 334.527 610.616 335.14C610.256 335.74 609.722 336.227 609.016 336.6C608.309 336.96 607.449 337.14 606.436 337.14C605.436 337.14 604.542 336.973 603.756 336.64C602.969 336.293 602.336 335.8 601.856 335.16C601.389 334.52 601.122 333.773 601.056 332.92H604.056C604.122 333.493 604.349 333.973 604.736 334.36C605.136 334.733 605.662 334.92 606.316 334.92C606.902 334.92 607.349 334.767 607.656 334.46C607.976 334.14 608.136 333.733 608.136 333.24C608.136 332.8 608.009 332.44 607.756 332.16C607.502 331.867 607.182 331.633 606.796 331.46C606.409 331.287 605.876 331.087 605.196 330.86C604.316 330.567 603.596 330.28 603.036 330C602.476 329.707 601.996 329.287 601.596 328.74C601.209 328.193 601.016 327.48 601.016 326.6C601.016 325.387 601.449 324.433 602.316 323.74C603.196 323.033 604.356 322.68 605.796 322.68C607.289 322.68 608.476 323.04 609.356 323.76C610.249 324.48 610.756 325.44 610.876 326.64H607.836C607.756 326.133 607.542 325.72 607.196 325.4C606.849 325.067 606.376 324.9 605.776 324.9C605.256 324.9 604.836 325.04 604.516 325.32C604.196 325.587 604.036 325.98 604.036 326.5C604.036 326.913 604.156 327.26 604.396 327.54C604.649 327.807 604.962 328.027 605.336 328.2C605.722 328.373 606.242 328.567 606.896 328.78C607.802 329.1 608.536 329.4 609.096 329.68C609.669 329.96 610.156 330.38 610.556 330.94C610.956 331.5 611.156 332.233 611.156 333.14ZM623.833 325.92V337H621.013V334.76C620.72 335.507 620.233 336.093 619.553 336.52C618.886 336.933 618.113 337.14 617.233 337.14C615.953 337.14 614.933 336.72 614.173 335.88C613.413 335.04 613.033 333.867 613.033 332.36V325.92H615.833V332.04C615.833 332.92 616.06 333.607 616.513 334.1C616.966 334.58 617.58 334.82 618.353 334.82C619.166 334.82 619.813 334.56 620.293 334.04C620.773 333.52 621.013 332.773 621.013 331.8V325.92H623.833ZM626.077 322.74C626.077 322.287 626.237 321.92 626.557 321.64C626.877 321.347 627.297 321.2 627.817 321.2C628.337 321.2 628.757 321.347 629.077 321.64C629.397 321.92 629.557 322.287 629.557 322.74C629.557 323.18 629.397 323.547 629.077 323.84C628.757 324.12 628.337 324.26 627.817 324.26C627.297 324.26 626.877 324.12 626.557 323.84C626.237 323.547 626.077 323.18 626.077 322.74ZM629.217 325.92V337H626.397V325.92H629.217ZM651.344 323.04V337H648.544V327.26L644.964 337H642.524L638.944 327.3V337H636.124V323.04H639.544L643.784 333.54L647.944 323.04H651.344ZM658.237 325.78C659.171 325.78 659.971 326 660.637 326.44C661.304 326.88 661.777 327.473 662.057 328.22V325.92H664.857V337H662.057V334.68C661.777 335.427 661.304 336.027 660.637 336.48C659.971 336.92 659.171 337.14 658.237 337.14C657.304 337.14 656.464 336.913 655.717 336.46C654.971 336.007 654.384 335.353 653.957 334.5C653.544 333.633 653.337 332.62 653.337 331.46C653.337 330.3 653.544 329.293 653.957 328.44C654.384 327.573 654.971 326.913 655.717 326.46C656.464 326.007 657.304 325.78 658.237 325.78ZM659.117 328.24C658.237 328.24 657.531 328.527 656.997 329.1C656.464 329.673 656.197 330.46 656.197 331.46C656.197 332.46 656.464 333.247 656.997 333.82C657.531 334.38 658.237 334.66 659.117 334.66C659.971 334.66 660.671 334.373 661.217 333.8C661.777 333.213 662.057 332.433 662.057 331.46C662.057 330.473 661.777 329.693 661.217 329.12C660.671 328.533 659.971 328.24 659.117 328.24ZM667.093 322.74C667.093 322.287 667.253 321.92 667.573 321.64C667.893 321.347 668.313 321.2 668.833 321.2C669.353 321.2 669.773 321.347 670.093 321.64C670.413 321.92 670.573 322.287 670.573 322.74C670.573 323.18 670.413 323.547 670.093 323.84C669.773 324.12 669.353 324.26 668.833 324.26C668.313 324.26 667.893 324.12 667.573 323.84C667.253 323.547 667.093 323.18 667.093 322.74ZM670.233 325.92V337H667.413V325.92H670.233ZM679.384 325.76C680.664 325.76 681.684 326.18 682.444 327.02C683.204 327.86 683.584 329.04 683.584 330.56V337H680.784V330.88C680.784 330 680.557 329.32 680.104 328.84C679.651 328.347 679.031 328.1 678.244 328.1C677.444 328.1 676.804 328.36 676.324 328.88C675.844 329.4 675.604 330.147 675.604 331.12V337H672.784V325.92H675.604V328.14C675.897 327.393 676.377 326.813 677.044 326.4C677.724 325.973 678.504 325.76 679.384 325.76ZM692.665 325.76C693.945 325.76 694.965 326.18 695.725 327.02C696.485 327.86 696.865 329.04 696.865 330.56V337H694.065V330.88C694.065 330 693.838 329.32 693.385 328.84C692.932 328.347 692.312 328.1 691.525 328.1C690.725 328.1 690.085 328.36 689.605 328.88C689.125 329.4 688.885 330.147 688.885 331.12V337H686.065V325.92H688.885V328.14C689.178 327.393 689.658 326.813 690.325 326.4C691.005 325.973 691.785 325.76 692.665 325.76ZM709.766 331.04C709.766 331.32 709.733 331.64 709.666 332H701.546C701.586 332.987 701.853 333.713 702.346 334.18C702.84 334.647 703.453 334.88 704.186 334.88C704.84 334.88 705.38 334.72 705.806 334.4C706.246 334.08 706.526 333.647 706.646 333.1H709.626C709.48 333.873 709.166 334.567 708.686 335.18C708.206 335.793 707.586 336.273 706.826 336.62C706.08 336.967 705.246 337.14 704.326 337.14C703.246 337.14 702.286 336.913 701.446 336.46C700.606 335.993 699.953 335.333 699.486 334.48C699.02 333.627 698.786 332.62 698.786 331.46C698.786 330.3 699.02 329.293 699.486 328.44C699.953 327.573 700.606 326.913 701.446 326.46C702.286 326.007 703.246 325.78 704.326 325.78C705.42 325.78 706.373 326.007 707.186 326.46C708.013 326.913 708.646 327.54 709.086 328.34C709.54 329.127 709.766 330.027 709.766 331.04ZM706.926 330.76C706.966 329.853 706.726 329.167 706.206 328.7C705.7 328.233 705.073 328 704.326 328C703.566 328 702.926 328.233 702.406 328.7C701.886 329.167 701.6 329.853 701.546 330.76H706.926ZM717.688 334.58V337H716.208C714.968 337 714.015 336.7 713.348 336.1C712.695 335.5 712.368 334.5 712.368 333.1V328.3H710.828V325.92H712.368V323.18H715.188V325.92H717.668V328.3H715.188V333.14C715.188 333.673 715.295 334.047 715.508 334.26C715.722 334.473 716.082 334.58 716.588 334.58H717.688Z" fill="white"/>
<path d="M476.16 353.52V354.752H469.76V353.52H476.16ZM485.635 357.392H480.675L479.731 360H478.163L482.339 348.928H483.987L488.147 360H486.579L485.635 357.392ZM485.219 356.256L483.155 350.56L481.091 356.256H485.219ZM497.429 351.216V360H495.973V357.936C495.749 358.651 495.349 359.2 494.773 359.584C494.208 359.957 493.546 360.144 492.789 360.144C491.776 360.144 490.954 359.819 490.325 359.168C489.696 358.507 489.381 357.563 489.381 356.336V351.216H490.837V356.192C490.837 357.067 491.061 357.744 491.509 358.224C491.957 358.693 492.565 358.928 493.333 358.928C494.133 358.928 494.773 358.672 495.253 358.16C495.733 357.637 495.973 356.88 495.973 355.888V351.216H497.429ZM503.362 351.104C504.215 351.104 504.935 351.317 505.522 351.744C506.119 352.171 506.535 352.741 506.77 353.456V348.16H508.226V360H506.77V357.76C506.535 358.475 506.119 359.045 505.522 359.472C504.935 359.899 504.215 360.112 503.362 360.112C502.583 360.112 501.89 359.931 501.282 359.568C500.674 359.205 500.194 358.688 499.842 358.016C499.5 357.333 499.33 356.533 499.33 355.616C499.33 354.699 499.5 353.899 499.842 353.216C500.194 352.533 500.674 352.011 501.282 351.648C501.89 351.285 502.583 351.104 503.362 351.104ZM503.778 352.4C502.882 352.4 502.162 352.688 501.618 353.264C501.084 353.829 500.818 354.613 500.818 355.616C500.818 356.619 501.084 357.408 501.618 357.984C502.162 358.549 502.882 358.832 503.778 358.832C504.354 358.832 504.866 358.699 505.314 358.432C505.772 358.165 506.13 357.792 506.386 357.312C506.642 356.821 506.77 356.256 506.77 355.616C506.77 354.976 506.642 354.411 506.386 353.92C506.13 353.429 505.772 353.056 505.314 352.8C504.866 352.533 504.354 352.4 503.778 352.4ZM510.287 348.64C510.287 348.373 510.378 348.16 510.559 348C510.74 347.829 510.98 347.744 511.279 347.744C511.578 347.744 511.818 347.829 511.999 348C512.18 348.16 512.271 348.373 512.271 348.64C512.271 348.907 512.18 349.125 511.999 349.296C511.818 349.456 511.578 349.536 511.279 349.536C510.98 349.536 510.74 349.456 510.559 349.296C510.378 349.125 510.287 348.907 510.287 348.64ZM511.999 351.216V360H510.543V351.216H511.999ZM518.532 358.72V360H517.444C516.548 360 515.876 359.787 515.428 359.36C514.991 358.933 514.772 358.219 514.772 357.216V352.48H513.46V351.216H514.772V349.024H516.244V351.216H518.516V352.48H516.244V357.248C516.244 357.813 516.345 358.203 516.548 358.416C516.761 358.619 517.124 358.72 517.636 358.72H518.532ZM520.053 348.64C520.053 348.373 520.143 348.16 520.325 348C520.506 347.829 520.746 347.744 521.045 347.744C521.343 347.744 521.583 347.829 521.765 348C521.946 348.16 522.037 348.373 522.037 348.64C522.037 348.907 521.946 349.125 521.765 349.296C521.583 349.456 521.343 349.536 521.045 349.536C520.746 349.536 520.506 349.456 520.325 349.296C520.143 349.125 520.053 348.907 520.053 348.64ZM521.765 351.216V360H520.309V351.216H521.765ZM528.73 351.072C529.754 351.072 530.58 351.403 531.21 352.064C531.839 352.715 532.154 353.659 532.154 354.896V360H530.698V355.024C530.698 354.149 530.474 353.477 530.026 353.008C529.578 352.539 528.97 352.304 528.202 352.304C527.402 352.304 526.762 352.565 526.282 353.088C525.802 353.6 525.562 354.352 525.562 355.344V360H524.106V351.216H525.562V353.296C525.786 352.581 526.18 352.032 526.746 351.648C527.322 351.264 527.983 351.072 528.73 351.072ZM537.987 351.104C538.84 351.104 539.56 351.317 540.147 351.744C540.744 352.171 541.16 352.741 541.395 353.456V351.216H542.851V360.144C542.851 360.955 542.68 361.675 542.339 362.304C541.997 362.933 541.517 363.424 540.899 363.776C540.28 364.128 539.56 364.304 538.739 364.304C537.555 364.304 536.589 364.016 535.843 363.44C535.096 362.875 534.621 362.107 534.419 361.136H535.859C536.029 361.723 536.349 362.181 536.819 362.512C537.299 362.853 537.912 363.024 538.659 363.024C539.448 363.024 540.099 362.768 540.611 362.256C541.133 361.755 541.395 361.051 541.395 360.144V357.76C541.16 358.475 540.744 359.045 540.147 359.472C539.56 359.899 538.84 360.112 537.987 360.112C537.208 360.112 536.515 359.931 535.907 359.568C535.299 359.205 534.819 358.688 534.467 358.016C534.125 357.333 533.955 356.533 533.955 355.616C533.955 354.699 534.125 353.899 534.467 353.216C534.819 352.533 535.299 352.011 535.907 351.648C536.515 351.285 537.208 351.104 537.987 351.104ZM538.403 352.4C537.507 352.4 536.787 352.688 536.243 353.264C535.709 353.829 535.443 354.613 535.443 355.616C535.443 356.619 535.709 357.408 536.243 357.984C536.787 358.549 537.507 358.832 538.403 358.832C538.979 358.832 539.491 358.699 539.939 358.432C540.397 358.165 540.755 357.792 541.011 357.312C541.267 356.821 541.395 356.256 541.395 355.616C541.395 354.976 541.267 354.411 541.011 353.92C540.755 353.429 540.397 353.056 539.939 352.8C539.491 352.533 538.979 352.4 538.403 352.4ZM546.016 358.928C546.165 359.397 546.24 359.835 546.24 360.24C546.24 360.795 546.101 361.237 545.824 361.568C545.547 361.909 545.131 362.08 544.576 362.08V361.456C544.843 361.456 545.035 361.381 545.152 361.232C545.28 361.093 545.344 360.869 545.344 360.56V360.416H544.528V358.928H546.016ZM557.086 348.576C558.131 348.576 559.07 348.821 559.902 349.312C560.745 349.803 561.406 350.491 561.886 351.376C562.366 352.251 562.606 353.243 562.606 354.352C562.606 355.461 562.366 356.459 561.886 357.344C561.406 358.219 560.745 358.901 559.902 359.392C559.07 359.883 558.131 360.128 557.086 360.128C556.041 360.128 555.091 359.883 554.238 359.392C553.395 358.901 552.734 358.219 552.254 357.344C551.774 356.459 551.534 355.461 551.534 354.352C551.534 353.243 551.774 352.251 552.254 351.376C552.734 350.491 553.395 349.803 554.238 349.312C555.091 348.821 556.041 348.576 557.086 348.576ZM557.086 349.936C556.307 349.936 555.609 350.117 554.99 350.48C554.382 350.832 553.902 351.344 553.55 352.016C553.209 352.677 553.038 353.456 553.038 354.352C553.038 355.237 553.209 356.016 553.55 356.688C553.902 357.36 554.382 357.877 554.99 358.24C555.609 358.592 556.307 358.768 557.086 358.768C557.854 358.768 558.542 358.587 559.15 358.224C559.769 357.861 560.249 357.349 560.59 356.688C560.942 356.016 561.118 355.237 561.118 354.352C561.118 353.456 560.942 352.677 560.59 352.016C560.249 351.344 559.769 350.832 559.15 350.48C558.542 350.117 557.854 349.936 557.086 349.936ZM569.422 351.104C570.201 351.104 570.894 351.285 571.502 351.648C572.11 352.011 572.585 352.533 572.926 353.216C573.278 353.899 573.454 354.699 573.454 355.616C573.454 356.533 573.278 357.333 572.926 358.016C572.585 358.688 572.11 359.205 571.502 359.568C570.894 359.931 570.201 360.112 569.422 360.112C568.569 360.112 567.844 359.899 567.246 359.472C566.66 359.035 566.254 358.464 566.03 357.76V364.16H564.574V351.216H566.03V353.456C566.254 352.752 566.66 352.187 567.246 351.76C567.844 351.323 568.569 351.104 569.422 351.104ZM569.006 352.4C568.441 352.4 567.929 352.533 567.47 352.8C567.012 353.056 566.654 353.429 566.398 353.92C566.142 354.411 566.014 354.976 566.014 355.616C566.014 356.256 566.142 356.821 566.398 357.312C566.654 357.792 567.012 358.165 567.47 358.432C567.929 358.699 568.441 358.832 569.006 358.832C569.913 358.832 570.633 358.549 571.166 357.984C571.71 357.408 571.982 356.619 571.982 355.616C571.982 354.613 571.71 353.829 571.166 353.264C570.633 352.688 569.913 352.4 569.006 352.4ZM583.436 355.12C583.436 355.429 583.414 355.696 583.372 355.92H576.348C576.38 356.923 576.662 357.675 577.196 358.176C577.74 358.677 578.401 358.928 579.18 358.928C579.884 358.928 580.47 358.752 580.94 358.4C581.42 358.037 581.713 357.557 581.82 356.96H583.372C583.265 357.568 583.025 358.112 582.652 358.592C582.289 359.072 581.814 359.445 581.228 359.712C580.641 359.979 579.98 360.112 579.244 360.112C578.401 360.112 577.654 359.931 577.004 359.568C576.353 359.205 575.841 358.688 575.468 358.016C575.105 357.333 574.924 356.533 574.924 355.616C574.924 354.699 575.105 353.899 575.468 353.216C575.841 352.533 576.353 352.011 577.004 351.648C577.654 351.285 578.401 351.104 579.244 351.104C580.097 351.104 580.838 351.285 581.468 351.648C582.108 352.011 582.593 352.496 582.924 353.104C583.265 353.712 583.436 354.384 583.436 355.12ZM581.964 355.216C581.996 354.565 581.889 354.021 581.644 353.584C581.398 353.147 581.062 352.821 580.636 352.608C580.209 352.395 579.745 352.288 579.244 352.288C578.444 352.288 577.772 352.539 577.228 353.04C576.684 353.531 576.39 354.256 576.348 355.216H581.964ZM589.964 351.072C590.988 351.072 591.815 351.403 592.444 352.064C593.073 352.715 593.388 353.659 593.388 354.896V360H591.932V355.024C591.932 354.149 591.708 353.477 591.26 353.008C590.812 352.539 590.204 352.304 589.436 352.304C588.636 352.304 587.996 352.565 587.516 353.088C587.036 353.6 586.796 354.352 586.796 355.344V360H585.34V351.216H586.796V353.296C587.02 352.581 587.415 352.032 587.98 351.648C588.556 351.264 589.217 351.072 589.964 351.072ZM606.71 357.072C606.71 357.605 606.582 358.101 606.326 358.56C606.07 359.019 605.681 359.392 605.158 359.68C604.636 359.968 603.99 360.112 603.222 360.112C602.476 360.112 601.809 359.979 601.222 359.712C600.646 359.435 600.182 359.061 599.83 358.592C599.489 358.112 599.292 357.568 599.238 356.96H600.79C600.822 357.28 600.929 357.595 601.11 357.904C601.302 358.203 601.569 358.453 601.91 358.656C602.262 358.848 602.684 358.944 603.174 358.944C603.814 358.944 604.305 358.773 604.646 358.432C604.988 358.091 605.158 357.653 605.158 357.12C605.158 356.661 605.036 356.288 604.79 356C604.556 355.712 604.262 355.488 603.91 355.328C603.558 355.157 603.078 354.976 602.47 354.784C601.756 354.549 601.18 354.331 600.742 354.128C600.316 353.915 599.948 353.6 599.638 353.184C599.34 352.768 599.19 352.219 599.19 351.536C599.19 350.949 599.329 350.432 599.606 349.984C599.894 349.536 600.3 349.189 600.822 348.944C601.356 348.699 601.98 348.576 602.694 348.576C603.804 348.576 604.684 348.848 605.334 349.392C605.985 349.925 606.364 350.608 606.47 351.44H604.902C604.817 350.992 604.588 350.597 604.214 350.256C603.841 349.915 603.334 349.744 602.694 349.744C602.108 349.744 601.638 349.899 601.286 350.208C600.934 350.507 600.758 350.933 600.758 351.488C600.758 351.925 600.87 352.283 601.094 352.56C601.329 352.827 601.617 353.04 601.958 353.2C602.3 353.349 602.769 353.52 603.366 353.712C604.092 353.947 604.673 354.171 605.11 354.384C605.558 354.597 605.937 354.923 606.246 355.36C606.556 355.787 606.71 356.357 606.71 357.072ZM612.652 351.104C613.495 351.104 614.247 351.285 614.908 351.648C615.58 352.011 616.103 352.533 616.476 353.216C616.86 353.899 617.052 354.699 617.052 355.616C617.052 356.533 616.86 357.333 616.476 358.016C616.103 358.688 615.58 359.205 614.908 359.568C614.247 359.931 613.495 360.112 612.652 360.112C611.809 360.112 611.052 359.931 610.38 359.568C609.719 359.205 609.196 358.688 608.812 358.016C608.428 357.333 608.236 356.533 608.236 355.616C608.236 354.699 608.428 353.899 608.812 353.216C609.196 352.533 609.719 352.011 610.38 351.648C611.052 351.285 611.809 351.104 612.652 351.104ZM612.652 352.384C612.129 352.384 611.644 352.501 611.196 352.736C610.759 352.971 610.401 353.333 610.124 353.824C609.857 354.304 609.724 354.901 609.724 355.616C609.724 356.32 609.857 356.917 610.124 357.408C610.401 357.888 610.759 358.245 611.196 358.48C611.644 358.715 612.129 358.832 612.652 358.832C613.175 358.832 613.655 358.715 614.092 358.48C614.54 358.245 614.897 357.888 615.164 357.408C615.441 356.917 615.58 356.32 615.58 355.616C615.58 354.901 615.441 354.304 615.164 353.824C614.897 353.333 614.54 352.971 614.092 352.736C613.655 352.501 613.175 352.384 612.652 352.384ZM626.757 351.216V360H625.301V357.936C625.077 358.651 624.677 359.2 624.101 359.584C623.536 359.957 622.875 360.144 622.117 360.144C621.104 360.144 620.283 359.819 619.653 359.168C619.024 358.507 618.709 357.563 618.709 356.336V351.216H620.165V356.192C620.165 357.067 620.389 357.744 620.837 358.224C621.285 358.693 621.893 358.928 622.661 358.928C623.461 358.928 624.101 358.672 624.581 358.16C625.061 357.637 625.301 356.88 625.301 355.888V351.216H626.757ZM630.546 352.992C630.834 352.384 631.255 351.915 631.81 351.584C632.365 351.243 633.026 351.072 633.794 351.072V352.656H633.346C632.525 352.656 631.853 352.869 631.33 353.296C630.807 353.712 630.546 354.405 630.546 355.376V360H629.09V351.216H630.546V352.992ZM639.119 351.104C640.239 351.104 641.167 351.403 641.903 352C642.639 352.597 643.092 353.397 643.263 354.4H641.727C641.62 353.771 641.327 353.28 640.847 352.928C640.377 352.565 639.791 352.384 639.087 352.384C638.575 352.384 638.105 352.501 637.679 352.736C637.263 352.971 636.927 353.333 636.671 353.824C636.415 354.304 636.287 354.901 636.287 355.616C636.287 356.331 636.415 356.933 636.671 357.424C636.927 357.904 637.263 358.261 637.679 358.496C638.105 358.731 638.575 358.848 639.087 358.848C639.791 358.848 640.377 358.667 640.847 358.304C641.327 357.941 641.62 357.445 641.727 356.816H643.263C643.092 357.829 642.639 358.635 641.903 359.232C641.167 359.819 640.239 360.112 639.119 360.112C638.276 360.112 637.529 359.931 636.879 359.568C636.228 359.205 635.716 358.688 635.343 358.016C634.98 357.333 634.799 356.533 634.799 355.616C634.799 354.699 634.98 353.899 635.343 353.216C635.716 352.533 636.228 352.011 636.879 351.648C637.529 351.285 638.276 351.104 639.119 351.104ZM653.248 355.12C653.248 355.429 653.227 355.696 653.184 355.92H646.16C646.192 356.923 646.475 357.675 647.008 358.176C647.552 358.677 648.213 358.928 648.992 358.928C649.696 358.928 650.283 358.752 650.752 358.4C651.232 358.037 651.525 357.557 651.632 356.96H653.184C653.077 357.568 652.837 358.112 652.464 358.592C652.101 359.072 651.627 359.445 651.04 359.712C650.453 359.979 649.792 360.112 649.056 360.112C648.213 360.112 647.467 359.931 646.816 359.568C646.165 359.205 645.653 358.688 645.28 358.016C644.917 357.333 644.736 356.533 644.736 355.616C644.736 354.699 644.917 353.899 645.28 353.216C645.653 352.533 646.165 352.011 646.816 351.648C647.467 351.285 648.213 351.104 649.056 351.104C649.909 351.104 650.651 351.285 651.28 351.648C651.92 352.011 652.405 352.496 652.736 353.104C653.077 353.712 653.248 354.384 653.248 355.12ZM651.776 355.216C651.808 354.565 651.701 354.021 651.456 353.584C651.211 353.147 650.875 352.821 650.448 352.608C650.021 352.395 649.557 352.288 649.056 352.288C648.256 352.288 647.584 352.539 647.04 353.04C646.496 353.531 646.203 354.256 646.16 355.216H651.776ZM656 358.928C656.15 359.397 656.224 359.835 656.224 360.24C656.224 360.795 656.086 361.237 655.808 361.568C655.531 361.909 655.115 362.08 654.56 362.08V361.456C654.827 361.456 655.019 361.381 655.136 361.232C655.264 361.093 655.328 360.869 655.328 360.56V360.416H654.512V358.928H656ZM667.406 354.16C668.1 354.309 668.66 354.64 669.086 355.152C669.524 355.664 669.742 356.267 669.742 356.96C669.742 357.877 669.428 358.613 668.798 359.168C668.18 359.723 667.278 360 666.094 360H661.902V348.72H666.03C667.161 348.72 668.02 348.971 668.606 349.472C669.193 349.973 669.486 350.661 669.486 351.536C669.486 352.261 669.289 352.848 668.894 353.296C668.51 353.744 668.014 354.032 667.406 354.16ZM663.358 353.664H665.79C666.505 353.664 667.049 353.499 667.422 353.168C667.806 352.837 667.998 352.373 667.998 351.776C667.998 351.2 667.812 350.747 667.438 350.416C667.065 350.085 666.494 349.92 665.726 349.92H663.358V353.664ZM665.822 358.784C666.59 358.784 667.182 358.608 667.598 358.256C668.025 357.904 668.238 357.408 668.238 356.768C668.238 356.139 668.02 355.648 667.582 355.296C667.156 354.933 666.558 354.752 665.79 354.752H663.358V358.784H665.822ZM679.367 351.216V360H677.911V357.936C677.687 358.651 677.287 359.2 676.711 359.584C676.145 359.957 675.484 360.144 674.727 360.144C673.713 360.144 672.892 359.819 672.263 359.168C671.633 358.507 671.319 357.563 671.319 356.336V351.216H672.775V356.192C672.775 357.067 672.999 357.744 673.447 358.224C673.895 358.693 674.503 358.928 675.271 358.928C676.071 358.928 676.711 358.672 677.191 358.16C677.671 357.637 677.911 356.88 677.911 355.888V351.216H679.367ZM685.299 351.104C686.153 351.104 686.873 351.317 687.459 351.744C688.057 352.171 688.473 352.741 688.707 353.456V351.216H690.163V360.144C690.163 360.955 689.993 361.675 689.651 362.304C689.31 362.933 688.83 363.424 688.211 363.776C687.593 364.128 686.873 364.304 686.051 364.304C684.867 364.304 683.902 364.016 683.155 363.44C682.409 362.875 681.934 362.107 681.731 361.136H683.171C683.342 361.723 683.662 362.181 684.131 362.512C684.611 362.853 685.225 363.024 685.971 363.024C686.761 363.024 687.411 362.768 687.923 362.256C688.446 361.755 688.707 361.051 688.707 360.144V357.76C688.473 358.475 688.057 359.045 687.459 359.472C686.873 359.899 686.153 360.112 685.299 360.112C684.521 360.112 683.827 359.931 683.219 359.568C682.611 359.205 682.131 358.688 681.779 358.016C681.438 357.333 681.267 356.533 681.267 355.616C681.267 354.699 681.438 353.899 681.779 353.216C682.131 352.533 682.611 352.011 683.219 351.648C683.827 351.285 684.521 351.104 685.299 351.104ZM685.715 352.4C684.819 352.4 684.099 352.688 683.555 353.264C683.022 353.829 682.755 354.613 682.755 355.616C682.755 356.619 683.022 357.408 683.555 357.984C684.099 358.549 684.819 358.832 685.715 358.832C686.291 358.832 686.803 358.699 687.251 358.432C687.71 358.165 688.067 357.792 688.323 357.312C688.579 356.821 688.707 356.256 688.707 355.616C688.707 354.976 688.579 354.411 688.323 353.92C688.067 353.429 687.71 353.056 687.251 352.8C686.803 352.533 686.291 352.4 685.715 352.4ZM701.938 354.16C702.631 354.309 703.191 354.64 703.618 355.152C704.055 355.664 704.274 356.267 704.274 356.96C704.274 357.877 703.959 358.613 703.33 359.168C702.711 359.723 701.81 360 700.626 360H696.434V348.72H700.562C701.692 348.72 702.551 348.971 703.138 349.472C703.724 349.973 704.018 350.661 704.018 351.536C704.018 352.261 703.82 352.848 703.426 353.296C703.042 353.744 702.546 354.032 701.938 354.16ZM697.89 353.664H700.322C701.036 353.664 701.58 353.499 701.954 353.168C702.338 352.837 702.53 352.373 702.53 351.776C702.53 351.2 702.343 350.747 701.97 350.416C701.596 350.085 701.026 349.92 700.258 349.92H697.89V353.664ZM700.354 358.784C701.122 358.784 701.714 358.608 702.13 358.256C702.556 357.904 702.77 357.408 702.77 356.768C702.77 356.139 702.551 355.648 702.114 355.296C701.687 354.933 701.09 354.752 700.322 354.752H697.89V358.784H700.354ZM710.074 351.104C710.917 351.104 711.669 351.285 712.33 351.648C713.002 352.011 713.525 352.533 713.898 353.216C714.282 353.899 714.474 354.699 714.474 355.616C714.474 356.533 714.282 357.333 713.898 358.016C713.525 358.688 713.002 359.205 712.33 359.568C711.669 359.931 710.917 360.112 710.074 360.112C709.231 360.112 708.474 359.931 707.802 359.568C707.141 359.205 706.618 358.688 706.234 358.016C705.85 357.333 705.658 356.533 705.658 355.616C705.658 354.699 705.85 353.899 706.234 353.216C706.618 352.533 707.141 352.011 707.802 351.648C708.474 351.285 709.231 351.104 710.074 351.104ZM710.074 352.384C709.551 352.384 709.066 352.501 708.618 352.736C708.181 352.971 707.823 353.333 707.546 353.824C707.279 354.304 707.146 354.901 707.146 355.616C707.146 356.32 707.279 356.917 707.546 357.408C707.823 357.888 708.181 358.245 708.618 358.48C709.066 358.715 709.551 358.832 710.074 358.832C710.597 358.832 711.077 358.715 711.514 358.48C711.962 358.245 712.319 357.888 712.586 357.408C712.863 356.917 713.002 356.32 713.002 355.616C713.002 354.901 712.863 354.304 712.586 353.824C712.319 353.333 711.962 352.971 711.514 352.736C711.077 352.501 710.597 352.384 710.074 352.384ZM724.179 351.216V360H722.723V357.936C722.499 358.651 722.099 359.2 721.523 359.584C720.958 359.957 720.296 360.144 719.539 360.144C718.526 360.144 717.704 359.819 717.075 359.168C716.446 358.507 716.131 357.563 716.131 356.336V351.216H717.587V356.192C717.587 357.067 717.811 357.744 718.259 358.224C718.707 358.693 719.315 358.928 720.083 358.928C720.883 358.928 721.523 358.672 722.003 358.16C722.483 357.637 722.723 356.88 722.723 355.888V351.216H724.179ZM731.136 351.072C732.16 351.072 732.986 351.403 733.616 352.064C734.245 352.715 734.56 353.659 734.56 354.896V360H733.104V355.024C733.104 354.149 732.88 353.477 732.432 353.008C731.984 352.539 731.376 352.304 730.608 352.304C729.808 352.304 729.168 352.565 728.688 353.088C728.208 353.6 727.968 354.352 727.968 355.344V360H726.512V351.216H727.968V353.296C728.192 352.581 728.586 352.032 729.152 351.648C729.728 351.264 730.389 351.072 731.136 351.072ZM740.985 358.72V360H739.897C739.001 360 738.329 359.787 737.881 359.36C737.444 358.933 737.225 358.219 737.225 357.216V352.48H735.913V351.216H737.225V349.024H738.697V351.216H740.969V352.48H738.697V357.248C738.697 357.813 738.798 358.203 739.001 358.416C739.214 358.619 739.577 358.72 740.089 358.72H740.985ZM743.37 351.216L746.218 358.128L748.858 351.216H750.474L745.258 364.16H743.61L745.434 359.856L741.738 351.216H743.37Z" fill="white"/>
<circle cx="815" cy="258" r="6" fill="white"/>
<path d="M861.945 251.04V265H859.145V255.26L855.565 265H853.125L849.545 255.3V265H846.725V251.04H850.145L854.385 261.54L858.545 251.04H861.945ZM864.179 250.74C864.179 250.287 864.339 249.92 864.659 249.64C864.979 249.347 865.399 249.2 865.919 249.2C866.439 249.2 866.859 249.347 867.179 249.64C867.499 249.92 867.659 250.287 867.659 250.74C867.659 251.18 867.499 251.547 867.179 251.84C866.859 252.12 866.439 252.26 865.919 252.26C865.399 252.26 864.979 252.12 864.659 251.84C864.339 251.547 864.179 251.18 864.179 250.74ZM867.319 253.92V265H864.499V253.92H867.319ZM876.61 265L874.09 261.44L871.97 265H868.87L872.53 259.22L868.79 253.92H871.95L874.41 257.42L876.53 253.92H879.63L875.91 259.54L879.77 265H876.61ZM880.898 250.74C880.898 250.287 881.058 249.92 881.378 249.64C881.698 249.347 882.118 249.2 882.638 249.2C883.158 249.2 883.578 249.347 883.898 249.64C884.218 249.92 884.378 250.287 884.378 250.74C884.378 251.18 884.218 251.547 883.898 251.84C883.578 252.12 883.158 252.26 882.638 252.26C882.118 252.26 881.698 252.12 881.378 251.84C881.058 251.547 880.898 251.18 880.898 250.74ZM884.038 253.92V265H881.218V253.92H884.038ZM893.189 253.76C894.469 253.76 895.489 254.18 896.249 255.02C897.009 255.86 897.389 257.04 897.389 258.56V265H894.589V258.88C894.589 258 894.362 257.32 893.909 256.84C893.455 256.347 892.835 256.1 892.049 256.1C891.249 256.1 890.609 256.36 890.129 256.88C889.649 257.4 889.409 258.147 889.409 259.12V265H886.589V253.92H889.409V256.14C889.702 255.393 890.182 254.813 890.849 254.4C891.529 253.973 892.309 253.76 893.189 253.76ZM904.21 253.78C905.143 253.78 905.943 254 906.61 254.44C907.277 254.88 907.75 255.473 908.03 256.22V253.92H910.83V265.04C910.83 266.067 910.623 266.987 910.21 267.8C909.81 268.627 909.203 269.273 908.39 269.74C907.59 270.207 906.617 270.44 905.47 270.44C903.87 270.44 902.577 270.06 901.59 269.3C900.603 268.54 900.003 267.507 899.79 266.2H902.57C902.73 266.76 903.037 267.193 903.49 267.5C903.957 267.82 904.55 267.98 905.27 267.98C906.097 267.98 906.763 267.733 907.27 267.24C907.777 266.76 908.03 266.027 908.03 265.04V262.68C907.75 263.427 907.277 264.027 906.61 264.48C905.943 264.92 905.143 265.14 904.21 265.14C903.277 265.14 902.437 264.913 901.69 264.46C900.943 264.007 900.357 263.353 899.93 262.5C899.517 261.633 899.31 260.62 899.31 259.46C899.31 258.3 899.517 257.293 899.93 256.44C900.357 255.573 900.943 254.913 901.69 254.46C902.437 254.007 903.277 253.78 904.21 253.78ZM905.09 256.24C904.21 256.24 903.503 256.527 902.97 257.1C902.437 257.673 902.17 258.46 902.17 259.46C902.17 260.46 902.437 261.247 902.97 261.82C903.503 262.38 904.21 262.66 905.09 262.66C905.943 262.66 906.643 262.373 907.19 261.8C907.75 261.213 908.03 260.433 908.03 259.46C908.03 258.473 907.75 257.693 907.19 257.12C906.643 256.533 905.943 256.24 905.09 256.24ZM926.341 262.16H920.681L919.681 265H916.701L921.901 251.04H925.121L930.301 265H927.321L926.341 262.16ZM925.581 260.02L923.501 254.06L921.421 260.02H925.581ZM935.643 253.78C936.99 253.78 938.07 254.12 938.883 254.8C939.696 255.48 940.203 256.387 940.403 257.52H937.763C937.656 256.987 937.416 256.56 937.043 256.24C936.67 255.92 936.183 255.76 935.583 255.76C935.103 255.76 934.73 255.873 934.463 256.1C934.196 256.327 934.063 256.633 934.063 257.02C934.063 257.327 934.17 257.573 934.383 257.76C934.596 257.947 934.863 258.093 935.183 258.2C935.503 258.307 935.963 258.433 936.563 258.58C937.403 258.767 938.083 258.967 938.603 259.18C939.136 259.38 939.59 259.707 939.963 260.16C940.35 260.6 940.543 261.2 940.543 261.96C940.543 262.907 940.17 263.673 939.423 264.26C938.69 264.847 937.696 265.14 936.443 265.14C935.003 265.14 933.85 264.82 932.983 264.18C932.116 263.527 931.59 262.6 931.403 261.4H934.103C934.17 261.947 934.41 262.38 934.823 262.7C935.236 263.007 935.776 263.16 936.443 263.16C936.923 263.16 937.29 263.047 937.543 262.82C937.796 262.58 937.923 262.273 937.923 261.9C937.923 261.58 937.81 261.32 937.583 261.12C937.37 260.92 937.096 260.767 936.763 260.66C936.443 260.553 935.983 260.427 935.383 260.28C934.556 260.093 933.883 259.907 933.363 259.72C932.856 259.52 932.416 259.207 932.043 258.78C931.683 258.353 931.503 257.767 931.503 257.02C931.503 256.06 931.87 255.28 932.603 254.68C933.336 254.08 934.35 253.78 935.643 253.78ZM946.463 253.78C947.81 253.78 948.89 254.12 949.703 254.8C950.517 255.48 951.023 256.387 951.223 257.52H948.583C948.477 256.987 948.237 256.56 947.863 256.24C947.49 255.92 947.003 255.76 946.403 255.76C945.923 255.76 945.55 255.873 945.283 256.1C945.017 256.327 944.883 256.633 944.883 257.02C944.883 257.327 944.99 257.573 945.203 257.76C945.417 257.947 945.683 258.093 946.003 258.2C946.323 258.307 946.783 258.433 947.383 258.58C948.223 258.767 948.903 258.967 949.423 259.18C949.957 259.38 950.41 259.707 950.783 260.16C951.17 260.6 951.363 261.2 951.363 261.96C951.363 262.907 950.99 263.673 950.243 264.26C949.51 264.847 948.517 265.14 947.263 265.14C945.823 265.14 944.67 264.82 943.803 264.18C942.937 263.527 942.41 262.6 942.223 261.4H944.923C944.99 261.947 945.23 262.38 945.643 262.7C946.057 263.007 946.597 263.16 947.263 263.16C947.743 263.16 948.11 263.047 948.363 262.82C948.617 262.58 948.743 262.273 948.743 261.9C948.743 261.58 948.63 261.32 948.403 261.12C948.19 260.92 947.917 260.767 947.583 260.66C947.263 260.553 946.803 260.427 946.203 260.28C945.377 260.093 944.703 259.907 944.183 259.72C943.677 259.52 943.237 259.207 942.863 258.78C942.503 258.353 942.323 257.767 942.323 257.02C942.323 256.06 942.69 255.28 943.423 254.68C944.157 254.08 945.17 253.78 946.463 253.78ZM963.884 259.04C963.884 259.32 963.85 259.64 963.784 260H955.664C955.704 260.987 955.97 261.713 956.464 262.18C956.957 262.647 957.57 262.88 958.304 262.88C958.957 262.88 959.497 262.72 959.924 262.4C960.364 262.08 960.644 261.647 960.764 261.1H963.744C963.597 261.873 963.284 262.567 962.804 263.18C962.324 263.793 961.704 264.273 960.944 264.62C960.197 264.967 959.364 265.14 958.444 265.14C957.364 265.14 956.404 264.913 955.564 264.46C954.724 263.993 954.07 263.333 953.604 262.48C953.137 261.627 952.904 260.62 952.904 259.46C952.904 258.3 953.137 257.293 953.604 256.44C954.07 255.573 954.724 254.913 955.564 254.46C956.404 254.007 957.364 253.78 958.444 253.78C959.537 253.78 960.49 254.007 961.304 254.46C962.13 254.913 962.764 255.54 963.204 256.34C963.657 257.127 963.884 258.027 963.884 259.04ZM961.044 258.76C961.084 257.853 960.844 257.167 960.324 256.7C959.817 256.233 959.19 256 958.444 256C957.684 256 957.044 256.233 956.524 256.7C956.004 257.167 955.717 257.853 955.664 258.76H961.044ZM971.805 262.58V265H970.325C969.085 265 968.132 264.7 967.465 264.1C966.812 263.5 966.485 262.5 966.485 261.1V256.3H964.945V253.92H966.485V251.18H969.305V253.92H971.785V256.3H969.305V261.14C969.305 261.673 969.412 262.047 969.625 262.26C969.839 262.473 970.199 262.58 970.705 262.58H971.805Z" fill="white"/>
<circle cx="815" cy="306" r="6" fill="white"/>
<path d="M851.619 301.78C853.046 301.78 854.233 302.167 855.179 302.94C856.139 303.713 856.739 304.767 856.979 306.1H853.999C853.879 305.513 853.606 305.053 853.179 304.72C852.753 304.373 852.213 304.2 851.559 304.2C850.813 304.2 850.186 304.48 849.679 305.04C849.186 305.587 848.939 306.393 848.939 307.46C848.939 308.527 849.186 309.34 849.679 309.9C850.186 310.447 850.813 310.72 851.559 310.72C852.213 310.72 852.753 310.553 853.179 310.22C853.606 309.873 853.879 309.407 853.999 308.82H856.979C856.739 310.153 856.139 311.207 855.179 311.98C854.233 312.753 853.046 313.14 851.619 313.14C850.539 313.14 849.579 312.913 848.739 312.46C847.899 311.993 847.246 311.333 846.779 310.48C846.313 309.627 846.079 308.62 846.079 307.46C846.079 306.3 846.313 305.293 846.779 304.44C847.246 303.573 847.899 302.913 848.739 302.46C849.579 302.007 850.539 301.78 851.619 301.78ZM868.583 298.88V301.12H864.683V313H861.863V301.12H857.983V298.88H868.583ZM875.255 301.78C876.335 301.78 877.302 302.007 878.155 302.46C879.022 302.913 879.702 303.573 880.195 304.44C880.689 305.293 880.935 306.3 880.935 307.46C880.935 308.62 880.689 309.627 880.195 310.48C879.702 311.333 879.022 311.993 878.155 312.46C877.302 312.913 876.335 313.14 875.255 313.14C874.175 313.14 873.202 312.913 872.335 312.46C871.482 311.993 870.809 311.333 870.315 310.48C869.822 309.627 869.575 308.62 869.575 307.46C869.575 306.3 869.822 305.293 870.315 304.44C870.809 303.573 871.482 302.913 872.335 302.46C873.202 302.007 874.175 301.78 875.255 301.78ZM875.255 304.22C874.469 304.22 873.802 304.5 873.255 305.06C872.709 305.607 872.435 306.407 872.435 307.46C872.435 308.513 872.709 309.32 873.255 309.88C873.802 310.427 874.469 310.7 875.255 310.7C876.042 310.7 876.709 310.427 877.255 309.88C877.802 309.32 878.075 308.513 878.075 307.46C878.075 306.407 877.802 305.607 877.255 305.06C876.709 304.5 876.042 304.22 875.255 304.22ZM889.408 313L885.748 308.16V313H882.928V298.2H885.748V306.52L889.388 301.92H892.728L888.068 307.44L892.848 313H889.408ZM904.638 307.04C904.638 307.32 904.604 307.64 904.538 308H896.418C896.458 308.987 896.724 309.713 897.218 310.18C897.711 310.647 898.324 310.88 899.058 310.88C899.711 310.88 900.251 310.72 900.678 310.4C901.118 310.08 901.398 309.647 901.518 309.1H904.498C904.351 309.873 904.038 310.567 903.558 311.18C903.078 311.793 902.458 312.273 901.698 312.62C900.951 312.967 900.118 313.14 899.198 313.14C898.118 313.14 897.158 312.913 896.318 312.46C895.478 311.993 894.824 311.333 894.358 310.48C893.891 309.627 893.658 308.62 893.658 307.46C893.658 306.3 893.891 305.293 894.358 304.44C894.824 303.573 895.478 302.913 896.318 302.46C897.158 302.007 898.118 301.78 899.198 301.78C900.291 301.78 901.244 302.007 902.058 302.46C902.884 302.913 903.518 303.54 903.957 304.34C904.411 305.127 904.638 306.027 904.638 307.04ZM901.798 306.76C901.838 305.853 901.598 305.167 901.078 304.7C900.571 304.233 899.944 304 899.198 304C898.438 304 897.798 304.233 897.278 304.7C896.758 305.167 896.471 305.853 896.418 306.76H901.798ZM913.239 301.76C914.519 301.76 915.539 302.18 916.299 303.02C917.059 303.86 917.439 305.04 917.439 306.56V313H914.639V306.88C914.639 306 914.413 305.32 913.959 304.84C913.506 304.347 912.886 304.1 912.099 304.1C911.299 304.1 910.659 304.36 910.179 304.88C909.699 305.4 909.459 306.147 909.459 307.12V313H906.639V301.92H909.459V304.14C909.753 303.393 910.233 302.813 910.899 302.4C911.579 301.973 912.359 301.76 913.239 301.76Z" fill="white"/>
<circle cx="815" cy="354" r="6" fill="white"/>
<path d="M856.195 357.14C856.195 357.86 856.015 358.527 855.655 359.14C855.295 359.74 854.762 360.227 854.055 360.6C853.348 360.96 852.488 361.14 851.475 361.14C850.475 361.14 849.582 360.973 848.795 360.64C848.008 360.293 847.375 359.8 846.895 359.16C846.428 358.52 846.162 357.773 846.095 356.92H849.095C849.162 357.493 849.388 357.973 849.775 358.36C850.175 358.733 850.702 358.92 851.355 358.92C851.942 358.92 852.388 358.767 852.695 358.46C853.015 358.14 853.175 357.733 853.175 357.24C853.175 356.8 853.048 356.44 852.795 356.16C852.542 355.867 852.222 355.633 851.835 355.46C851.448 355.287 850.915 355.087 850.235 354.86C849.355 354.567 848.635 354.28 848.075 354C847.515 353.707 847.035 353.287 846.635 352.74C846.248 352.193 846.055 351.48 846.055 350.6C846.055 349.387 846.488 348.433 847.355 347.74C848.235 347.033 849.395 346.68 850.835 346.68C852.328 346.68 853.515 347.04 854.395 347.76C855.288 348.48 855.795 349.44 855.915 350.64H852.875C852.795 350.133 852.582 349.72 852.235 349.4C851.888 349.067 851.415 348.9 850.815 348.9C850.295 348.9 849.875 349.04 849.555 349.32C849.235 349.587 849.075 349.98 849.075 350.5C849.075 350.913 849.195 351.26 849.435 351.54C849.688 351.807 850.002 352.027 850.375 352.2C850.762 352.373 851.282 352.567 851.935 352.78C852.842 353.1 853.575 353.4 854.135 353.68C854.708 353.96 855.195 354.38 855.595 354.94C855.995 355.5 856.195 356.233 856.195 357.14ZM868.692 355.04C868.692 355.32 868.659 355.64 868.592 356H860.472C860.512 356.987 860.779 357.713 861.272 358.18C861.766 358.647 862.379 358.88 863.112 358.88C863.766 358.88 864.306 358.72 864.732 358.4C865.172 358.08 865.452 357.647 865.572 357.1H868.552C868.406 357.873 868.092 358.567 867.612 359.18C867.132 359.793 866.512 360.273 865.752 360.62C865.006 360.967 864.172 361.14 863.252 361.14C862.172 361.14 861.212 360.913 860.372 360.46C859.532 359.993 858.879 359.333 858.412 358.48C857.946 357.627 857.712 356.62 857.712 355.46C857.712 354.3 857.946 353.293 858.412 352.44C858.879 351.573 859.532 350.913 860.372 350.46C861.212 350.007 862.172 349.78 863.252 349.78C864.346 349.78 865.299 350.007 866.112 350.46C866.939 350.913 867.572 351.54 868.012 352.34C868.466 353.127 868.692 354.027 868.692 355.04ZM865.852 354.76C865.892 353.853 865.652 353.167 865.132 352.7C864.626 352.233 863.999 352 863.252 352C862.492 352 861.852 352.233 861.332 352.7C860.812 353.167 860.526 353.853 860.472 354.76H865.852ZM881.114 355.04C881.114 355.32 881.081 355.64 881.014 356H872.894C872.934 356.987 873.201 357.713 873.694 358.18C874.187 358.647 874.801 358.88 875.534 358.88C876.187 358.88 876.727 358.72 877.154 358.4C877.594 358.08 877.874 357.647 877.994 357.1H880.974C880.827 357.873 880.514 358.567 880.034 359.18C879.554 359.793 878.934 360.273 878.174 360.62C877.427 360.967 876.594 361.14 875.674 361.14C874.594 361.14 873.634 360.913 872.794 360.46C871.954 359.993 871.301 359.333 870.834 358.48C870.367 357.627 870.134 356.62 870.134 355.46C870.134 354.3 870.367 353.293 870.834 352.44C871.301 351.573 871.954 350.913 872.794 350.46C873.634 350.007 874.594 349.78 875.674 349.78C876.767 349.78 877.721 350.007 878.534 350.46C879.361 350.913 879.994 351.54 880.434 352.34C880.887 353.127 881.114 354.027 881.114 355.04ZM878.274 354.76C878.314 353.853 878.074 353.167 877.554 352.7C877.047 352.233 876.421 352 875.674 352C874.914 352 874.274 352.233 873.754 352.7C873.234 353.167 872.947 353.853 872.894 354.76H878.274ZM887.456 349.78C888.389 349.78 889.183 350 889.836 350.44C890.503 350.88 890.983 351.473 891.276 352.22V346.2H894.076V361H891.276V358.68C890.983 359.427 890.503 360.027 889.836 360.48C889.183 360.92 888.389 361.14 887.456 361.14C886.523 361.14 885.683 360.913 884.936 360.46C884.189 360.007 883.603 359.353 883.176 358.5C882.763 357.633 882.556 356.62 882.556 355.46C882.556 354.3 882.763 353.293 883.176 352.44C883.603 351.573 884.189 350.913 884.936 350.46C885.683 350.007 886.523 349.78 887.456 349.78ZM888.336 352.24C887.456 352.24 886.749 352.527 886.216 353.1C885.683 353.673 885.416 354.46 885.416 355.46C885.416 356.46 885.683 357.247 886.216 357.82C886.749 358.38 887.456 358.66 888.336 358.66C889.189 358.66 889.889 358.373 890.436 357.8C890.996 357.213 891.276 356.433 891.276 355.46C891.276 354.473 890.996 353.693 890.436 353.12C889.889 352.533 889.189 352.24 888.336 352.24ZM908.347 361L905.047 355.5H903.807V361H900.987V346.88H906.367C908.007 346.88 909.254 347.28 910.107 348.08C910.974 348.88 911.407 349.933 911.407 351.24C911.407 352.307 911.107 353.2 910.507 353.92C909.92 354.64 909.067 355.12 907.947 355.36L911.467 361H908.347ZM903.807 353.56H906.127C907.74 353.56 908.547 352.847 908.547 351.42C908.547 350.74 908.347 350.213 907.947 349.84C907.56 349.453 906.954 349.26 906.127 349.26H903.807V353.56ZM918.431 349.78C919.511 349.78 920.478 350.007 921.331 350.46C922.198 350.913 922.878 351.573 923.371 352.44C923.865 353.293 924.111 354.3 924.111 355.46C924.111 356.62 923.865 357.627 923.371 358.48C922.878 359.333 922.198 359.993 921.331 360.46C920.478 360.913 919.511 361.14 918.431 361.14C917.351 361.14 916.378 360.913 915.511 360.46C914.658 359.993 913.985 359.333 913.491 358.48C912.998 357.627 912.751 356.62 912.751 355.46C912.751 354.3 912.998 353.293 913.491 352.44C913.985 351.573 914.658 350.913 915.511 350.46C916.378 350.007 917.351 349.78 918.431 349.78ZM918.431 352.22C917.645 352.22 916.978 352.5 916.431 353.06C915.885 353.607 915.611 354.407 915.611 355.46C915.611 356.513 915.885 357.32 916.431 357.88C916.978 358.427 917.645 358.7 918.431 358.7C919.218 358.7 919.885 358.427 920.431 357.88C920.978 357.32 921.251 356.513 921.251 355.46C921.251 354.407 920.978 353.607 920.431 353.06C919.885 352.5 919.218 352.22 918.431 352.22ZM936.704 349.92V361H933.884V358.76C933.591 359.507 933.104 360.093 932.424 360.52C931.758 360.933 930.984 361.14 930.104 361.14C928.824 361.14 927.804 360.72 927.044 359.88C926.284 359.04 925.904 357.867 925.904 356.36V349.92H928.704V356.04C928.704 356.92 928.931 357.607 929.384 358.1C929.838 358.58 930.451 358.82 931.224 358.82C932.038 358.82 932.684 358.56 933.164 358.04C933.644 357.52 933.884 356.773 933.884 355.8V349.92H936.704ZM945.868 349.76C947.148 349.76 948.168 350.18 948.928 351.02C949.688 351.86 950.068 353.04 950.068 354.56V361H947.268V354.88C947.268 354 947.042 353.32 946.588 352.84C946.135 352.347 945.515 352.1 944.728 352.1C943.928 352.1 943.288 352.36 942.808 352.88C942.328 353.4 942.088 354.147 942.088 355.12V361H939.268V349.92H942.088V352.14C942.382 351.393 942.862 350.813 943.528 350.4C944.208 349.973 944.988 349.76 945.868 349.76ZM956.89 349.78C957.823 349.78 958.616 350 959.27 350.44C959.936 350.88 960.416 351.473 960.71 352.22V346.2H963.51V361H960.71V358.68C960.416 359.427 959.936 360.027 959.27 360.48C958.616 360.92 957.823 361.14 956.89 361.14C955.956 361.14 955.116 360.913 954.37 360.46C953.623 360.007 953.036 359.353 952.61 358.5C952.196 357.633 951.99 356.62 951.99 355.46C951.99 354.3 952.196 353.293 952.61 352.44C953.036 351.573 953.623 350.913 954.37 350.46C955.116 350.007 955.956 349.78 956.89 349.78ZM957.77 352.24C956.89 352.24 956.183 352.527 955.65 353.1C955.116 353.673 954.85 354.46 954.85 355.46C954.85 356.46 955.116 357.247 955.65 357.82C956.183 358.38 956.89 358.66 957.77 358.66C958.623 358.66 959.323 358.373 959.87 357.8C960.43 357.213 960.71 356.433 960.71 355.46C960.71 354.473 960.43 353.693 959.87 353.12C959.323 352.533 958.623 352.24 957.77 352.24Z" fill="white"/>
<circle cx="82" cy="306" r="6" fill="white"/>
<path d="M116.213 307.76V313H113.393V298.88H118.533C120.2 298.88 121.453 299.28 122.293 300.08C123.147 300.88 123.573 301.967 123.573 303.34C123.573 304.687 123.133 305.76 122.253 306.56C121.387 307.36 120.147 307.76 118.533 307.76H116.213ZM118.233 305.5C119.887 305.5 120.713 304.78 120.713 303.34C120.713 302.633 120.52 302.093 120.133 301.72C119.747 301.347 119.113 301.16 118.233 301.16H116.213V305.5H118.233ZM128.225 304.04C128.638 303.333 129.185 302.78 129.865 302.38C130.545 301.967 131.305 301.76 132.145 301.76V304.78H131.325C129.258 304.78 128.225 305.74 128.225 307.66V313H125.405V301.92H128.225V304.04ZM144.126 307.04C144.126 307.32 144.092 307.64 144.026 308H135.906C135.946 308.987 136.212 309.713 136.706 310.18C137.199 310.647 137.812 310.88 138.546 310.88C139.199 310.88 139.739 310.72 140.166 310.4C140.606 310.08 140.886 309.647 141.006 309.1H143.986C143.839 309.873 143.526 310.567 143.046 311.18C142.566 311.793 141.946 312.273 141.186 312.62C140.439 312.967 139.606 313.14 138.686 313.14C137.606 313.14 136.646 312.913 135.806 312.46C134.966 311.993 134.312 311.333 133.846 310.48C133.379 309.627 133.146 308.62 133.146 307.46C133.146 306.3 133.379 305.293 133.846 304.44C134.312 303.573 134.966 302.913 135.806 302.46C136.646 302.007 137.606 301.78 138.686 301.78C139.779 301.78 140.732 302.007 141.546 302.46C142.372 302.913 143.006 303.54 143.446 304.34C143.899 305.127 144.126 306.027 144.126 307.04ZM141.286 306.76C141.326 305.853 141.086 305.167 140.566 304.7C140.059 304.233 139.432 304 138.686 304C137.926 304 137.286 304.233 136.766 304.7C136.246 305.167 135.959 305.853 135.906 306.76H141.286ZM153.308 304.7V307.04H144.808V304.7H153.308ZM166.296 309.14C166.296 309.86 166.116 310.527 165.756 311.14C165.396 311.74 164.863 312.227 164.156 312.6C163.45 312.96 162.59 313.14 161.576 313.14C160.576 313.14 159.683 312.973 158.896 312.64C158.11 312.293 157.476 311.8 156.996 311.16C156.53 310.52 156.263 309.773 156.196 308.92H159.196C159.263 309.493 159.49 309.973 159.876 310.36C160.276 310.733 160.803 310.92 161.456 310.92C162.043 310.92 162.49 310.767 162.796 310.46C163.116 310.14 163.276 309.733 163.276 309.24C163.276 308.8 163.15 308.44 162.896 308.16C162.643 307.867 162.323 307.633 161.936 307.46C161.55 307.287 161.016 307.087 160.336 306.86C159.456 306.567 158.736 306.28 158.176 306C157.616 305.707 157.136 305.287 156.736 304.74C156.35 304.193 156.156 303.48 156.156 302.6C156.156 301.387 156.59 300.433 157.456 299.74C158.336 299.033 159.496 298.68 160.936 298.68C162.43 298.68 163.616 299.04 164.496 299.76C165.39 300.48 165.896 301.44 166.016 302.64H162.976C162.896 302.133 162.683 301.72 162.336 301.4C161.99 301.067 161.516 300.9 160.916 300.9C160.396 300.9 159.976 301.04 159.656 301.32C159.336 301.587 159.176 301.98 159.176 302.5C159.176 302.913 159.296 303.26 159.536 303.54C159.79 303.807 160.103 304.027 160.476 304.2C160.863 304.373 161.383 304.567 162.036 304.78C162.943 305.1 163.676 305.4 164.236 305.68C164.81 305.96 165.296 306.38 165.696 306.94C166.096 307.5 166.296 308.233 166.296 309.14ZM178.794 307.04C178.794 307.32 178.76 307.64 178.694 308H170.574C170.614 308.987 170.88 309.713 171.374 310.18C171.867 310.647 172.48 310.88 173.214 310.88C173.867 310.88 174.407 310.72 174.834 310.4C175.274 310.08 175.554 309.647 175.674 309.1H178.654C178.507 309.873 178.194 310.567 177.714 311.18C177.234 311.793 176.614 312.273 175.854 312.62C175.107 312.967 174.274 313.14 173.354 313.14C172.274 313.14 171.314 312.913 170.474 312.46C169.634 311.993 168.98 311.333 168.514 310.48C168.047 309.627 167.814 308.62 167.814 307.46C167.814 306.3 168.047 305.293 168.514 304.44C168.98 303.573 169.634 302.913 170.474 302.46C171.314 302.007 172.274 301.78 173.354 301.78C174.447 301.78 175.4 302.007 176.214 302.46C177.04 302.913 177.674 303.54 178.114 304.34C178.567 305.127 178.794 306.027 178.794 307.04ZM175.954 306.76C175.994 305.853 175.754 305.167 175.234 304.7C174.727 304.233 174.1 304 173.354 304C172.594 304 171.954 304.233 171.434 304.7C170.914 305.167 170.627 305.853 170.574 306.76H175.954ZM191.216 307.04C191.216 307.32 191.182 307.64 191.116 308H182.996C183.036 308.987 183.302 309.713 183.796 310.18C184.289 310.647 184.902 310.88 185.636 310.88C186.289 310.88 186.829 310.72 187.256 310.4C187.696 310.08 187.976 309.647 188.096 309.1H191.076C190.929 309.873 190.616 310.567 190.136 311.18C189.656 311.793 189.036 312.273 188.276 312.62C187.529 312.967 186.696 313.14 185.776 313.14C184.696 313.14 183.736 312.913 182.896 312.46C182.056 311.993 181.402 311.333 180.936 310.48C180.469 309.627 180.236 308.62 180.236 307.46C180.236 306.3 180.469 305.293 180.936 304.44C181.402 303.573 182.056 302.913 182.896 302.46C183.736 302.007 184.696 301.78 185.776 301.78C186.869 301.78 187.822 302.007 188.636 302.46C189.462 302.913 190.096 303.54 190.536 304.34C190.989 305.127 191.216 306.027 191.216 307.04ZM188.376 306.76C188.416 305.853 188.176 305.167 187.656 304.7C187.149 304.233 186.522 304 185.776 304C185.016 304 184.376 304.233 183.856 304.7C183.336 305.167 183.049 305.853 182.996 306.76H188.376ZM197.558 301.78C198.491 301.78 199.284 302 199.938 302.44C200.604 302.88 201.084 303.473 201.378 304.22V298.2H204.178V313H201.378V310.68C201.084 311.427 200.604 312.027 199.938 312.48C199.284 312.92 198.491 313.14 197.558 313.14C196.624 313.14 195.784 312.913 195.038 312.46C194.291 312.007 193.704 311.353 193.278 310.5C192.864 309.633 192.658 308.62 192.658 307.46C192.658 306.3 192.864 305.293 193.278 304.44C193.704 303.573 194.291 302.913 195.038 302.46C195.784 302.007 196.624 301.78 197.558 301.78ZM198.438 304.24C197.558 304.24 196.851 304.527 196.318 305.1C195.784 305.673 195.518 306.46 195.518 307.46C195.518 308.46 195.784 309.247 196.318 309.82C196.851 310.38 197.558 310.66 198.438 310.66C199.291 310.66 199.991 310.373 200.538 309.8C201.098 309.213 201.378 308.433 201.378 307.46C201.378 306.473 201.098 305.693 200.538 305.12C199.991 304.533 199.291 304.24 198.438 304.24ZM218.449 313L215.149 307.5H213.909V313H211.089V298.88H216.469C218.109 298.88 219.355 299.28 220.209 300.08C221.075 300.88 221.509 301.933 221.509 303.24C221.509 304.307 221.209 305.2 220.609 305.92C220.022 306.64 219.169 307.12 218.049 307.36L221.569 313H218.449ZM213.909 305.56H216.229C217.842 305.56 218.649 304.847 218.649 303.42C218.649 302.74 218.449 302.213 218.049 301.84C217.662 301.453 217.055 301.26 216.229 301.26H213.909V305.56ZM228.533 301.78C229.613 301.78 230.579 302.007 231.433 302.46C232.299 302.913 232.979 303.573 233.473 304.44C233.966 305.293 234.213 306.3 234.213 307.46C234.213 308.62 233.966 309.627 233.473 310.48C232.979 311.333 232.299 311.993 231.433 312.46C230.579 312.913 229.613 313.14 228.533 313.14C227.453 313.14 226.479 312.913 225.613 312.46C224.759 311.993 224.086 311.333 223.593 310.48C223.099 309.627 222.853 308.62 222.853 307.46C222.853 306.3 223.099 305.293 223.593 304.44C224.086 303.573 224.759 302.913 225.613 302.46C226.479 302.007 227.453 301.78 228.533 301.78ZM228.533 304.22C227.746 304.22 227.079 304.5 226.533 305.06C225.986 305.607 225.713 306.407 225.713 307.46C225.713 308.513 225.986 309.32 226.533 309.88C227.079 310.427 227.746 310.7 228.533 310.7C229.319 310.7 229.986 310.427 230.533 309.88C231.079 309.32 231.353 308.513 231.353 307.46C231.353 306.407 231.079 305.607 230.533 305.06C229.986 304.5 229.319 304.22 228.533 304.22ZM246.806 301.92V313H243.986V310.76C243.692 311.507 243.206 312.093 242.526 312.52C241.859 312.933 241.086 313.14 240.206 313.14C238.926 313.14 237.906 312.72 237.146 311.88C236.386 311.04 236.006 309.867 236.006 308.36V301.92H238.806V308.04C238.806 308.92 239.032 309.607 239.486 310.1C239.939 310.58 240.552 310.82 241.326 310.82C242.139 310.82 242.786 310.56 243.266 310.04C243.746 309.52 243.986 308.773 243.986 307.8V301.92H246.806ZM255.97 301.76C257.25 301.76 258.27 302.18 259.03 303.02C259.79 303.86 260.17 305.04 260.17 306.56V313H257.37V306.88C257.37 306 257.143 305.32 256.69 304.84C256.237 304.347 255.617 304.1 254.83 304.1C254.03 304.1 253.39 304.36 252.91 304.88C252.43 305.4 252.19 306.147 252.19 307.12V313H249.37V301.92H252.19V304.14C252.483 303.393 252.963 302.813 253.63 302.4C254.31 301.973 255.09 301.76 255.97 301.76ZM266.991 301.78C267.924 301.78 268.718 302 269.371 302.44C270.038 302.88 270.518 303.473 270.811 304.22V298.2H273.611V313H270.811V310.68C270.518 311.427 270.038 312.027 269.371 312.48C268.718 312.92 267.924 313.14 266.991 313.14C266.058 313.14 265.218 312.913 264.471 312.46C263.724 312.007 263.138 311.353 262.711 310.5C262.298 309.633 262.091 308.62 262.091 307.46C262.091 306.3 262.298 305.293 262.711 304.44C263.138 303.573 263.724 302.913 264.471 302.46C265.218 302.007 266.058 301.78 266.991 301.78ZM267.871 304.24C266.991 304.24 266.284 304.527 265.751 305.1C265.218 305.673 264.951 306.46 264.951 307.46C264.951 308.46 265.218 309.247 265.751 309.82C266.284 310.38 266.991 310.66 267.871 310.66C268.724 310.66 269.424 310.373 269.971 309.8C270.531 309.213 270.811 308.433 270.811 307.46C270.811 306.473 270.531 305.693 269.971 305.12C269.424 304.533 268.724 304.24 267.871 304.24Z" fill="white"/>
<line x1="64" y1="197.5" x2="1136" y2="197.5" stroke="white" stroke-width="5" stroke-dasharray="12 12"/>
<path d="M408.667 197.5C408.667 204.864 414.636 210.833 422 210.833C429.364 210.833 435.333 204.864 435.333 197.5C435.333 190.136 429.364 184.167 422 184.167C414.636 184.167 408.667 190.136 408.667 197.5ZM64 200H422V195H64V200Z" fill="#9CD0DD"/>
<circle cx="796.5" cy="197.5" r="13.5" fill="white"/>
<path d="M80.92 168.72L78.16 164.97C77.36 165.13 76.59 165.21 75.85 165.21C73.87 165.21 72.06 164.75 70.42 163.83C68.8 162.89 67.51 161.59 66.55 159.93C65.61 158.27 65.14 156.4 65.14 154.32C65.14 152.24 65.61 150.38 66.55 148.74C67.51 147.08 68.8 145.79 70.42 144.87C72.06 143.93 73.87 143.46 75.85 143.46C77.85 143.46 79.66 143.93 81.28 144.87C82.92 145.79 84.21 147.08 85.15 148.74C86.09 150.38 86.56 152.24 86.56 154.32C86.56 156.16 86.18 157.84 85.42 159.36C84.68 160.88 83.65 162.13 82.33 163.11L87.07 168.72H80.92ZM70.36 154.32C70.36 156.18 70.85 157.66 71.83 158.76C72.83 159.86 74.17 160.41 75.85 160.41C77.51 160.41 78.84 159.86 79.84 158.76C80.84 157.66 81.34 156.18 81.34 154.32C81.34 152.46 80.84 150.98 79.84 149.88C78.86 148.78 77.53 148.23 75.85 148.23C74.17 148.23 72.83 148.78 71.83 149.88C70.85 150.96 70.36 152.44 70.36 154.32ZM88.0019 148.59V143.79H96.5819V165H91.1819V148.59H88.0019ZM105.391 160.92C111.751 156.38 114.931 152.77 114.931 150.09C114.931 148.45 114.221 147.63 112.801 147.63C112.001 147.63 111.411 147.91 111.031 148.47C110.671 149.03 110.471 149.9 110.431 151.08H105.421C105.541 148.5 106.321 146.56 107.761 145.26C109.201 143.96 111.021 143.31 113.221 143.31C115.521 143.31 117.251 143.89 118.411 145.05C119.591 146.21 120.181 147.72 120.181 149.58C120.181 151.64 119.391 153.66 117.811 155.64C116.231 157.6 114.341 159.26 112.141 160.62H120.511V164.76H105.391V160.92ZM122.623 154.17C122.623 157.49 123.293 160.12 124.633 162.06C125.973 164 128.113 164.97 131.053 164.97C133.973 164.97 136.103 164 137.443 162.06C138.803 160.12 139.483 157.49 139.483 154.17C139.483 150.87 138.803 148.26 137.443 146.34C136.103 144.4 133.973 143.43 131.053 143.43C128.113 143.43 125.973 144.4 124.633 146.34C123.293 148.26 122.623 150.87 122.623 154.17ZM134.383 154.17C134.383 156.07 134.153 157.54 133.693 158.58C133.253 159.6 132.373 160.11 131.053 160.11C129.713 160.11 128.813 159.6 128.353 158.58C127.893 157.54 127.663 156.07 127.663 154.17C127.663 152.29 127.893 150.84 128.353 149.82C128.813 148.8 129.713 148.29 131.053 148.29C132.373 148.29 133.253 148.8 133.693 149.82C134.153 150.82 134.383 152.27 134.383 154.17ZM141.69 160.92C148.05 156.38 151.23 152.77 151.23 150.09C151.23 148.45 150.52 147.63 149.1 147.63C148.3 147.63 147.71 147.91 147.33 148.47C146.97 149.03 146.77 149.9 146.73 151.08H141.72C141.84 148.5 142.62 146.56 144.06 145.26C145.5 143.96 147.32 143.31 149.52 143.31C151.82 143.31 153.55 143.89 154.71 145.05C155.89 146.21 156.48 147.72 156.48 149.58C156.48 151.64 155.69 153.66 154.11 155.64C152.53 157.6 150.64 159.26 148.44 160.62H156.81V164.76H141.69V160.92ZM166.722 142.86C168.202 142.86 169.472 143.12 170.532 143.64C171.592 144.14 172.392 144.84 172.932 145.74C173.492 146.62 173.772 147.62 173.772 148.74C173.772 150.12 173.412 151.23 172.692 152.07C171.992 152.91 171.112 153.44 170.052 153.66V153.81C172.792 154.69 174.162 156.4 174.162 158.94C174.162 160.16 173.882 161.25 173.322 162.21C172.762 163.15 171.942 163.89 170.862 164.43C169.802 164.95 168.522 165.21 167.022 165.21C164.582 165.21 162.642 164.61 161.202 163.41C159.782 162.21 159.012 160.38 158.892 157.92H163.902C163.942 158.86 164.202 159.6 164.682 160.14C165.162 160.68 165.862 160.95 166.782 160.95C167.522 160.95 168.102 160.73 168.522 160.29C168.962 159.85 169.182 159.28 169.182 158.58C169.182 156.84 167.922 155.97 165.402 155.97H164.442V151.8H165.372C167.632 151.84 168.762 151.03 168.762 149.37C168.762 148.65 168.562 148.1 168.162 147.72C167.782 147.32 167.262 147.12 166.602 147.12C165.882 147.12 165.312 147.37 164.892 147.87C164.472 148.35 164.232 149 164.172 149.82H159.162C159.262 147.58 159.962 145.86 161.262 144.66C162.562 143.46 164.382 142.86 166.722 142.86Z" fill="white"/>
<path d="M438.92 168.72L436.16 164.97C435.36 165.13 434.59 165.21 433.85 165.21C431.87 165.21 430.06 164.75 428.42 163.83C426.8 162.89 425.51 161.59 424.55 159.93C423.61 158.27 423.14 156.4 423.14 154.32C423.14 152.24 423.61 150.38 424.55 148.74C425.51 147.08 426.8 145.79 428.42 144.87C430.06 143.93 431.87 143.46 433.85 143.46C435.85 143.46 437.66 143.93 439.28 144.87C440.92 145.79 442.21 147.08 443.15 148.74C444.09 150.38 444.56 152.24 444.56 154.32C444.56 156.16 444.18 157.84 443.42 159.36C442.68 160.88 441.65 162.13 440.33 163.11L445.07 168.72H438.92ZM428.36 154.32C428.36 156.18 428.85 157.66 429.83 158.76C430.83 159.86 432.17 160.41 433.85 160.41C435.51 160.41 436.84 159.86 437.84 158.76C438.84 157.66 439.34 156.18 439.34 154.32C439.34 152.46 438.84 150.98 437.84 149.88C436.86 148.78 435.53 148.23 433.85 148.23C432.17 148.23 430.83 148.78 429.83 149.88C428.85 150.96 428.36 152.44 428.36 154.32ZM446.692 160.92C453.052 156.38 456.232 152.77 456.232 150.09C456.232 148.45 455.522 147.63 454.102 147.63C453.302 147.63 452.712 147.91 452.332 148.47C451.972 149.03 451.772 149.9 451.732 151.08H446.722C446.842 148.5 447.622 146.56 449.062 145.26C450.502 143.96 452.322 143.31 454.522 143.31C456.822 143.31 458.552 143.89 459.712 145.05C460.892 146.21 461.482 147.72 461.482 149.58C461.482 151.64 460.692 153.66 459.112 155.64C457.532 157.6 455.642 159.26 453.442 160.62H461.812V164.76H446.692V160.92ZM469.69 160.92C476.05 156.38 479.23 152.77 479.23 150.09C479.23 148.45 478.52 147.63 477.1 147.63C476.3 147.63 475.71 147.91 475.33 148.47C474.97 149.03 474.77 149.9 474.73 151.08H469.72C469.84 148.5 470.62 146.56 472.06 145.26C473.5 143.96 475.32 143.31 477.52 143.31C479.82 143.31 481.55 143.89 482.71 145.05C483.89 146.21 484.48 147.72 484.48 149.58C484.48 151.64 483.69 153.66 482.11 155.64C480.53 157.6 478.64 159.26 476.44 160.62H484.81V164.76H469.69V160.92ZM486.922 154.17C486.922 157.49 487.592 160.12 488.932 162.06C490.272 164 492.412 164.97 495.352 164.97C498.272 164.97 500.402 164 501.742 162.06C503.102 160.12 503.782 157.49 503.782 154.17C503.782 150.87 503.102 148.26 501.742 146.34C500.402 144.4 498.272 143.43 495.352 143.43C492.412 143.43 490.272 144.4 488.932 146.34C487.592 148.26 486.922 150.87 486.922 154.17ZM498.682 154.17C498.682 156.07 498.452 157.54 497.992 158.58C497.552 159.6 496.672 160.11 495.352 160.11C494.012 160.11 493.112 159.6 492.652 158.58C492.192 157.54 491.962 156.07 491.962 154.17C491.962 152.29 492.192 150.84 492.652 149.82C493.112 148.8 494.012 148.29 495.352 148.29C496.672 148.29 497.552 148.8 497.992 149.82C498.452 150.82 498.682 152.27 498.682 154.17ZM505.989 160.92C512.349 156.38 515.529 152.77 515.529 150.09C515.529 148.45 514.819 147.63 513.399 147.63C512.599 147.63 512.009 147.91 511.629 148.47C511.269 149.03 511.069 149.9 511.029 151.08H506.019C506.139 148.5 506.919 146.56 508.359 145.26C509.799 143.96 511.619 143.31 513.819 143.31C516.119 143.31 517.849 143.89 519.009 145.05C520.189 146.21 520.779 147.72 520.779 149.58C520.779 151.64 519.989 153.66 518.409 155.64C516.829 157.6 514.939 159.26 512.739 160.62H521.109V164.76H505.989V160.92ZM531.021 142.86C532.501 142.86 533.771 143.12 534.831 143.64C535.891 144.14 536.691 144.84 537.231 145.74C537.791 146.62 538.071 147.62 538.071 148.74C538.071 150.12 537.711 151.23 536.991 152.07C536.291 152.91 535.411 153.44 534.351 153.66V153.81C537.091 154.69 538.461 156.4 538.461 158.94C538.461 160.16 538.181 161.25 537.621 162.21C537.061 163.15 536.241 163.89 535.161 164.43C534.101 164.95 532.821 165.21 531.321 165.21C528.881 165.21 526.941 164.61 525.501 163.41C524.081 162.21 523.311 160.38 523.191 157.92H528.201C528.241 158.86 528.501 159.6 528.981 160.14C529.461 160.68 530.161 160.95 531.081 160.95C531.821 160.95 532.401 160.73 532.821 160.29C533.261 159.85 533.481 159.28 533.481 158.58C533.481 156.84 532.221 155.97 529.701 155.97H528.741V151.8H529.671C531.931 151.84 533.061 151.03 533.061 149.37C533.061 148.65 532.861 148.1 532.461 147.72C532.081 147.32 531.561 147.12 530.901 147.12C530.181 147.12 529.611 147.37 529.191 147.87C528.771 148.35 528.531 149 528.471 149.82H523.461C523.561 147.58 524.261 145.86 525.561 144.66C526.861 143.46 528.681 142.86 531.021 142.86Z" fill="white"/>
<path d="M813.92 168.72L811.16 164.97C810.36 165.13 809.59 165.21 808.85 165.21C806.87 165.21 805.06 164.75 803.42 163.83C801.8 162.89 800.51 161.59 799.55 159.93C798.61 158.27 798.14 156.4 798.14 154.32C798.14 152.24 798.61 150.38 799.55 148.74C800.51 147.08 801.8 145.79 803.42 144.87C805.06 143.93 806.87 143.46 808.85 143.46C810.85 143.46 812.66 143.93 814.28 144.87C815.92 145.79 817.21 147.08 818.15 148.74C819.09 150.38 819.56 152.24 819.56 154.32C819.56 156.16 819.18 157.84 818.42 159.36C817.68 160.88 816.65 162.13 815.33 163.11L820.07 168.72H813.92ZM803.36 154.32C803.36 156.18 803.85 157.66 804.83 158.76C805.83 159.86 807.17 160.41 808.85 160.41C810.51 160.41 811.84 159.86 812.84 158.76C813.84 157.66 814.34 156.18 814.34 154.32C814.34 152.46 813.84 150.98 812.84 149.88C811.86 148.78 810.53 148.23 808.85 148.23C807.17 148.23 805.83 148.78 804.83 149.88C803.85 150.96 803.36 152.44 803.36 154.32ZM829.732 142.86C831.212 142.86 832.482 143.12 833.542 143.64C834.602 144.14 835.402 144.84 835.942 145.74C836.502 146.62 836.782 147.62 836.782 148.74C836.782 150.12 836.422 151.23 835.702 152.07C835.002 152.91 834.122 153.44 833.062 153.66V153.81C835.802 154.69 837.172 156.4 837.172 158.94C837.172 160.16 836.892 161.25 836.332 162.21C835.772 163.15 834.952 163.89 833.872 164.43C832.812 164.95 831.532 165.21 830.032 165.21C827.592 165.21 825.652 164.61 824.212 163.41C822.792 162.21 822.022 160.38 821.902 157.92H826.912C826.952 158.86 827.212 159.6 827.692 160.14C828.172 160.68 828.872 160.95 829.792 160.95C830.532 160.95 831.112 160.73 831.532 160.29C831.972 159.85 832.192 159.28 832.192 158.58C832.192 156.84 830.932 155.97 828.412 155.97H827.452V151.8H828.382C830.642 151.84 831.772 151.03 831.772 149.37C831.772 148.65 831.572 148.1 831.172 147.72C830.792 147.32 830.272 147.12 829.612 147.12C828.892 147.12 828.322 147.37 827.902 147.87C827.482 148.35 827.242 149 827.182 149.82H822.172C822.272 147.58 822.972 145.86 824.272 144.66C825.572 143.46 827.392 142.86 829.732 142.86ZM845.862 160.92C852.222 156.38 855.402 152.77 855.402 150.09C855.402 148.45 854.692 147.63 853.272 147.63C852.472 147.63 851.882 147.91 851.502 148.47C851.142 149.03 850.942 149.9 850.902 151.08H845.892C846.012 148.5 846.792 146.56 848.232 145.26C849.672 143.96 851.492 143.31 853.692 143.31C855.992 143.31 857.722 143.89 858.882 145.05C860.062 146.21 860.652 147.72 860.652 149.58C860.652 151.64 859.862 153.66 858.282 155.64C856.702 157.6 854.812 159.26 852.612 160.62H860.982V164.76H845.862V160.92ZM863.094 154.17C863.094 157.49 863.764 160.12 865.104 162.06C866.444 164 868.584 164.97 871.524 164.97C874.444 164.97 876.574 164 877.914 162.06C879.274 160.12 879.954 157.49 879.954 154.17C879.954 150.87 879.274 148.26 877.914 146.34C876.574 144.4 874.444 143.43 871.524 143.43C868.584 143.43 866.444 144.4 865.104 146.34C863.764 148.26 863.094 150.87 863.094 154.17ZM874.854 154.17C874.854 156.07 874.624 157.54 874.164 158.58C873.724 159.6 872.844 160.11 871.524 160.11C870.184 160.11 869.284 159.6 868.824 158.58C868.364 157.54 868.134 156.07 868.134 154.17C868.134 152.29 868.364 150.84 868.824 149.82C869.284 148.8 870.184 148.29 871.524 148.29C872.844 148.29 873.724 148.8 874.164 149.82C874.624 150.82 874.854 152.27 874.854 154.17ZM882.161 160.92C888.521 156.38 891.701 152.77 891.701 150.09C891.701 148.45 890.991 147.63 889.571 147.63C888.771 147.63 888.181 147.91 887.801 148.47C887.441 149.03 887.241 149.9 887.201 151.08H882.191C882.311 148.5 883.091 146.56 884.531 145.26C885.971 143.96 887.791 143.31 889.991 143.31C892.291 143.31 894.021 143.89 895.181 145.05C896.361 146.21 896.951 147.72 896.951 149.58C896.951 151.64 896.161 153.66 894.581 155.64C893.001 157.6 891.111 159.26 888.911 160.62H897.281V164.76H882.161V160.92ZM907.193 142.86C908.673 142.86 909.943 143.12 911.003 143.64C912.063 144.14 912.863 144.84 913.403 145.74C913.963 146.62 914.243 147.62 914.243 148.74C914.243 150.12 913.883 151.23 913.163 152.07C912.463 152.91 911.583 153.44 910.523 153.66V153.81C913.263 154.69 914.633 156.4 914.633 158.94C914.633 160.16 914.353 161.25 913.793 162.21C913.233 163.15 912.413 163.89 911.333 164.43C910.273 164.95 908.993 165.21 907.493 165.21C905.053 165.21 903.113 164.61 901.673 163.41C900.253 162.21 899.483 160.38 899.363 157.92H904.373C904.413 158.86 904.673 159.6 905.153 160.14C905.633 160.68 906.333 160.95 907.253 160.95C907.993 160.95 908.573 160.73 908.993 160.29C909.433 159.85 909.653 159.28 909.653 158.58C909.653 156.84 908.393 155.97 905.873 155.97H904.913V151.8H905.843C908.103 151.84 909.233 151.03 909.233 149.37C909.233 148.65 909.033 148.1 908.633 147.72C908.253 147.32 907.733 147.12 907.073 147.12C906.353 147.12 905.783 147.37 905.363 147.87C904.943 148.35 904.703 149 904.643 149.82H899.633C899.733 147.58 900.433 145.86 901.733 144.66C903.033 143.46 904.853 142.86 907.193 142.86Z" fill="white"/>
</svg>
