<svg width="387" height="484" viewBox="0 0 387 484" fill="none" xmlns="http://www.w3.org/2000/svg">
<path d="M3.8532 254.732C3.14307 254.022 3.14307 253.028 2.85902 252.176C2.43294 250.898 2.00687 249.761 1.43876 248.625C0.444584 246.353 0.870661 243.938 1.58079 241.666C1.72281 241.382 1.72281 241.098 1.86484 240.956C3.71117 238.399 4.4213 235.275 4.9894 232.15C5.41548 230.162 6.40966 228.457 7.97194 227.179C9.81827 225.617 11.3806 223.771 12.8008 221.924C14.7892 219.368 17.0616 217.379 19.7601 215.675C21.6064 214.539 23.5948 213.261 25.4411 212.125C30.9801 208.858 36.3771 205.165 41.348 200.905C46.3188 196.644 51.8578 193.235 57.1128 189.258C61.5156 185.992 65.2083 181.873 68.4748 177.328C69.469 175.908 70.6052 174.772 71.8835 173.92C76.2863 170.937 80.8311 168.239 85.6599 165.824C96.5959 160.427 106.68 153.468 116.337 146.083C117.048 145.515 117.758 144.946 118.326 144.378C118.894 145.372 119.888 145.941 120.456 146.793C121.734 148.923 123.581 149.633 125.853 150.201C126.847 150.485 127.984 150.627 128.978 151.054C133.239 152.758 137.357 154.462 141.618 156.024C144.174 157.019 144.459 158.297 143.748 160.427C143.18 162.132 142.612 163.978 142.896 165.824C143.038 167.529 143.606 168.097 145.311 168.665C146.589 169.091 147.867 169.091 149.145 168.807C149.713 168.665 150.282 168.665 150.708 168.665C154.826 168.665 159.087 168.665 163.206 168.665C163.774 168.665 164.484 168.807 165.052 168.807C167.041 169.091 169.029 169.801 171.017 169.801C173.716 169.943 176.414 169.375 179.113 168.665C182.663 167.813 186.356 167.671 190.049 168.523C192.321 169.091 194.594 169.375 196.866 169.233C199.564 169.233 202.121 169.233 204.819 169.233C206.666 169.233 208.512 168.807 210.074 167.955C211.211 167.386 212.489 166.818 213.767 166.392C219.732 163.978 225.697 161.99 231.662 159.717C239.048 156.877 246.433 153.752 253.818 150.769C257.653 149.207 261.63 148.355 265.748 148.355C267.879 148.355 270.009 148.355 272.14 148.355C272.566 148.355 272.992 148.355 273.418 148.355C274.27 148.213 274.838 147.787 274.98 146.793C275.122 145.941 274.696 145.23 273.844 144.804C273.418 144.52 272.85 144.378 272.282 144.378C268.731 144.378 265.18 144.094 261.63 144.378C258.363 144.662 255.096 145.23 251.688 145.088C248.421 144.946 245.155 145.515 241.888 145.657C240.184 145.657 238.479 145.799 236.775 146.083C234.219 146.509 231.662 146.935 229.106 146.793C225.839 146.651 222.573 147.361 219.306 147.219C219.164 147.219 218.88 147.219 218.738 147.219C216.75 147.645 214.619 147.645 212.489 147.929C210.642 148.071 208.796 148.213 207.092 148.497C201.553 149.349 196.014 149.917 190.617 150.485C189.055 150.627 187.492 150.769 185.93 151.054C183.232 151.622 180.675 152.332 177.977 152.332C175.42 152.332 172.864 152.474 170.307 151.906C166.615 151.054 162.922 150.911 159.371 149.917C154.4 148.497 149.287 147.077 144.316 145.657C139.204 144.236 133.807 143.668 128.694 142.106C127.415 141.68 125.853 141.254 124.433 141.822C123.013 142.248 121.734 142.106 120.456 141.68C121.024 140.828 121.024 139.976 121.024 139.123C120.882 137.419 121.308 135.857 122.018 134.295C123.865 129.892 125.853 125.631 128.268 121.37C129.12 119.808 129.262 118.388 128.552 116.683C127.273 113.275 126.279 109.866 125.853 106.173C125.143 101.345 126.137 97.3679 130.114 94.1013C132.244 92.397 134.091 90.5506 136.221 89.1304C140.198 86.4319 143.89 83.4493 147.299 80.1828C151.844 75.78 156.957 71.9453 162.354 68.6787C168.461 65.128 174.142 60.7252 179.965 56.8906C180.533 56.4645 181.243 56.0384 181.811 55.7544C184.226 54.3341 186.64 53.624 189.481 53.624C197.86 53.766 206.24 53.624 214.619 53.624C222.005 53.4819 229.248 54.6182 236.349 56.6065C238.337 57.1746 240.326 57.6007 242.314 58.1688C246.149 59.163 250.126 58.7369 254.102 58.7369C254.67 58.7369 255.238 58.7369 255.665 58.7369C254.812 59.589 253.676 59.163 252.682 59.163C251.404 59.305 250.268 59.163 248.989 59.447C249.273 59.8731 249.557 60.0151 249.842 60.1572C252.256 61.4354 254.812 62.2875 257.369 63.1397C263.618 65.128 269.441 68.1106 274.98 71.3772C278.105 73.2235 280.945 75.3539 283.644 77.6263C286.484 80.0407 289.751 81.603 293.301 82.8812C297.278 84.3015 301.539 84.0174 305.8 84.4435C307.646 84.5855 309.492 84.8696 311.197 85.1537C316.025 86.0058 320.712 87.4261 325.683 87.9942C330.938 88.5623 336.051 88.4202 341.306 88.9883C345.283 89.4144 349.259 88.5623 353.378 88.5623C364.314 88.7043 375.108 88.4202 386.044 88.9883C386.044 89.4144 386.186 89.8405 386.186 90.2666C386.186 107.452 386.186 124.637 386.186 141.822C386.186 142.248 386.186 142.674 386.044 143.1C384.624 142.958 383.204 143.526 381.783 143.81C376.102 145.088 370.563 146.793 365.024 148.923C361.332 150.343 357.497 151.338 353.946 152.9C350.68 154.32 347.271 155.03 343.72 155.03C341.59 155.03 339.602 155.314 337.471 155.314C337.329 155.314 337.045 155.314 336.903 155.456C334.631 155.882 332.358 156.593 330.086 155.456C329.944 155.314 329.66 155.314 329.518 155.314C327.387 155.598 325.541 154.746 323.553 154.32C322.843 154.178 322.275 153.894 321.564 153.752C320.996 153.61 320.286 153.61 320.002 154.32C319.576 155.172 320.428 155.314 320.854 155.598C322.701 156.451 324.689 157.445 326.535 158.297C328.666 159.149 330.796 159.717 333.069 159.859C337.045 160.143 340.88 159.291 344.857 159.433C346.703 159.433 348.407 159.291 350.112 158.865C351.816 158.439 353.52 158.155 355.367 158.155C358.633 158.297 361.9 158.013 365.166 158.581C368.149 159.007 371.273 158.865 374.256 159.717C377.949 160.853 381.641 161.99 384.624 164.546C385.05 164.972 385.618 165.114 386.186 164.972C386.186 165.966 386.186 166.818 386.186 167.813C386.186 188.974 386.186 210.278 386.186 231.44C386.186 232.15 386.186 232.86 386.044 233.712C383.204 233.428 380.505 233.996 377.665 234.281C374.824 234.565 371.842 234.707 369.001 234.991C366.445 235.133 364.03 235.417 361.474 235.559C359.769 235.701 358.065 235.559 356.361 235.985C353.804 236.553 351.106 236.269 348.407 236.695C344.999 237.121 341.448 236.979 338.039 237.121C330.796 237.263 323.553 237.831 316.167 237.689C315.599 237.689 315.031 237.689 314.605 237.547C312.333 237.263 310.202 236.979 307.93 236.837C304.947 236.695 301.965 236.553 298.982 236.127C297.562 235.985 296.142 235.985 294.722 236.269C288.615 237.973 282.507 239.393 276.4 241.098C270.293 242.66 264.186 244.364 257.937 245.359C255.807 245.643 253.534 245.785 251.546 244.932C249.273 243.938 246.859 243.086 244.587 242.092C241.462 240.814 238.479 239.535 235.213 238.541C227.401 236.411 219.59 234.423 211.921 231.866C209.506 231.014 207.092 230.588 204.535 230.73C202.263 230.872 199.849 231.014 197.576 230.588C194.736 230.162 191.895 230.304 189.055 230.02C186.072 229.594 183.089 229.168 179.965 228.884C177.977 228.742 175.988 228.031 174 227.747C172.154 227.463 170.307 227.747 168.603 227.321C165.478 226.611 162.496 227.321 159.513 227.605C156.247 227.889 152.98 228.457 149.571 228.6C147.583 228.742 145.595 229.026 143.464 229.168C140.34 229.452 137.215 229.878 134.091 229.878C127.984 230.02 122.018 229.594 115.911 230.162C111.651 230.588 107.532 231.582 103.413 232.576C97.306 234.139 91.1989 235.701 84.8078 235.417C81.5412 235.275 78.4166 236.127 75.2921 236.411C73.0197 236.553 70.7473 237.121 68.4748 236.979C65.7764 236.837 63.3619 237.689 61.0895 238.683C60.5214 238.967 59.9533 239.251 59.3852 239.393C53.2781 241.95 46.7449 243.086 40.4958 245.216C39.2176 245.643 37.9393 246.069 36.6611 246.353C33.2525 247.205 29.8439 247.915 26.2932 248.625C21.8904 249.619 17.6297 251.324 13.2269 252.602C10.5284 253.88 7.26181 254.59 3.8532 254.732ZM84.2397 213.829C84.8078 214.397 85.2339 213.971 85.6599 213.829C89.6367 212.409 93.4713 210.136 97.8741 210.562C98.5843 210.562 99.1524 210.42 99.8625 210.136C101.851 209.426 103.981 209.284 106.112 209.426C107.532 209.426 108.81 209.426 110.23 209.426C111.509 209.284 112.077 208.716 112.219 207.722C112.361 206.444 111.935 205.733 110.656 205.307C109.946 205.023 109.094 205.023 108.242 204.881C104.833 204.597 101.567 205.449 98.3002 205.307C96.1698 205.165 94.3235 206.017 92.7612 207.438C91.483 208.574 89.7787 208.858 88.6425 210.278C88.2164 210.846 87.5063 211.13 86.9382 211.414C85.802 211.84 84.9498 212.693 84.2397 213.829ZM82.6774 214.113C81.3992 213.687 80.689 214.397 80.1209 214.965C77.8485 217.095 75.008 218.09 72.0255 218.942C71.1733 219.084 70.3212 219.51 69.6111 220.078C69.327 220.362 68.9009 220.646 69.185 221.072C69.327 221.356 69.7531 221.356 70.1792 221.214C71.5994 220.788 73.0197 220.22 74.4399 219.794C77.8485 218.942 80.405 216.811 82.6774 214.113Z" fill="#6D6560"/>
<path d="M3.85352 254.732C7.26213 254.59 10.3867 253.88 13.6533 252.886C18.0561 251.608 22.3168 249.903 26.7196 248.909C30.1283 248.057 33.5369 247.347 37.0875 246.637C38.3657 246.353 39.644 245.927 40.9222 245.501C47.1713 243.37 53.7045 242.234 59.8116 239.678C60.3797 239.394 60.9478 239.252 61.5159 238.967C63.9303 237.831 66.3448 237.121 68.9012 237.263C71.1737 237.405 73.4461 236.837 75.7185 236.695C78.843 236.411 81.9676 235.701 85.2342 235.701C91.6253 235.843 97.7324 234.423 103.84 232.86C107.958 231.724 112.077 230.872 116.338 230.446C122.445 229.736 128.41 230.304 134.517 230.162C137.642 230.02 140.766 229.594 143.891 229.452C145.879 229.31 147.867 229.026 149.998 228.884C153.264 228.6 156.531 228.174 159.94 227.889C162.922 227.605 165.905 226.895 169.029 227.605C170.734 228.032 172.722 227.747 174.426 228.032C176.415 228.316 178.403 229.026 180.391 229.168C183.374 229.452 186.498 229.878 189.481 230.304C192.321 230.73 195.162 230.446 198.002 230.872C200.275 231.298 202.689 231.014 204.962 231.014C207.518 230.872 209.933 231.44 212.347 232.15C220.016 234.707 227.828 236.695 235.639 238.825C238.764 239.678 241.888 241.098 245.013 242.376C247.285 243.228 249.7 244.222 251.972 245.217C254.103 246.069 256.233 245.927 258.363 245.643C264.612 244.649 270.72 242.944 276.827 241.382C282.934 239.82 289.041 238.257 295.148 236.553C296.568 236.127 297.988 236.127 299.409 236.411C302.391 236.837 305.374 236.979 308.356 237.121C310.629 237.263 312.759 237.547 315.032 237.831C315.6 237.973 316.168 237.973 316.594 237.973C323.837 238.257 331.08 237.547 338.466 237.405C341.874 237.405 345.425 237.405 348.834 236.979C351.532 236.695 354.089 236.837 356.787 236.269C358.491 235.985 360.196 235.985 361.9 235.843C364.456 235.701 366.871 235.417 369.427 235.275C372.268 234.991 375.25 234.849 378.091 234.565C380.789 234.281 383.63 233.855 386.47 233.997C386.47 234.849 386.612 235.559 386.612 236.411C386.612 317.366 386.612 398.32 386.612 479.133C386.612 480.695 386.612 482.257 386.612 483.678C385.902 483.962 385.618 483.394 385.334 483.11C381.926 479.985 378.517 476.86 375.392 473.452C373.546 471.463 371.558 469.759 369.569 468.055C363.888 463.368 359.202 457.829 355.367 451.58C349.828 442.348 344.715 432.832 339.46 423.459C333.211 412.097 325.684 401.871 316.452 392.923C312.901 389.515 309.066 386.816 304.806 384.26C296.568 379.431 288.189 375.17 279.241 371.761C267.737 367.501 256.659 362.388 245.865 356.707C241.178 354.15 236.491 351.594 232.799 347.759C230.384 345.203 228.254 342.362 226.266 339.38C222.999 334.125 219.164 329.438 214.477 325.319C211.921 323.047 209.507 320.632 206.95 318.36C203.257 315.235 199.281 313.105 194.878 311.259C190.759 309.554 186.498 308.134 182.522 306.004C180.533 304.867 178.687 303.731 176.841 302.311C166.899 294.073 155.537 289.103 142.613 287.54C130.398 286.12 118.184 284.7 106.112 282.995C94.8919 281.575 83.6719 279.729 72.878 276.32C70.6055 275.61 68.3331 275.326 66.0607 275.184C61.5159 275.042 56.9711 275.184 52.4263 274.9C49.0177 274.616 45.7511 273.764 42.6265 272.344C39.2179 270.781 36.6614 268.509 35.2412 265.1C34.105 262.544 32.5427 260.271 30.6964 258.141C29.7022 257.005 28.566 256.579 27.0037 257.147C25.1574 257.715 23.311 258.283 21.6067 258.851C18.1981 259.987 14.7895 260.839 11.2388 260.555C10.3867 260.555 9.67656 260.413 8.82441 260.271C6.83605 259.987 5.55782 258.993 4.84769 257.147C4.27959 256.295 3.85352 255.584 3.85352 254.732Z" fill="#4D423B"/>
<path d="M264.328 55.8964C266.032 55.0442 267.879 54.1921 269.583 53.3399C274.554 50.9255 279.099 47.943 283.36 44.5343C289.041 39.8475 294.722 35.0186 300.403 30.1898C300.829 29.7637 301.397 29.4796 301.681 28.9115C302.391 27.2072 303.811 26.6391 305.374 25.929C317.304 20.248 329.376 15.135 341.448 10.0221C348.975 6.89756 356.787 4.76718 364.456 2.06869C367.297 1.07451 370.137 0.648438 372.978 0.648438C376.812 0.790463 380.789 0.648438 384.624 0.648438C386.47 0.648438 386.47 0.648438 386.47 2.49477C386.47 10.1642 386.47 17.6915 386.47 25.3609C386.47 40.4156 386.47 55.4703 386.47 70.525C386.47 71.2352 386.47 72.0873 386.328 72.7974C383.204 72.7974 380.079 73.3655 376.954 73.2235C375.25 73.0815 373.546 73.0815 371.842 73.2235C369.143 73.3655 366.729 72.7974 364.456 71.5192C363.604 71.0931 362.61 70.6671 361.616 70.383C357.639 69.6729 353.804 68.9627 349.686 69.1048C347.839 69.1048 345.993 68.8207 344.147 67.9686C340.596 66.1222 336.903 65.2701 332.926 65.4121C330.228 65.5541 327.672 65.8382 325.115 66.1222C321.138 66.5483 317.162 67.4005 313.327 67.9686C309.492 68.5367 305.658 68.5367 301.823 67.2584C299.124 66.2643 296.284 65.5541 293.301 64.986C290.177 64.4179 287.194 64.1339 284.212 62.5716C283.076 62.0035 282.081 61.2934 280.945 60.8673C277.11 59.305 273.134 58.0268 269.157 56.8906C267.595 56.3225 266.032 55.8964 264.328 55.8964Z" fill="#6D6560"/>
<path d="M264.328 55.8965C266.032 55.8965 267.736 56.3226 269.299 56.7486C273.275 57.8848 277.252 59.1631 281.087 60.7254C282.223 61.1514 283.217 61.8616 284.353 62.4297C287.194 63.8499 290.318 64.276 293.443 64.8441C296.283 65.4122 299.124 66.1223 301.965 67.1165C305.799 68.3947 309.492 68.3947 313.469 67.8266C317.445 67.2585 321.28 66.5484 325.257 65.9803C327.813 65.6962 330.512 65.2702 333.068 65.2702C337.045 65.1281 340.737 65.9803 344.288 67.8266C345.992 68.6788 347.981 69.1049 349.827 68.9628C353.804 68.8208 357.781 69.673 361.757 70.2411C362.751 70.3831 363.746 70.8092 364.598 71.3773C366.87 72.6555 369.427 73.2236 371.983 73.0816C373.687 72.9396 375.392 72.9396 377.096 73.0816C380.221 73.2236 383.345 72.6555 386.47 72.6555C386.612 78.0525 386.612 83.5915 386.47 88.9884C375.534 88.4203 364.74 88.7044 353.804 88.5624C349.827 88.5624 345.85 89.4145 341.732 88.9884C336.477 88.4203 331.364 88.5624 326.109 87.9943C321.138 87.4262 316.451 86.0059 311.622 85.1538C309.776 84.8697 308.072 84.5857 306.225 84.4436C302.107 84.0176 297.846 84.3016 293.727 82.8813C290.176 81.7451 286.91 80.1829 284.069 77.6264C281.371 75.212 278.388 73.2236 275.406 71.3773C269.725 67.9687 264.044 64.9861 257.795 63.1398C255.238 62.2876 252.682 61.4355 250.267 60.1573C249.983 60.0152 249.699 59.8732 249.415 59.4471C250.693 59.1631 251.829 59.3051 253.108 59.1631C254.102 59.021 255.096 59.4471 256.09 58.737C258.789 58.1689 261.487 56.8907 264.328 55.8965Z" fill="#4D423B"/>
<path d="M120.315 141.822C121.593 142.248 122.871 142.39 124.292 141.964C125.712 141.538 127.274 141.964 128.552 142.248C133.665 143.81 139.062 144.378 144.175 145.799C149.146 147.219 154.259 148.639 159.23 150.059C162.781 151.053 166.615 151.195 170.166 152.048C172.722 152.616 175.279 152.474 177.835 152.474C180.534 152.332 183.232 151.622 185.789 151.195C187.351 150.911 188.913 150.769 190.476 150.627C196.015 150.059 201.554 149.491 206.951 148.639C208.797 148.355 210.643 148.213 212.348 148.071C214.478 147.929 216.608 147.929 218.597 147.361C218.739 147.361 219.023 147.219 219.165 147.361C222.431 147.503 225.698 146.793 228.965 146.935C231.521 147.077 234.077 146.651 236.634 146.225C238.338 145.941 240.043 145.799 241.747 145.799C245.013 145.656 248.28 145.23 251.547 145.23C254.813 145.372 258.222 144.804 261.488 144.52C265.039 144.236 268.59 144.378 272.14 144.52C272.708 144.52 273.135 144.804 273.703 144.946C274.555 145.372 274.981 146.083 274.839 146.935C274.697 147.929 274.129 148.355 273.277 148.497C272.85 148.497 272.424 148.497 271.998 148.497C269.868 148.497 267.738 148.497 265.607 148.497C261.488 148.497 257.512 149.349 253.677 150.911C246.292 153.894 239.048 157.019 231.521 159.859C225.556 162.131 219.449 164.262 213.626 166.534C212.348 167.102 211.069 167.528 209.933 168.097C208.229 168.949 206.524 169.233 204.678 169.375C201.98 169.375 199.423 169.375 196.725 169.375C194.452 169.375 192.18 169.233 189.908 168.665C186.357 167.812 182.664 167.812 178.972 168.807C176.273 169.517 173.717 169.943 170.876 169.943C168.888 169.801 166.899 169.233 164.911 168.949C164.343 168.807 163.775 168.807 163.065 168.807C158.946 168.807 154.685 168.807 150.566 168.807C149.998 168.807 149.43 168.807 149.004 168.949C147.726 169.233 146.448 169.233 145.169 168.807C143.465 168.381 142.897 167.67 142.755 165.966C142.471 164.12 143.181 162.273 143.607 160.569C144.317 158.439 144.033 157.161 141.477 156.166C137.216 154.604 132.955 152.758 128.836 151.195C127.842 150.769 126.706 150.627 125.712 150.343C123.582 149.775 121.593 149.065 120.315 146.935C119.747 145.941 118.753 145.514 118.185 144.52C119.037 143.526 119.747 142.674 120.315 141.822Z" fill="#4D423B"/>
<path d="M386.329 165.256C385.76 165.256 385.192 165.114 384.766 164.83C381.784 162.132 378.091 161.137 374.398 160.001C371.416 159.149 368.291 159.291 365.309 158.865C362.042 158.297 358.776 158.581 355.509 158.439C353.663 158.439 351.958 158.723 350.254 159.149C348.55 159.575 346.845 159.717 344.999 159.717C341.022 159.575 337.188 160.427 333.211 160.143C330.939 160.001 328.808 159.433 326.678 158.581C324.689 157.729 322.843 156.877 320.997 155.882C320.429 155.598 319.719 155.456 320.145 154.604C320.429 153.894 321.139 153.894 321.707 154.036C322.417 154.178 322.985 154.462 323.695 154.604C325.684 155.03 327.53 155.882 329.66 155.598C329.802 155.598 330.086 155.598 330.228 155.74C332.501 156.877 334.773 156.166 337.046 155.74C337.188 155.74 337.472 155.598 337.614 155.598C339.744 155.598 341.875 155.314 343.863 155.314C347.556 155.314 350.822 154.604 354.089 153.184C357.639 151.622 361.616 150.627 365.167 149.207C370.564 147.077 376.103 145.23 381.926 144.094C383.346 143.81 384.624 143.384 386.187 143.384C386.471 150.485 386.471 157.871 386.329 165.256Z" fill="#4D423B"/>
<path d="M84.2393 213.829C84.9494 212.693 85.8015 211.84 86.9377 211.414C87.5058 211.13 88.216 210.846 88.642 210.278C89.6362 208.858 91.4826 208.574 92.7608 207.438C94.3231 206.017 96.1694 205.165 98.2998 205.307C101.566 205.591 104.975 204.597 108.242 204.881C109.094 204.881 109.804 204.881 110.656 205.307C111.934 205.875 112.36 206.443 112.218 207.722C112.076 208.716 111.366 209.284 110.23 209.426C108.81 209.568 107.531 209.426 106.111 209.426C103.981 209.426 101.85 209.426 99.8621 210.136C99.294 210.42 98.5838 210.562 97.8737 210.562C93.3289 210.278 89.6362 212.551 85.6595 213.829C85.2334 213.971 84.8074 214.397 84.2393 213.829Z" fill="#4D423B"/>
<path d="M82.6769 214.113C80.4045 216.953 77.8481 219.084 74.4394 219.794C73.0192 220.078 71.5989 220.788 70.1787 221.214C69.8946 221.356 69.4685 221.356 69.1845 221.072C68.9004 220.646 69.3265 220.362 69.6106 220.078C70.3207 219.51 71.1729 219.084 72.025 218.942C75.0075 218.232 77.8481 217.237 80.1205 214.965C80.6886 214.397 81.3987 213.687 82.6769 214.113Z" fill="#4D423B"/>
</svg>
