<svg width="818" height="512" viewBox="0 0 818 512" fill="none" xmlns="http://www.w3.org/2000/svg">
<path d="M327.04 418.504C326.872 418.504 326.704 418.672 326.369 418.672C325.532 418.672 324.526 418.672 324.024 419.51H323.856C323.521 419.51 323.186 419.51 323.019 419.845C322.851 419.845 322.684 420.012 322.348 420.012C322.013 420.012 321.678 420.012 321.511 420.347C321.343 420.347 321.176 420.515 321.008 420.515C320.841 420.515 320.673 420.515 320.505 420.682C320.338 420.682 320.17 420.85 319.835 420.85C319.5 420.85 319.165 420.85 318.998 421.185H318.83C318.16 421.185 317.322 421.017 316.987 421.855C316.82 422.023 316.652 422.023 316.484 422.19C316.149 422.19 315.814 422.19 315.647 422.693H315.479C315.312 422.693 315.312 422.693 315.144 422.86C314.977 423.028 314.642 423.028 314.474 423.195C314.139 423.195 313.804 423.195 313.636 423.698H313.469C311.291 424.536 308.945 424.871 306.432 424.703C306.264 424.703 306.097 424.871 305.762 425.038C304.422 425.038 303.081 425.038 301.908 425.038C301.406 424.536 300.736 424.703 300.065 424.703C297.552 424.536 295.207 425.206 292.694 425.206C286.495 425.206 280.296 425.206 274.264 425.206C272.086 425.206 269.908 425.541 268.233 426.881C268.065 426.881 267.898 427.049 267.73 427.049C267.395 427.049 267.06 427.049 266.725 427.384H266.557C266.222 427.384 265.887 427.384 265.72 427.719V427.887H265.552C265.217 427.887 265.049 427.887 264.882 428.222C264.714 428.222 264.547 428.389 264.379 428.389C264.212 428.389 264.044 428.557 263.877 428.557C263.709 428.724 263.542 428.724 263.207 428.892C262.871 428.892 262.536 428.892 262.369 429.227H262.201C262.034 429.227 262.034 429.227 261.866 429.394C261.699 429.562 261.364 429.562 261.196 429.729C261.029 429.729 261.029 429.729 260.861 429.897C260.693 430.065 260.526 430.065 260.191 430.232C259.521 430.232 259.018 430.232 258.85 430.902C258.683 430.902 258.515 431.07 258.348 431.07C258.18 431.07 258.013 431.07 257.845 431.405C257.678 431.405 257.51 431.572 257.343 431.572C257.008 431.572 256.84 431.572 256.84 431.908H256.672C256.505 431.908 256.505 431.908 256.337 432.075C256.17 432.243 256.002 432.243 255.667 432.41C255.5 432.41 255.332 432.41 255.332 432.578C255.165 432.745 254.997 432.745 254.829 432.913C254.494 432.913 254.327 433.08 254.327 433.248H254.159C253.992 433.248 253.992 433.248 253.824 433.415C252.316 434.756 251.144 436.599 249.301 437.604C249.133 437.604 248.966 437.771 248.966 437.939C248.63 438.107 248.295 438.442 247.96 438.609C247.793 438.609 247.625 438.777 247.458 438.944L247.29 439.112C247.123 439.112 247.123 439.112 246.955 439.279C246.788 439.447 246.62 439.447 246.285 439.614C246.117 439.614 245.95 439.614 245.95 439.949C245.782 440.117 245.615 440.117 245.447 440.285C245.28 440.285 245.112 440.285 244.945 440.62C244.777 440.62 244.61 440.787 244.442 440.787C244.107 440.787 243.939 440.955 243.939 441.122H243.772C243.604 441.122 243.604 441.122 243.437 441.29C243.269 441.457 243.102 441.457 242.767 441.625C242.599 441.625 242.431 441.625 242.431 441.792C242.264 441.96 242.096 441.96 241.929 442.127C241.761 442.127 241.594 442.128 241.426 442.463C241.259 442.463 241.091 442.63 241.091 442.63C240.756 442.63 240.589 442.798 240.589 442.965H240.421C240.253 442.965 240.086 442.965 240.086 443.133C239.918 443.3 239.751 443.3 239.583 443.468C239.248 443.468 239.081 443.635 239.081 443.803H238.913C238.746 443.803 238.578 443.803 238.578 443.97C238.41 444.138 238.243 444.138 238.075 444.306C237.74 444.306 237.74 444.473 237.573 444.641L237.405 444.808C237.238 444.808 237.238 444.808 237.07 444.976C236.903 445.143 236.735 445.143 236.568 445.311C236.232 445.311 236.065 445.478 236.065 445.646H235.897C235.73 445.646 235.562 445.646 235.562 445.813C235.227 446.148 234.892 446.316 234.557 446.651C234.39 446.651 234.222 446.651 234.222 446.986C233.719 447.321 233.217 447.824 232.714 448.159C232.547 448.159 232.379 448.327 232.379 448.494C231.039 449.834 229.531 451.007 228.023 452.012C227.855 452.012 227.688 452.18 227.688 452.347C226.683 453.353 225.677 454.358 224.672 455.363C224.002 455.363 223.834 455.866 223.834 456.368C222.829 458.044 221.489 459.552 219.813 460.557C219.646 460.557 219.478 460.725 219.478 460.892C219.143 461.06 218.808 461.395 218.473 461.562C218.138 461.562 217.971 461.73 217.971 461.897H217.803C217.635 461.897 217.468 461.897 217.468 462.065C217.133 462.232 216.798 462.567 216.295 462.735C216.128 462.735 215.96 462.735 215.96 462.903C215.792 463.07 215.625 463.07 215.457 463.238C215.29 463.238 215.122 463.238 214.955 463.573L214.787 463.74C214.452 463.74 214.117 463.908 213.95 464.243H213.782C213.447 464.243 213.112 464.243 212.944 464.578C212.777 464.578 212.609 464.745 212.442 464.745C212.274 464.745 212.107 464.745 211.939 464.913C211.772 464.913 211.436 465.081 211.269 465.081C208.421 465.416 205.74 465.751 202.892 466.086C197.363 466.588 192.002 467.091 186.473 467.594C184.295 467.761 182.117 467.929 180.106 468.264C175.415 468.934 170.724 469.269 166.033 469.437C159.834 469.604 153.802 469.772 147.603 470.609C145.425 470.944 143.247 471.112 141.404 472.452H141.237C140.734 472.452 140.232 472.452 139.897 472.787H139.729C139.226 472.787 138.724 472.787 138.389 473.29H138.221C137.383 473.29 136.378 473.29 135.876 474.295H135.708C135.373 474.295 135.038 474.295 134.87 474.63H134.703C134.368 474.63 134.033 474.63 133.865 475.133H133.698C133.53 475.133 133.53 475.133 133.362 475.301C133.195 475.468 132.86 475.468 132.692 475.636C132.022 475.636 131.52 475.636 131.352 476.473C131.352 476.641 131.184 476.641 131.184 476.641C130.849 476.808 130.682 476.976 130.347 477.144C130.179 477.144 130.012 477.144 130.012 477.311C129.844 477.479 129.677 477.479 129.509 477.646C129.174 477.646 129.006 477.814 129.006 477.981L128.839 478.149C128.671 478.149 128.671 478.149 128.504 478.316C128.336 478.484 128.169 478.484 128.001 478.651C127.834 478.651 127.666 478.819 127.499 478.986L127.331 479.154C127.163 479.154 127.163 479.154 127.163 479.322C126.996 479.489 126.828 479.657 126.493 479.657C126.326 479.657 126.158 479.657 125.991 479.992C125.656 480.159 125.32 480.494 124.985 480.662C124.818 480.662 124.65 480.829 124.483 480.997C124.483 481.165 124.315 481.165 124.315 481.165H124.148C123.98 481.332 123.645 481.5 123.478 481.667C123.31 481.667 123.142 481.835 123.142 481.835C122.975 482.002 122.807 482.002 122.64 482.17C122.305 482.17 122.137 482.337 122.137 482.505H121.97C121.802 482.505 121.802 482.505 121.635 482.672C121.467 482.84 121.3 482.84 120.964 483.007C120.797 483.007 120.629 483.007 120.629 483.343C120.462 483.51 120.294 483.51 120.127 483.678C119.792 483.678 119.624 483.845 119.624 484.013H119.457C118.786 484.013 118.284 484.013 118.116 484.85C117.949 484.85 117.781 485.018 117.614 485.018C117.279 485.018 117.111 485.018 117.111 485.353H116.943C116.776 485.353 116.776 485.353 116.608 485.521C116.441 485.688 116.106 485.688 115.938 485.856C115.771 485.856 115.603 485.856 115.603 486.023C115.436 486.191 115.268 486.191 115.101 486.358C114.933 486.358 114.765 486.358 114.598 486.693C114.598 486.861 114.43 486.861 114.43 486.861C114.095 486.861 113.76 487.028 113.593 487.363H113.425C113.258 487.363 113.258 487.363 113.09 487.531C112.922 487.699 112.587 487.699 112.42 487.866C111.75 487.866 111.247 487.866 111.08 488.704C110.912 488.704 110.744 488.871 110.577 488.871C110.409 488.871 110.242 488.871 110.074 489.206L109.907 489.374C109.572 489.374 109.237 489.374 109.069 489.877H108.901C108.734 489.877 108.734 489.877 108.566 490.044C108.399 490.212 108.064 490.379 107.896 490.379C107.729 490.379 107.561 490.379 107.561 490.547C107.394 490.714 107.226 490.714 107.059 490.882C106.891 490.882 106.723 490.882 106.556 491.217C106.388 491.217 106.221 491.385 106.053 491.385C105.718 491.385 105.551 491.552 105.551 491.72H105.383C104.713 491.72 104.21 491.72 104.043 492.557C103.708 492.725 103.373 493.06 103.038 493.227C102.87 493.227 102.702 493.227 102.702 493.563C102.367 493.73 102.032 494.065 101.697 494.233C101.53 494.233 101.362 494.233 101.362 494.568C101.027 494.735 100.692 495.07 100.357 495.238C100.189 495.238 100.022 495.238 100.022 495.573C100.022 495.741 99.8543 495.741 99.8543 495.741C99.5192 495.741 99.1841 495.908 99.1841 496.243H99.0166C98.8491 496.243 98.6815 496.243 98.6815 496.411C98.514 496.578 98.3464 496.578 98.1789 496.746C98.0114 496.746 97.8438 496.746 97.6763 497.081C97.3412 497.248 97.0061 497.583 96.671 497.751C96.5035 497.751 96.3359 497.751 96.3359 497.919C96.1684 498.086 96.0009 498.086 95.8333 498.254C95.6658 498.254 95.4982 498.254 95.3307 498.589C95.1632 498.589 94.9956 498.756 94.8281 498.756C94.6605 498.756 94.493 498.756 94.3255 499.091C94.1579 499.091 93.9904 499.259 93.8228 499.259C93.1527 499.259 92.65 499.259 92.315 499.929C92.1474 500.097 91.9799 500.097 91.8123 500.264C91.4773 500.264 91.1422 500.264 90.9746 500.599H90.8071C89.9694 500.599 89.1317 500.599 88.6291 501.604H88.4615C88.1264 501.604 87.7914 501.604 87.6238 501.94H87.4563C87.1212 501.94 86.7861 501.94 86.6186 502.275C86.451 502.275 86.2835 502.442 86.116 502.442C85.9484 502.442 85.7809 502.442 85.6133 502.777C85.4458 502.777 85.2783 502.945 85.1107 502.945C84.9432 502.945 84.7756 502.945 84.6081 503.112C84.4405 503.112 84.273 503.28 84.1055 503.28C83.9379 503.28 83.7704 503.28 83.6028 503.447C83.4353 503.615 83.2678 503.615 82.9327 503.783C78.5766 504.788 74.053 505.29 69.697 505.458C65.0058 505.793 60.3147 506.128 55.6235 506.631C53.278 506.798 50.7649 506.966 48.4193 507.301C45.4035 507.636 42.3878 508.139 39.3721 508.139C36.5239 508.139 33.5082 507.971 30.66 508.306C25.9688 508.809 21.2777 508.809 16.419 509.144C10.8901 509.311 5.52885 509.144 0 509.646C0 457.541 0 405.436 0 353.331C5.86393 352.996 11.8954 353.834 17.7593 353.834C18.0944 353.834 18.4295 353.834 18.7646 353.834C22.1154 354.504 25.4662 354.336 28.817 354.671C31.3301 354.839 33.8432 355.174 36.5239 355.341C38.0318 355.509 39.7072 355.509 41.215 355.844C43.8957 356.347 46.5763 356.682 49.257 356.682C69.0268 356.682 88.6291 356.682 108.399 356.682C111.415 356.682 114.263 357.017 117.279 357.352C121.3 357.687 125.321 358.525 129.341 359.195C133.195 359.865 137.048 360.2 140.902 361.038C144.253 361.708 147.436 362.378 150.787 362.546C157.321 362.713 163.687 362.378 170.221 361.708C175.08 361.205 179.771 360.2 184.63 359.362C189.489 358.525 194.18 357.854 199.038 357.352C202.557 357.017 206.075 356.179 209.258 354.839C213.279 353.163 217.133 350.818 220.819 348.472C227.353 344.284 233.552 339.425 239.751 334.734C247.625 328.702 256.002 323.676 265.72 320.828C267.228 320.325 268.735 319.99 270.411 319.99C285.154 319.99 300.065 319.99 314.809 319.99C320.841 319.99 327.04 320.158 333.071 320.828C339.102 321.498 344.799 322.838 350.83 323.676C353.343 324.011 355.689 324.514 358.202 324.849C361.385 325.184 364.569 325.352 367.752 326.022C371.103 326.524 374.621 326.859 377.972 327.195C381.155 327.53 384.171 328.032 387.187 328.535C390.873 329.205 394.558 330.21 398.077 331.551C404.611 334.064 411.313 335.572 418.182 337.415C422.37 338.42 426.726 339.09 430.915 339.257C442.308 339.593 453.7 339.257 465.093 338.922C465.261 338.922 465.596 338.922 465.763 338.922C470.622 338.085 475.648 338.085 480.507 337.582C485.03 337.247 489.387 336.912 493.91 336.577C498.266 336.242 502.455 335.907 506.811 335.572C510.999 335.236 515.188 334.734 519.544 334.566C524.403 334.399 529.261 333.729 534.12 333.896C536.801 334.064 539.649 333.896 542.329 333.896C545.848 333.729 549.534 333.896 553.22 333.561C557.911 333.058 562.602 332.221 567.125 331.048C573.995 329.54 581.031 328.2 588.068 326.524C593.429 325.184 598.623 324.011 603.984 323.341C609.011 322.671 613.869 321.833 618.896 320.828C622.749 320.158 626.602 319.32 630.456 318.818C635.147 318.147 639.838 317.31 644.529 315.802C650.561 313.624 656.927 312.786 663.461 313.121C664.802 313.289 666.142 312.954 667.482 313.289C671.336 313.959 675.189 314.126 679.21 314.629C683.399 315.132 687.42 315.634 691.608 316.304C698.812 317.645 705.849 319.32 713.054 320.66C719.923 322.001 726.959 322.336 733.996 322.838C736.844 323.006 739.525 323.341 742.373 323.509C744.216 323.676 746.227 323.676 748.07 324.011C750.918 324.514 753.933 324.849 756.949 324.849C764.656 324.849 772.363 325.352 780.07 324.514C783.756 324.179 787.442 324.514 791.127 325.352C797.662 326.692 804.363 327.362 810.897 329.037C812.573 329.373 814.416 329.708 815.756 330.88C815.924 331.383 815.924 331.886 815.756 332.221C815.086 332.556 815.086 333.058 815.588 333.729C815.588 334.231 815.588 334.734 815.253 335.069C814.751 335.404 814.583 335.572 815.086 336.074C814.918 336.409 814.918 336.744 814.751 337.079C814.248 337.247 814.081 337.582 814.583 338.085C814.583 338.42 814.416 338.755 814.416 339.09C813.578 339.593 813.578 340.263 814.081 341.1C814.081 341.771 814.081 342.441 813.745 342.943C813.075 343.278 813.075 343.781 813.578 344.451C813.41 345.959 812.573 347.132 811.232 347.802C811.065 347.802 810.897 347.97 810.73 348.137H810.562C809.389 348.137 808.217 348.472 807.044 348.64C801.012 349.142 795.148 348.64 789.117 347.97C786.101 347.635 782.918 347.132 779.902 346.797C779.735 346.797 779.567 346.629 779.4 346.629C779.232 346.462 779.065 346.294 778.897 346.294C778.729 346.127 778.562 346.127 778.394 345.959C778.394 345.792 778.227 345.624 778.059 345.624C777.892 345.456 777.724 345.456 777.557 345.289C777.389 344.786 776.887 344.786 776.384 344.619C772.363 343.614 768.509 344.619 764.488 344.954C763.651 344.954 762.646 344.786 761.975 345.624H761.808C759.965 345.792 758.457 346.462 757.117 347.802C756.949 347.97 756.782 347.97 756.614 348.137C756.279 348.137 755.944 348.137 755.776 348.472H755.609C755.441 348.472 755.441 348.472 755.274 348.64C755.106 348.807 754.771 348.807 754.604 348.975C754.268 348.975 753.933 348.975 753.766 349.31V349.477H753.598C752.761 349.477 751.923 349.477 751.42 350.483H751.253C750.415 350.483 749.577 350.483 748.907 351.32H748.74C748.237 351.32 747.734 351.32 747.399 351.823H747.232C745.891 351.823 744.551 352.158 743.546 353.163H743.378C742.876 353.163 742.373 353.163 742.038 353.666H741.87C741.703 353.666 741.703 353.666 741.535 353.834C741.368 354.001 741.033 354.001 740.865 354.169C740.53 354.169 740.195 354.169 740.028 354.671H739.86C739.525 354.671 739.19 354.671 739.022 355.006H738.855C738.017 355.006 737.179 355.006 736.509 356.012H736.342C735.504 356.012 734.666 356.012 733.996 356.849H733.829C733.326 356.849 732.823 356.849 732.488 357.352H732.321C731.818 357.352 731.315 357.352 730.98 357.855H730.813C729.808 357.855 728.97 358.19 727.965 358.357C723.776 359.362 719.588 360.87 715.232 361.373C713.389 361.54 711.546 361.54 709.703 361.875C704.844 362.713 699.818 363.048 694.792 362.546C689.43 362.043 683.901 362.546 678.54 361.708C676.362 361.373 674.016 362.043 671.838 362.043C666.98 362.211 662.289 362.713 657.597 364.054C656.927 364.221 656.257 364.389 655.755 364.891H655.587C654.582 364.891 653.576 364.724 652.906 365.729C652.739 365.729 652.404 365.896 652.236 365.896C651.063 365.896 649.891 365.896 649.053 366.734H648.885C647.88 366.734 646.875 366.567 646.205 367.572C646.037 367.572 645.702 367.739 645.535 367.739C644.864 367.739 644.194 367.739 643.357 367.907C640.508 368.745 637.66 369.247 634.812 370.085C632.969 370.588 630.958 370.755 629.116 371.76C628.948 371.76 628.613 371.928 628.445 371.928C627.273 371.928 626.1 371.928 625.262 372.766H625.095C622.581 373.101 620.068 373.603 618.058 375.111H617.89C617.555 375.111 617.388 375.111 617.22 375.279C617.053 375.446 616.718 375.446 616.55 375.614C615.712 375.614 614.875 375.614 614.372 376.452C614.204 376.452 614.037 376.619 613.702 376.619C610.519 376.954 607.838 378.462 604.822 379.3C604.487 379.3 604.32 379.635 604.152 379.97H603.984C603.649 379.97 603.314 379.97 603.147 380.305C602.979 380.305 602.812 380.473 602.644 380.473C602.309 380.473 602.141 380.473 602.141 380.808H601.974C601.639 380.808 601.304 380.975 601.136 381.31H600.969C600.801 381.31 600.634 381.31 600.634 381.478C600.466 381.645 600.299 381.645 600.131 381.813C599.963 381.813 599.796 381.813 599.628 382.148C599.461 382.315 599.461 382.315 599.293 382.315C598.791 382.315 598.288 382.483 598.288 382.986C598.121 383.153 598.121 383.153 597.953 383.153C597.618 383.153 597.45 383.153 597.45 383.488H597.283C597.115 383.488 597.115 383.488 596.948 383.656C596.78 383.823 596.445 383.823 596.278 383.991C595.943 383.991 595.607 383.991 595.44 384.493H595.272C594.937 384.493 594.602 384.493 594.435 384.829H594.267C593.429 384.829 592.592 384.829 592.089 385.666C591.922 385.666 591.586 385.834 591.419 385.834C588.236 385.834 585.052 386.672 581.869 387.007C577.848 387.342 573.827 387.677 569.806 387.174C566.288 386.672 562.769 387.342 559.251 387.509C557.408 387.677 555.565 387.677 553.722 388.012C549.869 388.682 546.015 388.347 542.329 387.174C541.324 386.839 540.487 386.336 539.314 386.504C539.146 386.504 538.811 386.336 538.644 386.336C538.476 386.001 538.141 386.001 537.806 386.001C537.638 386.001 537.303 385.834 537.136 385.834C536.466 384.996 535.46 385.164 534.455 385.164C534.287 385.164 533.952 384.996 533.785 384.996C533.45 384.493 532.947 384.326 532.277 384.326C528.088 383.321 523.732 382.818 519.544 382.148C513.512 381.143 507.481 380.473 501.449 380.473C490.727 380.305 480.172 380.137 469.449 380.975C467.439 381.143 465.261 381.645 463.25 381.478C462.748 381.478 462.58 381.645 462.413 382.148C461.24 384.326 459.564 386.169 457.554 387.677C456.884 387.677 456.549 388.012 456.549 388.514C456.214 389.017 455.878 389.352 455.376 389.52C455.208 389.687 455.208 389.687 455.041 389.855C454.371 390.525 453.7 391.028 453.03 391.53C452.863 391.53 452.695 391.53 452.695 391.698C452.025 392.368 451.187 393.038 450.182 393.373C449.847 393.373 449.847 393.541 449.679 393.708L449.512 393.876C449.344 393.876 449.344 393.876 449.177 394.043C449.009 394.211 448.842 394.211 448.674 394.378C448.507 394.378 448.339 394.546 448.172 394.713L448.004 394.881C447.669 394.881 447.334 395.049 447.166 395.384H446.999C446.329 395.384 445.826 395.384 445.658 396.221C445.491 396.221 445.323 396.389 445.156 396.389C444.988 396.389 444.821 396.389 444.653 396.724V396.892H444.486C444.151 396.892 443.815 396.892 443.648 397.394H443.48C443.145 397.394 442.81 397.562 442.643 397.897H442.475C442.308 397.897 442.308 397.897 442.14 398.064C441.973 398.232 441.637 398.232 441.47 398.399C441.135 398.399 440.8 398.399 440.632 398.902H440.465C440.13 398.902 439.794 398.902 439.627 399.237H439.459C439.124 399.237 438.789 399.237 438.622 399.572C438.454 399.572 438.287 399.74 438.119 399.74C436.946 399.74 435.941 399.74 434.768 399.74C434.601 399.572 434.433 399.572 434.266 399.405C434.098 399.405 433.931 399.237 433.931 399.237C433.763 399.07 433.596 399.07 433.26 398.902C433.093 398.567 432.758 398.567 432.59 398.567H432.423C432.088 398.064 431.585 398.064 431.082 398.232C430.915 398.232 430.58 398.064 430.412 398.064C429.91 397.897 429.575 397.562 429.072 397.394C426.559 397.059 424.046 396.724 421.533 396.221C418.684 395.719 415.669 395.719 412.653 395.384C410.307 395.049 408.129 394.211 405.784 394.211H405.616C405.281 393.708 404.778 393.708 404.276 393.708C404.108 393.708 403.773 393.541 403.606 393.541C403.271 393.038 402.768 392.871 402.098 392.703C398.412 391.865 394.559 391.363 390.705 391.195C385.679 391.028 380.82 391.698 375.961 392.2C373.783 392.535 371.605 392.871 369.762 394.378H369.595C369.26 394.378 369.092 394.378 368.925 394.713C368.757 394.713 368.59 394.881 368.255 394.881C367.919 394.881 367.584 394.881 367.417 395.216H367.249C366.914 395.216 366.579 395.216 366.412 395.551C366.244 395.551 366.077 395.719 365.909 395.719C365.741 395.719 365.574 395.719 365.406 395.886C365.239 395.886 365.071 396.054 364.904 396.054C364.736 396.054 364.569 396.054 364.401 396.389C364.234 396.389 364.066 396.556 363.899 396.556C363.563 396.556 363.396 396.556 363.396 396.892L363.228 397.059C363.061 397.059 363.061 397.059 363.061 397.227C362.893 397.394 362.558 397.562 362.391 397.562C362.223 397.562 362.056 397.562 362.056 397.729C361.888 397.897 361.72 397.897 361.553 398.064C361.218 398.064 361.05 398.232 361.05 398.399L360.883 398.567C360.715 398.567 360.715 398.567 360.548 398.734C360.38 398.902 360.213 398.902 360.045 399.07C359.878 399.07 359.71 399.237 359.542 399.405L359.375 399.572C359.207 399.572 359.207 399.572 359.207 399.74C359.04 399.907 358.872 400.075 358.705 400.075C358.537 400.075 358.37 400.075 358.202 400.41C357.867 400.577 357.532 400.912 357.197 401.08C357.029 401.08 356.862 401.08 356.862 401.248C356.694 401.415 356.527 401.415 356.359 401.583C356.024 401.583 355.857 401.75 355.857 401.918H355.689C355.019 401.918 354.516 401.918 354.349 402.755C354.181 402.755 354.014 402.923 353.846 402.923C353.511 402.923 353.343 402.923 353.343 403.258L353.176 403.426C353.008 403.426 353.008 403.426 353.008 403.593C352.841 403.761 352.506 403.928 352.338 403.928C351.668 403.928 351.165 403.928 350.998 404.766C350.83 404.766 350.663 404.933 350.495 404.933C350.328 404.933 350.16 404.933 349.993 405.269C349.825 405.269 349.658 405.436 349.49 405.436C349.322 405.436 349.155 405.436 348.987 405.771C348.82 405.771 348.652 405.939 348.485 405.939C348.317 405.939 348.15 405.939 347.982 406.106C347.815 406.106 347.647 406.274 347.48 406.274C347.312 406.274 347.144 406.274 346.977 406.441C346.809 406.441 346.642 406.609 346.474 406.609C346.307 406.609 346.139 406.609 345.972 406.776C345.804 406.776 345.637 406.944 345.469 406.944C344.631 406.944 343.961 407.111 343.626 407.782C343.291 407.782 342.956 407.782 342.788 408.284H342.621C342.286 408.284 341.951 408.284 341.783 408.619H341.616C341.281 408.619 340.945 408.619 340.778 408.954C340.61 408.954 340.443 409.122 340.275 409.122C340.108 409.122 339.94 409.122 339.773 409.29C339.605 409.457 339.438 409.457 339.103 409.625C338.767 409.625 338.432 409.625 338.265 409.96H338.097C336.757 410.127 335.417 410.295 334.411 411.3H334.244C333.741 411.3 333.239 411.3 332.904 411.803H332.736C331.731 411.803 330.725 411.635 330.055 412.64C329.888 412.64 329.72 412.808 329.385 412.808C328.883 412.808 328.38 412.808 328.045 413.311H327.877C327.375 413.311 326.872 413.311 326.537 413.646H326.369C325.867 413.646 325.364 413.646 325.029 414.148H324.862C324.359 414.148 323.856 414.148 323.521 414.651H323.354C327.542 418.169 327.207 418.169 327.04 418.504Z" fill="#4D423B"/>
<path d="M817.933 331.886C816.593 330.713 814.75 330.378 813.075 330.043C806.54 328.535 799.839 327.697 793.305 326.357C789.619 325.687 785.933 325.184 782.247 325.519C774.54 326.189 766.833 325.854 759.126 325.854C756.278 325.854 753.263 325.519 750.247 325.017C748.404 324.681 746.393 324.681 744.55 324.514C741.702 324.346 739.022 324.011 736.173 323.844C729.137 323.341 722.1 323.006 715.231 321.666C708.026 320.325 700.99 318.482 693.786 317.31C689.765 316.639 685.576 316.137 681.388 315.634C677.534 315.132 673.513 314.964 669.66 314.294C668.319 314.126 666.979 314.294 665.639 314.126C659.105 313.624 652.738 314.629 646.707 316.807C642.183 318.482 637.492 319.153 632.633 319.823C628.78 320.325 624.926 321.163 621.073 321.833C616.047 322.671 611.188 323.676 606.162 324.346C600.8 325.017 595.439 326.189 590.245 327.53C583.376 329.205 576.339 330.545 569.303 332.053C564.779 333.059 560.088 333.896 555.397 334.566C551.711 335.069 548.193 334.901 544.507 334.901C541.826 334.901 538.978 335.069 536.297 334.901C531.439 334.734 526.58 335.404 521.721 335.572C517.533 335.739 513.344 336.074 508.988 336.577C504.632 336.912 500.444 337.247 496.087 337.582C491.564 337.917 487.208 338.252 482.684 338.587C477.826 339.09 472.799 338.922 467.941 339.928C467.773 339.928 467.438 339.928 467.27 339.928C455.878 340.263 444.485 340.598 433.092 340.263C428.736 340.095 424.548 339.593 420.359 338.42C413.657 336.744 406.788 335.069 400.254 332.556C396.736 331.216 393.217 330.043 389.364 329.54C386.348 329.038 383.165 328.535 380.149 328.2C376.798 327.865 373.28 327.53 369.929 327.027C366.746 326.524 363.563 326.357 360.379 325.854C357.866 325.519 355.521 325.017 353.008 324.681C346.976 324.011 341.28 322.503 335.248 321.833C329.217 321.163 323.185 320.996 316.986 320.996C302.243 320.996 287.332 320.996 272.588 320.996C270.913 320.996 269.405 321.331 267.897 321.833C258.347 324.681 249.97 329.708 241.928 335.739C235.729 340.43 229.53 345.121 222.996 349.477C219.31 351.823 215.457 354.169 211.436 355.844C208.085 357.184 204.734 358.022 201.216 358.357C196.357 358.86 191.498 359.53 186.807 360.368C181.948 361.205 177.257 362.211 172.399 362.713C165.865 363.383 159.498 363.718 152.964 363.551C149.613 363.383 146.262 362.713 143.079 362.043C139.226 361.205 135.372 360.87 131.519 360.2C127.498 359.53 123.477 358.692 119.456 358.357C116.44 358.022 113.592 357.687 110.576 357.687C90.8063 357.687 71.204 357.687 51.4342 357.687C48.7536 357.687 46.0729 357.352 43.3923 356.849C41.8844 356.514 40.209 356.514 38.7011 356.347C36.188 356.179 33.6749 355.844 30.9943 355.676C27.6434 355.509 24.2926 355.509 20.9418 354.839C20.6067 354.839 20.2716 354.839 19.9366 354.839C14.0726 354.839 8.04117 354.001 2.17725 354.336C2.17725 325.854 2.17725 297.372 2.17725 268.89C3.01495 268.89 3.68511 268.89 4.52282 268.723C11.392 267.383 18.0936 265.037 24.9628 263.697C30.1566 262.691 35.5179 261.519 40.7116 260.681C45.4028 259.843 50.2614 259.173 54.785 257.498C57.1306 256.66 59.3086 256.827 61.6542 256.995C61.9893 256.995 62.4919 257.33 62.827 257.163C66.848 256.492 71.0365 256.827 75.0575 256.827C78.0732 256.827 80.9214 257.498 83.4345 259.341C85.1099 260.346 86.7853 261.184 88.6283 261.854C98.3456 265.204 108.398 266.377 118.451 267.383C121.131 267.718 123.644 268.388 125.99 269.393C130.849 271.571 135.875 273.582 141.236 274.754C147.938 276.262 154.639 277.938 161.173 280.283C163.687 281.121 166.2 281.959 168.88 282.461C174.409 283.466 179.603 284.974 184.797 287.152C193.174 290.671 201.886 292.514 210.933 293.184C216.294 293.519 221.823 293.854 227.352 292.849C232.881 291.843 238.41 291.006 243.771 289.163C246.787 288.158 249.635 286.985 252.818 286.482C261.363 284.974 269.405 282.126 277.447 279.278C282.808 277.435 287.834 274.922 293.196 273.079C299.06 271.068 305.091 269.393 310.955 267.215C315.981 265.204 321.51 264.367 326.536 262.524C329.719 261.351 332.568 260.011 335.751 259.005C340.107 257.498 344.296 255.99 348.652 254.314C350.997 253.477 353.175 252.304 355.688 251.634C358.369 250.964 361.05 249.958 363.73 249.121C366.913 247.948 370.264 246.943 373.113 244.932C375.123 243.592 377.301 242.754 379.647 242.084C383.668 240.911 387.689 239.906 391.542 238.398C392.715 237.895 393.72 237.225 394.558 236.387C394.893 235.885 395.228 235.55 395.06 234.88C394.725 234.209 394.223 234.209 393.72 234.209C389.029 234.209 384.338 233.707 379.982 235.885C378.809 236.387 377.636 236.723 376.296 237.058C371.437 238.398 366.411 238.566 361.385 239.403C357.196 240.241 352.84 240.744 348.652 241.749C340.945 243.592 333.573 246.105 326.201 249.121C320.17 251.634 313.971 253.979 307.604 255.655C303.918 256.66 300.065 257.33 296.379 258.168C290.85 259.508 285.489 261.351 279.792 262.356C273.426 263.529 266.892 265.037 260.358 264.534C259.185 264.534 258.18 264.534 257.007 264.534C254.326 264.702 251.813 264.869 249.132 265.204C245.949 265.54 242.766 265.54 239.583 265.204C236.064 264.869 232.713 264.032 229.027 264.032C227.687 264.032 226.514 264.534 225.174 264.534C220.985 264.702 216.797 265.54 212.608 266.21C207.415 267.215 202.221 268.555 196.692 268.388C193.844 268.22 191.498 267.55 189.655 265.372C187.645 263.026 185.299 261.351 182.451 260.178C181.278 259.676 179.938 259.005 178.765 258.335C175.582 256.995 173.069 254.817 170.556 252.471C168.378 250.461 166.032 249.456 163.016 249.456C156.65 249.288 150.283 250.293 144.084 249.958C140.733 249.791 137.383 249.288 134.367 247.613C133.194 246.775 132.021 245.937 130.849 245.1C126.157 241.749 120.796 240.073 115.77 237.56C113.257 236.387 110.744 235.55 108.063 235.047C102.534 234.042 97.0053 233.372 91.4765 233.037C89.466 232.869 87.2879 232.702 84.9424 232.534C85.2775 232.031 85.2775 231.864 85.445 231.696C88.1257 228.513 90.8063 225.33 93.487 222.147C94.8273 220.471 96.3352 219.801 98.1781 219.633C101.696 219.466 105.215 218.796 108.566 217.79C117.11 215.612 125.822 213.937 134.702 213.267C140.398 212.932 145.76 210.586 150.953 208.408C154.974 206.9 158.828 205.392 163.184 205.56C166.2 205.56 168.88 205.057 171.561 204.052C172.231 203.885 173.069 203.549 173.236 202.879C173.739 201.036 175.414 199.529 175.582 197.35C175.582 196.68 176.085 196.01 176.42 195.34C177.928 192.659 180.106 190.314 181.948 187.801C185.132 183.445 188.483 179.256 192.168 175.403C193.174 174.23 194.514 173.225 194.514 171.382C195.519 171.717 196.525 171.549 197.53 171.047C204.064 168.031 210.933 166.02 218.137 165.518C223.666 165.183 229.027 164.345 234.389 163.842C236.734 163.507 238.745 163.842 240.923 164.848C245.782 167.361 250.975 168.533 256.169 170.376C257.174 170.712 258.347 171.214 259.352 171.549C262.033 172.554 264.211 174.397 265.216 177.246C266.054 179.424 267.729 180.429 269.907 180.764C270.913 180.931 271.918 181.099 273.091 181.099C274.766 181.267 276.274 181.434 277.782 182.104C281.3 183.612 284.819 184.617 288.504 185.623C290.682 186.293 292.023 187.633 292.86 189.811C293.363 191.319 293.698 192.827 293.866 194.335C294.201 198.858 296.379 201.874 300.735 203.214C302.243 203.717 303.583 204.387 304.923 204.89C308.944 206.565 312.965 207.403 317.321 207.235C320.17 207.068 322.85 207.57 325.698 208.241C328.547 208.743 331.227 209.748 333.573 211.591C337.426 214.607 341.782 216.45 346.641 216.618C351.332 216.785 354.516 218.963 356.358 223.319C357.531 225.832 359.039 228.346 360.714 230.524C362.557 232.869 364.903 234.042 367.751 234.042C373.448 234.042 378.976 234.377 384.673 233.874C387.353 233.707 390.202 233.539 392.882 233.707C394.893 233.874 396.233 234.88 397.406 236.723C401.259 242.586 404.275 248.953 407.793 254.985C409.636 258 411.814 260.346 415.165 261.686C416.506 262.189 418.013 263.026 419.186 263.864C422.034 265.54 425.05 266.042 428.233 265.707C433.427 265.204 438.621 264.534 443.815 263.529C447.836 262.859 451.689 262.356 455.71 261.854C458.391 261.519 460.904 261.854 463.249 263.194C466.768 265.037 470.454 265.875 474.307 266.042C476.318 266.042 478.496 266.377 480.506 266.545C483.354 266.88 485.365 268.22 486.538 270.733C487.543 272.744 488.716 274.419 490.391 275.927C492.066 277.435 493.909 278.273 496.087 277.938C498.768 277.603 501.449 277.602 503.962 276.932C507.983 275.927 512.171 275.592 516.36 275.257C517.365 275.257 518.37 275.089 519.208 275.592C521.386 276.765 523.732 276.932 525.91 277.435C527.082 277.77 528.088 278.105 529.093 278.608C534.622 281.791 540.318 284.974 545.847 288.158C546.852 288.66 547.858 289.163 548.528 290.168C546.517 290.001 544.674 290.503 542.831 291.173C539.313 292.346 535.795 293.519 532.276 294.692C531.103 295.027 530.098 295.529 529.093 296.2C525.742 298.21 522.224 300.221 518.705 302.231C514.852 304.409 510.663 305.414 506.642 306.922C502.454 308.598 498.265 310.44 493.742 311.446C490.056 312.283 486.203 312.786 482.517 313.791C478.496 314.964 474.14 315.467 469.951 315.299C467.773 315.299 465.427 315.132 463.249 315.299C458.223 315.802 453.029 316.137 448.003 316.304C444.652 316.304 441.134 316.304 438.118 314.294C438.118 313.289 437.281 313.121 436.61 312.954C434.935 312.283 433.092 311.781 431.584 310.776C427.898 308.43 423.877 308.598 419.856 309.1C417.008 309.603 413.992 309.603 410.977 309.938C408.631 310.105 406.118 309.77 403.772 309.603C399.919 309.268 396.233 310.105 392.38 310.776C392.045 310.776 391.71 310.943 391.542 311.111C391.039 311.278 390.872 311.781 391.039 312.283C391.207 312.786 391.542 312.786 392.045 312.786C394.558 312.786 397.071 312.786 399.584 312.786C401.259 312.786 402.767 312.786 404.275 313.289C408.966 314.964 413.992 314.294 418.851 314.126C421.867 313.959 424.883 313.289 427.898 313.791C428.569 313.959 429.239 313.624 429.741 313.456C431.417 313.121 433.26 313.121 434.935 313.456C435.94 313.791 437.113 313.959 438.286 314.126C438.286 316.975 438.788 317.477 441.302 318.315C444.485 319.32 447.836 319.99 451.186 319.99C453.532 319.99 455.878 319.823 458.223 320.325C459.228 320.493 458.893 321.498 459.731 321.498C464.59 321.163 469.281 321.666 474.14 322.001C475.48 322.001 476.653 321.498 477.993 321.498C482.014 321.331 486.035 322.168 489.888 322.671C492.904 323.174 495.752 323.676 498.768 323.341C500.946 323.006 503.124 323.006 505.302 323.006C508.15 323.006 511.166 323.006 514.014 323.006C515.187 323.006 516.36 322.839 517.533 322.671C520.213 322.336 522.726 322.336 525.407 322.839C527.753 323.341 529.931 323.844 532.276 324.011C539.145 324.346 546.015 324.011 552.884 323.006C554.727 322.671 556.402 322.839 558.078 322.671C561.763 322.001 565.449 321.498 569.135 320.828C571.146 320.493 573.156 320.325 575.167 319.32C573.324 318.65 571.481 318.65 569.638 318.985C563.941 319.99 558.078 320.493 552.214 320.325C551.543 320.325 550.706 320.325 550.036 319.99C548.695 319.488 547.187 319.32 545.847 319.32C543.669 319.32 541.491 319.488 539.313 318.985C535.962 318.315 532.779 317.645 529.428 317.477C524.569 317.142 519.711 316.64 514.852 316.975C513.177 317.142 511.501 316.975 509.826 316.304C510.663 315.634 511.836 315.467 512.842 314.964C516.527 313.456 519.878 311.613 523.732 310.608C526.077 309.938 528.423 309.268 530.768 308.262C534.454 306.922 538.14 305.749 541.491 303.571C545.009 301.393 548.863 299.55 552.884 298.378C555.732 297.54 558.078 295.864 560.591 294.524C560.926 294.357 561.261 294.021 561.093 293.351C560.088 293.016 559.083 293.351 557.91 293.351C555.899 293.519 553.889 293.519 552.214 292.179C556.57 293.519 560.758 293.016 564.947 291.843C573.491 289.498 582.036 286.817 590.748 284.639C592.591 284.137 594.266 283.969 596.109 284.472C597.282 284.807 598.455 284.807 599.628 285.142C603.481 286.147 606.832 285.309 610.015 282.796C612.528 280.786 615.209 278.943 617.555 276.932C622.413 272.744 627.942 270.063 634.476 269.225C635.314 269.058 636.152 269.058 636.822 268.723C642.351 266.88 648.047 266.545 653.576 265.372C656.927 264.702 659.775 265.204 662.623 267.383C665.471 269.561 668.487 271.571 671.168 274.084C674.518 277.1 678.539 278.943 683.063 280.116C689.765 281.791 696.634 282.796 703.335 284.639C708.026 285.98 713.053 285.812 717.911 286.147C722.77 286.482 727.629 286.482 732.32 286.65C735.671 286.817 739.022 287.152 742.372 287.99C744.048 288.493 745.723 288.66 747.399 288.828C750.749 289.163 754.1 290.001 757.284 291.173C761.304 292.681 765.493 293.854 769.682 295.027C773.367 296.032 776.551 298.042 779.231 300.723C783.252 304.912 788.111 307.927 793.137 310.608C795.148 311.613 797.326 312.786 799.504 313.624C804.362 315.634 808.216 318.65 811.399 322.839C813.075 325.017 814.75 327.027 816.425 329.038C817.263 329.708 818.101 330.713 817.933 331.886ZM80.2512 325.687C79.4135 325.687 77.7381 325.687 76.0627 325.687C75.5601 325.687 75.0575 325.687 74.5548 325.687C73.8847 325.687 73.5496 326.022 73.3821 326.692C73.2145 327.362 73.5496 327.697 74.0522 328.032C74.3873 328.2 74.5549 328.367 74.8899 328.535C77.403 329.54 79.9162 330.043 82.5968 330.043C84.1047 330.043 85.6125 330.21 86.9529 331.048C88.1257 331.718 89.2984 331.718 90.4712 331.551C93.6545 331.048 96.8378 330.88 100.021 331.048C105.382 331.216 110.744 331.048 116.105 330.21C117.11 330.043 118.283 330.043 119.288 330.21C122.974 330.713 126.66 331.216 130.346 331.048C131.686 331.048 132.859 331.718 134.199 331.551C137.215 330.88 140.231 330.88 143.247 331.551C144.084 331.718 144.587 331.216 145.09 330.545C145.592 329.875 145.257 329.373 144.754 328.87C144.252 328.367 143.749 327.697 143.079 327.53C140.063 326.859 137.55 324.514 134.367 324.011C132.859 323.844 131.519 323.341 130.346 322.671C127.833 321.498 125.32 320.493 122.472 320.325C120.293 320.158 117.948 320.158 115.77 319.488C113.592 318.65 111.414 318.985 109.236 319.99C105.215 322.001 100.859 323.341 96.5027 324.346C91.3089 325.352 86.1152 325.854 80.2512 325.687Z" fill="#6D6560"/>
<path d="M152.462 110.062C151.29 113.748 151.29 117.601 151.625 121.455C151.792 123.633 151.96 125.978 151.457 128.156C151.122 130.502 151.792 131.842 153.97 133.015C159.164 135.696 164.023 138.711 169.217 141.224C173.908 143.402 176.923 147.088 179.604 151.277C179.772 151.612 179.939 151.947 180.107 152.282C182.955 158.816 186.976 164.513 192.17 169.204C192.337 169.371 192.505 169.539 192.505 169.706C188.986 172.387 186.473 176.073 183.625 179.424C180.442 183.11 177.594 187.298 173.908 190.649C171.562 192.659 169.552 195.005 167.374 197.015C166.871 197.518 166.368 198.188 165.531 198.188C163.185 198.021 161.007 198.691 158.829 198.691C148.777 198.523 138.724 198.858 128.672 198.356C125.488 198.188 122.305 197.853 119.122 197.686C117.446 197.686 115.771 197.518 114.096 197.183C110.577 196.68 107.059 196.345 103.541 196.345C102.033 196.345 100.692 196.848 99.5196 197.686C98.1793 198.691 96.8389 199.696 95.3311 200.534C91.6452 203.047 87.9593 205.56 84.6085 208.576C82.0954 210.754 79.4147 212.597 77.0691 214.942C74.7236 217.12 72.378 219.131 70.535 221.644C68.1895 224.827 66.179 228.178 64.1685 231.529C62.8282 233.874 61.3203 236.052 59.3098 237.728C58.6396 238.231 58.137 238.733 57.1318 238.566C52.7757 237.56 48.5872 236.22 45.0688 233.372C40.2102 229.351 35.519 225.162 30.9954 220.806C27.9797 217.958 24.7964 215.613 20.943 214.272C18.0948 213.267 15.2466 212.094 12.3984 211.089C8.88003 209.749 5.19414 208.241 1.67578 206.9C1.67578 194 1.67578 181.099 1.67578 168.366C7.70725 168.701 13.2361 167.193 18.7649 165.183C22.1158 164.01 25.6341 162.837 29.1525 161.999C38.3672 159.989 47.2469 157.308 55.959 153.79C58.8072 152.617 61.4878 151.109 64.336 149.937C69.3623 147.926 74.3885 145.916 79.5822 143.905C83.2681 142.397 86.7865 140.722 90.4724 139.381C93.4881 138.376 96.3363 137.203 99.017 135.528C102.033 133.685 105.048 132.177 108.232 130.669C112.085 128.826 115.939 126.983 119.624 124.805C124.316 122.125 129.677 120.617 134.536 118.104C137.719 116.261 141.07 114.585 144.421 113.245C147.436 112.24 149.782 110.732 152.462 110.062Z" fill="#6D6560"/>
<path d="M2.34521 206.9C5.86357 208.241 9.54947 209.749 13.0678 211.089C15.916 212.262 18.7642 213.267 21.6124 214.272C25.4658 215.612 28.6491 217.958 31.6648 220.806C36.1884 225.162 40.8796 229.351 45.7383 233.372C49.2566 236.22 53.4451 237.393 57.8012 238.566C58.6389 238.733 59.3091 238.398 59.9792 237.728C61.9897 235.885 63.4976 233.707 64.8379 231.529C66.8484 228.178 68.8589 224.827 71.2045 221.644C73.0474 219.131 75.393 216.953 77.7386 214.942C80.0841 212.764 82.9323 210.921 85.2779 208.576C88.6287 205.56 92.3146 203.047 96.0005 200.534C97.3408 199.696 98.8487 198.691 100.189 197.686C101.362 196.848 102.702 196.345 104.21 196.345C107.728 196.178 111.247 196.68 114.765 197.183C116.44 197.351 118.116 197.518 119.791 197.686C122.975 197.853 126.158 198.188 129.341 198.356C139.394 199.026 149.446 198.691 159.498 198.691C161.676 198.691 163.855 198.021 166.2 198.188C167.038 198.188 167.54 197.518 168.043 197.015C170.221 194.837 172.232 192.492 174.577 190.649C178.431 187.298 181.111 183.277 184.294 179.424C187.143 176.073 189.656 172.387 193.174 169.706C193.844 170.209 194.514 170.712 195.017 171.214C195.017 173.057 193.677 174.062 192.672 175.235C188.986 179.089 185.802 183.445 182.452 187.633C180.609 190.146 178.431 192.492 176.923 195.173C176.588 195.843 176.085 196.345 176.085 197.183C175.917 199.193 174.242 200.701 173.739 202.712C173.572 203.55 172.734 203.717 172.064 203.885C169.383 204.89 166.535 205.56 163.687 205.392C159.331 205.225 155.477 206.733 151.456 208.241C146.263 210.251 140.901 212.597 135.205 213.099C126.325 213.77 117.613 215.445 109.069 217.623C105.718 218.461 102.2 219.131 98.6812 219.466C96.8382 219.633 95.3303 220.304 93.99 221.979C91.3094 225.162 88.6287 228.346 85.9481 231.529C85.7805 231.696 85.7805 231.864 85.4454 232.367C87.791 232.534 89.8015 232.702 91.9795 232.869C97.5084 233.204 103.037 233.874 108.566 234.88C111.247 235.382 113.927 236.052 116.273 237.393C121.299 239.906 126.66 241.749 131.352 244.932C132.524 245.77 133.697 246.608 134.87 247.445C137.886 249.288 141.237 249.623 144.587 249.791C150.954 250.126 157.32 249.121 163.519 249.288C166.535 249.288 168.881 250.293 171.059 252.304C173.572 254.649 176.085 256.827 179.268 258.168C180.441 258.67 181.614 259.508 182.954 260.011C185.802 261.184 188.148 262.859 190.158 265.205C192.001 267.383 194.347 268.053 197.195 268.22C202.724 268.388 207.75 266.88 213.111 266.042C217.3 265.372 221.489 264.534 225.677 264.367C227.017 264.367 228.19 263.864 229.531 263.864C233.049 263.864 236.567 264.702 240.086 265.037C243.269 265.372 246.452 265.372 249.635 265.037C252.316 264.702 254.829 264.534 257.51 264.367C258.683 264.367 259.688 264.367 260.861 264.367C267.562 264.869 273.929 263.362 280.295 262.189C285.824 261.184 291.353 259.341 296.882 258C300.568 257.163 304.421 256.492 308.107 255.487C314.474 253.812 320.673 251.466 326.704 248.953C333.908 245.937 341.448 243.424 349.155 241.581C353.343 240.576 357.699 240.073 361.888 239.236C366.914 238.23 371.94 238.063 376.799 236.89C377.972 236.555 379.312 236.388 380.485 235.717C384.841 233.372 389.532 234.042 394.223 234.042C394.726 234.042 395.396 234.209 395.563 234.712C395.898 235.382 395.563 235.717 395.061 236.22C394.223 237.058 393.218 237.728 392.045 238.23C388.192 239.738 384.171 240.911 380.15 241.916C377.804 242.587 375.626 243.257 373.616 244.765C370.767 246.775 367.417 247.78 364.233 248.953C361.553 249.958 358.872 250.796 356.191 251.466C353.846 252.136 351.5 253.142 349.155 254.147C344.966 255.822 340.61 257.498 336.254 258.838C333.071 259.843 330.223 261.351 327.039 262.356C321.845 264.199 316.484 265.037 311.458 267.047C305.594 269.393 299.563 270.901 293.699 272.911C288.337 274.754 283.311 277.1 277.95 279.11C269.908 281.959 261.866 284.974 253.321 286.315C250.138 286.817 247.29 287.823 244.274 288.995C238.913 290.838 233.384 291.676 227.855 292.681C222.494 293.686 216.965 293.351 211.436 293.016C202.389 292.514 193.677 290.671 185.3 286.985C180.273 284.807 174.912 283.299 169.383 282.294C166.87 281.791 164.19 280.953 161.676 280.116C155.142 277.938 148.441 276.095 141.739 274.587C136.545 273.414 131.519 271.404 126.493 269.226C123.98 268.22 121.634 267.55 118.954 267.215C108.901 266.21 98.6812 265.037 89.1313 261.686C87.2884 261.016 85.613 260.178 83.9376 259.173C81.4245 257.498 78.5763 256.828 75.5605 256.66C71.5396 256.66 67.351 256.157 63.3301 256.995C62.995 256.995 62.4924 256.827 62.1573 256.827C59.8117 256.66 57.6337 256.492 55.2881 257.33C50.7645 259.006 45.9058 259.676 41.2147 260.513C35.8534 261.351 30.6596 262.524 25.4658 263.529C18.5967 264.869 11.895 267.215 5.02587 268.555C4.18816 268.723 3.518 268.723 2.6803 268.723C2.34521 248.45 2.34521 227.675 2.34521 206.9Z" fill="#4D423B"/>
<path d="M2.34521 1.83044C6.53373 1.83044 10.7223 1.49536 14.9108 0.992736C17.2563 0.657655 19.6019 0.825195 21.7799 1.49536C23.4554 1.99798 25.2983 1.99798 26.9737 2.16552C30.3245 2.33306 32.6701 3.84093 33.8429 6.85666C35.0157 9.53732 36.356 12.0504 37.6963 14.7311C39.3717 18.0819 39.5393 21.6003 39.8743 25.2861C40.0419 26.6265 40.2094 27.7993 40.2094 29.1396C40.2094 30.4799 41.0471 31.1501 42.2199 31.4852C43.5602 31.8202 45.0681 32.3229 46.4084 32.4904C50.0943 33.1606 53.4451 34.6684 56.2933 37.1815C57.6337 38.3543 59.1415 39.5271 60.4819 40.8674C61.8222 42.2078 63.3301 43.3806 65.0055 44.3858C68.8589 46.7314 71.7071 50.0822 73.55 54.2707C75.5605 59.2969 77.2359 64.3231 77.7386 69.852C78.0736 73.5379 79.2464 77.0562 82.0946 79.7369C83.2674 80.7421 84.2727 81.9149 85.2779 83.0877C86.2831 84.2605 87.6235 84.7631 89.1313 84.5956C93.4874 84.428 97.8435 84.7631 102.032 85.7684C105.048 86.6061 107.896 85.6008 110.912 85.2657C111.414 85.2657 111.917 85.0982 112.252 84.9307C115.435 84.0929 118.451 83.9254 121.802 84.428C126.158 85.0982 130.514 85.9359 134.702 87.4438C136.88 88.1139 138.891 89.1192 140.901 90.1244C142.409 90.9621 143.75 91.9674 144.755 93.3077C145.928 94.8156 147.268 96.3234 148.608 97.8313C149.949 99.5067 151.456 100.847 153.132 102.02C153.97 102.69 155.142 103.36 154.64 104.7C153.467 104.533 152.294 105.036 151.121 105.371C150.451 105.538 149.781 105.706 149.278 105.538C145.593 104.533 142.074 105.706 138.723 106.543C128.838 109.057 119.289 112.742 109.571 115.423C105.885 116.428 102.2 117.601 98.3461 117.266C96.6707 117.098 95.1628 117.601 93.6549 117.769C86.9533 118.941 80.2517 119.444 73.7176 119.947C69.194 120.282 64.6704 121.119 60.3143 122.125C56.9635 122.795 53.7802 123.465 50.2619 123.465C45.2357 123.297 40.2094 123.297 35.0157 123.465C29.6544 123.633 24.4606 123.13 19.2668 121.957C16.5862 121.287 14.2406 120.114 13.0678 117.601C12.7327 117.098 12.5652 116.596 12.0626 116.261C9.04685 113.078 6.53373 109.392 4.18816 105.706C3.85308 105.036 3.518 104.7 2.6803 104.7C2.34521 70.6897 2.34521 36.3438 2.34521 1.83044Z" fill="#6D6560"/>
<path d="M2.3454 105.203C3.01556 105.203 3.51818 105.706 3.85326 106.208C6.19883 109.894 8.71195 113.58 11.7277 116.763C12.0628 117.098 12.3978 117.601 12.7329 118.104C14.0732 120.617 16.2513 121.957 18.9319 122.46C24.1257 123.633 29.3195 123.968 34.6808 123.968C39.707 123.8 44.7332 123.8 49.927 123.968C53.2778 124.135 56.6286 123.465 59.9794 122.627C64.503 121.622 68.8591 120.784 73.3827 120.449C80.0843 119.779 86.7859 119.444 93.32 118.271C94.8279 117.936 96.5033 117.601 98.0112 117.769C101.865 118.104 105.551 116.931 109.236 115.926C119.121 113.245 128.671 109.559 138.389 107.046C141.739 106.208 145.258 105.036 148.944 106.041C149.614 106.208 150.116 106.041 150.787 105.873C151.959 105.538 153.132 105.036 154.305 105.203C153.802 106.878 153.3 108.554 152.294 110.062C149.614 110.732 147.101 112.24 144.588 113.413C141.237 114.92 137.886 116.596 134.703 118.271C129.844 120.952 124.483 122.292 119.791 124.973C116.106 127.151 112.252 128.994 108.399 130.837C105.215 132.345 102.2 133.853 99.184 135.695C96.5033 137.371 93.4876 138.376 90.6394 139.549C86.9535 140.889 83.4351 142.565 79.7492 144.073C74.723 146.083 69.5292 148.094 64.503 150.104C61.6548 151.277 58.9742 152.785 56.126 153.957C47.4139 157.476 38.5342 160.324 29.3195 162.167C25.8011 162.837 22.4503 164.01 18.9319 165.35C13.4031 167.361 7.7067 168.869 1.84277 168.533C2.3454 147.256 2.3454 126.313 2.3454 105.203Z" fill="#4D423B"/>
<path d="M2.34521 510.987C7.70652 510.317 13.2354 510.652 18.7642 510.484C23.4554 510.317 28.1465 510.149 33.0052 509.647C35.8534 509.311 38.8691 509.479 41.7173 509.479C44.733 509.479 47.7488 508.976 50.7645 508.641C53.1101 508.306 55.6232 508.306 57.9688 507.971C62.6599 507.469 67.351 507.133 72.0422 506.798C76.5658 506.463 80.9218 506.128 85.2779 505.123C83.77 506.128 81.9271 506.463 80.2517 506.463C65.3405 507.469 50.4294 509.479 35.3507 509.982C24.7957 510.317 14.2406 510.819 3.518 511.154C3.18292 511.154 2.6803 511.322 2.34521 511.322C2.34521 511.322 2.34521 511.154 2.34521 510.987Z" fill="#6D6560"/>
<path d="M438.621 314.126C441.637 316.137 444.988 316.137 448.506 316.137C453.7 316.137 458.726 315.634 463.752 315.132C465.93 314.964 468.276 314.964 470.454 315.132C474.81 315.299 478.998 314.797 483.019 313.624C486.705 312.451 490.559 312.116 494.245 311.278C498.768 310.273 502.957 308.43 507.145 306.755C511.166 305.079 515.355 304.074 519.208 302.063C522.727 300.053 526.245 298.21 529.596 296.032C530.601 295.362 531.774 294.859 532.779 294.524C536.297 293.351 539.816 292.179 543.334 291.006C545.177 290.336 547.02 289.833 549.03 290C549.533 290.168 550.036 290.503 550.371 291.006C550.538 291.341 550.706 291.508 551.041 291.508C551.208 291.508 551.209 291.508 551.376 291.676C551.544 292.011 551.711 292.011 552.046 292.011C552.214 292.011 552.214 292.011 552.381 292.179C554.057 293.519 556.067 293.686 558.078 293.351C559.25 293.184 560.256 293.016 561.261 293.351C561.428 294.021 561.093 294.357 560.758 294.524C558.245 295.864 555.732 297.54 553.051 298.378C549.03 299.55 545.345 301.393 541.659 303.571C538.308 305.582 534.454 306.755 530.936 308.262C528.59 309.1 526.245 309.938 523.899 310.608C520.046 311.613 516.528 313.456 513.009 314.964C512.004 315.299 510.831 315.467 509.993 316.304C511.669 316.975 513.344 316.975 515.02 316.975C519.878 316.639 524.737 317.142 529.596 317.477C532.947 317.812 536.297 318.315 539.481 318.985C541.659 319.488 543.837 319.153 546.015 319.32C547.523 319.32 548.863 319.32 550.203 319.99C550.873 320.325 551.544 320.325 552.381 320.325C558.245 320.493 564.109 319.99 569.806 318.985C571.648 318.65 573.491 318.65 575.334 319.32C573.491 320.325 571.313 320.325 569.303 320.828C565.617 321.498 561.931 322.168 558.245 322.671C556.57 323.006 554.727 322.838 553.051 323.006C546.182 324.179 539.313 324.514 532.444 324.011C530.098 323.844 527.92 323.341 525.575 322.838C522.894 322.336 520.213 322.503 517.7 322.671C516.528 322.838 515.355 323.006 514.182 323.006C511.334 323.006 508.318 323.006 505.47 323.006C503.292 323.006 501.114 323.006 498.936 323.341C495.92 323.844 493.072 323.174 490.056 322.671C486.035 322.001 482.182 321.163 478.161 321.498C476.82 321.498 475.648 322.001 474.307 322.001C469.449 321.833 464.757 321.331 459.899 321.498C458.894 321.498 459.229 320.493 458.391 320.325C456.045 319.823 453.7 319.99 451.354 319.99C448.003 319.99 444.653 319.32 441.469 318.315C438.956 317.477 438.621 316.807 438.621 314.126Z" fill="#4D423B"/>
<path d="M658.602 366.567C659.104 366.064 659.774 365.896 660.444 365.729C665.136 364.389 669.827 363.886 674.685 363.718C676.863 363.718 679.209 363.048 681.387 363.383C686.748 364.221 692.277 363.551 697.639 364.221C702.497 364.724 707.523 364.389 712.55 363.551C714.393 363.216 716.236 363.383 718.079 363.048C722.435 362.546 726.623 361.038 730.812 360.033C731.817 359.865 732.655 359.53 733.66 359.53C728.634 361.54 723.272 362.881 717.911 363.551C707.021 365.226 696.131 364.556 685.241 364.221C676.528 363.886 667.816 364.221 659.272 366.734C659.104 366.567 658.769 366.567 658.602 366.567Z" fill="#6D6560"/>
<path d="M465.597 384.326C465.764 383.991 466.099 383.656 466.434 383.656C468.612 383.823 470.623 383.321 472.633 383.153C483.356 382.483 493.911 382.651 504.634 382.651C510.665 382.651 516.697 383.321 522.728 384.326C526.917 384.996 531.273 385.499 535.461 386.504C535.964 386.672 536.634 386.672 536.969 387.174C532.445 386.337 527.922 385.666 523.398 384.829C515.691 383.656 507.985 383.153 500.11 382.986C488.55 382.986 476.989 382.986 465.597 384.326Z" fill="#6D6560"/>
<path d="M142.745 473.625C144.588 472.453 146.766 472.117 148.944 471.782C154.976 470.945 161.175 470.777 167.374 470.61C172.065 470.442 176.756 470.107 181.447 469.437C183.625 469.102 185.803 469.102 187.814 468.767C193.342 468.096 198.704 467.761 204.233 467.259C207.081 466.924 209.761 466.589 212.61 466.254C211.269 467.091 209.929 467.091 208.421 467.259C197.028 468.432 185.636 469.437 174.41 470.61C171.059 470.945 167.876 470.945 164.525 470.945C159.332 470.945 154.305 471.447 149.112 472.117C146.934 472.62 144.923 473.29 142.745 473.625Z" fill="#6D6560"/>
<path d="M542.33 388.85C543.503 388.682 544.341 389.185 545.346 389.52C549.032 390.86 552.885 391.028 556.739 390.357C558.582 390.022 560.425 390.022 562.267 389.855C565.786 389.687 569.137 389.017 572.823 389.52C576.676 390.022 580.864 389.855 584.885 389.352C588.069 389.017 591.252 388.179 594.435 388.179C594.1 388.347 593.765 388.515 593.263 388.682C587.064 389.855 580.864 390.86 574.665 390.19C569.974 389.687 565.618 390.022 560.927 390.525C557.911 390.86 554.896 391.195 551.712 391.028C548.362 391.028 545.346 390.357 542.33 388.85Z" fill="#6D6560"/>
<path d="M268.736 427.384C270.579 425.876 272.59 425.709 274.768 425.709C280.967 425.541 287.166 425.709 293.197 425.709C295.71 425.709 298.056 425.038 300.569 425.206C301.239 425.206 301.909 425.038 302.412 425.541C300.904 426.044 299.396 425.709 297.888 425.876C290.852 426.044 283.815 426.714 276.778 426.044C273.93 425.709 271.417 426.714 268.736 427.384Z" fill="#6D6560"/>
<path d="M373.783 396.892C375.626 395.384 377.804 395.049 379.982 394.714C384.841 394.043 389.867 393.541 394.726 393.708C398.579 393.876 402.265 394.378 406.119 395.216C406.621 395.384 407.124 395.551 407.626 396.054C404.108 395.384 400.59 394.546 396.904 394.378C391.543 394.211 386.181 394.714 380.82 395.216C378.474 395.384 376.296 396.556 373.783 396.892Z" fill="#6D6560"/>
<path d="M782.08 347.802C785.096 348.137 788.279 348.64 791.295 348.975C797.326 349.645 803.19 349.98 809.222 349.645C810.394 349.645 811.567 349.142 812.74 349.142C812.405 349.645 811.735 349.645 811.232 349.813C808.216 350.148 805.201 350.65 802.185 350.315C796.656 349.98 791.127 349.478 785.766 348.807C784.426 348.807 783.085 348.807 782.08 347.802Z" fill="#6D6560"/>
<path d="M409.804 396.556C412.149 396.556 414.327 397.394 416.673 397.729C419.521 398.064 422.537 398.064 425.553 398.567C428.066 399.07 430.579 399.237 433.092 399.74C433.595 399.74 433.93 400.075 434.432 400.41C428.401 399.237 422.202 398.902 416.17 398.232C413.825 397.897 411.647 397.562 409.804 396.556Z" fill="#6D6560"/>
<path d="M631.964 373.771C633.639 372.598 635.65 372.598 637.66 372.096C640.508 371.258 643.357 370.588 646.205 369.917C646.875 369.75 647.545 369.582 648.383 369.75C647.378 370.42 646.205 370.588 645.032 370.923C640.676 371.76 636.487 373.101 631.964 373.771Z" fill="#6D6560"/>
<path d="M764.152 346.797C764.823 346.127 765.828 346.294 766.665 346.127C770.686 345.791 774.54 344.786 778.561 345.791C779.063 345.959 779.566 345.959 779.734 346.462C775.713 345.624 771.859 346.127 767.838 346.462C766.665 346.629 765.493 346.797 764.152 346.797Z" fill="#6D6560"/>
<path d="M606.834 381.98C607.002 381.813 607.337 381.478 607.504 381.31C610.52 380.473 613.201 378.965 616.384 378.63C613.368 380.138 610.185 380.975 606.834 381.98Z" fill="#6D6560"/>
<path d="M306.433 425.373C306.6 425.206 306.768 425.038 307.103 425.038C309.448 425.206 311.794 424.871 314.14 424.033C311.794 426.211 309.113 425.876 306.433 425.373Z" fill="#6D6560"/>
<path d="M620.905 377.122C623.083 375.614 625.429 375.111 627.942 374.776C625.764 375.781 623.418 376.619 620.905 377.122Z" fill="#6D6560"/>
<path d="M759.296 348.975C760.636 347.635 762.144 346.964 763.987 346.797C762.647 347.635 761.139 348.64 759.296 348.975Z" fill="#6D6560"/>
<path d="M338.6 414.818C339.605 413.813 340.945 413.478 342.286 413.478C341.28 414.316 339.94 414.651 338.6 414.818Z" fill="#6D6560"/>
<path d="M745.893 354.504C746.898 353.499 748.238 353.163 749.578 353.163C748.573 353.834 747.233 354.336 745.893 354.504Z" fill="#6D6560"/>
<path d="M438.621 401.918C439.794 401.918 440.799 401.918 441.972 401.918C440.799 402.756 439.626 402.923 438.621 401.918Z" fill="#6D6560"/>
<path d="M651.733 368.577C652.571 367.74 653.744 367.572 654.917 367.74C654.079 368.242 652.906 368.41 651.733 368.577Z" fill="#6D6560"/>
<path d="M628.11 374.776C629.116 373.938 630.121 373.771 631.294 373.938C630.456 374.441 629.283 374.776 628.11 374.776Z" fill="#6D6560"/>
<path d="M537.64 387.342C538.645 387.342 539.65 387.174 540.32 388.012C539.315 388.179 538.477 387.844 537.64 387.342Z" fill="#6D6560"/>
<path d="M334.243 416.159C334.913 415.153 335.919 415.321 336.924 415.321C336.254 415.991 335.248 416.159 334.243 416.159Z" fill="#6D6560"/>
<path d="M816.259 342.106C815.756 341.436 815.756 340.765 816.594 340.095C816.594 340.765 816.594 341.436 816.259 342.106Z" fill="#6D6560"/>
<path d="M655.755 367.404C656.425 366.567 657.43 366.567 658.436 366.567C657.598 367.237 656.593 367.404 655.755 367.404Z" fill="#6D6560"/>
<path d="M648.885 369.247C649.555 368.41 650.56 368.577 651.565 368.41C650.895 369.08 649.89 369.247 648.885 369.247Z" fill="#6D6560"/>
<path d="M594.937 388.18C595.439 387.342 596.277 387.342 597.115 387.342C596.444 388.012 595.774 388.18 594.937 388.18Z" fill="#6D6560"/>
<path d="M753.599 351.656C754.101 350.818 754.939 350.65 755.777 350.65C755.274 351.321 754.436 351.488 753.599 351.656Z" fill="#6D6560"/>
<path d="M751.254 352.493C751.757 351.656 752.594 351.656 753.599 351.656C752.762 352.326 752.092 352.493 751.254 352.493Z" fill="#6D6560"/>
<path d="M137.383 475.636C137.886 474.798 138.724 474.631 139.729 474.631C139.059 475.301 138.221 475.468 137.383 475.636Z" fill="#6D6560"/>
<path d="M90.6396 502.61C91.1423 501.772 91.98 501.605 92.8177 501.605C92.3151 502.275 91.4774 502.61 90.6396 502.61Z" fill="#6D6560"/>
<path d="M739.19 357.352C739.693 356.514 740.531 356.347 741.536 356.347C740.698 357.017 740.028 357.352 739.19 357.352Z" fill="#6D6560"/>
<path d="M736.677 358.357C737.179 357.519 738.017 357.519 739.022 357.519C738.352 358.022 737.514 358.357 736.677 358.357Z" fill="#6D6560"/>
<path d="M617.052 378.462C617.554 377.624 618.392 377.624 619.23 377.624C618.727 378.295 617.889 378.462 617.052 378.462Z" fill="#6D6560"/>
<path d="M324.191 419.677C324.694 418.839 325.699 418.672 326.537 418.839C325.867 419.342 325.029 419.677 324.191 419.677Z" fill="#6D6560"/>
<path d="M815.756 345.457C815.253 344.954 815.253 344.451 815.923 343.949C816.091 344.451 816.091 344.954 815.756 345.457Z" fill="#6D6560"/>
<path d="M317.323 422.358C317.658 421.52 318.496 421.688 319.166 421.688C318.664 422.19 318.161 422.358 317.323 422.358Z" fill="#6D6560"/>
<path d="M347.814 410.965C348.15 410.127 348.82 409.96 349.657 410.127C349.155 410.63 348.485 410.965 347.814 410.965Z" fill="#6D6560"/>
<path d="M817.599 334.901C817.096 334.399 817.096 333.896 817.766 333.394C818.101 333.896 818.101 334.399 817.599 334.901Z" fill="#6D6560"/>
<path d="M113.258 490.044C113.425 489.207 114.096 489.207 114.598 489.207C114.431 489.709 113.928 490.044 113.258 490.044Z" fill="#6D6560"/>
<path d="M259.521 431.572C259.689 430.735 260.359 430.735 260.862 430.902C260.527 431.405 260.024 431.572 259.521 431.572Z" fill="#6D6560"/>
<path d="M355.02 407.447C355.187 406.609 355.857 406.609 356.36 406.609C356.025 407.279 355.69 407.447 355.02 407.447Z" fill="#6D6560"/>
<path d="M358.37 405.604C358.538 404.766 359.04 404.766 359.71 404.766C359.375 405.268 359.04 405.604 358.37 405.604Z" fill="#6D6560"/>
<path d="M94.4927 500.934C94.8278 500.264 95.3304 500.264 96.0005 500.264C95.4979 500.934 94.9953 501.102 94.4927 500.934Z" fill="#6D6560"/>
<path d="M449.176 398.232C449.343 397.394 449.846 397.394 450.516 397.394C450.181 398.064 449.678 398.232 449.176 398.232Z" fill="#6D6560"/>
<path d="M133.027 477.981C133.195 477.144 133.698 477.144 134.368 477.144C134.033 477.646 133.698 477.981 133.027 477.981Z" fill="#6D6560"/>
<path d="M119.959 486.191C120.127 485.353 120.63 485.353 121.3 485.353C121.132 485.856 120.63 486.191 119.959 486.191Z" fill="#6D6560"/>
<path d="M106.556 493.898C106.723 493.06 107.226 493.06 107.896 493.06C107.561 493.563 107.058 493.898 106.556 493.898Z" fill="#6D6560"/>
<path d="M224.841 457.374C224.841 456.704 225.008 456.369 225.679 456.369C225.511 456.871 225.343 457.206 224.841 457.374Z" fill="#6D6560"/>
<path d="M816.761 339.09C816.259 338.587 816.426 338.42 816.929 338.085C817.097 338.587 816.929 338.923 816.761 339.09Z" fill="#6D6560"/>
<path d="M601.137 385.331C601.304 384.661 601.639 384.494 602.142 384.661C601.974 385.164 601.639 385.331 601.137 385.331Z" fill="#6D6560"/>
<path d="M817.096 337.247C816.594 336.744 816.761 336.577 817.264 336.242C817.599 336.577 817.432 336.912 817.096 337.247Z" fill="#6D6560"/>
<path d="M459.733 390.693C459.733 390.022 460.068 389.855 460.739 389.855C460.571 390.357 460.236 390.693 459.733 390.693Z" fill="#6D6560"/>
<path d="M328.044 418.169C328.379 417.667 328.882 417.667 329.384 417.667C328.882 418.169 328.547 418.337 328.044 418.169Z" fill="#6D6560"/>
<path d="M332.401 416.829C332.736 416.326 333.239 416.326 333.742 416.326C333.407 416.661 332.904 416.829 332.401 416.829Z" fill="#6D6560"/>
<path d="M337.259 415.321C337.594 414.818 338.096 414.818 338.599 414.818C338.096 415.153 337.761 415.321 337.259 415.321Z" fill="#6D6560"/>
<path d="M330.893 417.164C331.228 416.661 331.73 416.661 332.233 416.829C331.898 417.164 331.395 417.332 330.893 417.164Z" fill="#6D6560"/>
<path d="M329.553 417.667C329.888 417.164 330.39 417.164 330.893 417.164C330.39 417.667 330.055 417.834 329.553 417.667Z" fill="#6D6560"/>
<path d="M733.829 359.362C734.164 358.86 734.667 358.86 735.169 358.86C734.834 359.195 734.332 359.362 733.829 359.362Z" fill="#6D6560"/>
<path d="M408.298 396.054C408.8 396.054 409.303 396.054 409.638 396.557C409.136 396.557 408.633 396.389 408.298 396.054Z" fill="#6D6560"/>
<path d="M735.337 358.86C735.672 358.357 736.175 358.357 736.677 358.357C736.175 358.86 735.84 358.86 735.337 358.86Z" fill="#6D6560"/>
<path d="M434.768 400.41C435.27 400.41 435.773 400.41 436.108 400.745C435.605 400.913 435.27 400.745 434.768 400.41Z" fill="#6D6560"/>
<path d="M744.384 355.006C744.719 354.504 745.222 354.504 745.724 354.504C745.389 354.839 744.886 355.006 744.384 355.006Z" fill="#6D6560"/>
<path d="M141.236 474.128C141.571 473.625 142.074 473.625 142.577 473.793C142.242 474.128 141.739 474.295 141.236 474.128Z" fill="#6D6560"/>
<path d="M139.896 474.631C140.232 474.128 140.734 474.128 141.237 474.128C140.734 474.631 140.399 474.798 139.896 474.631Z" fill="#6D6560"/>
<path d="M749.745 353.163C750.08 352.661 750.583 352.661 751.085 352.661C750.75 352.996 750.248 353.163 749.745 353.163Z" fill="#6D6560"/>
<path d="M115.771 488.704C115.938 488.369 116.273 488.201 116.608 488.201C116.273 488.536 116.106 488.704 115.771 488.704Z" fill="#6D6560"/>
<path d="M370.433 398.399C370.6 398.064 370.935 398.064 371.27 398.064C371.103 398.232 370.935 398.399 370.433 398.399Z" fill="#6D6560"/>
<path d="M755.944 350.65C756.112 350.315 756.447 350.315 756.782 350.315C756.614 350.483 756.447 350.65 755.944 350.65Z" fill="#6D6560"/>
<path d="M135.541 476.641C135.708 476.306 136.043 476.138 136.378 476.138C136.211 476.473 135.876 476.641 135.541 476.641Z" fill="#6D6560"/>
<path d="M136.545 476.138C136.713 475.803 137.048 475.636 137.383 475.803C137.048 475.971 136.88 476.138 136.545 476.138Z" fill="#6D6560"/>
<path d="M447.167 399.405C447.335 399.07 447.67 398.902 448.005 398.902C447.837 399.237 447.502 399.405 447.167 399.405Z" fill="#6D6560"/>
<path d="M371.438 397.897C371.606 397.562 371.941 397.394 372.276 397.562C372.109 397.897 371.774 398.064 371.438 397.897Z" fill="#6D6560"/>
<path d="M446.161 399.907C446.329 399.572 446.664 399.405 446.999 399.405C446.831 399.74 446.664 399.907 446.161 399.907Z" fill="#6D6560"/>
<path d="M450.519 397.394C450.686 397.059 451.021 396.892 451.356 396.892C451.189 397.394 451.021 397.562 450.519 397.394Z" fill="#6D6560"/>
<path d="M372.945 397.227C373.113 396.892 373.448 396.892 373.615 396.892C373.448 397.227 373.28 397.394 372.945 397.227Z" fill="#6D6560"/>
<path d="M757.954 349.645C758.122 349.31 758.457 349.142 758.792 349.31C758.624 349.645 758.289 349.813 757.954 349.645Z" fill="#6D6560"/>
<path d="M111.415 491.05C111.582 490.715 111.917 490.547 112.252 490.547C111.917 490.882 111.75 491.05 111.415 491.05Z" fill="#6D6560"/>
<path d="M444.318 400.913C444.486 400.577 444.821 400.41 445.156 400.41C444.989 400.745 444.653 400.913 444.318 400.913Z" fill="#6D6560"/>
<path d="M214.117 465.918C214.285 465.583 214.62 465.583 214.955 465.583C214.787 465.918 214.62 466.086 214.117 465.918Z" fill="#6D6560"/>
<path d="M436.276 400.912C436.611 400.912 436.779 400.912 436.947 401.247C436.779 401.247 436.444 401.247 436.276 400.912Z" fill="#6D6560"/>
<path d="M443.312 401.247C443.48 400.912 443.815 400.745 444.15 400.912C443.983 401.247 443.648 401.415 443.312 401.247Z" fill="#6D6560"/>
<path d="M597.283 387.342C597.451 387.007 597.786 386.839 598.121 387.007C597.953 387.174 597.618 387.342 597.283 387.342Z" fill="#6D6560"/>
<path d="M742.541 356.012C742.709 355.677 743.044 355.509 743.379 355.509C743.211 355.844 742.876 356.012 742.541 356.012Z" fill="#6D6560"/>
<path d="M442.475 401.75C442.642 401.415 442.977 401.415 443.312 401.415C442.977 401.75 442.81 401.75 442.475 401.75Z" fill="#6D6560"/>
<path d="M262.873 429.729C263.041 429.394 263.376 429.227 263.711 429.394C263.543 429.729 263.208 429.897 262.873 429.729Z" fill="#6D6560"/>
<path d="M265.386 428.724C265.553 428.389 265.888 428.389 266.056 428.389C265.888 428.724 265.721 428.724 265.386 428.724Z" fill="#6D6560"/>
<path d="M266.223 428.222C266.39 427.887 266.725 427.887 267.06 427.887C266.893 428.222 266.558 428.389 266.223 428.222Z" fill="#6D6560"/>
<path d="M267.228 427.887C267.395 427.552 267.73 427.384 268.233 427.552C267.898 427.719 267.563 427.887 267.228 427.887Z" fill="#6D6560"/>
<path d="M741.535 356.347C741.703 356.012 742.038 355.844 742.373 356.012C742.205 356.347 741.87 356.514 741.535 356.347Z" fill="#6D6560"/>
<path d="M101.195 497.416C101.362 497.081 101.53 496.913 101.865 496.913C101.865 497.248 101.53 497.416 101.195 497.416Z" fill="#6D6560"/>
<path d="M313.972 424.033C314.139 423.698 314.474 423.531 314.809 423.531C314.642 423.866 314.474 424.033 313.972 424.033Z" fill="#6D6560"/>
<path d="M315.98 423.028C316.148 422.693 316.483 422.525 316.818 422.525C316.651 422.86 316.316 423.195 315.98 423.028Z" fill="#6D6560"/>
<path d="M92.9849 501.604C93.1524 501.269 93.4875 501.102 93.8226 501.269C93.655 501.604 93.4875 501.772 92.9849 501.604Z" fill="#6D6560"/>
<path d="M603.985 383.488C604.153 383.153 604.488 382.986 604.823 382.986C604.656 383.321 604.32 383.488 603.985 383.488Z" fill="#6D6560"/>
<path d="M319.332 421.52C319.5 421.185 319.835 421.017 320.17 421.185C320.002 421.52 319.667 421.688 319.332 421.52Z" fill="#6D6560"/>
<path d="M321.846 420.515C322.013 420.18 322.348 420.18 322.683 420.18C322.348 420.515 322.181 420.682 321.846 420.515Z" fill="#6D6560"/>
<path d="M323.187 420.012C323.354 419.677 323.689 419.677 324.024 419.677C323.857 420.012 323.522 420.18 323.187 420.012Z" fill="#6D6560"/>
<path d="M620.067 377.457C620.235 377.122 620.57 377.122 620.738 377.289C620.57 377.457 620.402 377.624 620.067 377.457Z" fill="#6D6560"/>
<path d="M327.04 418.504C327.208 418.169 327.543 418.169 327.878 418.169C327.71 418.504 327.375 418.672 327.04 418.504Z" fill="#6D6560"/>
<path d="M540.989 388.347C541.324 388.347 541.492 388.347 541.827 388.682C541.492 388.682 541.157 388.682 540.989 388.347Z" fill="#6D6560"/>
<path d="M346.81 411.468C346.977 411.133 347.312 410.965 347.647 410.965C347.48 411.3 347.312 411.468 346.81 411.468Z" fill="#6D6560"/>
<path d="M345.805 411.97C345.972 411.635 346.307 411.468 346.642 411.635C346.475 411.803 346.307 411.97 345.805 411.97Z" fill="#6D6560"/>
<path d="M344.968 412.305C345.135 411.97 345.47 411.97 345.805 411.97C345.47 412.305 345.303 412.473 344.968 412.305Z" fill="#6D6560"/>
<path d="M89.6348 503.112C89.8023 502.777 90.1374 502.61 90.4725 502.777C90.3049 502.945 89.9698 503.112 89.6348 503.112Z" fill="#6D6560"/>
<path d="M342.453 413.31C342.621 412.975 342.956 412.808 343.291 412.975C343.123 413.31 342.956 413.478 342.453 413.31Z" fill="#6D6560"/>
<path d="M598.288 386.839C598.456 386.504 598.791 386.336 599.126 386.336C598.958 386.672 598.623 387.007 598.288 386.839Z" fill="#6D6560"/>
<path d="M88.7969 503.615C88.9644 503.28 89.2995 503.28 89.6346 503.28C89.2995 503.448 89.132 503.615 88.7969 503.615Z" fill="#6D6560"/>
<path d="M605.995 382.483C606.163 382.148 606.498 382.148 606.833 382.148C606.665 382.315 606.33 382.483 605.995 382.483Z" fill="#6D6560"/>
<path d="M215.122 465.416C215.29 465.081 215.625 464.913 215.96 464.913C215.792 465.416 215.457 465.583 215.122 465.416Z" fill="#6D6560"/>
<path d="M552.046 291.843C551.711 291.843 551.544 291.676 551.376 291.508C551.711 291.341 552.046 291.508 552.046 291.843Z" fill="#6D6560"/>
<path d="M343.961 412.64C344.128 412.473 344.128 412.473 344.464 412.473C344.296 412.808 344.128 412.808 343.961 412.64Z" fill="#6D6560"/>
<path d="M604.988 382.986C605.156 382.818 605.323 382.651 605.491 382.651C605.491 382.818 605.323 382.986 604.988 382.986Z" fill="#6D6560"/>
<path d="M350.327 409.792C350.327 409.625 350.495 409.457 350.83 409.625C350.662 409.792 350.495 409.96 350.327 409.792Z" fill="#6D6560"/>
<path d="M351.164 409.457C351.164 409.289 351.332 409.122 351.667 409.289C351.667 409.457 351.499 409.457 351.164 409.457Z" fill="#6D6560"/>
<path d="M352.171 408.954C352.338 408.787 352.338 408.619 352.674 408.787C352.506 408.954 352.338 408.954 352.171 408.954Z" fill="#6D6560"/>
<path d="M353.176 408.452C353.343 408.284 353.343 408.117 353.678 408.117C353.511 408.452 353.343 408.619 353.176 408.452Z" fill="#6D6560"/>
<path d="M320.841 421.017C321.008 420.85 321.176 420.682 321.343 420.85C321.176 421.017 321.008 421.017 320.841 421.017Z" fill="#6D6560"/>
<path d="M354.182 407.949C354.182 407.782 354.349 407.614 354.684 407.614C354.517 407.949 354.349 408.117 354.182 407.949Z" fill="#6D6560"/>
<path d="M357.029 406.275C357.029 406.106 357.198 406.106 357.198 406.106C357.366 406.275 357.198 406.443 357.029 406.275Z" fill="#6D6560"/>
<path d="M357.364 406.106C357.532 405.939 357.699 405.771 357.867 405.771C357.867 406.106 357.699 406.106 357.364 406.106Z" fill="#6D6560"/>
<path d="M315.479 423.196C315.479 423.028 315.647 423.028 315.815 423.028L315.647 423.196H315.479Z" fill="#6D6560"/>
<path d="M603.649 383.656C603.649 383.488 603.817 383.488 603.985 383.488C603.817 383.823 603.817 383.823 603.649 383.656Z" fill="#6D6560"/>
<path d="M359.878 404.766C360.045 404.431 360.213 404.431 360.381 404.431C360.381 404.598 360.213 404.766 359.878 404.766Z" fill="#6D6560"/>
<path d="M360.883 404.096C360.883 403.928 361.05 403.761 361.218 403.928C361.218 404.096 361.05 404.096 360.883 404.096Z" fill="#6D6560"/>
<path d="M362.224 403.258C362.224 403.091 362.391 402.923 362.726 402.923C362.726 403.091 362.559 403.258 362.224 403.258Z" fill="#6D6560"/>
<path d="M363.228 402.421C363.228 402.253 363.396 402.253 363.396 402.253V402.421H363.228Z" fill="#6D6560"/>
<path d="M602.645 384.326C602.645 384.159 602.812 383.991 603.147 383.991C602.98 384.326 602.812 384.494 602.645 384.326Z" fill="#6D6560"/>
<path d="M264.379 429.059C264.546 429.059 264.714 428.892 264.882 428.892C264.714 429.227 264.546 429.227 264.379 429.059Z" fill="#6D6560"/>
<path d="M363.73 402.253C363.73 402.085 363.898 401.918 364.233 401.918C364.066 402.085 364.066 402.253 363.73 402.253Z" fill="#6D6560"/>
<path d="M262.537 429.897C262.537 429.73 262.705 429.729 262.872 429.729L262.705 429.897H262.537Z" fill="#6D6560"/>
<path d="M261.53 430.567C261.53 430.4 261.698 430.4 261.865 430.4L261.698 430.567H261.53Z" fill="#6D6560"/>
<path d="M437.616 401.415C437.784 401.415 437.951 401.583 437.951 401.583C437.784 401.75 437.784 401.583 437.616 401.415Z" fill="#6D6560"/>
<path d="M258.516 432.075C258.516 431.908 258.683 431.74 259.018 431.74C259.018 432.075 258.851 432.243 258.516 432.075Z" fill="#6D6560"/>
<path d="M257.51 432.745C257.677 432.41 257.845 432.41 258.012 432.41C258.012 432.578 257.845 432.745 257.51 432.745Z" fill="#6D6560"/>
<path d="M257.176 432.913C257.176 432.745 257.343 432.745 257.511 432.745L257.343 432.913H257.176Z" fill="#6D6560"/>
<path d="M256.171 433.583C256.171 433.415 256.338 433.248 256.506 433.415C256.506 433.415 256.338 433.583 256.171 433.583Z" fill="#6D6560"/>
<path d="M255.164 434.086C255.332 433.918 255.499 433.75 255.667 433.75C255.667 434.086 255.499 434.086 255.164 434.086Z" fill="#6D6560"/>
<path d="M254.661 434.421C254.661 434.253 254.829 434.253 254.996 434.253V434.421H254.661Z" fill="#6D6560"/>
<path d="M249.803 438.777C249.803 438.609 249.97 438.442 250.138 438.442C250.305 438.777 250.138 438.944 249.803 438.777Z" fill="#6D6560"/>
<path d="M248.462 439.949C248.462 439.782 248.629 439.614 248.965 439.614C248.797 439.782 248.629 439.949 248.462 439.949Z" fill="#6D6560"/>
<path d="M247.961 440.117C247.961 439.949 248.128 439.949 248.296 439.949V440.117H247.961Z" fill="#6D6560"/>
<path d="M246.956 440.787C246.956 440.62 247.124 440.452 247.291 440.452C247.291 440.787 247.291 440.787 246.956 440.787Z" fill="#6D6560"/>
<path d="M245.949 441.29C245.949 441.122 246.117 440.955 246.452 440.955C246.452 441.29 246.284 441.457 245.949 441.29Z" fill="#6D6560"/>
<path d="M244.944 441.792C245.112 441.457 245.279 441.457 245.447 441.457C245.447 441.792 245.279 441.96 244.944 441.792Z" fill="#6D6560"/>
<path d="M244.609 442.128C244.609 441.96 244.777 441.96 244.944 441.96L244.777 442.128H244.609Z" fill="#6D6560"/>
<path d="M243.604 442.63C243.604 442.463 243.772 442.463 243.94 442.463C243.94 442.63 243.772 442.798 243.604 442.63Z" fill="#6D6560"/>
<path d="M242.599 443.3C242.599 443.133 242.766 442.965 243.101 442.965C243.101 443.133 242.934 443.3 242.599 443.3Z" fill="#6D6560"/>
<path d="M241.595 443.803C241.762 443.468 241.93 443.468 242.097 443.468C242.097 443.636 241.93 443.803 241.595 443.803Z" fill="#6D6560"/>
<path d="M241.259 444.138C241.259 443.97 241.426 443.97 241.594 443.97C241.594 444.138 241.426 444.138 241.259 444.138Z" fill="#6D6560"/>
<path d="M240.254 444.808C240.254 444.641 240.421 444.473 240.757 444.473C240.589 444.641 240.421 444.808 240.254 444.808Z" fill="#6D6560"/>
<path d="M239.751 444.976C239.751 444.808 239.919 444.808 240.086 444.808C240.086 444.976 239.919 445.143 239.751 444.976Z" fill="#6D6560"/>
<path d="M238.746 445.646C238.746 445.478 238.914 445.311 239.249 445.311C239.249 445.646 239.081 445.813 238.746 445.646Z" fill="#6D6560"/>
<path d="M238.243 445.981C238.243 445.813 238.411 445.813 238.578 445.813V445.981H238.243Z" fill="#6D6560"/>
<path d="M237.238 446.651C237.238 446.484 237.406 446.316 237.741 446.316C237.741 446.651 237.573 446.651 237.238 446.651Z" fill="#6D6560"/>
<path d="M236.902 446.986C236.902 446.819 237.07 446.819 237.237 446.819C237.237 446.986 237.07 446.986 236.902 446.986Z" fill="#6D6560"/>
<path d="M235.395 447.992C235.395 447.824 235.562 447.656 235.73 447.656C235.73 447.992 235.562 447.992 235.395 447.992Z" fill="#6D6560"/>
<path d="M233.384 449.499C233.384 449.332 233.551 449.164 233.719 449.164C233.886 449.499 233.719 449.499 233.384 449.499Z" fill="#6D6560"/>
<path d="M228.692 453.353C228.692 453.185 228.86 453.018 229.027 453.018C229.027 453.353 228.86 453.353 228.692 453.353Z" fill="#6D6560"/>
<path d="M744.048 355.174C744.048 355.006 744.215 355.006 744.383 355.006L744.215 355.174H744.048Z" fill="#6D6560"/>
<path d="M220.483 462.065C220.483 461.897 220.651 461.73 220.818 461.73C220.818 461.897 220.651 462.065 220.483 462.065Z" fill="#6D6560"/>
<path d="M218.977 463.07C218.977 462.902 219.144 462.735 219.479 462.735C219.479 463.07 219.312 463.07 218.977 463.07Z" fill="#6D6560"/>
<path d="M218.473 463.405C218.473 463.238 218.64 463.238 218.808 463.238C218.808 463.405 218.808 463.405 218.473 463.405Z" fill="#6D6560"/>
<path d="M217.134 464.41C217.134 464.243 217.301 464.243 217.469 464.243C217.469 464.41 217.301 464.41 217.134 464.41Z" fill="#6D6560"/>
<path d="M216.128 464.913C216.295 464.746 216.463 464.578 216.631 464.578C216.463 464.913 216.295 465.081 216.128 464.913Z" fill="#6D6560"/>
<path d="M364.736 401.583C364.736 401.415 364.904 401.415 365.071 401.415V401.583H364.736Z" fill="#6D6560"/>
<path d="M365.239 401.247C365.239 401.08 365.574 400.912 365.742 400.912C365.574 401.247 365.407 401.415 365.239 401.247Z" fill="#6D6560"/>
<path d="M213.279 466.253C213.447 466.086 213.614 466.086 213.782 466.086C213.614 466.253 213.447 466.421 213.279 466.253Z" fill="#6D6560"/>
<path d="M366.244 400.577C366.244 400.41 366.412 400.41 366.579 400.41C366.579 400.745 366.412 400.745 366.244 400.577Z" fill="#6D6560"/>
<path d="M445.825 400.075C445.825 399.907 445.993 399.907 446.16 399.907L445.993 400.075H445.825Z" fill="#6D6560"/>
<path d="M367.249 400.076C367.249 399.907 367.417 399.907 367.417 399.907C367.417 399.907 367.417 400.076 367.249 400.076Z" fill="#6D6560"/>
<path d="M367.585 399.907C367.753 399.74 367.92 399.572 368.088 399.572C368.088 399.74 367.92 399.907 367.585 399.907Z" fill="#6D6560"/>
<path d="M368.59 399.237C368.59 399.07 368.757 398.902 369.092 398.902C368.925 399.237 368.757 399.405 368.59 399.237Z" fill="#6D6560"/>
<path d="M448.172 398.902C448.339 398.735 448.507 398.567 448.674 398.567C448.507 398.735 448.507 398.902 448.172 398.902Z" fill="#6D6560"/>
<path d="M135.038 476.809C135.038 476.641 135.206 476.641 135.373 476.641L135.206 476.809H135.038Z" fill="#6D6560"/>
<path d="M369.594 398.734C369.761 398.567 369.761 398.399 370.096 398.567C369.929 398.735 369.761 398.902 369.594 398.734Z" fill="#6D6560"/>
<path d="M131.687 478.819C131.687 478.651 131.855 478.651 132.022 478.651C132.022 478.819 131.855 478.819 131.687 478.819Z" fill="#6D6560"/>
<path d="M130.682 479.489C130.682 479.322 130.849 479.154 131.184 479.154C131.017 479.322 131.017 479.489 130.682 479.489Z" fill="#6D6560"/>
<path d="M130.179 479.657C130.179 479.489 130.347 479.489 130.514 479.489V479.657H130.179Z" fill="#6D6560"/>
<path d="M129.174 480.327C129.174 480.159 129.342 479.992 129.677 479.992C129.677 480.327 129.509 480.494 129.174 480.327Z" fill="#6D6560"/>
<path d="M128.838 480.663C128.838 480.494 129.007 480.494 129.007 480.494V480.663H128.838Z" fill="#6D6560"/>
<path d="M127.833 481.332C127.833 481.165 128.001 480.997 128.336 480.997C128.169 481.332 128.001 481.332 127.833 481.332Z" fill="#6D6560"/>
<path d="M126.326 482.337C126.326 482.17 126.493 482.002 126.828 482.002C126.661 482.17 126.493 482.337 126.326 482.337Z" fill="#6D6560"/>
<path d="M125.991 482.505H126.16L125.991 482.673V482.505Z" fill="#6D6560"/>
<path d="M124.985 483.175C125.153 483.175 125.32 483.008 125.32 483.008C125.32 483.175 125.153 483.343 124.985 483.175Z" fill="#6D6560"/>
<path d="M123.98 483.845C124.148 483.51 124.316 483.51 124.483 483.51C124.316 483.678 124.148 483.845 123.98 483.845Z" fill="#6D6560"/>
<path d="M123.478 484.013C123.478 483.845 123.646 483.845 123.813 483.845L123.646 484.013H123.478Z" fill="#6D6560"/>
<path d="M122.472 484.683C122.472 484.515 122.64 484.348 122.807 484.348C122.807 484.683 122.807 484.683 122.472 484.683Z" fill="#6D6560"/>
<path d="M121.467 485.353C121.635 485.018 121.802 485.018 121.97 485.018C121.97 485.186 121.802 485.353 121.467 485.353Z" fill="#6D6560"/>
<path d="M757.62 349.813C757.62 349.645 757.788 349.645 757.955 349.645L757.788 349.813H757.62Z" fill="#6D6560"/>
<path d="M119.122 486.694C119.289 486.526 119.457 486.359 119.624 486.359C119.457 486.694 119.289 486.694 119.122 486.694Z" fill="#6D6560"/>
<path d="M118.619 486.861C118.619 486.693 118.786 486.693 118.954 486.693V486.861H118.619Z" fill="#6D6560"/>
<path d="M117.614 487.531C117.614 487.364 117.782 487.364 117.949 487.364C117.949 487.531 117.949 487.531 117.614 487.531Z" fill="#6D6560"/>
<path d="M116.608 488.034C116.608 487.866 116.776 487.699 117.111 487.699C117.111 488.034 116.943 488.201 116.608 488.034Z" fill="#6D6560"/>
<path d="M600.132 385.834C600.299 385.499 600.467 385.499 600.634 385.499C600.634 385.834 600.467 386.001 600.132 385.834Z" fill="#6D6560"/>
<path d="M115.268 488.871C115.268 488.704 115.435 488.704 115.603 488.704V488.871H115.268Z" fill="#6D6560"/>
<path d="M451.521 396.891C451.521 396.724 451.689 396.556 452.024 396.556C452.024 396.891 451.857 397.059 451.521 396.891Z" fill="#6D6560"/>
<path d="M112.252 490.547C112.42 490.379 112.588 490.212 112.755 490.212C112.755 490.547 112.588 490.547 112.252 490.547Z" fill="#6D6560"/>
<path d="M599.796 386.002C599.796 385.834 599.963 385.834 600.131 385.834V386.002H599.796Z" fill="#6D6560"/>
<path d="M110.912 491.217C110.912 491.05 111.08 491.05 111.247 491.05V491.217H110.912Z" fill="#6D6560"/>
<path d="M109.907 491.887C109.907 491.72 110.074 491.72 110.242 491.72C110.242 491.887 110.242 491.887 109.907 491.887Z" fill="#6D6560"/>
<path d="M108.901 492.39C108.901 492.222 109.069 492.055 109.404 492.055C109.404 492.39 109.236 492.557 108.901 492.39Z" fill="#6D6560"/>
<path d="M108.063 493.06C108.231 492.725 108.399 492.725 108.566 492.725C108.399 492.892 108.231 493.06 108.063 493.06Z" fill="#6D6560"/>
<path d="M812.908 349.142C812.908 348.975 813.243 348.807 813.411 348.807C813.411 349.142 813.243 349.31 812.908 349.142Z" fill="#6D6560"/>
<path d="M105.048 494.903C105.048 494.735 105.216 494.568 105.383 494.568C105.551 494.735 105.383 494.903 105.048 494.903Z" fill="#6D6560"/>
<path d="M103.708 495.741C103.708 495.573 103.875 495.406 104.043 495.406C104.043 495.741 103.875 495.908 103.708 495.741Z" fill="#6D6560"/>
<path d="M102.2 496.746C102.2 496.578 102.367 496.411 102.535 496.411C102.535 496.746 102.367 496.746 102.2 496.746Z" fill="#6D6560"/>
<path d="M452.527 396.221C452.527 396.054 452.695 396.054 452.862 396.054V396.221H452.527Z" fill="#6D6560"/>
<path d="M100.86 497.584C100.86 497.416 101.028 497.416 101.195 497.416C101.028 497.584 101.028 497.751 100.86 497.584Z" fill="#6D6560"/>
<path d="M99.8545 498.254C99.8545 498.086 100.022 497.919 100.357 497.919C100.19 498.254 100.022 498.254 99.8545 498.254Z" fill="#6D6560"/>
<path d="M98.3467 499.092C98.3467 498.924 98.5142 498.924 98.6818 498.924C98.6818 499.092 98.5142 499.092 98.3467 499.092Z" fill="#6D6560"/>
<path d="M97.3413 499.594C97.3413 499.426 97.5088 499.259 97.8439 499.259C97.8439 499.594 97.6764 499.762 97.3413 499.594Z" fill="#6D6560"/>
<path d="M96.5034 500.097C96.671 499.929 96.8385 499.762 97.006 499.762C96.8385 500.097 96.671 500.264 96.5034 500.097Z" fill="#6D6560"/>
<path d="M781.075 347.467C781.243 347.467 781.41 347.467 781.578 347.802C781.41 347.802 781.243 347.635 781.075 347.467Z" fill="#6D6560"/>
<path d="M453.031 396.054C453.031 395.886 453.199 395.719 453.534 395.719C453.366 395.886 453.199 396.054 453.031 396.054Z" fill="#6D6560"/>
<path d="M780.237 346.964C780.405 346.964 780.572 346.964 780.572 347.299C780.405 347.299 780.237 347.132 780.237 346.964Z" fill="#6D6560"/>
<path d="M455.878 393.876C455.878 393.708 456.045 393.541 456.213 393.708C456.213 393.876 456.045 394.043 455.878 393.876Z" fill="#6D6560"/>
<path d="M458.391 392.033C458.558 391.865 458.558 391.865 458.726 391.698C458.726 392.033 458.558 392.033 458.391 392.033Z" fill="#6D6560"/>
<path d="M87.791 503.95C87.9586 503.783 88.1261 503.615 88.2936 503.615C88.1261 503.95 87.9586 504.118 87.791 503.95Z" fill="#6D6560"/>
<path d="M86.7861 504.453C86.9537 504.285 86.9537 504.118 87.2888 504.285C87.1212 504.453 86.9537 504.62 86.7861 504.453Z" fill="#6D6560"/>
<path d="M85.7808 504.955C85.9483 504.788 85.9483 504.788 86.2834 504.788C86.1158 504.955 86.1158 504.955 85.7808 504.955Z" fill="#6D6560"/>
<path d="M551.208 291.341C550.873 291.341 550.706 291.173 550.538 290.838C550.873 290.838 551.041 291.006 551.208 291.341Z" fill="#6D6560"/>
<path d="M80.2516 325.687C86.1155 325.854 91.3093 325.519 96.5031 324.179C100.859 323.174 105.215 321.833 109.236 319.823C111.247 318.818 113.592 318.483 115.77 319.32C117.948 320.158 120.294 320.158 122.472 320.158C125.32 320.325 127.833 321.331 130.346 322.504C131.687 323.174 133.027 323.676 134.367 323.844C137.551 324.346 139.896 326.525 143.079 327.362C143.75 327.53 144.252 328.2 144.755 328.703C145.257 329.205 145.593 329.708 145.09 330.378C144.755 331.048 144.085 331.383 143.247 331.383C140.231 330.881 137.215 330.881 134.2 331.383C132.859 331.718 131.687 330.881 130.346 330.881C126.66 330.881 122.975 330.545 119.289 330.043C118.283 329.875 117.111 329.875 116.105 330.043C110.744 330.881 105.383 331.216 100.021 330.881C96.8382 330.713 93.6549 330.713 90.4716 331.383C89.2988 331.551 88.126 331.551 86.9532 330.881C85.6129 330.21 84.1051 329.875 82.5972 329.875C79.9165 329.875 77.4034 329.205 74.8903 328.367C74.5552 328.2 74.2201 328.032 74.0526 327.865C73.55 327.53 73.2149 327.195 73.3824 326.525C73.55 325.854 74.0526 325.687 74.5552 325.519C75.0579 325.519 75.5605 325.519 76.0631 325.519C77.7385 325.687 79.2464 325.687 80.2516 325.687Z" fill="#4D423B"/>
<path d="M438.455 314.126C437.282 313.959 436.277 313.624 435.104 313.456C433.429 312.954 431.586 313.121 429.911 313.456C429.24 313.624 428.738 313.791 428.068 313.791C425.052 313.289 422.036 314.126 419.02 314.126C414.162 314.294 409.303 314.796 404.444 313.289C402.936 312.786 401.261 312.786 399.753 312.786C397.24 312.786 394.727 312.786 392.214 312.786C391.879 312.786 391.376 312.786 391.209 312.283C391.041 311.781 391.376 311.278 391.711 311.111C392.046 310.943 392.381 310.943 392.549 310.776C396.235 310.105 400.088 309.268 403.942 309.603C406.287 309.77 408.8 310.105 411.146 309.938C414.162 309.77 417.01 309.603 420.026 309.1C424.047 308.43 428.068 308.262 431.753 310.776C433.261 311.781 435.104 312.283 436.78 312.954C437.785 312.954 438.455 313.121 438.455 314.126C438.623 314.126 438.455 314.126 438.455 314.126Z" fill="#4D423B"/>
</svg>
