<svg width="818" height="621" viewBox="0 0 818 621" fill="none" xmlns="http://www.w3.org/2000/svg">
<defs>
    <style>
        #seaweed-above-rock-left, #seaweed-above-rock-right {
            animation: waving-to-left 5s linear infinite;
            transform-origin: 100% 40%;
        }

        #seaweed-above-rock-right {
            animation: waving-to-right 4s linear infinite;
            transform-origin: 100% 40%;
        }

        @keyframes waving-to-left {
            0% { transform: skew(.312rad) }
            20% { transform: skew(.0rad) }
            40% { transform: skew(.312rad) }
            60% { transform: skew(.0rad) }
            80% { transform: skew(.200rad) }
            100% { transform: skew(.312rad) }
        }

        @keyframes waving-to-right {
            0% { transform: skew(-.20rad) }
            20% { transform: skew(-.12rad) }
            40% { transform: skew(-.10rad) }
            60% { transform: skew(.0rad) }
            80% { transform: skew(-.12rad) }
            100% { transform: skew(-.20rad) }
        }
    </style>
    </defs>
<path d="M327.04 527.504C326.872 527.504 326.704 527.672 326.369 527.672C325.532 527.672 324.526 527.672 324.024 528.51H323.856C323.521 528.51 323.186 528.51 323.019 528.845C322.851 528.845 322.684 529.012 322.348 529.012C322.013 529.012 321.678 529.012 321.511 529.347C321.343 529.347 321.176 529.515 321.008 529.515C320.841 529.515 320.673 529.515 320.505 529.682C320.338 529.682 320.17 529.85 319.835 529.85C319.5 529.85 319.165 529.85 318.998 530.185H318.83C318.16 530.185 317.322 530.017 316.987 530.855C316.82 531.023 316.652 531.023 316.484 531.19C316.149 531.19 315.814 531.19 315.647 531.693H315.479C315.312 531.693 315.312 531.693 315.144 531.86C314.977 532.028 314.642 532.028 314.474 532.195C314.139 532.195 313.804 532.195 313.636 532.698H313.469C311.291 533.536 308.945 533.871 306.432 533.703C306.264 533.703 306.097 533.871 305.762 534.038C304.422 534.038 303.081 534.038 301.908 534.038C301.406 533.536 300.736 533.703 300.065 533.703C297.552 533.536 295.207 534.206 292.694 534.206C286.495 534.206 280.296 534.206 274.264 534.206C272.086 534.206 269.908 534.541 268.233 535.881C268.065 535.881 267.898 536.049 267.73 536.049C267.395 536.049 267.06 536.049 266.725 536.384H266.557C266.222 536.384 265.887 536.384 265.72 536.719V536.887H265.552C265.217 536.887 265.049 536.887 264.882 537.222C264.714 537.222 264.547 537.389 264.379 537.389C264.212 537.389 264.044 537.557 263.877 537.557C263.709 537.724 263.542 537.724 263.207 537.892C262.871 537.892 262.536 537.892 262.369 538.227H262.201C262.034 538.227 262.034 538.227 261.866 538.394C261.699 538.562 261.364 538.562 261.196 538.729C261.029 538.729 261.029 538.729 260.861 538.897C260.693 539.065 260.526 539.065 260.191 539.232C259.521 539.232 259.018 539.232 258.85 539.902C258.683 539.902 258.515 540.07 258.348 540.07C258.18 540.07 258.013 540.07 257.845 540.405C257.678 540.405 257.51 540.572 257.343 540.572C257.008 540.572 256.84 540.572 256.84 540.908H256.672C256.505 540.908 256.505 540.908 256.337 541.075C256.17 541.243 256.002 541.243 255.667 541.41C255.5 541.41 255.332 541.41 255.332 541.578C255.165 541.745 254.997 541.745 254.829 541.913C254.494 541.913 254.327 542.08 254.327 542.248H254.159C253.992 542.248 253.992 542.248 253.824 542.415C252.316 543.756 251.144 545.599 249.301 546.604C249.133 546.604 248.966 546.771 248.966 546.939C248.63 547.107 248.295 547.442 247.96 547.609C247.793 547.609 247.625 547.777 247.458 547.944L247.29 548.112C247.123 548.112 247.123 548.112 246.955 548.279C246.788 548.447 246.62 548.447 246.285 548.614C246.117 548.614 245.95 548.614 245.95 548.949C245.782 549.117 245.615 549.117 245.447 549.285C245.28 549.285 245.112 549.285 244.945 549.62C244.777 549.62 244.61 549.787 244.442 549.787C244.107 549.787 243.939 549.955 243.939 550.122H243.772C243.604 550.122 243.604 550.122 243.437 550.29C243.269 550.457 243.102 550.457 242.767 550.625C242.599 550.625 242.431 550.625 242.431 550.792C242.264 550.96 242.096 550.96 241.929 551.127C241.761 551.127 241.594 551.128 241.426 551.463C241.259 551.463 241.091 551.63 241.091 551.63C240.756 551.63 240.589 551.798 240.589 551.965H240.421C240.253 551.965 240.086 551.965 240.086 552.133C239.918 552.3 239.751 552.3 239.583 552.468C239.248 552.468 239.081 552.635 239.081 552.803H238.913C238.746 552.803 238.578 552.803 238.578 552.97C238.41 553.138 238.243 553.138 238.075 553.306C237.74 553.306 237.74 553.473 237.573 553.641L237.405 553.808C237.238 553.808 237.238 553.808 237.07 553.976C236.903 554.143 236.735 554.143 236.568 554.311C236.232 554.311 236.065 554.478 236.065 554.646H235.897C235.73 554.646 235.562 554.646 235.562 554.813C235.227 555.148 234.892 555.316 234.557 555.651C234.39 555.651 234.222 555.651 234.222 555.986C233.719 556.321 233.217 556.824 232.714 557.159C232.547 557.159 232.379 557.327 232.379 557.494C231.039 558.834 229.531 560.007 228.023 561.012C227.855 561.012 227.688 561.18 227.688 561.347C226.683 562.353 225.677 563.358 224.672 564.363C224.002 564.363 223.834 564.866 223.834 565.368C222.829 567.044 221.489 568.552 219.813 569.557C219.646 569.557 219.478 569.725 219.478 569.892C219.143 570.06 218.808 570.395 218.473 570.562C218.138 570.562 217.971 570.73 217.971 570.897H217.803C217.635 570.897 217.468 570.897 217.468 571.065C217.133 571.232 216.798 571.567 216.295 571.735C216.128 571.735 215.96 571.735 215.96 571.903C215.792 572.07 215.625 572.07 215.457 572.238C215.29 572.238 215.122 572.238 214.955 572.573L214.787 572.74C214.452 572.74 214.117 572.908 213.95 573.243H213.782C213.447 573.243 213.112 573.243 212.944 573.578C212.777 573.578 212.609 573.745 212.442 573.745C212.274 573.745 212.107 573.745 211.939 573.913C211.772 573.913 211.436 574.081 211.269 574.081C208.421 574.416 205.74 574.751 202.892 575.086C197.363 575.588 192.002 576.091 186.473 576.594C184.295 576.761 182.117 576.929 180.106 577.264C175.415 577.934 170.724 578.269 166.033 578.437C159.834 578.604 153.802 578.772 147.603 579.609C145.425 579.944 143.247 580.112 141.404 581.452H141.237C140.734 581.452 140.232 581.452 139.897 581.787H139.729C139.226 581.787 138.724 581.787 138.389 582.29H138.221C137.383 582.29 136.378 582.29 135.876 583.295H135.708C135.373 583.295 135.038 583.295 134.87 583.63H134.703C134.368 583.63 134.033 583.63 133.865 584.133H133.698C133.53 584.133 133.53 584.133 133.362 584.301C133.195 584.468 132.86 584.468 132.692 584.636C132.022 584.636 131.52 584.636 131.352 585.473C131.352 585.641 131.184 585.641 131.184 585.641C130.849 585.808 130.682 585.976 130.347 586.144C130.179 586.144 130.012 586.144 130.012 586.311C129.844 586.479 129.677 586.479 129.509 586.646C129.174 586.646 129.006 586.814 129.006 586.981L128.839 587.149C128.671 587.149 128.671 587.149 128.504 587.316C128.336 587.484 128.169 587.484 128.001 587.651C127.834 587.651 127.666 587.819 127.499 587.986L127.331 588.154C127.163 588.154 127.163 588.154 127.163 588.322C126.996 588.489 126.828 588.657 126.493 588.657C126.326 588.657 126.158 588.657 125.991 588.992C125.656 589.159 125.32 589.494 124.985 589.662C124.818 589.662 124.65 589.829 124.483 589.997C124.483 590.165 124.315 590.165 124.315 590.165H124.148C123.98 590.332 123.645 590.5 123.478 590.667C123.31 590.667 123.142 590.835 123.142 590.835C122.975 591.002 122.807 591.002 122.64 591.17C122.305 591.17 122.137 591.337 122.137 591.505H121.97C121.802 591.505 121.802 591.505 121.635 591.672C121.467 591.84 121.3 591.84 120.964 592.007C120.797 592.007 120.629 592.007 120.629 592.343C120.462 592.51 120.294 592.51 120.127 592.678C119.792 592.678 119.624 592.845 119.624 593.013H119.457C118.786 593.013 118.284 593.013 118.116 593.85C117.949 593.85 117.781 594.018 117.614 594.018C117.279 594.018 117.111 594.018 117.111 594.353H116.943C116.776 594.353 116.776 594.353 116.608 594.521C116.441 594.688 116.106 594.688 115.938 594.856C115.771 594.856 115.603 594.856 115.603 595.023C115.436 595.191 115.268 595.191 115.101 595.358C114.933 595.358 114.765 595.358 114.598 595.693C114.598 595.861 114.43 595.861 114.43 595.861C114.095 595.861 113.76 596.028 113.593 596.363H113.425C113.258 596.363 113.258 596.363 113.09 596.531C112.922 596.699 112.587 596.699 112.42 596.866C111.75 596.866 111.247 596.866 111.08 597.704C110.912 597.704 110.744 597.871 110.577 597.871C110.409 597.871 110.242 597.871 110.074 598.206L109.907 598.374C109.572 598.374 109.237 598.374 109.069 598.877H108.901C108.734 598.877 108.734 598.877 108.566 599.044C108.399 599.212 108.064 599.379 107.896 599.379C107.729 599.379 107.561 599.379 107.561 599.547C107.394 599.714 107.226 599.714 107.059 599.882C106.891 599.882 106.723 599.882 106.556 600.217C106.388 600.217 106.221 600.385 106.053 600.385C105.718 600.385 105.551 600.552 105.551 600.72H105.383C104.713 600.72 104.21 600.72 104.043 601.557C103.708 601.725 103.373 602.06 103.038 602.227C102.87 602.227 102.702 602.227 102.702 602.563C102.367 602.73 102.032 603.065 101.697 603.233C101.53 603.233 101.362 603.233 101.362 603.568C101.027 603.735 100.692 604.07 100.357 604.238C100.189 604.238 100.022 604.238 100.022 604.573C100.022 604.741 99.8543 604.741 99.8543 604.741C99.5192 604.741 99.1841 604.908 99.1841 605.243H99.0166C98.8491 605.243 98.6815 605.243 98.6815 605.411C98.514 605.578 98.3464 605.578 98.1789 605.746C98.0114 605.746 97.8438 605.746 97.6763 606.081C97.3412 606.248 97.0061 606.583 96.671 606.751C96.5035 606.751 96.3359 606.751 96.3359 606.919C96.1684 607.086 96.0009 607.086 95.8333 607.254C95.6658 607.254 95.4982 607.254 95.3307 607.589C95.1632 607.589 94.9956 607.756 94.8281 607.756C94.6605 607.756 94.493 607.756 94.3255 608.091C94.1579 608.091 93.9904 608.259 93.8228 608.259C93.1527 608.259 92.65 608.259 92.315 608.929C92.1474 609.097 91.9799 609.097 91.8123 609.264C91.4773 609.264 91.1422 609.264 90.9746 609.599H90.8071C89.9694 609.599 89.1317 609.599 88.6291 610.604H88.4615C88.1264 610.604 87.7914 610.604 87.6238 610.94H87.4563C87.1212 610.94 86.7861 610.94 86.6186 611.275C86.451 611.275 86.2835 611.442 86.116 611.442C85.9484 611.442 85.7809 611.442 85.6133 611.777C85.4458 611.777 85.2783 611.945 85.1107 611.945C84.9432 611.945 84.7756 611.945 84.6081 612.112C84.4405 612.112 84.273 612.28 84.1055 612.28C83.9379 612.28 83.7704 612.28 83.6028 612.447C83.4353 612.615 83.2678 612.615 82.9327 612.783C78.5766 613.788 74.053 614.29 69.697 614.458C65.0058 614.793 60.3147 615.128 55.6235 615.631C53.278 615.798 50.7649 615.966 48.4193 616.301C45.4035 616.636 42.3878 617.139 39.3721 617.139C36.5239 617.139 33.5082 616.971 30.66 617.306C25.9688 617.809 21.2777 617.809 16.419 618.144C10.8901 618.311 5.52885 618.144 0 618.646C0 566.541 0 514.436 0 462.331C5.86393 461.996 11.8954 462.834 17.7593 462.834C18.0944 462.834 18.4295 462.834 18.7646 462.834C22.1154 463.504 25.4662 463.336 28.817 463.671C31.3301 463.839 33.8432 464.174 36.5239 464.341C38.0318 464.509 39.7072 464.509 41.215 464.844C43.8957 465.347 46.5763 465.682 49.257 465.682C69.0268 465.682 88.6291 465.682 108.399 465.682C111.415 465.682 114.263 466.017 117.279 466.352C121.3 466.687 125.321 467.525 129.341 468.195C133.195 468.865 137.048 469.2 140.902 470.038C144.253 470.708 147.436 471.378 150.787 471.546C157.321 471.713 163.687 471.378 170.221 470.708C175.08 470.205 179.771 469.2 184.63 468.362C189.489 467.525 194.18 466.854 199.038 466.352C202.557 466.017 206.075 465.179 209.258 463.839C213.279 462.163 217.133 459.818 220.819 457.472C227.353 453.284 233.552 448.425 239.751 443.734C247.625 437.702 256.002 432.676 265.72 429.828C267.228 429.325 268.735 428.99 270.411 428.99C285.154 428.99 300.065 428.99 314.809 428.99C320.841 428.99 327.04 429.158 333.071 429.828C339.102 430.498 344.799 431.838 350.83 432.676C353.343 433.011 355.689 433.514 358.202 433.849C361.385 434.184 364.569 434.352 367.752 435.022C371.103 435.524 374.621 435.859 377.972 436.195C381.155 436.53 384.171 437.032 387.187 437.535C390.873 438.205 394.558 439.21 398.077 440.551C404.611 443.064 411.313 444.572 418.182 446.415C422.37 447.42 426.726 448.09 430.915 448.257C442.308 448.593 453.7 448.257 465.093 447.922C465.261 447.922 465.596 447.922 465.763 447.922C470.622 447.085 475.648 447.085 480.507 446.582C485.03 446.247 489.387 445.912 493.91 445.577C498.266 445.242 502.455 444.907 506.811 444.572C510.999 444.236 515.188 443.734 519.544 443.566C524.403 443.399 529.261 442.729 534.12 442.896C536.801 443.064 539.649 442.896 542.329 442.896C545.848 442.729 549.534 442.896 553.22 442.561C557.911 442.058 562.602 441.221 567.125 440.048C573.995 438.54 581.031 437.2 588.068 435.524C593.429 434.184 598.623 433.011 603.984 432.341C609.011 431.671 613.869 430.833 618.896 429.828C622.749 429.158 626.602 428.32 630.456 427.818C635.147 427.147 639.838 426.31 644.529 424.802C650.561 422.624 656.927 421.786 663.461 422.121C664.802 422.289 666.142 421.954 667.482 422.289C671.336 422.959 675.189 423.126 679.21 423.629C683.399 424.132 687.42 424.634 691.608 425.304C698.812 426.645 705.849 428.32 713.054 429.66C719.923 431.001 726.959 431.336 733.996 431.838C736.844 432.006 739.525 432.341 742.373 432.509C744.216 432.676 746.227 432.676 748.07 433.011C750.918 433.514 753.933 433.849 756.949 433.849C764.656 433.849 772.363 434.352 780.07 433.514C783.756 433.179 787.442 433.514 791.127 434.352C797.662 435.692 804.363 436.362 810.897 438.037C812.573 438.373 814.416 438.708 815.756 439.88C815.924 440.383 815.924 440.886 815.756 441.221C815.086 441.556 815.086 442.058 815.588 442.729C815.588 443.231 815.588 443.734 815.253 444.069C814.751 444.404 814.583 444.572 815.086 445.074C814.918 445.409 814.918 445.744 814.751 446.079C814.248 446.247 814.081 446.582 814.583 447.085C814.583 447.42 814.416 447.755 814.416 448.09C813.578 448.593 813.578 449.263 814.081 450.1C814.081 450.771 814.081 451.441 813.745 451.943C813.075 452.278 813.075 452.781 813.578 453.451C813.41 454.959 812.573 456.132 811.232 456.802C811.065 456.802 810.897 456.97 810.73 457.137H810.562C809.389 457.137 808.217 457.472 807.044 457.64C801.012 458.142 795.148 457.64 789.117 456.97C786.101 456.635 782.918 456.132 779.902 455.797C779.735 455.797 779.567 455.629 779.4 455.629C779.232 455.462 779.065 455.294 778.897 455.294C778.729 455.127 778.562 455.127 778.394 454.959C778.394 454.792 778.227 454.624 778.059 454.624C777.892 454.456 777.724 454.456 777.557 454.289C777.389 453.786 776.887 453.786 776.384 453.619C772.363 452.614 768.509 453.619 764.488 453.954C763.651 453.954 762.646 453.786 761.975 454.624H761.808C759.965 454.792 758.457 455.462 757.117 456.802C756.949 456.97 756.782 456.97 756.614 457.137C756.279 457.137 755.944 457.137 755.776 457.472H755.609C755.441 457.472 755.441 457.472 755.274 457.64C755.106 457.807 754.771 457.807 754.604 457.975C754.268 457.975 753.933 457.975 753.766 458.31V458.477H753.598C752.761 458.477 751.923 458.477 751.42 459.483H751.253C750.415 459.483 749.577 459.483 748.907 460.32H748.74C748.237 460.32 747.734 460.32 747.399 460.823H747.232C745.891 460.823 744.551 461.158 743.546 462.163H743.378C742.876 462.163 742.373 462.163 742.038 462.666H741.87C741.703 462.666 741.703 462.666 741.535 462.834C741.368 463.001 741.033 463.001 740.865 463.169C740.53 463.169 740.195 463.169 740.028 463.671H739.86C739.525 463.671 739.19 463.671 739.022 464.006H738.855C738.017 464.006 737.179 464.006 736.509 465.012H736.342C735.504 465.012 734.666 465.012 733.996 465.849H733.829C733.326 465.849 732.823 465.849 732.488 466.352H732.321C731.818 466.352 731.315 466.352 730.98 466.855H730.813C729.808 466.855 728.97 467.19 727.965 467.357C723.776 468.362 719.588 469.87 715.232 470.373C713.389 470.54 711.546 470.54 709.703 470.875C704.844 471.713 699.818 472.048 694.792 471.546C689.43 471.043 683.901 471.546 678.54 470.708C676.362 470.373 674.016 471.043 671.838 471.043C666.98 471.211 662.289 471.713 657.597 473.054C656.927 473.221 656.257 473.389 655.755 473.891H655.587C654.582 473.891 653.576 473.724 652.906 474.729C652.739 474.729 652.404 474.896 652.236 474.896C651.063 474.896 649.891 474.896 649.053 475.734H648.885C647.88 475.734 646.875 475.567 646.205 476.572C646.037 476.572 645.702 476.739 645.535 476.739C644.864 476.739 644.194 476.739 643.357 476.907C640.508 477.745 637.66 478.247 634.812 479.085C632.969 479.588 630.958 479.755 629.116 480.76C628.948 480.76 628.613 480.928 628.445 480.928C627.273 480.928 626.1 480.928 625.262 481.766H625.095C622.581 482.101 620.068 482.603 618.058 484.111H617.89C617.555 484.111 617.388 484.111 617.22 484.279C617.053 484.446 616.718 484.446 616.55 484.614C615.712 484.614 614.875 484.614 614.372 485.452C614.204 485.452 614.037 485.619 613.702 485.619C610.519 485.954 607.838 487.462 604.822 488.3C604.487 488.3 604.32 488.635 604.152 488.97H603.984C603.649 488.97 603.314 488.97 603.147 489.305C602.979 489.305 602.812 489.473 602.644 489.473C602.309 489.473 602.141 489.473 602.141 489.808H601.974C601.639 489.808 601.304 489.975 601.136 490.31H600.969C600.801 490.31 600.634 490.31 600.634 490.478C600.466 490.645 600.299 490.645 600.131 490.813C599.963 490.813 599.796 490.813 599.628 491.148C599.461 491.315 599.461 491.315 599.293 491.315C598.791 491.315 598.288 491.483 598.288 491.986C598.121 492.153 598.121 492.153 597.953 492.153C597.618 492.153 597.45 492.153 597.45 492.488H597.283C597.115 492.488 597.115 492.488 596.948 492.656C596.78 492.823 596.445 492.823 596.278 492.991C595.943 492.991 595.607 492.991 595.44 493.493H595.272C594.937 493.493 594.602 493.493 594.435 493.829H594.267C593.429 493.829 592.592 493.829 592.089 494.666C591.922 494.666 591.586 494.834 591.419 494.834C588.236 494.834 585.052 495.672 581.869 496.007C577.848 496.342 573.827 496.677 569.806 496.174C566.288 495.672 562.769 496.342 559.251 496.509C557.408 496.677 555.565 496.677 553.722 497.012C549.869 497.682 546.015 497.347 542.329 496.174C541.324 495.839 540.487 495.336 539.314 495.504C539.146 495.504 538.811 495.336 538.644 495.336C538.476 495.001 538.141 495.001 537.806 495.001C537.638 495.001 537.303 494.834 537.136 494.834C536.466 493.996 535.46 494.164 534.455 494.164C534.287 494.164 533.952 493.996 533.785 493.996C533.45 493.493 532.947 493.326 532.277 493.326C528.088 492.321 523.732 491.818 519.544 491.148C513.512 490.143 507.481 489.473 501.449 489.473C490.727 489.305 480.172 489.137 469.449 489.975C467.439 490.143 465.261 490.645 463.25 490.478C462.748 490.478 462.58 490.645 462.413 491.148C461.24 493.326 459.564 495.169 457.554 496.677C456.884 496.677 456.549 497.012 456.549 497.514C456.214 498.017 455.878 498.352 455.376 498.52C455.208 498.687 455.208 498.687 455.041 498.855C454.371 499.525 453.7 500.028 453.03 500.53C452.863 500.53 452.695 500.53 452.695 500.698C452.025 501.368 451.187 502.038 450.182 502.373C449.847 502.373 449.847 502.541 449.679 502.708L449.512 502.876C449.344 502.876 449.344 502.876 449.177 503.043C449.009 503.211 448.842 503.211 448.674 503.378C448.507 503.378 448.339 503.546 448.172 503.713L448.004 503.881C447.669 503.881 447.334 504.049 447.166 504.384H446.999C446.329 504.384 445.826 504.384 445.658 505.221C445.491 505.221 445.323 505.389 445.156 505.389C444.988 505.389 444.821 505.389 444.653 505.724V505.892H444.486C444.151 505.892 443.815 505.892 443.648 506.394H443.48C443.145 506.394 442.81 506.562 442.643 506.897H442.475C442.308 506.897 442.308 506.897 442.14 507.064C441.973 507.232 441.637 507.232 441.47 507.399C441.135 507.399 440.8 507.399 440.632 507.902H440.465C440.13 507.902 439.794 507.902 439.627 508.237H439.459C439.124 508.237 438.789 508.237 438.622 508.572C438.454 508.572 438.287 508.74 438.119 508.74C436.946 508.74 435.941 508.74 434.768 508.74C434.601 508.572 434.433 508.572 434.266 508.405C434.098 508.405 433.931 508.237 433.931 508.237C433.763 508.07 433.596 508.07 433.26 507.902C433.093 507.567 432.758 507.567 432.59 507.567H432.423C432.088 507.064 431.585 507.064 431.082 507.232C430.915 507.232 430.58 507.064 430.412 507.064C429.91 506.897 429.575 506.562 429.072 506.394C426.559 506.059 424.046 505.724 421.533 505.221C418.684 504.719 415.669 504.719 412.653 504.384C410.307 504.049 408.129 503.211 405.784 503.211H405.616C405.281 502.708 404.778 502.708 404.276 502.708C404.108 502.708 403.773 502.541 403.606 502.541C403.271 502.038 402.768 501.871 402.098 501.703C398.412 500.865 394.559 500.363 390.705 500.195C385.679 500.028 380.82 500.698 375.961 501.2C373.783 501.535 371.605 501.871 369.762 503.378H369.595C369.26 503.378 369.092 503.378 368.925 503.713C368.757 503.713 368.59 503.881 368.255 503.881C367.919 503.881 367.584 503.881 367.417 504.216H367.249C366.914 504.216 366.579 504.216 366.412 504.551C366.244 504.551 366.077 504.719 365.909 504.719C365.741 504.719 365.574 504.719 365.406 504.886C365.239 504.886 365.071 505.054 364.904 505.054C364.736 505.054 364.569 505.054 364.401 505.389C364.234 505.389 364.066 505.556 363.899 505.556C363.563 505.556 363.396 505.556 363.396 505.892L363.228 506.059C363.061 506.059 363.061 506.059 363.061 506.227C362.893 506.394 362.558 506.562 362.391 506.562C362.223 506.562 362.056 506.562 362.056 506.729C361.888 506.897 361.72 506.897 361.553 507.064C361.218 507.064 361.05 507.232 361.05 507.399L360.883 507.567C360.715 507.567 360.715 507.567 360.548 507.734C360.38 507.902 360.213 507.902 360.045 508.07C359.878 508.07 359.71 508.237 359.542 508.405L359.375 508.572C359.207 508.572 359.207 508.572 359.207 508.74C359.04 508.907 358.872 509.075 358.705 509.075C358.537 509.075 358.37 509.075 358.202 509.41C357.867 509.577 357.532 509.912 357.197 510.08C357.029 510.08 356.862 510.08 356.862 510.248C356.694 510.415 356.527 510.415 356.359 510.583C356.024 510.583 355.857 510.75 355.857 510.918H355.689C355.019 510.918 354.516 510.918 354.349 511.755C354.181 511.755 354.014 511.923 353.846 511.923C353.511 511.923 353.343 511.923 353.343 512.258L353.176 512.426C353.008 512.426 353.008 512.426 353.008 512.593C352.841 512.761 352.506 512.928 352.338 512.928C351.668 512.928 351.165 512.928 350.998 513.766C350.83 513.766 350.663 513.933 350.495 513.933C350.328 513.933 350.16 513.933 349.993 514.269C349.825 514.269 349.658 514.436 349.49 514.436C349.322 514.436 349.155 514.436 348.987 514.771C348.82 514.771 348.652 514.939 348.485 514.939C348.317 514.939 348.15 514.939 347.982 515.106C347.815 515.106 347.647 515.274 347.48 515.274C347.312 515.274 347.144 515.274 346.977 515.441C346.809 515.441 346.642 515.609 346.474 515.609C346.307 515.609 346.139 515.609 345.972 515.776C345.804 515.776 345.637 515.944 345.469 515.944C344.631 515.944 343.961 516.111 343.626 516.782C343.291 516.782 342.956 516.782 342.788 517.284H342.621C342.286 517.284 341.951 517.284 341.783 517.619H341.616C341.281 517.619 340.945 517.619 340.778 517.954C340.61 517.954 340.443 518.122 340.275 518.122C340.108 518.122 339.94 518.122 339.773 518.29C339.605 518.457 339.438 518.457 339.103 518.625C338.767 518.625 338.432 518.625 338.265 518.96H338.097C336.757 519.127 335.417 519.295 334.411 520.3H334.244C333.741 520.3 333.239 520.3 332.904 520.803H332.736C331.731 520.803 330.725 520.635 330.055 521.64C329.888 521.64 329.72 521.808 329.385 521.808C328.883 521.808 328.38 521.808 328.045 522.311H327.877C327.375 522.311 326.872 522.311 326.537 522.646H326.369C325.867 522.646 325.364 522.646 325.029 523.148H324.862C324.359 523.148 323.856 523.148 323.521 523.651H323.354C327.542 527.169 327.207 527.169 327.04 527.504Z" fill="#4D423B"/>
<path d="M817.933 440.886C816.593 439.713 814.75 439.378 813.075 439.043C806.54 437.535 799.839 436.697 793.305 435.357C789.619 434.687 785.933 434.184 782.247 434.519C774.54 435.189 766.833 434.854 759.126 434.854C756.278 434.854 753.263 434.519 750.247 434.017C748.404 433.681 746.393 433.681 744.55 433.514C741.702 433.346 739.022 433.011 736.173 432.844C729.137 432.341 722.1 432.006 715.231 430.666C708.026 429.325 700.99 427.482 693.786 426.31C689.765 425.639 685.576 425.137 681.388 424.634C677.534 424.132 673.513 423.964 669.66 423.294C668.319 423.126 666.979 423.294 665.639 423.126C659.105 422.624 652.738 423.629 646.707 425.807C642.183 427.482 637.492 428.153 632.633 428.823C628.78 429.325 624.926 430.163 621.073 430.833C616.047 431.671 611.188 432.676 606.162 433.346C600.8 434.017 595.439 435.189 590.245 436.53C583.376 438.205 576.339 439.545 569.303 441.053C564.779 442.059 560.088 442.896 555.397 443.566C551.711 444.069 548.193 443.901 544.507 443.901C541.826 443.901 538.978 444.069 536.297 443.901C531.439 443.734 526.58 444.404 521.721 444.572C517.533 444.739 513.344 445.074 508.988 445.577C504.632 445.912 500.444 446.247 496.087 446.582C491.564 446.917 487.208 447.252 482.684 447.587C477.826 448.09 472.799 447.922 467.941 448.928C467.773 448.928 467.438 448.928 467.27 448.928C455.878 449.263 444.485 449.598 433.092 449.263C428.736 449.095 424.548 448.593 420.359 447.42C413.657 445.744 406.788 444.069 400.254 441.556C396.736 440.216 393.217 439.043 389.364 438.54C386.348 438.038 383.165 437.535 380.149 437.2C376.798 436.865 373.28 436.53 369.929 436.027C366.746 435.524 363.563 435.357 360.379 434.854C357.866 434.519 355.521 434.017 353.008 433.681C346.976 433.011 341.28 431.503 335.248 430.833C329.217 430.163 323.185 429.996 316.986 429.996C302.243 429.996 287.332 429.996 272.588 429.996C270.913 429.996 269.405 430.331 267.897 430.833C258.347 433.681 249.97 438.708 241.928 444.739C235.729 449.43 229.53 454.121 222.996 458.477C219.31 460.823 215.457 463.169 211.436 464.844C208.085 466.184 204.734 467.022 201.216 467.357C196.357 467.86 191.498 468.53 186.807 469.368C181.948 470.205 177.257 471.211 172.399 471.713C165.865 472.383 159.498 472.718 152.964 472.551C149.613 472.383 146.262 471.713 143.079 471.043C139.226 470.205 135.372 469.87 131.519 469.2C127.498 468.53 123.477 467.692 119.456 467.357C116.44 467.022 113.592 466.687 110.576 466.687C90.8063 466.687 71.204 466.687 51.4342 466.687C48.7536 466.687 46.0729 466.352 43.3923 465.849C41.8844 465.514 40.209 465.514 38.7011 465.347C36.188 465.179 33.6749 464.844 30.9943 464.676C27.6434 464.509 24.2926 464.509 20.9418 463.839C20.6067 463.839 20.2716 463.839 19.9366 463.839C14.0726 463.839 8.04117 463.001 2.17725 463.336C2.17725 434.854 2.17725 406.372 2.17725 377.89C3.01495 377.89 3.68511 377.89 4.52282 377.723C11.392 376.383 18.0936 374.037 24.9628 372.697C30.1566 371.691 35.5179 370.519 40.7116 369.681C45.4028 368.843 50.2614 368.173 54.785 366.498C57.1306 365.66 59.3086 365.827 61.6542 365.995C61.9893 365.995 62.4919 366.33 62.827 366.163C66.848 365.492 71.0365 365.827 75.0575 365.827C78.0732 365.827 80.9214 366.498 83.4345 368.341C85.1099 369.346 86.7853 370.184 88.6283 370.854C98.3456 374.204 108.398 375.377 118.451 376.383C121.131 376.718 123.644 377.388 125.99 378.393C130.849 380.571 135.875 382.582 141.236 383.754C147.938 385.262 154.639 386.938 161.173 389.283C163.687 390.121 166.2 390.959 168.88 391.461C174.409 392.466 179.603 393.974 184.797 396.152C193.174 399.671 201.886 401.514 210.933 402.184C216.294 402.519 221.823 402.854 227.352 401.849C232.881 400.843 238.41 400.006 243.771 398.163C246.787 397.158 249.635 395.985 252.818 395.482C261.363 393.974 269.405 391.126 277.447 388.278C282.808 386.435 287.834 383.922 293.196 382.079C299.06 380.068 305.091 378.393 310.955 376.215C315.981 374.204 321.51 373.367 326.536 371.524C329.719 370.351 332.568 369.011 335.751 368.005C340.107 366.498 344.296 364.99 348.652 363.314C350.997 362.477 353.175 361.304 355.688 360.634C358.369 359.964 361.05 358.958 363.73 358.121C366.913 356.948 370.264 355.943 373.113 353.932C375.123 352.592 377.301 351.754 379.647 351.084C383.668 349.911 387.689 348.906 391.542 347.398C392.715 346.895 393.72 346.225 394.558 345.387C394.893 344.885 395.228 344.55 395.06 343.88C394.725 343.209 394.223 343.209 393.72 343.209C389.029 343.209 384.338 342.707 379.982 344.885C378.809 345.387 377.636 345.723 376.296 346.058C371.437 347.398 366.411 347.566 361.385 348.403C357.196 349.241 352.84 349.744 348.652 350.749C340.945 352.592 333.573 355.105 326.201 358.121C320.17 360.634 313.971 362.979 307.604 364.655C303.918 365.66 300.065 366.33 296.379 367.168C290.85 368.508 285.489 370.351 279.792 371.356C273.426 372.529 266.892 374.037 260.358 373.534C259.185 373.534 258.18 373.534 257.007 373.534C254.326 373.702 251.813 373.869 249.132 374.204C245.949 374.54 242.766 374.54 239.583 374.204C236.064 373.869 232.713 373.032 229.027 373.032C227.687 373.032 226.514 373.534 225.174 373.534C220.985 373.702 216.797 374.54 212.608 375.21C207.415 376.215 202.221 377.555 196.692 377.388C193.844 377.22 191.498 376.55 189.655 374.372C187.645 372.026 185.299 370.351 182.451 369.178C181.278 368.676 179.938 368.005 178.765 367.335C175.582 365.995 173.069 363.817 170.556 361.471C168.378 359.461 166.032 358.456 163.016 358.456C156.65 358.288 150.283 359.293 144.084 358.958C140.733 358.791 137.383 358.288 134.367 356.613C133.194 355.775 132.021 354.937 130.849 354.1C126.157 350.749 120.796 349.073 115.77 346.56C113.257 345.387 110.744 344.55 108.063 344.047C102.534 343.042 97.0053 342.372 91.4765 342.037C89.466 341.869 87.2879 341.702 84.9424 341.534C85.2775 341.031 85.2775 340.864 85.445 340.696C88.1257 337.513 90.8063 334.33 93.487 331.147C94.8273 329.471 96.3352 328.801 98.1781 328.633C101.696 328.466 105.215 327.796 108.566 326.79C117.11 324.612 125.822 322.937 134.702 322.267C140.398 321.932 145.76 319.586 150.953 317.408C154.974 315.9 158.828 314.392 163.184 314.56C166.2 314.56 168.88 314.057 171.561 313.052C172.231 312.885 173.069 312.549 173.236 311.879C173.739 310.036 175.414 308.529 175.582 306.35C175.582 305.68 176.085 305.01 176.42 304.34C177.928 301.659 180.106 299.314 181.948 296.801C185.132 292.445 188.483 288.256 192.168 284.403C193.174 283.23 194.514 282.225 194.514 280.382C195.519 280.717 196.525 280.549 197.53 280.047C204.064 277.031 210.933 275.02 218.137 274.518C223.666 274.183 229.027 273.345 234.389 272.842C236.734 272.507 238.745 272.842 240.923 273.848C245.782 276.361 250.975 277.533 256.169 279.376C257.174 279.712 258.347 280.214 259.352 280.549C262.033 281.554 264.211 283.397 265.216 286.246C266.054 288.424 267.729 289.429 269.907 289.764C270.913 289.931 271.918 290.099 273.091 290.099C274.766 290.267 276.274 290.434 277.782 291.104C281.3 292.612 284.819 293.617 288.504 294.623C290.682 295.293 292.023 296.633 292.86 298.811C293.363 300.319 293.698 301.827 293.866 303.335C294.201 307.858 296.379 310.874 300.735 312.214C302.243 312.717 303.583 313.387 304.923 313.89C308.944 315.565 312.965 316.403 317.321 316.235C320.17 316.068 322.85 316.57 325.698 317.241C328.547 317.743 331.227 318.748 333.573 320.591C337.426 323.607 341.782 325.45 346.641 325.618C351.332 325.785 354.516 327.963 356.358 332.319C357.531 334.832 359.039 337.346 360.714 339.524C362.557 341.869 364.903 343.042 367.751 343.042C373.448 343.042 378.976 343.377 384.673 342.874C387.353 342.707 390.202 342.539 392.882 342.707C394.893 342.874 396.233 343.88 397.406 345.723C401.259 351.586 404.275 357.953 407.793 363.985C409.636 367 411.814 369.346 415.165 370.686C416.506 371.189 418.013 372.026 419.186 372.864C422.034 374.54 425.05 375.042 428.233 374.707C433.427 374.204 438.621 373.534 443.815 372.529C447.836 371.859 451.689 371.356 455.71 370.854C458.391 370.519 460.904 370.854 463.249 372.194C466.768 374.037 470.454 374.875 474.307 375.042C476.318 375.042 478.496 375.377 480.506 375.545C483.354 375.88 485.365 377.22 486.538 379.733C487.543 381.744 488.716 383.419 490.391 384.927C492.066 386.435 493.909 387.273 496.087 386.938C498.768 386.603 501.449 386.602 503.962 385.932C507.983 384.927 512.171 384.592 516.36 384.257C517.365 384.257 518.37 384.089 519.208 384.592C521.386 385.765 523.732 385.932 525.91 386.435C527.082 386.77 528.088 387.105 529.093 387.608C534.622 390.791 540.318 393.974 545.847 397.158C546.852 397.66 547.858 398.163 548.528 399.168C546.517 399.001 544.674 399.503 542.831 400.173C539.313 401.346 535.795 402.519 532.276 403.692C531.103 404.027 530.098 404.529 529.093 405.2C525.742 407.21 522.224 409.221 518.705 411.231C514.852 413.409 510.663 414.414 506.642 415.922C502.454 417.598 498.265 419.44 493.742 420.446C490.056 421.283 486.203 421.786 482.517 422.791C478.496 423.964 474.14 424.467 469.951 424.299C467.773 424.299 465.427 424.132 463.249 424.299C458.223 424.802 453.029 425.137 448.003 425.304C444.652 425.304 441.134 425.304 438.118 423.294C438.118 422.289 437.281 422.121 436.61 421.954C434.935 421.283 433.092 420.781 431.584 419.776C427.898 417.43 423.877 417.598 419.856 418.1C417.008 418.603 413.992 418.603 410.977 418.938C408.631 419.105 406.118 418.77 403.772 418.603C399.919 418.268 396.233 419.105 392.38 419.776C392.045 419.776 391.71 419.943 391.542 420.111C391.039 420.278 390.872 420.781 391.039 421.283C391.207 421.786 391.542 421.786 392.045 421.786C394.558 421.786 397.071 421.786 399.584 421.786C401.259 421.786 402.767 421.786 404.275 422.289C408.966 423.964 413.992 423.294 418.851 423.126C421.867 422.959 424.883 422.289 427.898 422.791C428.569 422.959 429.239 422.624 429.741 422.456C431.417 422.121 433.26 422.121 434.935 422.456C435.94 422.791 437.113 422.959 438.286 423.126C438.286 425.975 438.788 426.477 441.302 427.315C444.485 428.32 447.836 428.99 451.186 428.99C453.532 428.99 455.878 428.823 458.223 429.325C459.228 429.493 458.893 430.498 459.731 430.498C464.59 430.163 469.281 430.666 474.14 431.001C475.48 431.001 476.653 430.498 477.993 430.498C482.014 430.331 486.035 431.168 489.888 431.671C492.904 432.174 495.752 432.676 498.768 432.341C500.946 432.006 503.124 432.006 505.302 432.006C508.15 432.006 511.166 432.006 514.014 432.006C515.187 432.006 516.36 431.839 517.533 431.671C520.213 431.336 522.726 431.336 525.407 431.839C527.753 432.341 529.931 432.844 532.276 433.011C539.145 433.346 546.015 433.011 552.884 432.006C554.727 431.671 556.402 431.839 558.078 431.671C561.763 431.001 565.449 430.498 569.135 429.828C571.146 429.493 573.156 429.325 575.167 428.32C573.324 427.65 571.481 427.65 569.638 427.985C563.941 428.99 558.078 429.493 552.214 429.325C551.543 429.325 550.706 429.325 550.036 428.99C548.695 428.488 547.187 428.32 545.847 428.32C543.669 428.32 541.491 428.488 539.313 427.985C535.962 427.315 532.779 426.645 529.428 426.477C524.569 426.142 519.711 425.64 514.852 425.975C513.177 426.142 511.501 425.975 509.826 425.304C510.663 424.634 511.836 424.467 512.842 423.964C516.527 422.456 519.878 420.613 523.732 419.608C526.077 418.938 528.423 418.268 530.768 417.262C534.454 415.922 538.14 414.749 541.491 412.571C545.009 410.393 548.863 408.55 552.884 407.378C555.732 406.54 558.078 404.864 560.591 403.524C560.926 403.357 561.261 403.021 561.093 402.351C560.088 402.016 559.083 402.351 557.91 402.351C555.899 402.519 553.889 402.519 552.214 401.179C556.57 402.519 560.758 402.016 564.947 400.843C573.491 398.498 582.036 395.817 590.748 393.639C592.591 393.137 594.266 392.969 596.109 393.472C597.282 393.807 598.455 393.807 599.628 394.142C603.481 395.147 606.832 394.309 610.015 391.796C612.528 389.786 615.209 387.943 617.555 385.932C622.413 381.744 627.942 379.063 634.476 378.225C635.314 378.058 636.152 378.058 636.822 377.723C642.351 375.88 648.047 375.545 653.576 374.372C656.927 373.702 659.775 374.204 662.623 376.383C665.471 378.561 668.487 380.571 671.168 383.084C674.518 386.1 678.539 387.943 683.063 389.116C689.765 390.791 696.634 391.796 703.335 393.639C708.026 394.98 713.053 394.812 717.911 395.147C722.77 395.482 727.629 395.482 732.32 395.65C735.671 395.817 739.022 396.152 742.372 396.99C744.048 397.493 745.723 397.66 747.399 397.828C750.749 398.163 754.1 399.001 757.284 400.173C761.304 401.681 765.493 402.854 769.682 404.027C773.367 405.032 776.551 407.042 779.231 409.723C783.252 413.912 788.111 416.927 793.137 419.608C795.148 420.613 797.326 421.786 799.504 422.624C804.362 424.634 808.216 427.65 811.399 431.839C813.075 434.017 814.75 436.027 816.425 438.038C817.263 438.708 818.101 439.713 817.933 440.886ZM80.2512 434.687C79.4135 434.687 77.7381 434.687 76.0627 434.687C75.5601 434.687 75.0575 434.687 74.5548 434.687C73.8847 434.687 73.5496 435.022 73.3821 435.692C73.2145 436.362 73.5496 436.697 74.0522 437.032C74.3873 437.2 74.5549 437.367 74.8899 437.535C77.403 438.54 79.9162 439.043 82.5968 439.043C84.1047 439.043 85.6125 439.21 86.9529 440.048C88.1257 440.718 89.2984 440.718 90.4712 440.551C93.6545 440.048 96.8378 439.88 100.021 440.048C105.382 440.216 110.744 440.048 116.105 439.21C117.11 439.043 118.283 439.043 119.288 439.21C122.974 439.713 126.66 440.216 130.346 440.048C131.686 440.048 132.859 440.718 134.199 440.551C137.215 439.88 140.231 439.88 143.247 440.551C144.084 440.718 144.587 440.216 145.09 439.545C145.592 438.875 145.257 438.373 144.754 437.87C144.252 437.367 143.749 436.697 143.079 436.53C140.063 435.859 137.55 433.514 134.367 433.011C132.859 432.844 131.519 432.341 130.346 431.671C127.833 430.498 125.32 429.493 122.472 429.325C120.293 429.158 117.948 429.158 115.77 428.488C113.592 427.65 111.414 427.985 109.236 428.99C105.215 431.001 100.859 432.341 96.5027 433.346C91.3089 434.352 86.1152 434.854 80.2512 434.687Z" fill="#6D6560"/>
<path d="M152.462 219.062C151.29 222.748 151.29 226.601 151.625 230.455C151.792 232.633 151.96 234.978 151.457 237.156C151.122 239.502 151.792 240.842 153.97 242.015C159.164 244.696 164.023 247.711 169.217 250.224C173.908 252.402 176.923 256.088 179.604 260.277C179.772 260.612 179.939 260.947 180.107 261.282C182.955 267.816 186.976 273.513 192.17 278.204C192.337 278.371 192.505 278.539 192.505 278.706C188.986 281.387 186.473 285.073 183.625 288.424C180.442 292.11 177.594 296.298 173.908 299.649C171.562 301.659 169.552 304.005 167.374 306.015C166.871 306.518 166.368 307.188 165.531 307.188C163.185 307.021 161.007 307.691 158.829 307.691C148.777 307.523 138.724 307.858 128.672 307.356C125.488 307.188 122.305 306.853 119.122 306.686C117.446 306.686 115.771 306.518 114.096 306.183C110.577 305.68 107.059 305.345 103.541 305.345C102.033 305.345 100.692 305.848 99.5196 306.686C98.1793 307.691 96.8389 308.696 95.3311 309.534C91.6452 312.047 87.9593 314.56 84.6085 317.576C82.0954 319.754 79.4147 321.597 77.0691 323.942C74.7236 326.12 72.378 328.131 70.535 330.644C68.1895 333.827 66.179 337.178 64.1685 340.529C62.8282 342.874 61.3203 345.052 59.3098 346.728C58.6396 347.231 58.137 347.733 57.1318 347.566C52.7757 346.56 48.5872 345.22 45.0688 342.372C40.2102 338.351 35.519 334.162 30.9954 329.806C27.9797 326.958 24.7964 324.613 20.943 323.272C18.0948 322.267 15.2466 321.094 12.3984 320.089C8.88003 318.749 5.19414 317.241 1.67578 315.9C1.67578 303 1.67578 290.099 1.67578 277.366C7.70725 277.701 13.2361 276.193 18.7649 274.183C22.1158 273.01 25.6341 271.837 29.1525 270.999C38.3672 268.989 47.2469 266.308 55.959 262.79C58.8072 261.617 61.4878 260.109 64.336 258.937C69.3623 256.926 74.3885 254.916 79.5822 252.905C83.2681 251.397 86.7865 249.722 90.4724 248.381C93.4881 247.376 96.3363 246.203 99.017 244.528C102.033 242.685 105.048 241.177 108.232 239.669C112.085 237.826 115.939 235.983 119.624 233.805C124.316 231.125 129.677 229.617 134.536 227.104C137.719 225.261 141.07 223.585 144.421 222.245C147.436 221.24 149.782 219.732 152.462 219.062Z" fill="#6D6560"/>
<path d="M2.34521 315.9C5.86357 317.241 9.54947 318.749 13.0678 320.089C15.916 321.262 18.7642 322.267 21.6124 323.272C25.4658 324.612 28.6491 326.958 31.6648 329.806C36.1884 334.162 40.8796 338.351 45.7383 342.372C49.2566 345.22 53.4451 346.393 57.8012 347.566C58.6389 347.733 59.3091 347.398 59.9792 346.728C61.9897 344.885 63.4976 342.707 64.8379 340.529C66.8484 337.178 68.8589 333.827 71.2045 330.644C73.0474 328.131 75.393 325.953 77.7386 323.942C80.0841 321.764 82.9323 319.921 85.2779 317.576C88.6287 314.56 92.3146 312.047 96.0005 309.534C97.3408 308.696 98.8487 307.691 100.189 306.686C101.362 305.848 102.702 305.345 104.21 305.345C107.728 305.178 111.247 305.68 114.765 306.183C116.44 306.351 118.116 306.518 119.791 306.686C122.975 306.853 126.158 307.188 129.341 307.356C139.394 308.026 149.446 307.691 159.498 307.691C161.676 307.691 163.855 307.021 166.2 307.188C167.038 307.188 167.54 306.518 168.043 306.015C170.221 303.837 172.232 301.492 174.577 299.649C178.431 296.298 181.111 292.277 184.294 288.424C187.143 285.073 189.656 281.387 193.174 278.706C193.844 279.209 194.514 279.712 195.017 280.214C195.017 282.057 193.677 283.062 192.672 284.235C188.986 288.089 185.802 292.445 182.452 296.633C180.609 299.146 178.431 301.492 176.923 304.173C176.588 304.843 176.085 305.345 176.085 306.183C175.917 308.193 174.242 309.701 173.739 311.712C173.572 312.55 172.734 312.717 172.064 312.885C169.383 313.89 166.535 314.56 163.687 314.392C159.331 314.225 155.477 315.733 151.456 317.241C146.263 319.251 140.901 321.597 135.205 322.099C126.325 322.77 117.613 324.445 109.069 326.623C105.718 327.461 102.2 328.131 98.6812 328.466C96.8382 328.633 95.3303 329.304 93.99 330.979C91.3094 334.162 88.6287 337.346 85.9481 340.529C85.7805 340.696 85.7805 340.864 85.4454 341.367C87.791 341.534 89.8015 341.702 91.9795 341.869C97.5084 342.204 103.037 342.874 108.566 343.88C111.247 344.382 113.927 345.052 116.273 346.393C121.299 348.906 126.66 350.749 131.352 353.932C132.524 354.77 133.697 355.608 134.87 356.445C137.886 358.288 141.237 358.623 144.587 358.791C150.954 359.126 157.32 358.121 163.519 358.288C166.535 358.288 168.881 359.293 171.059 361.304C173.572 363.649 176.085 365.827 179.268 367.168C180.441 367.67 181.614 368.508 182.954 369.011C185.802 370.184 188.148 371.859 190.158 374.205C192.001 376.383 194.347 377.053 197.195 377.22C202.724 377.388 207.75 375.88 213.111 375.042C217.3 374.372 221.489 373.534 225.677 373.367C227.017 373.367 228.19 372.864 229.531 372.864C233.049 372.864 236.567 373.702 240.086 374.037C243.269 374.372 246.452 374.372 249.635 374.037C252.316 373.702 254.829 373.534 257.51 373.367C258.683 373.367 259.688 373.367 260.861 373.367C267.562 373.869 273.929 372.362 280.295 371.189C285.824 370.184 291.353 368.341 296.882 367C300.568 366.163 304.421 365.492 308.107 364.487C314.474 362.812 320.673 360.466 326.704 357.953C333.908 354.937 341.448 352.424 349.155 350.581C353.343 349.576 357.699 349.073 361.888 348.236C366.914 347.23 371.94 347.063 376.799 345.89C377.972 345.555 379.312 345.388 380.485 344.717C384.841 342.372 389.532 343.042 394.223 343.042C394.726 343.042 395.396 343.209 395.563 343.712C395.898 344.382 395.563 344.717 395.061 345.22C394.223 346.058 393.218 346.728 392.045 347.23C388.192 348.738 384.171 349.911 380.15 350.916C377.804 351.587 375.626 352.257 373.616 353.765C370.767 355.775 367.417 356.78 364.233 357.953C361.553 358.958 358.872 359.796 356.191 360.466C353.846 361.136 351.5 362.142 349.155 363.147C344.966 364.822 340.61 366.498 336.254 367.838C333.071 368.843 330.223 370.351 327.039 371.356C321.845 373.199 316.484 374.037 311.458 376.047C305.594 378.393 299.563 379.901 293.699 381.911C288.337 383.754 283.311 386.1 277.95 388.11C269.908 390.959 261.866 393.974 253.321 395.315C250.138 395.817 247.29 396.823 244.274 397.995C238.913 399.838 233.384 400.676 227.855 401.681C222.494 402.686 216.965 402.351 211.436 402.016C202.389 401.514 193.677 399.671 185.3 395.985C180.273 393.807 174.912 392.299 169.383 391.294C166.87 390.791 164.19 389.953 161.676 389.116C155.142 386.938 148.441 385.095 141.739 383.587C136.545 382.414 131.519 380.404 126.493 378.226C123.98 377.22 121.634 376.55 118.954 376.215C108.901 375.21 98.6812 374.037 89.1313 370.686C87.2884 370.016 85.613 369.178 83.9376 368.173C81.4245 366.498 78.5763 365.828 75.5605 365.66C71.5396 365.66 67.351 365.157 63.3301 365.995C62.995 365.995 62.4924 365.827 62.1573 365.827C59.8117 365.66 57.6337 365.492 55.2881 366.33C50.7645 368.006 45.9058 368.676 41.2147 369.513C35.8534 370.351 30.6596 371.524 25.4658 372.529C18.5967 373.869 11.895 376.215 5.02587 377.555C4.18816 377.723 3.518 377.723 2.6803 377.723C2.34521 357.45 2.34521 336.675 2.34521 315.9Z" fill="#4D423B"/>
<path d="M2.34521 110.83C6.53373 110.83 10.7223 110.495 14.9108 109.993C17.2563 109.658 19.6019 109.825 21.7799 110.495C23.4554 110.998 25.2983 110.998 26.9737 111.166C30.3245 111.333 32.6701 112.841 33.8429 115.857C35.0157 118.537 36.356 121.05 37.6963 123.731C39.3717 127.082 39.5393 130.6 39.8743 134.286C40.0419 135.626 40.2094 136.799 40.2094 138.14C40.2094 139.48 41.0471 140.15 42.2199 140.485C43.5602 140.82 45.0681 141.323 46.4084 141.49C50.0943 142.161 53.4451 143.668 56.2933 146.182C57.6337 147.354 59.1415 148.527 60.4819 149.867C61.8222 151.208 63.3301 152.381 65.0055 153.386C68.8589 155.731 71.7071 159.082 73.55 163.271C75.5605 168.297 77.2359 173.323 77.7386 178.852C78.0736 182.538 79.2464 186.056 82.0946 188.737C83.2674 189.742 84.2727 190.915 85.2779 192.088C86.2831 193.26 87.6235 193.763 89.1313 193.596C93.4874 193.428 97.8435 193.763 102.032 194.768C105.048 195.606 107.896 194.601 110.912 194.266C111.414 194.266 111.917 194.098 112.252 193.931C115.435 193.093 118.451 192.925 121.802 193.428C126.158 194.098 130.514 194.936 134.702 196.444C136.88 197.114 138.891 198.119 140.901 199.124C142.409 199.962 143.75 200.967 144.755 202.308C145.928 203.816 147.268 205.323 148.608 206.831C149.949 208.507 151.456 209.847 153.132 211.02C153.97 211.69 155.142 212.36 154.64 213.7C153.467 213.533 152.294 214.036 151.121 214.371C150.451 214.538 149.781 214.706 149.278 214.538C145.593 213.533 142.074 214.706 138.723 215.543C128.838 218.057 119.289 221.742 109.571 224.423C105.885 225.428 102.2 226.601 98.3461 226.266C96.6707 226.098 95.1628 226.601 93.6549 226.769C86.9533 227.941 80.2517 228.444 73.7176 228.947C69.194 229.282 64.6704 230.119 60.3143 231.125C56.9635 231.795 53.7802 232.465 50.2619 232.465C45.2357 232.297 40.2094 232.297 35.0157 232.465C29.6544 232.633 24.4606 232.13 19.2668 230.957C16.5862 230.287 14.2406 229.114 13.0678 226.601C12.7327 226.098 12.5652 225.596 12.0626 225.261C9.04685 222.078 6.53373 218.392 4.18816 214.706C3.85308 214.036 3.518 213.7 2.6803 213.7C2.34521 179.69 2.34521 145.344 2.34521 110.83Z" fill="#6D6560"/>
<path d="M2.3454 214.203C3.01556 214.203 3.51818 214.706 3.85326 215.208C6.19883 218.894 8.71195 222.58 11.7277 225.763C12.0628 226.098 12.3978 226.601 12.7329 227.104C14.0732 229.617 16.2513 230.957 18.9319 231.46C24.1257 232.633 29.3195 232.968 34.6808 232.968C39.707 232.8 44.7332 232.8 49.927 232.968C53.2778 233.135 56.6286 232.465 59.9794 231.627C64.503 230.622 68.8591 229.784 73.3827 229.449C80.0843 228.779 86.7859 228.444 93.32 227.271C94.8279 226.936 96.5033 226.601 98.0112 226.769C101.865 227.104 105.551 225.931 109.236 224.926C119.121 222.245 128.671 218.559 138.389 216.046C141.739 215.208 145.258 214.036 148.944 215.041C149.614 215.208 150.116 215.041 150.787 214.873C151.959 214.538 153.132 214.036 154.305 214.203C153.802 215.878 153.3 217.554 152.294 219.062C149.614 219.732 147.101 221.24 144.588 222.413C141.237 223.92 137.886 225.596 134.703 227.271C129.844 229.952 124.483 231.292 119.791 233.973C116.106 236.151 112.252 237.994 108.399 239.837C105.215 241.345 102.2 242.853 99.184 244.695C96.5033 246.371 93.4876 247.376 90.6394 248.549C86.9535 249.889 83.4351 251.565 79.7492 253.073C74.723 255.083 69.5292 257.094 64.503 259.104C61.6548 260.277 58.9742 261.785 56.126 262.957C47.4139 266.476 38.5342 269.324 29.3195 271.167C25.8011 271.837 22.4503 273.01 18.9319 274.35C13.4031 276.361 7.7067 277.869 1.84277 277.533C2.3454 256.256 2.3454 235.313 2.3454 214.203Z" fill="#4D423B"/>
<path d="M2.34521 619.987C7.70652 619.317 13.2354 619.652 18.7642 619.484C23.4554 619.317 28.1465 619.149 33.0052 618.647C35.8534 618.311 38.8691 618.479 41.7173 618.479C44.733 618.479 47.7488 617.976 50.7645 617.641C53.1101 617.306 55.6232 617.306 57.9688 616.971C62.6599 616.469 67.351 616.133 72.0422 615.798C76.5658 615.463 80.9218 615.128 85.2779 614.123C83.77 615.128 81.9271 615.463 80.2517 615.463C65.3405 616.469 50.4294 618.479 35.3507 618.982C24.7957 619.317 14.2406 619.819 3.518 620.154C3.18292 620.154 2.6803 620.322 2.34521 620.322C2.34521 620.322 2.34521 620.154 2.34521 619.987Z" fill="#6D6560"/>
<path d="M438.621 423.126C441.637 425.137 444.988 425.137 448.506 425.137C453.7 425.137 458.726 424.634 463.752 424.132C465.93 423.964 468.276 423.964 470.454 424.132C474.81 424.299 478.998 423.797 483.019 422.624C486.705 421.451 490.559 421.116 494.245 420.278C498.768 419.273 502.957 417.43 507.145 415.755C511.166 414.079 515.355 413.074 519.208 411.063C522.727 409.053 526.245 407.21 529.596 405.032C530.601 404.362 531.774 403.859 532.779 403.524C536.297 402.351 539.816 401.179 543.334 400.006C545.177 399.336 547.02 398.833 549.03 399C549.533 399.168 550.036 399.503 550.371 400.006C550.538 400.341 550.706 400.508 551.041 400.508C551.208 400.508 551.209 400.508 551.376 400.676C551.544 401.011 551.711 401.011 552.046 401.011C552.214 401.011 552.214 401.011 552.381 401.179C554.057 402.519 556.067 402.686 558.078 402.351C559.25 402.184 560.256 402.016 561.261 402.351C561.428 403.021 561.093 403.357 560.758 403.524C558.245 404.864 555.732 406.54 553.051 407.378C549.03 408.55 545.345 410.393 541.659 412.571C538.308 414.582 534.454 415.755 530.936 417.262C528.59 418.1 526.245 418.938 523.899 419.608C520.046 420.613 516.528 422.456 513.009 423.964C512.004 424.299 510.831 424.467 509.993 425.304C511.669 425.975 513.344 425.975 515.02 425.975C519.878 425.639 524.737 426.142 529.596 426.477C532.947 426.812 536.297 427.315 539.481 427.985C541.659 428.488 543.837 428.153 546.015 428.32C547.523 428.32 548.863 428.32 550.203 428.99C550.873 429.325 551.544 429.325 552.381 429.325C558.245 429.493 564.109 428.99 569.806 427.985C571.648 427.65 573.491 427.65 575.334 428.32C573.491 429.325 571.313 429.325 569.303 429.828C565.617 430.498 561.931 431.168 558.245 431.671C556.57 432.006 554.727 431.838 553.051 432.006C546.182 433.179 539.313 433.514 532.444 433.011C530.098 432.844 527.92 432.341 525.575 431.838C522.894 431.336 520.213 431.503 517.7 431.671C516.528 431.838 515.355 432.006 514.182 432.006C511.334 432.006 508.318 432.006 505.47 432.006C503.292 432.006 501.114 432.006 498.936 432.341C495.92 432.844 493.072 432.174 490.056 431.671C486.035 431.001 482.182 430.163 478.161 430.498C476.82 430.498 475.648 431.001 474.307 431.001C469.449 430.833 464.757 430.331 459.899 430.498C458.894 430.498 459.229 429.493 458.391 429.325C456.045 428.823 453.7 428.99 451.354 428.99C448.003 428.99 444.653 428.32 441.469 427.315C438.956 426.477 438.621 425.807 438.621 423.126Z" fill="#4D423B"/>
<path d="M658.602 475.567C659.104 475.064 659.774 474.896 660.444 474.729C665.136 473.389 669.827 472.886 674.685 472.718C676.863 472.718 679.209 472.048 681.387 472.383C686.748 473.221 692.277 472.551 697.639 473.221C702.497 473.724 707.523 473.389 712.55 472.551C714.393 472.216 716.236 472.383 718.079 472.048C722.435 471.546 726.623 470.038 730.812 469.033C731.817 468.865 732.655 468.53 733.66 468.53C728.634 470.54 723.272 471.881 717.911 472.551C707.021 474.226 696.131 473.556 685.241 473.221C676.528 472.886 667.816 473.221 659.272 475.734C659.104 475.567 658.769 475.567 658.602 475.567Z" fill="#6D6560"/>
<path d="M465.597 493.326C465.764 492.991 466.099 492.656 466.434 492.656C468.612 492.823 470.623 492.321 472.633 492.153C483.356 491.483 493.911 491.651 504.634 491.651C510.665 491.651 516.697 492.321 522.728 493.326C526.917 493.996 531.273 494.499 535.461 495.504C535.964 495.672 536.634 495.672 536.969 496.174C532.445 495.337 527.922 494.666 523.398 493.829C515.691 492.656 507.985 492.153 500.11 491.986C488.55 491.986 476.989 491.986 465.597 493.326Z" fill="#6D6560"/>
<path d="M142.745 582.625C144.588 581.453 146.766 581.117 148.944 580.782C154.976 579.945 161.175 579.777 167.374 579.61C172.065 579.442 176.756 579.107 181.447 578.437C183.625 578.102 185.803 578.102 187.814 577.767C193.342 577.096 198.704 576.761 204.233 576.259C207.081 575.924 209.761 575.589 212.61 575.254C211.269 576.091 209.929 576.091 208.421 576.259C197.028 577.432 185.636 578.437 174.41 579.61C171.059 579.945 167.876 579.945 164.525 579.945C159.332 579.945 154.305 580.447 149.112 581.117C146.934 581.62 144.923 582.29 142.745 582.625Z" fill="#6D6560"/>
<path d="M542.33 497.85C543.503 497.682 544.341 498.185 545.346 498.52C549.032 499.86 552.885 500.028 556.739 499.357C558.582 499.022 560.425 499.022 562.267 498.855C565.786 498.687 569.137 498.017 572.823 498.52C576.676 499.022 580.864 498.855 584.885 498.352C588.069 498.017 591.252 497.179 594.435 497.179C594.1 497.347 593.765 497.515 593.263 497.682C587.064 498.855 580.864 499.86 574.665 499.19C569.974 498.687 565.618 499.022 560.927 499.525C557.911 499.86 554.896 500.195 551.712 500.028C548.362 500.028 545.346 499.357 542.33 497.85Z" fill="#6D6560"/>
<path d="M268.736 536.384C270.579 534.876 272.59 534.709 274.768 534.709C280.967 534.541 287.166 534.709 293.197 534.709C295.71 534.709 298.056 534.038 300.569 534.206C301.239 534.206 301.909 534.038 302.412 534.541C300.904 535.044 299.396 534.709 297.888 534.876C290.852 535.044 283.815 535.714 276.778 535.044C273.93 534.709 271.417 535.714 268.736 536.384Z" fill="#6D6560"/>
<path d="M373.783 505.892C375.626 504.384 377.804 504.049 379.982 503.714C384.841 503.043 389.867 502.541 394.726 502.708C398.579 502.876 402.265 503.378 406.119 504.216C406.621 504.384 407.124 504.551 407.626 505.054C404.108 504.384 400.59 503.546 396.904 503.378C391.543 503.211 386.181 503.714 380.82 504.216C378.474 504.384 376.296 505.556 373.783 505.892Z" fill="#6D6560"/>
<path d="M782.08 456.802C785.096 457.137 788.279 457.64 791.295 457.975C797.326 458.645 803.19 458.98 809.222 458.645C810.394 458.645 811.567 458.142 812.74 458.142C812.405 458.645 811.735 458.645 811.232 458.813C808.216 459.148 805.201 459.65 802.185 459.315C796.656 458.98 791.127 458.478 785.766 457.807C784.426 457.807 783.085 457.807 782.08 456.802Z" fill="#6D6560"/>
<path d="M409.804 505.556C412.149 505.556 414.327 506.394 416.673 506.729C419.521 507.064 422.537 507.064 425.553 507.567C428.066 508.07 430.579 508.237 433.092 508.74C433.595 508.74 433.93 509.075 434.432 509.41C428.401 508.237 422.202 507.902 416.17 507.232C413.825 506.897 411.647 506.562 409.804 505.556Z" fill="#6D6560"/>
<path d="M631.964 482.771C633.639 481.598 635.65 481.598 637.66 481.096C640.508 480.258 643.357 479.588 646.205 478.917C646.875 478.75 647.545 478.582 648.383 478.75C647.378 479.42 646.205 479.588 645.032 479.923C640.676 480.76 636.487 482.101 631.964 482.771Z" fill="#6D6560"/>
<path d="M764.152 455.797C764.823 455.127 765.828 455.294 766.665 455.127C770.686 454.791 774.54 453.786 778.561 454.791C779.063 454.959 779.566 454.959 779.734 455.462C775.713 454.624 771.859 455.127 767.838 455.462C766.665 455.629 765.493 455.797 764.152 455.797Z" fill="#6D6560"/>
<path d="M606.834 490.98C607.002 490.813 607.337 490.478 607.504 490.31C610.52 489.473 613.201 487.965 616.384 487.63C613.368 489.138 610.185 489.975 606.834 490.98Z" fill="#6D6560"/>
<path d="M306.433 534.373C306.6 534.206 306.768 534.038 307.103 534.038C309.448 534.206 311.794 533.871 314.14 533.033C311.794 535.211 309.113 534.876 306.433 534.373Z" fill="#6D6560"/>
<path d="M620.905 486.122C623.083 484.614 625.429 484.111 627.942 483.776C625.764 484.781 623.418 485.619 620.905 486.122Z" fill="#6D6560"/>
<path d="M759.296 457.975C760.636 456.635 762.144 455.964 763.987 455.797C762.647 456.635 761.139 457.64 759.296 457.975Z" fill="#6D6560"/>
<path d="M338.6 523.818C339.605 522.813 340.945 522.478 342.286 522.478C341.28 523.316 339.94 523.651 338.6 523.818Z" fill="#6D6560"/>
<path d="M745.893 463.504C746.898 462.499 748.238 462.163 749.578 462.163C748.573 462.834 747.233 463.336 745.893 463.504Z" fill="#6D6560"/>
<path d="M438.621 510.918C439.794 510.918 440.799 510.918 441.972 510.918C440.799 511.756 439.626 511.923 438.621 510.918Z" fill="#6D6560"/>
<path d="M651.733 477.577C652.571 476.74 653.744 476.572 654.917 476.74C654.079 477.242 652.906 477.41 651.733 477.577Z" fill="#6D6560"/>
<path d="M628.11 483.776C629.116 482.938 630.121 482.771 631.294 482.938C630.456 483.441 629.283 483.776 628.11 483.776Z" fill="#6D6560"/>
<path d="M537.64 496.342C538.645 496.342 539.65 496.174 540.32 497.012C539.315 497.179 538.477 496.844 537.64 496.342Z" fill="#6D6560"/>
<path d="M334.243 525.159C334.913 524.153 335.919 524.321 336.924 524.321C336.254 524.991 335.248 525.159 334.243 525.159Z" fill="#6D6560"/>
<path d="M816.259 451.106C815.756 450.436 815.756 449.765 816.594 449.095C816.594 449.765 816.594 450.436 816.259 451.106Z" fill="#6D6560"/>
<path d="M655.755 476.404C656.425 475.567 657.43 475.567 658.436 475.567C657.598 476.237 656.593 476.404 655.755 476.404Z" fill="#6D6560"/>
<path d="M648.885 478.247C649.555 477.41 650.56 477.577 651.565 477.41C650.895 478.08 649.89 478.247 648.885 478.247Z" fill="#6D6560"/>
<path d="M594.937 497.18C595.439 496.342 596.277 496.342 597.115 496.342C596.444 497.012 595.774 497.18 594.937 497.18Z" fill="#6D6560"/>
<path d="M753.599 460.656C754.101 459.818 754.939 459.65 755.777 459.65C755.274 460.321 754.436 460.488 753.599 460.656Z" fill="#6D6560"/>
<path d="M751.254 461.493C751.757 460.656 752.594 460.656 753.599 460.656C752.762 461.326 752.092 461.493 751.254 461.493Z" fill="#6D6560"/>
<path d="M137.383 584.636C137.886 583.798 138.724 583.631 139.729 583.631C139.059 584.301 138.221 584.468 137.383 584.636Z" fill="#6D6560"/>
<path d="M90.6396 611.61C91.1423 610.772 91.98 610.605 92.8177 610.605C92.3151 611.275 91.4774 611.61 90.6396 611.61Z" fill="#6D6560"/>
<path d="M739.19 466.352C739.693 465.514 740.531 465.347 741.536 465.347C740.698 466.017 740.028 466.352 739.19 466.352Z" fill="#6D6560"/>
<path d="M736.677 467.357C737.179 466.519 738.017 466.519 739.022 466.519C738.352 467.022 737.514 467.357 736.677 467.357Z" fill="#6D6560"/>
<path d="M617.052 487.462C617.554 486.624 618.392 486.624 619.23 486.624C618.727 487.295 617.889 487.462 617.052 487.462Z" fill="#6D6560"/>
<path d="M324.191 528.677C324.694 527.839 325.699 527.672 326.537 527.839C325.867 528.342 325.029 528.677 324.191 528.677Z" fill="#6D6560"/>
<path d="M815.756 454.457C815.253 453.954 815.253 453.451 815.923 452.949C816.091 453.451 816.091 453.954 815.756 454.457Z" fill="#6D6560"/>
<path d="M317.323 531.358C317.658 530.52 318.496 530.688 319.166 530.688C318.664 531.19 318.161 531.358 317.323 531.358Z" fill="#6D6560"/>
<path d="M347.814 519.965C348.15 519.127 348.82 518.96 349.657 519.127C349.155 519.63 348.485 519.965 347.814 519.965Z" fill="#6D6560"/>
<path d="M817.599 443.901C817.096 443.399 817.096 442.896 817.766 442.394C818.101 442.896 818.101 443.399 817.599 443.901Z" fill="#6D6560"/>
<path d="M113.258 599.044C113.425 598.207 114.096 598.207 114.598 598.207C114.431 598.709 113.928 599.044 113.258 599.044Z" fill="#6D6560"/>
<path d="M259.521 540.572C259.689 539.735 260.359 539.735 260.862 539.902C260.527 540.405 260.024 540.572 259.521 540.572Z" fill="#6D6560"/>
<path d="M355.02 516.447C355.187 515.609 355.857 515.609 356.36 515.609C356.025 516.279 355.69 516.447 355.02 516.447Z" fill="#6D6560"/>
<path d="M358.37 514.604C358.538 513.766 359.04 513.766 359.71 513.766C359.375 514.268 359.04 514.604 358.37 514.604Z" fill="#6D6560"/>
<path d="M94.4927 609.934C94.8278 609.264 95.3304 609.264 96.0005 609.264C95.4979 609.934 94.9953 610.102 94.4927 609.934Z" fill="#6D6560"/>
<path d="M449.176 507.232C449.343 506.394 449.846 506.394 450.516 506.394C450.181 507.064 449.678 507.232 449.176 507.232Z" fill="#6D6560"/>
<path d="M133.027 586.981C133.195 586.144 133.698 586.144 134.368 586.144C134.033 586.646 133.698 586.981 133.027 586.981Z" fill="#6D6560"/>
<path d="M119.959 595.191C120.127 594.353 120.63 594.353 121.3 594.353C121.132 594.856 120.63 595.191 119.959 595.191Z" fill="#6D6560"/>
<path d="M106.556 602.898C106.723 602.06 107.226 602.06 107.896 602.06C107.561 602.563 107.058 602.898 106.556 602.898Z" fill="#6D6560"/>
<path d="M224.841 566.374C224.841 565.704 225.008 565.369 225.679 565.369C225.511 565.871 225.343 566.206 224.841 566.374Z" fill="#6D6560"/>
<path d="M816.761 448.09C816.259 447.587 816.426 447.42 816.929 447.085C817.097 447.587 816.929 447.923 816.761 448.09Z" fill="#6D6560"/>
<path d="M601.137 494.331C601.304 493.661 601.639 493.494 602.142 493.661C601.974 494.164 601.639 494.331 601.137 494.331Z" fill="#6D6560"/>
<path d="M817.096 446.247C816.594 445.744 816.761 445.577 817.264 445.242C817.599 445.577 817.432 445.912 817.096 446.247Z" fill="#6D6560"/>
<path d="M459.733 499.693C459.733 499.022 460.068 498.855 460.739 498.855C460.571 499.357 460.236 499.693 459.733 499.693Z" fill="#6D6560"/>
<path d="M328.044 527.169C328.379 526.667 328.882 526.667 329.384 526.667C328.882 527.169 328.547 527.337 328.044 527.169Z" fill="#6D6560"/>
<path d="M332.401 525.829C332.736 525.326 333.239 525.326 333.742 525.326C333.407 525.661 332.904 525.829 332.401 525.829Z" fill="#6D6560"/>
<path d="M337.259 524.321C337.594 523.818 338.096 523.818 338.599 523.818C338.096 524.153 337.761 524.321 337.259 524.321Z" fill="#6D6560"/>
<path d="M330.893 526.164C331.228 525.661 331.73 525.661 332.233 525.829C331.898 526.164 331.395 526.332 330.893 526.164Z" fill="#6D6560"/>
<path d="M329.553 526.667C329.888 526.164 330.39 526.164 330.893 526.164C330.39 526.667 330.055 526.834 329.553 526.667Z" fill="#6D6560"/>
<path d="M733.829 468.362C734.164 467.86 734.667 467.86 735.169 467.86C734.834 468.195 734.332 468.362 733.829 468.362Z" fill="#6D6560"/>
<path d="M408.298 505.054C408.8 505.054 409.303 505.054 409.638 505.557C409.136 505.557 408.633 505.389 408.298 505.054Z" fill="#6D6560"/>
<path d="M735.337 467.86C735.672 467.357 736.175 467.357 736.677 467.357C736.175 467.86 735.84 467.86 735.337 467.86Z" fill="#6D6560"/>
<path d="M434.768 509.41C435.27 509.41 435.773 509.41 436.108 509.745C435.605 509.913 435.27 509.745 434.768 509.41Z" fill="#6D6560"/>
<path d="M744.384 464.006C744.719 463.504 745.222 463.504 745.724 463.504C745.389 463.839 744.886 464.006 744.384 464.006Z" fill="#6D6560"/>
<path d="M141.236 583.128C141.571 582.625 142.074 582.625 142.577 582.793C142.242 583.128 141.739 583.295 141.236 583.128Z" fill="#6D6560"/>
<path d="M139.896 583.631C140.232 583.128 140.734 583.128 141.237 583.128C140.734 583.631 140.399 583.798 139.896 583.631Z" fill="#6D6560"/>
<path d="M749.745 462.163C750.08 461.661 750.583 461.661 751.085 461.661C750.75 461.996 750.248 462.163 749.745 462.163Z" fill="#6D6560"/>
<path d="M115.771 597.704C115.938 597.369 116.273 597.201 116.608 597.201C116.273 597.536 116.106 597.704 115.771 597.704Z" fill="#6D6560"/>
<path d="M370.433 507.399C370.6 507.064 370.935 507.064 371.27 507.064C371.103 507.232 370.935 507.399 370.433 507.399Z" fill="#6D6560"/>
<path d="M755.944 459.65C756.112 459.315 756.447 459.315 756.782 459.315C756.614 459.483 756.447 459.65 755.944 459.65Z" fill="#6D6560"/>
<path d="M135.541 585.641C135.708 585.306 136.043 585.138 136.378 585.138C136.211 585.473 135.876 585.641 135.541 585.641Z" fill="#6D6560"/>
<path d="M136.545 585.138C136.713 584.803 137.048 584.636 137.383 584.803C137.048 584.971 136.88 585.138 136.545 585.138Z" fill="#6D6560"/>
<path d="M447.167 508.405C447.335 508.07 447.67 507.902 448.005 507.902C447.837 508.237 447.502 508.405 447.167 508.405Z" fill="#6D6560"/>
<path d="M371.438 506.897C371.606 506.562 371.941 506.394 372.276 506.562C372.109 506.897 371.774 507.064 371.438 506.897Z" fill="#6D6560"/>
<path d="M446.161 508.907C446.329 508.572 446.664 508.405 446.999 508.405C446.831 508.74 446.664 508.907 446.161 508.907Z" fill="#6D6560"/>
<path d="M450.519 506.394C450.686 506.059 451.021 505.892 451.356 505.892C451.189 506.394 451.021 506.562 450.519 506.394Z" fill="#6D6560"/>
<path d="M372.945 506.227C373.113 505.892 373.448 505.892 373.615 505.892C373.448 506.227 373.28 506.394 372.945 506.227Z" fill="#6D6560"/>
<path d="M757.954 458.645C758.122 458.31 758.457 458.142 758.792 458.31C758.624 458.645 758.289 458.813 757.954 458.645Z" fill="#6D6560"/>
<path d="M111.415 600.05C111.582 599.715 111.917 599.547 112.252 599.547C111.917 599.882 111.75 600.05 111.415 600.05Z" fill="#6D6560"/>
<path d="M444.318 509.913C444.486 509.577 444.821 509.41 445.156 509.41C444.989 509.745 444.653 509.913 444.318 509.913Z" fill="#6D6560"/>
<path d="M214.117 574.918C214.285 574.583 214.62 574.583 214.955 574.583C214.787 574.918 214.62 575.086 214.117 574.918Z" fill="#6D6560"/>
<path d="M436.276 509.912C436.611 509.912 436.779 509.912 436.947 510.247C436.779 510.247 436.444 510.247 436.276 509.912Z" fill="#6D6560"/>
<path d="M443.312 510.247C443.48 509.912 443.815 509.745 444.15 509.912C443.983 510.247 443.648 510.415 443.312 510.247Z" fill="#6D6560"/>
<path d="M597.283 496.342C597.451 496.007 597.786 495.839 598.121 496.007C597.953 496.174 597.618 496.342 597.283 496.342Z" fill="#6D6560"/>
<path d="M742.541 465.012C742.709 464.677 743.044 464.509 743.379 464.509C743.211 464.844 742.876 465.012 742.541 465.012Z" fill="#6D6560"/>
<path d="M442.475 510.75C442.642 510.415 442.977 510.415 443.312 510.415C442.977 510.75 442.81 510.75 442.475 510.75Z" fill="#6D6560"/>
<path d="M262.873 538.729C263.041 538.394 263.376 538.227 263.711 538.394C263.543 538.729 263.208 538.897 262.873 538.729Z" fill="#6D6560"/>
<path d="M265.386 537.724C265.553 537.389 265.888 537.389 266.056 537.389C265.888 537.724 265.721 537.724 265.386 537.724Z" fill="#6D6560"/>
<path d="M266.223 537.222C266.39 536.887 266.725 536.887 267.06 536.887C266.893 537.222 266.558 537.389 266.223 537.222Z" fill="#6D6560"/>
<path d="M267.228 536.887C267.395 536.552 267.73 536.384 268.233 536.552C267.898 536.719 267.563 536.887 267.228 536.887Z" fill="#6D6560"/>
<path d="M741.535 465.347C741.703 465.012 742.038 464.844 742.373 465.012C742.205 465.347 741.87 465.514 741.535 465.347Z" fill="#6D6560"/>
<path d="M101.195 606.416C101.362 606.081 101.53 605.913 101.865 605.913C101.865 606.248 101.53 606.416 101.195 606.416Z" fill="#6D6560"/>
<path d="M313.972 533.033C314.139 532.698 314.474 532.531 314.809 532.531C314.642 532.866 314.474 533.033 313.972 533.033Z" fill="#6D6560"/>
<path d="M315.98 532.028C316.148 531.693 316.483 531.525 316.818 531.525C316.651 531.86 316.316 532.195 315.98 532.028Z" fill="#6D6560"/>
<path d="M92.9849 610.604C93.1524 610.269 93.4875 610.102 93.8226 610.269C93.655 610.604 93.4875 610.772 92.9849 610.604Z" fill="#6D6560"/>
<path d="M603.985 492.488C604.153 492.153 604.488 491.986 604.823 491.986C604.656 492.321 604.32 492.488 603.985 492.488Z" fill="#6D6560"/>
<path d="M319.332 530.52C319.5 530.185 319.835 530.017 320.17 530.185C320.002 530.52 319.667 530.688 319.332 530.52Z" fill="#6D6560"/>
<path d="M321.846 529.515C322.013 529.18 322.348 529.18 322.683 529.18C322.348 529.515 322.181 529.682 321.846 529.515Z" fill="#6D6560"/>
<path d="M323.187 529.012C323.354 528.677 323.689 528.677 324.024 528.677C323.857 529.012 323.522 529.18 323.187 529.012Z" fill="#6D6560"/>
<path d="M620.067 486.457C620.235 486.122 620.57 486.122 620.738 486.289C620.57 486.457 620.402 486.624 620.067 486.457Z" fill="#6D6560"/>
<path d="M327.04 527.504C327.208 527.169 327.543 527.169 327.878 527.169C327.71 527.504 327.375 527.672 327.04 527.504Z" fill="#6D6560"/>
<path d="M540.989 497.347C541.324 497.347 541.492 497.347 541.827 497.682C541.492 497.682 541.157 497.682 540.989 497.347Z" fill="#6D6560"/>
<path d="M346.81 520.468C346.977 520.133 347.312 519.965 347.647 519.965C347.48 520.3 347.312 520.468 346.81 520.468Z" fill="#6D6560"/>
<path d="M345.805 520.97C345.972 520.635 346.307 520.468 346.642 520.635C346.475 520.803 346.307 520.97 345.805 520.97Z" fill="#6D6560"/>
<path d="M344.968 521.305C345.135 520.97 345.47 520.97 345.805 520.97C345.47 521.305 345.303 521.473 344.968 521.305Z" fill="#6D6560"/>
<path d="M89.6348 612.112C89.8023 611.777 90.1374 611.61 90.4725 611.777C90.3049 611.945 89.9698 612.112 89.6348 612.112Z" fill="#6D6560"/>
<path d="M342.453 522.31C342.621 521.975 342.956 521.808 343.291 521.975C343.123 522.31 342.956 522.478 342.453 522.31Z" fill="#6D6560"/>
<path d="M598.288 495.839C598.456 495.504 598.791 495.336 599.126 495.336C598.958 495.672 598.623 496.007 598.288 495.839Z" fill="#6D6560"/>
<path d="M88.7969 612.615C88.9644 612.28 89.2995 612.28 89.6346 612.28C89.2995 612.448 89.132 612.615 88.7969 612.615Z" fill="#6D6560"/>
<path d="M605.995 491.483C606.163 491.148 606.498 491.148 606.833 491.148C606.665 491.315 606.33 491.483 605.995 491.483Z" fill="#6D6560"/>
<path d="M215.122 574.416C215.29 574.081 215.625 573.913 215.96 573.913C215.792 574.416 215.457 574.583 215.122 574.416Z" fill="#6D6560"/>
<path d="M552.046 400.843C551.711 400.843 551.544 400.676 551.376 400.508C551.711 400.341 552.046 400.508 552.046 400.843Z" fill="#6D6560"/>
<path d="M343.961 521.64C344.128 521.473 344.128 521.473 344.464 521.473C344.296 521.808 344.128 521.808 343.961 521.64Z" fill="#6D6560"/>
<path d="M604.988 491.986C605.156 491.818 605.323 491.651 605.491 491.651C605.491 491.818 605.323 491.986 604.988 491.986Z" fill="#6D6560"/>
<path d="M350.327 518.792C350.327 518.625 350.495 518.457 350.83 518.625C350.662 518.792 350.495 518.96 350.327 518.792Z" fill="#6D6560"/>
<path d="M351.164 518.457C351.164 518.289 351.332 518.122 351.667 518.289C351.667 518.457 351.499 518.457 351.164 518.457Z" fill="#6D6560"/>
<path d="M352.171 517.954C352.338 517.787 352.338 517.619 352.674 517.787C352.506 517.954 352.338 517.954 352.171 517.954Z" fill="#6D6560"/>
<path d="M353.176 517.452C353.343 517.284 353.343 517.117 353.678 517.117C353.511 517.452 353.343 517.619 353.176 517.452Z" fill="#6D6560"/>
<path d="M320.841 530.017C321.008 529.85 321.176 529.682 321.343 529.85C321.176 530.017 321.008 530.017 320.841 530.017Z" fill="#6D6560"/>
<path d="M354.182 516.949C354.182 516.782 354.349 516.614 354.684 516.614C354.517 516.949 354.349 517.117 354.182 516.949Z" fill="#6D6560"/>
<path d="M357.029 515.275C357.029 515.106 357.198 515.106 357.198 515.106C357.366 515.275 357.198 515.443 357.029 515.275Z" fill="#6D6560"/>
<path d="M357.364 515.106C357.532 514.939 357.699 514.771 357.867 514.771C357.867 515.106 357.699 515.106 357.364 515.106Z" fill="#6D6560"/>
<path d="M315.479 532.196C315.479 532.028 315.647 532.028 315.815 532.028L315.647 532.196H315.479Z" fill="#6D6560"/>
<path d="M603.649 492.656C603.649 492.488 603.817 492.488 603.985 492.488C603.817 492.823 603.817 492.823 603.649 492.656Z" fill="#6D6560"/>
<path d="M359.878 513.766C360.045 513.431 360.213 513.431 360.381 513.431C360.381 513.598 360.213 513.766 359.878 513.766Z" fill="#6D6560"/>
<path d="M360.883 513.096C360.883 512.928 361.05 512.761 361.218 512.928C361.218 513.096 361.05 513.096 360.883 513.096Z" fill="#6D6560"/>
<path d="M362.224 512.258C362.224 512.091 362.391 511.923 362.726 511.923C362.726 512.091 362.559 512.258 362.224 512.258Z" fill="#6D6560"/>
<path d="M363.228 511.421C363.228 511.253 363.396 511.253 363.396 511.253V511.421H363.228Z" fill="#6D6560"/>
<path d="M602.645 493.326C602.645 493.159 602.812 492.991 603.147 492.991C602.98 493.326 602.812 493.494 602.645 493.326Z" fill="#6D6560"/>
<path d="M264.379 538.059C264.546 538.059 264.714 537.892 264.882 537.892C264.714 538.227 264.546 538.227 264.379 538.059Z" fill="#6D6560"/>
<path d="M363.73 511.253C363.73 511.085 363.898 510.918 364.233 510.918C364.066 511.085 364.066 511.253 363.73 511.253Z" fill="#6D6560"/>
<path d="M262.537 538.897C262.537 538.73 262.705 538.729 262.872 538.729L262.705 538.897H262.537Z" fill="#6D6560"/>
<path d="M261.53 539.567C261.53 539.4 261.698 539.4 261.865 539.4L261.698 539.567H261.53Z" fill="#6D6560"/>
<path d="M437.616 510.415C437.784 510.415 437.951 510.583 437.951 510.583C437.784 510.75 437.784 510.583 437.616 510.415Z" fill="#6D6560"/>
<path d="M258.516 541.075C258.516 540.908 258.683 540.74 259.018 540.74C259.018 541.075 258.851 541.243 258.516 541.075Z" fill="#6D6560"/>
<path d="M257.51 541.745C257.677 541.41 257.845 541.41 258.012 541.41C258.012 541.578 257.845 541.745 257.51 541.745Z" fill="#6D6560"/>
<path d="M257.176 541.913C257.176 541.745 257.343 541.745 257.511 541.745L257.343 541.913H257.176Z" fill="#6D6560"/>
<path d="M256.171 542.583C256.171 542.415 256.338 542.248 256.506 542.415C256.506 542.415 256.338 542.583 256.171 542.583Z" fill="#6D6560"/>
<path d="M255.164 543.086C255.332 542.918 255.499 542.75 255.667 542.75C255.667 543.086 255.499 543.086 255.164 543.086Z" fill="#6D6560"/>
<path d="M254.661 543.421C254.661 543.253 254.829 543.253 254.996 543.253V543.421H254.661Z" fill="#6D6560"/>
<path d="M249.803 547.777C249.803 547.609 249.97 547.442 250.138 547.442C250.305 547.777 250.138 547.944 249.803 547.777Z" fill="#6D6560"/>
<path d="M248.462 548.949C248.462 548.782 248.629 548.614 248.965 548.614C248.797 548.782 248.629 548.949 248.462 548.949Z" fill="#6D6560"/>
<path d="M247.961 549.117C247.961 548.949 248.128 548.949 248.296 548.949V549.117H247.961Z" fill="#6D6560"/>
<path d="M246.956 549.787C246.956 549.62 247.124 549.452 247.291 549.452C247.291 549.787 247.291 549.787 246.956 549.787Z" fill="#6D6560"/>
<path d="M245.949 550.29C245.949 550.122 246.117 549.955 246.452 549.955C246.452 550.29 246.284 550.457 245.949 550.29Z" fill="#6D6560"/>
<path d="M244.944 550.792C245.112 550.457 245.279 550.457 245.447 550.457C245.447 550.792 245.279 550.96 244.944 550.792Z" fill="#6D6560"/>
<path d="M244.609 551.128C244.609 550.96 244.777 550.96 244.944 550.96L244.777 551.128H244.609Z" fill="#6D6560"/>
<path d="M243.604 551.63C243.604 551.463 243.772 551.463 243.94 551.463C243.94 551.63 243.772 551.798 243.604 551.63Z" fill="#6D6560"/>
<path d="M242.599 552.3C242.599 552.133 242.766 551.965 243.101 551.965C243.101 552.133 242.934 552.3 242.599 552.3Z" fill="#6D6560"/>
<path d="M241.595 552.803C241.762 552.468 241.93 552.468 242.097 552.468C242.097 552.636 241.93 552.803 241.595 552.803Z" fill="#6D6560"/>
<path d="M241.259 553.138C241.259 552.97 241.426 552.97 241.594 552.97C241.594 553.138 241.426 553.138 241.259 553.138Z" fill="#6D6560"/>
<path d="M240.254 553.808C240.254 553.641 240.421 553.473 240.757 553.473C240.589 553.641 240.421 553.808 240.254 553.808Z" fill="#6D6560"/>
<path d="M239.751 553.976C239.751 553.808 239.919 553.808 240.086 553.808C240.086 553.976 239.919 554.143 239.751 553.976Z" fill="#6D6560"/>
<path d="M238.746 554.646C238.746 554.478 238.914 554.311 239.249 554.311C239.249 554.646 239.081 554.813 238.746 554.646Z" fill="#6D6560"/>
<path d="M238.243 554.981C238.243 554.813 238.411 554.813 238.578 554.813V554.981H238.243Z" fill="#6D6560"/>
<path d="M237.238 555.651C237.238 555.484 237.406 555.316 237.741 555.316C237.741 555.651 237.573 555.651 237.238 555.651Z" fill="#6D6560"/>
<path d="M236.902 555.986C236.902 555.819 237.07 555.819 237.237 555.819C237.237 555.986 237.07 555.986 236.902 555.986Z" fill="#6D6560"/>
<path d="M235.395 556.992C235.395 556.824 235.562 556.656 235.73 556.656C235.73 556.992 235.562 556.992 235.395 556.992Z" fill="#6D6560"/>
<path d="M233.384 558.499C233.384 558.332 233.551 558.164 233.719 558.164C233.886 558.499 233.719 558.499 233.384 558.499Z" fill="#6D6560"/>
<path d="M228.692 562.353C228.692 562.185 228.86 562.018 229.027 562.018C229.027 562.353 228.86 562.353 228.692 562.353Z" fill="#6D6560"/>
<path d="M744.048 464.174C744.048 464.006 744.215 464.006 744.383 464.006L744.215 464.174H744.048Z" fill="#6D6560"/>
<path d="M220.483 571.065C220.483 570.897 220.651 570.73 220.818 570.73C220.818 570.897 220.651 571.065 220.483 571.065Z" fill="#6D6560"/>
<path d="M218.977 572.07C218.977 571.902 219.144 571.735 219.479 571.735C219.479 572.07 219.312 572.07 218.977 572.07Z" fill="#6D6560"/>
<path d="M218.473 572.405C218.473 572.238 218.64 572.238 218.808 572.238C218.808 572.405 218.808 572.405 218.473 572.405Z" fill="#6D6560"/>
<path d="M217.134 573.41C217.134 573.243 217.301 573.243 217.469 573.243C217.469 573.41 217.301 573.41 217.134 573.41Z" fill="#6D6560"/>
<path d="M216.128 573.913C216.295 573.746 216.463 573.578 216.631 573.578C216.463 573.913 216.295 574.081 216.128 573.913Z" fill="#6D6560"/>
<path d="M364.736 510.583C364.736 510.415 364.904 510.415 365.071 510.415V510.583H364.736Z" fill="#6D6560"/>
<path d="M365.239 510.247C365.239 510.08 365.574 509.912 365.742 509.912C365.574 510.247 365.407 510.415 365.239 510.247Z" fill="#6D6560"/>
<path d="M213.279 575.253C213.447 575.086 213.614 575.086 213.782 575.086C213.614 575.253 213.447 575.421 213.279 575.253Z" fill="#6D6560"/>
<path d="M366.244 509.577C366.244 509.41 366.412 509.41 366.579 509.41C366.579 509.745 366.412 509.745 366.244 509.577Z" fill="#6D6560"/>
<path d="M445.825 509.075C445.825 508.907 445.993 508.907 446.16 508.907L445.993 509.075H445.825Z" fill="#6D6560"/>
<path d="M367.249 509.076C367.249 508.907 367.417 508.907 367.417 508.907C367.417 508.907 367.417 509.076 367.249 509.076Z" fill="#6D6560"/>
<path d="M367.585 508.907C367.753 508.74 367.92 508.572 368.088 508.572C368.088 508.74 367.92 508.907 367.585 508.907Z" fill="#6D6560"/>
<path d="M368.59 508.237C368.59 508.07 368.757 507.902 369.092 507.902C368.925 508.237 368.757 508.405 368.59 508.237Z" fill="#6D6560"/>
<path d="M448.172 507.902C448.339 507.735 448.507 507.567 448.674 507.567C448.507 507.735 448.507 507.902 448.172 507.902Z" fill="#6D6560"/>
<path d="M135.038 585.809C135.038 585.641 135.206 585.641 135.373 585.641L135.206 585.809H135.038Z" fill="#6D6560"/>
<path d="M369.594 507.734C369.761 507.567 369.761 507.399 370.096 507.567C369.929 507.735 369.761 507.902 369.594 507.734Z" fill="#6D6560"/>
<path d="M131.687 587.819C131.687 587.651 131.855 587.651 132.022 587.651C132.022 587.819 131.855 587.819 131.687 587.819Z" fill="#6D6560"/>
<path d="M130.682 588.489C130.682 588.322 130.849 588.154 131.184 588.154C131.017 588.322 131.017 588.489 130.682 588.489Z" fill="#6D6560"/>
<path d="M130.179 588.657C130.179 588.489 130.347 588.489 130.514 588.489V588.657H130.179Z" fill="#6D6560"/>
<path d="M129.174 589.327C129.174 589.159 129.342 588.992 129.677 588.992C129.677 589.327 129.509 589.494 129.174 589.327Z" fill="#6D6560"/>
<path d="M128.838 589.663C128.838 589.494 129.007 589.494 129.007 589.494V589.663H128.838Z" fill="#6D6560"/>
<path d="M127.833 590.332C127.833 590.165 128.001 589.997 128.336 589.997C128.169 590.332 128.001 590.332 127.833 590.332Z" fill="#6D6560"/>
<path d="M126.326 591.337C126.326 591.17 126.493 591.002 126.828 591.002C126.661 591.17 126.493 591.337 126.326 591.337Z" fill="#6D6560"/>
<path d="M125.991 591.505H126.16L125.991 591.673V591.505Z" fill="#6D6560"/>
<path d="M124.985 592.175C125.153 592.175 125.32 592.008 125.32 592.008C125.32 592.175 125.153 592.343 124.985 592.175Z" fill="#6D6560"/>
<path d="M123.98 592.845C124.148 592.51 124.316 592.51 124.483 592.51C124.316 592.678 124.148 592.845 123.98 592.845Z" fill="#6D6560"/>
<path d="M123.478 593.013C123.478 592.845 123.646 592.845 123.813 592.845L123.646 593.013H123.478Z" fill="#6D6560"/>
<path d="M122.472 593.683C122.472 593.515 122.64 593.348 122.807 593.348C122.807 593.683 122.807 593.683 122.472 593.683Z" fill="#6D6560"/>
<path d="M121.467 594.353C121.635 594.018 121.802 594.018 121.97 594.018C121.97 594.186 121.802 594.353 121.467 594.353Z" fill="#6D6560"/>
<path d="M757.62 458.813C757.62 458.645 757.788 458.645 757.955 458.645L757.788 458.813H757.62Z" fill="#6D6560"/>
<path d="M119.122 595.694C119.289 595.526 119.457 595.359 119.624 595.359C119.457 595.694 119.289 595.694 119.122 595.694Z" fill="#6D6560"/>
<path d="M118.619 595.861C118.619 595.693 118.786 595.693 118.954 595.693V595.861H118.619Z" fill="#6D6560"/>
<path d="M117.614 596.531C117.614 596.364 117.782 596.364 117.949 596.364C117.949 596.531 117.949 596.531 117.614 596.531Z" fill="#6D6560"/>
<path d="M116.608 597.034C116.608 596.866 116.776 596.699 117.111 596.699C117.111 597.034 116.943 597.201 116.608 597.034Z" fill="#6D6560"/>
<path d="M600.132 494.834C600.299 494.499 600.467 494.499 600.634 494.499C600.634 494.834 600.467 495.001 600.132 494.834Z" fill="#6D6560"/>
<path d="M115.268 597.871C115.268 597.704 115.435 597.704 115.603 597.704V597.871H115.268Z" fill="#6D6560"/>
<path d="M451.521 505.891C451.521 505.724 451.689 505.556 452.024 505.556C452.024 505.891 451.857 506.059 451.521 505.891Z" fill="#6D6560"/>
<path d="M112.252 599.547C112.42 599.379 112.588 599.212 112.755 599.212C112.755 599.547 112.588 599.547 112.252 599.547Z" fill="#6D6560"/>
<path d="M599.796 495.002C599.796 494.834 599.963 494.834 600.131 494.834V495.002H599.796Z" fill="#6D6560"/>
<path d="M110.912 600.217C110.912 600.05 111.08 600.05 111.247 600.05V600.217H110.912Z" fill="#6D6560"/>
<path d="M109.907 600.887C109.907 600.72 110.074 600.72 110.242 600.72C110.242 600.887 110.242 600.887 109.907 600.887Z" fill="#6D6560"/>
<path d="M108.901 601.39C108.901 601.222 109.069 601.055 109.404 601.055C109.404 601.39 109.236 601.557 108.901 601.39Z" fill="#6D6560"/>
<path d="M108.063 602.06C108.231 601.725 108.399 601.725 108.566 601.725C108.399 601.892 108.231 602.06 108.063 602.06Z" fill="#6D6560"/>
<path d="M812.908 458.142C812.908 457.975 813.243 457.807 813.411 457.807C813.411 458.142 813.243 458.31 812.908 458.142Z" fill="#6D6560"/>
<path d="M105.048 603.903C105.048 603.735 105.216 603.568 105.383 603.568C105.551 603.735 105.383 603.903 105.048 603.903Z" fill="#6D6560"/>
<path d="M103.708 604.741C103.708 604.573 103.875 604.406 104.043 604.406C104.043 604.741 103.875 604.908 103.708 604.741Z" fill="#6D6560"/>
<path d="M102.2 605.746C102.2 605.578 102.367 605.411 102.535 605.411C102.535 605.746 102.367 605.746 102.2 605.746Z" fill="#6D6560"/>
<path d="M452.527 505.221C452.527 505.054 452.695 505.054 452.862 505.054V505.221H452.527Z" fill="#6D6560"/>
<path d="M100.86 606.584C100.86 606.416 101.028 606.416 101.195 606.416C101.028 606.584 101.028 606.751 100.86 606.584Z" fill="#6D6560"/>
<path d="M99.8545 607.254C99.8545 607.086 100.022 606.919 100.357 606.919C100.19 607.254 100.022 607.254 99.8545 607.254Z" fill="#6D6560"/>
<path d="M98.3467 608.092C98.3467 607.924 98.5142 607.924 98.6818 607.924C98.6818 608.092 98.5142 608.092 98.3467 608.092Z" fill="#6D6560"/>
<path d="M97.3413 608.594C97.3413 608.426 97.5088 608.259 97.8439 608.259C97.8439 608.594 97.6764 608.762 97.3413 608.594Z" fill="#6D6560"/>
<path d="M96.5034 609.097C96.671 608.929 96.8385 608.762 97.006 608.762C96.8385 609.097 96.671 609.264 96.5034 609.097Z" fill="#6D6560"/>
<path d="M781.075 456.467C781.243 456.467 781.41 456.467 781.578 456.802C781.41 456.802 781.243 456.635 781.075 456.467Z" fill="#6D6560"/>
<path d="M453.031 505.054C453.031 504.886 453.199 504.719 453.534 504.719C453.366 504.886 453.199 505.054 453.031 505.054Z" fill="#6D6560"/>
<path d="M780.237 455.964C780.405 455.964 780.572 455.964 780.572 456.299C780.405 456.299 780.237 456.132 780.237 455.964Z" fill="#6D6560"/>
<path d="M455.878 502.876C455.878 502.708 456.045 502.541 456.213 502.708C456.213 502.876 456.045 503.043 455.878 502.876Z" fill="#6D6560"/>
<path d="M458.391 501.033C458.558 500.865 458.558 500.865 458.726 500.698C458.726 501.033 458.558 501.033 458.391 501.033Z" fill="#6D6560"/>
<path d="M87.791 612.95C87.9586 612.783 88.1261 612.615 88.2936 612.615C88.1261 612.95 87.9586 613.118 87.791 612.95Z" fill="#6D6560"/>
<path d="M86.7861 613.453C86.9537 613.285 86.9537 613.118 87.2888 613.285C87.1212 613.453 86.9537 613.62 86.7861 613.453Z" fill="#6D6560"/>
<path d="M85.7808 613.955C85.9483 613.788 85.9483 613.788 86.2834 613.788C86.1158 613.955 86.1158 613.955 85.7808 613.955Z" fill="#6D6560"/>
<path d="M551.208 400.341C550.873 400.341 550.706 400.173 550.538 399.838C550.873 399.838 551.041 400.006 551.208 400.341Z" fill="#6D6560"/>
<path d="M80.2516 434.687C86.1155 434.854 91.3093 434.519 96.5031 433.179C100.859 432.174 105.215 430.833 109.236 428.823C111.247 427.818 113.592 427.483 115.77 428.32C117.948 429.158 120.294 429.158 122.472 429.158C125.32 429.325 127.833 430.331 130.346 431.504C131.687 432.174 133.027 432.676 134.367 432.844C137.551 433.346 139.896 435.525 143.079 436.362C143.75 436.53 144.252 437.2 144.755 437.703C145.257 438.205 145.593 438.708 145.09 439.378C144.755 440.048 144.085 440.383 143.247 440.383C140.231 439.881 137.215 439.881 134.2 440.383C132.859 440.718 131.687 439.881 130.346 439.881C126.66 439.881 122.975 439.545 119.289 439.043C118.283 438.875 117.111 438.875 116.105 439.043C110.744 439.881 105.383 440.216 100.021 439.881C96.8382 439.713 93.6549 439.713 90.4716 440.383C89.2988 440.551 88.126 440.551 86.9532 439.881C85.6129 439.21 84.1051 438.875 82.5972 438.875C79.9165 438.875 77.4034 438.205 74.8903 437.367C74.5552 437.2 74.2201 437.032 74.0526 436.865C73.55 436.53 73.2149 436.195 73.3824 435.525C73.55 434.854 74.0526 434.687 74.5552 434.519C75.0579 434.519 75.5605 434.519 76.0631 434.519C77.7385 434.687 79.2464 434.687 80.2516 434.687Z" fill="#4D423B"/>
<path d="M438.455 423.126C437.282 422.959 436.277 422.624 435.104 422.456C433.429 421.954 431.586 422.121 429.911 422.456C429.24 422.624 428.738 422.791 428.068 422.791C425.052 422.289 422.036 423.126 419.02 423.126C414.162 423.294 409.303 423.796 404.444 422.289C402.936 421.786 401.261 421.786 399.753 421.786C397.24 421.786 394.727 421.786 392.214 421.786C391.879 421.786 391.376 421.786 391.209 421.283C391.041 420.781 391.376 420.278 391.711 420.111C392.046 419.943 392.381 419.943 392.549 419.776C396.235 419.105 400.088 418.268 403.942 418.603C406.287 418.77 408.8 419.105 411.146 418.938C414.162 418.77 417.01 418.603 420.026 418.1C424.047 417.43 428.068 417.262 431.753 419.776C433.261 420.781 435.104 421.283 436.78 421.954C437.785 421.954 438.455 422.121 438.455 423.126C438.623 423.126 438.455 423.126 438.455 423.126Z" fill="#4D423B"/>
<g id="seaweed-above-rock-left">
<path d="M143.076 25.4813C142.794 26.4682 142.512 27.3141 142.231 28.3009C138.988 37.6058 136.45 49.7302 135.745 64.2514C135.322 72.2874 135.463 81.1693 136.45 90.4741C136.873 94.8446 137.578 99.356 138.424 104.008C138.988 107.251 139.693 110.635 140.539 114.018C141.667 118.53 141.667 123.746 141.103 129.103C138.847 149.405 127.991 173.795 129.119 185.637C131.234 209.322 137.719 220.037 133.772 223.984C123.762 222.574 102.896 201.709 104.306 175.204C104.447 173.231 104.588 171.257 104.87 169.424C107.267 150.815 115.585 138.408 114.88 117.261C114.598 112.608 114.034 107.392 112.906 101.471C110.65 90.8971 108.395 80.1824 107.126 69.7497C104.165 46.2057 105.575 24.0715 121.506 7.57655C139.129 -10.7511 147.729 7.71753 143.076 25.4813Z" fill="#3B8758"/>
<path d="M130.388 219.473C125.312 212.988 111.778 197.903 117.417 169.988C123.056 142.074 129.542 121.913 123.902 98.2281C118.263 74.5431 116.712 40.1435 131.092 19.4191C124.607 38.0287 117.558 54.5236 123.902 86.8086C130.247 119.094 128.555 138.549 119.532 167.168C115.161 180.844 119.673 201.004 128.132 214.961C130.388 218.204 130.388 219.473 130.388 219.473Z" fill="#76BE54"/>
<g style="mix-blend-mode:color-burn">
<path d="M128.978 185.778C131.093 209.463 137.578 220.178 133.63 224.125C123.621 222.716 102.755 201.85 104.165 175.345C104.306 173.372 104.447 171.398 104.729 169.565C112.624 170.693 120.942 164.772 140.962 129.244C138.706 149.546 127.85 173.795 128.978 185.778Z" fill="#3BC258"/>
</g>
<g style="mix-blend-mode:color-burn">
<path d="M138.424 104.008C130.529 108.238 121.647 113.313 114.88 117.402C114.598 112.608 114.034 107.392 112.906 101.471C110.651 90.8971 108.395 80.1824 107.126 69.7498C117.841 80.8874 126.582 87.5135 136.45 90.4741C136.873 94.8446 137.578 99.356 138.424 104.008Z" fill="#3BC258"/>
</g>
<g style="mix-blend-mode:color-burn">
<path d="M143.076 25.4813C142.794 26.4681 142.512 27.314 142.23 28.3009C138.988 37.6057 136.45 49.7302 135.745 64.2514C113.47 44.3729 127.568 37.6057 143.076 25.4813Z" fill="#3BC258"/>
</g>
</g>
<g id="seaweed-above-rock-right">
<path d="M193.83 59.881C191.292 69.1858 189.036 78.4907 187.063 88.3594C185.512 95.8315 184.243 103.726 183.115 111.903C181.987 119.798 181 128.257 180.436 137.139C180.436 137.844 180.296 138.69 180.296 139.395C180.155 142.356 179.732 145.175 179.45 147.854C178.463 154.903 176.63 161.388 174.515 167.169C168.453 183.099 158.866 194.66 148.856 204.67C133.771 219.755 134.476 231.879 129.542 227.65C129.26 226.24 129.119 224.971 128.978 223.702C126.722 205.939 131.798 198.89 146.742 178.87C150.266 174.077 152.804 167.45 154.637 160.119C157.879 146.867 158.725 131.359 158.866 121.208C159.007 116.697 158.866 113.172 158.866 111.48C158.866 109.507 159.148 105.136 159.712 99.497C159.853 98.2282 159.994 96.9593 160.135 95.5495C162.391 77.9267 167.889 51.4221 179.591 40.5664C191.715 29.1469 200.315 36.196 193.83 59.881Z" fill="#3B8758"/>
<path d="M131.516 226.24C140.116 203.26 153.791 188.175 159.43 173.936C165.069 159.696 172.4 141.651 172.4 123.746C172.4 105.841 168.03 81.4512 185.371 58.4711C181 69.8907 170.991 77.5037 173.528 111.198C175.361 135.165 172.119 153.634 157.456 181.831C149.561 196.916 137.437 212.001 133.771 224.125C133.207 225.535 131.798 226.381 131.516 226.24Z" fill="#76BE54"/>
<g style="mix-blend-mode:color-burn">
<path d="M174.374 167.309C168.312 183.24 158.725 194.801 148.716 204.811C133.631 219.896 134.335 232.02 129.401 227.791C129.119 226.381 128.978 225.112 128.837 223.843C128.696 207.207 140.539 196.493 152.945 186.624C154.496 185.496 156.047 184.227 157.457 183.099C163.801 178.024 170.004 172.949 174.374 167.309Z" fill="#3BC258"/>
</g>
<g style="mix-blend-mode:color-burn">
<path d="M180.436 137.139C180.436 137.844 180.295 138.69 180.295 139.395C180.154 142.356 179.731 145.175 179.449 147.854C176.489 148.7 173.528 149.828 170.709 150.956C169.581 151.378 168.453 151.942 167.466 152.365C162.814 154.48 158.443 157.018 154.496 160.119C157.738 146.867 158.584 131.359 158.725 121.208C161.686 126.284 165.633 129.949 171.695 133.192C172.118 133.474 172.682 133.756 173.246 133.897C175.361 135.165 177.758 136.152 180.436 137.139Z" fill="#3BC258"/>
</g>
<g style="mix-blend-mode:color-burn">
<path d="M187.063 88.3594C185.512 95.8315 184.243 103.727 183.115 111.903C179.873 109.93 176.63 108.097 173.388 106.264C172.965 105.982 172.401 105.7 171.978 105.559C167.607 103.163 163.519 101.189 159.712 99.497C159.853 98.2282 159.994 96.9594 160.135 95.5495C163.801 94.8446 168.03 93.8577 172.401 92.7299C172.824 92.5889 173.388 92.4479 173.811 92.3069C178.322 91.1791 182.833 89.7693 187.063 88.3594Z" fill="#3BC258"/>
</g>
</g>
</svg>
