<svg id="f0b7c079-8a47-4a5c-bb18-1b9e636902f9" data-name="圖層 1" xmlns="http://www.w3.org/2000/svg" viewBox="0 0 261.39 120.94"><defs><style>.b14dde94-328f-4e92-a5d4-1ba2c087ab47{fill:#7199a4;}.f979dc87-70ac-447b-ad98-79d9f68eeffe{fill:#90c2cf;}</style></defs><g id="ef19d265-1be8-432d-82db-1c1141a8ec70" data-name="魚群"><path class="b14dde94-328f-4e92-a5d4-1ba2c087ab47" d="M557,397.29c.22-3,2-3.66-3.64-6.44,2.58-.35,4.91,1.61,5.37,1.95.86-1.49,12.24-13.05,25.2-11.33,2.66.56,3.25,4.16-4.33,7.24s-15.47,5.54-20.34,5.34A11.52,11.52,0,0,1,557,397.29Z" transform="translate(-324.37 -331.99)"/><path class="b14dde94-328f-4e92-a5d4-1ba2c087ab47" d="M527.06,390.94c.47-5.09.43-6.31-3.65-9.48,3.92,1.73,5.26,2.86,6.88,1.19S540.7,367.86,552.4,369c2.48.94-3.15,15-20.39,15.94C528.37,385.24,527.81,388.66,527.06,390.94Z" transform="translate(-324.37 -331.99)"/><path class="f979dc87-70ac-447b-ad98-79d9f68eeffe" d="M493.71,413.61c.07-2.68,1.81-2.78-1.46-5.84,1.35.68,3.09,1.87,3.49,1.52s11-9.05,16.28-7.59c2,.64-1.85,7.07-14.65,8.7C496.11,410.6,495.17,411,493.71,413.61Z" transform="translate(-324.37 -331.99)"/><path class="b14dde94-328f-4e92-a5d4-1ba2c087ab47" d="M511.68,366.17c-.18-3.47.72-4.78-3.1-6.13,2.37-.2,4.2,1.39,5.41.45s12.55-14.61,30.79-16.92c1.91,0,4.79,5.79-30,18.09C513.51,362,512.21,363.69,511.68,366.17Z" transform="translate(-324.37 -331.99)"/><path class="b14dde94-328f-4e92-a5d4-1ba2c087ab47" d="M466.59,364.54c2-1.61,5.37-3.49.32-5a13.88,13.88,0,0,1,3.47.67c4.83-2.49,13.3-11.73,27.47-9.29-2.9,3.85-8.11,10.3-26.72,10C470.34,362.35,469.28,363.27,466.59,364.54Z" transform="translate(-324.37 -331.99)"/><path class="b14dde94-328f-4e92-a5d4-1ba2c087ab47" d="M484.34,438.17c1.63-3.37,3.71-3.4-.91-7.82,2.86,1.69,3.59,4.65,7.19,2.35s18.47-13.34,25.07-7.64c-.75,5.1-8.94,14.14-26.7,9.51C487.87,434.51,486.91,435.15,484.34,438.17Z" transform="translate(-324.37 -331.99)"/><path class="b14dde94-328f-4e92-a5d4-1ba2c087ab47" d="M465.84,412.29c.47-3.45,1.26-4.14-2.9-5.74,3.5.15,4.28,2,6.43-.4,3-3.52,11.64-14.39,25.31-12.06-4.34,6.37-5.59,8.14-25,13.88C468.47,408.32,467.14,409.35,465.84,412.29Z" transform="translate(-324.37 -331.99)"/><path class="b14dde94-328f-4e92-a5d4-1ba2c087ab47" d="M443.65,433.87c-.27-1.65,3.89-2-1.63-5.88,2.2.24,3.29,2.83,4.71,2.54s12.43-9.72,21.1-7c0,2.51-11.82,11.05-20.92,8C445.85,431.19,444.92,432.3,443.65,433.87Z" transform="translate(-324.37 -331.99)"/><path class="b14dde94-328f-4e92-a5d4-1ba2c087ab47" d="M427.15,393c.56-3.14.9-3.88-2.59-5.12,3.25.21,3.8,2.51,6.71-.58s15.21-11,23.82-8.87c4,1.31-.57,11.38-24.61,11.45C429.61,389.82,429.23,389.92,427.15,393Z" transform="translate(-324.37 -331.99)"/><path class="f979dc87-70ac-447b-ad98-79d9f68eeffe" d="M428.38,412a3.89,3.89,0,0,1,2.13-2,7.32,7.32,0,0,1-2.44-3.69c1.66,2,3.15,3.69,4.2,2.94s9.52-6.45,14.52-2.21c-2.38,2.64-7.11,5.84-15,3.54C431.18,410.23,429.52,411.2,428.38,412Z" transform="translate(-324.37 -331.99)"/><path class="b14dde94-328f-4e92-a5d4-1ba2c087ab47" d="M404.93,425.77c.95-2.62-1.76-4.32-2.34-5.74,2.55,2.35,3.15,3.69,5.12,3.48s11.62-6.1,17.82-1.6c-3.63,3.7-11.17,5.58-17.93,2.65C406.83,424.17,405.91,424.44,404.93,425.77Z" transform="translate(-324.37 -331.99)"/><path class="f979dc87-70ac-447b-ad98-79d9f68eeffe" d="M381.91,441.18c2.46-1.67,4.43-1.36.44-4.22,1.42.67,2.7,2.15,3.68,1.81s10.08-3.36,16.08-1.53c-3.23,2.93-9.38,4.81-16.19,2.45C385.25,439.47,382.94,440.67,381.91,441.18Z" transform="translate(-324.37 -331.99)"/><path class="f979dc87-70ac-447b-ad98-79d9f68eeffe" d="M354.55,452.93c.57-1,1.65-.94-1.43-4.34,2,1.32,2.51,2.72,3.8,1.69S364.56,444,369,447c-1.06,2.38-5.46,6.91-12.36,4.49C356,451.19,354.55,452.93,354.55,452.93Z" transform="translate(-324.37 -331.99)"/><path class="f979dc87-70ac-447b-ad98-79d9f68eeffe" d="M325.56,449.51c.67-1.89.77-2.56-1.19-4.4,1.7.64,2.54,1.94,3.29,1.64s4.73-6,8.89-3.87c-1.47,2.81-4.81,5.77-8.92,4.73C327,447.41,325.56,449.51,325.56,449.51Z" transform="translate(-324.37 -331.99)"/><path class="b14dde94-328f-4e92-a5d4-1ba2c087ab47" d="M367.77,425.34c0-2.18-.52-3.63-4.39-5.75,2.17.71,4.1,2.52,6,1.32s10.85-8.43,19-5.27c-1.19,2.76-11.84,8.28-18.59,7C368.53,422.43,368.29,423.78,367.77,425.34Z" transform="translate(-324.37 -331.99)"/><path class="f979dc87-70ac-447b-ad98-79d9f68eeffe" d="M330.26,415.18c1.28-2.17,2-1.88-1.77-4.61,1.64.62,3.11,2.18,4.13,1.75,1.59-.67,10.57-5.76,16.3-3.69-.72,3.37-12,5.82-16.14,4.66C332,413.05,331.34,413.94,330.26,415.18Z" transform="translate(-324.37 -331.99)"/><path class="f979dc87-70ac-447b-ad98-79d9f68eeffe" d="M473.7,387.12c.91-2.35,1.67-2.19-2.49-4.26,1.71.35,3.41,1.64,4.35,1.05,1.46-.92,9.49-7.41,15.48-6.3-.16,3.45-10.86,7.69-15.17,7.24C475.08,384.73,474.56,385.72,473.7,387.12Z" transform="translate(-324.37 -331.99)"/><path class="f979dc87-70ac-447b-ad98-79d9f68eeffe" d="M383.37,402.09a4.7,4.7,0,0,1,2-2.51s-3-1.7-3.64-3.15c2.4,1.47,4.12,3.52,7.59,1.52s13.84-4.11,17.47-1.76c-2.27,2.74-9.23,6.83-19.83,3.5C386.11,399.57,384.51,400.91,383.37,402.09Z" transform="translate(-324.37 -331.99)"/></g><g id="fd17a563-f986-49e8-a59b-2d2f3808e1cb" data-name="海龜群"><path class="b14dde94-328f-4e92-a5d4-1ba2c087ab47" d="M333.16,371c1.09-2.88,3.68-4.49,5.78-6.57l-1.28-1.37c2.94-.91,4.68-3.22,6.82-5a34,34,0,0,1,23.72-8.34,14.57,14.57,0,0,1,3.9.76,3,3,0,0,0,3-.48c2.51-2.13,5.61-2.16,8.59-2.35a5,5,0,0,1,5.47,3.71v.25c-1.1.5-2.2,1-3.3,1.49a18.52,18.52,0,0,1-2.47,1.17,13.18,13.18,0,0,1-3.34.6c-1.51,0-3-.05-4.62,1.08l1.85.28c3.8.51,3.6,1.74,3.27,4.74a9.54,9.54,0,0,1-1.06,2.76,40.21,40.21,0,0,1-1.85,3.79,18.4,18.4,0,0,1-1.76,2.11,25.13,25.13,0,0,0-1.75,2.25c-1.12,1.69-2.16,3.43-3.29,5.13a3.88,3.88,0,0,1-1,.76c-.22-.42-.62-.84-.6-1.25a19.5,19.5,0,0,1,.4-3.82c.7-2.94,1.54-5.85,2.29-8.78.18-.73.2-1.5.33-2.45-2.29,1.06-4.26,2.06-6.31,2.89a9.55,9.55,0,0,0-4.66,3.52,5.67,5.67,0,0,1-1.26,1.37c-.59.45-.93,1.41-2.09.92-.35-.15-1.07.49-1.59.83-4,2.61-8.51,2.72-13,2.7a1.65,1.65,0,0,1-1-.53c3.62-1,7.15-2.07,9.67-5,.31-.36.58-.76,1-1.32H345.6c-.11.54-.26,1.06-.33,1.58-.19,1.38-1.29,1.77-2.36,2s-1.87-.42-1.7-1.61a1.87,1.87,0,0,0-.11-1.11,10.76,10.76,0,0,0-.89,1c-.5.76-.95,1.56-1.42,2.34a3.59,3.59,0,0,1-5.63.93Z" transform="translate(-324.37 -331.99)"/><path class="b14dde94-328f-4e92-a5d4-1ba2c087ab47" d="M393.52,346.42c.68-1.78,2.27-2.77,3.57-4.05l-.79-.85c1.81-.56,2.89-2,4.21-3.1a20.94,20.94,0,0,1,14.62-5.14,8.59,8.59,0,0,1,2.4.47,1.88,1.88,0,0,0,1.88-.3c1.54-1.31,3.46-1.33,5.29-1.45a3.07,3.07,0,0,1,3.37,2.29v.15l-2,.92a11.68,11.68,0,0,1-1.52.72,8.13,8.13,0,0,1-2.06.38,4.56,4.56,0,0,0-2.85.66l1.14.17c2.34.32,2.22,1.08,2,2.93a6.36,6.36,0,0,1-.66,1.7,23.92,23.92,0,0,1-1.14,2.33,10.29,10.29,0,0,1-1.09,1.3c-.37.46-.75.9-1.08,1.39-.69,1-1.33,2.12-2,3.16a2.5,2.5,0,0,1-.62.48c-.13-.26-.38-.53-.37-.78a12.25,12.25,0,0,1,.25-2.35c.43-1.81.95-3.61,1.41-5.41a13.59,13.59,0,0,0,.2-1.51c-1.41.64-2.63,1.26-3.89,1.77a6,6,0,0,0-2.87,2.18,3.66,3.66,0,0,1-.78.84c-.36.28-.57.87-1.28.57-.22-.1-.67.3-1,.51-2.46,1.61-5.24,1.68-8,1.67a1,1,0,0,1-.61-.33c2.23-.62,4.4-1.28,6-3.1.19-.22.36-.46.62-.81H401.2c-.07.33-.16.65-.21,1-.11.85-.79,1.09-1.45,1.26s-1.16-.26-1.05-1a1.12,1.12,0,0,0-.07-.68,6.42,6.42,0,0,0-.54.63c-.31.47-.59,1-.88,1.44a2.22,2.22,0,0,1-3.48.57Z" transform="translate(-324.37 -331.99)"/></g></svg>