<svg id="a70e0726-4352-4f10-aa86-9495c14342bf" data-name="圖層 1" xmlns="http://www.w3.org/2000/svg" viewBox="0 0 254.65 124.67"><defs><style>.e7e24d2a-7ef6-442b-98ce-fe8220dc4471{fill:#7199a4;}.b9355199-cb56-4a7d-92bb-a03c57355910{fill:#90c2cf;}</style></defs><g id="bb25082a-3076-4754-a698-a5b4028d5374" data-name="魚群"><path class="e7e24d2a-7ef6-442b-98ce-fe8220dc4471" d="M564.7,363.58c1.5-2.56,3.37-2.41-.43-7.38,2.48.82,3.7,3.61,4,4.11,1.43-.95,16.74-6.3,27.61,1,2.14,1.68,1.08,5.17-7.08,4.58s-16.33-1.85-20.6-4.18A11.84,11.84,0,0,1,564.7,363.58Z" transform="translate(-342.15 -250.07)"/><path class="e7e24d2a-7ef6-442b-98ce-fe8220dc4471" d="M540.62,344.66c2.66-4.36,3.16-5.47.9-10.11,2.76,3.28,3.45,4.88,5.65,4.09s15.87-8.67,25.88-2.5c1.8,1.93-9.46,12.08-25.34,5.3C544.3,340.12,542.3,343,540.62,344.66Z" transform="translate(-342.15 -250.07)"/><path class="b9355199-cb56-4a7d-92bb-a03c57355910" d="M500.68,350.28c1.25-2.37,2.85-1.69,1.27-5.87.91,1.2,1.95,3,2.45,2.9s13.85-3.28,18,.37c1.48,1.44-4.78,5.53-17,1.34C504.17,348.65,503.15,348.6,500.68,350.28Z" transform="translate(-342.15 -250.07)"/><path class="e7e24d2a-7ef6-442b-98ce-fe8220dc4471" d="M537.74,315.65c1.37-3.2,2.76-4-.07-6.88,2.21.87,3.15,3.11,4.66,2.8S560,304,577.42,310c1.73.8,1.74,7.3-34.87,3C541.21,312.75,539.31,313.66,537.74,315.65Z" transform="translate(-342.15 -250.07)"/><path class="e7e24d2a-7ef6-442b-98ce-fe8220dc4471" d="M498,294.28c2.54-.54,6.36-.75,2.5-4.36a13.69,13.69,0,0,1,2.83,2.14c5.43-.11,17.1-4.66,28.74,3.78-4.3,2.18-11.82,5.66-28.39-2.81C502.33,294,501,294.33,498,294.28Z" transform="translate(-342.15 -250.07)"/><path class="e7e24d2a-7ef6-442b-98ce-fe8220dc4471" d="M481.44,368.19c2.94-2.31,4.82-1.42,2.63-7.42,1.82,2.78,1.17,5.76,5.41,5.29s22.46-3.83,25.87,4.2c-2.93,4.25-14.26,8.74-28.15-3.24C486.22,366.46,485.07,366.62,481.44,368.19Z" transform="translate(-342.15 -250.07)"/><path class="e7e24d2a-7ef6-442b-98ce-fe8220dc4471" d="M476.26,336.8c1.94-2.89,3-3.15-.08-6.43,3.08,1.69,3,3.66,6,2.48,4.24-1.83,16.79-7.77,28,.35-6.71,3.8-8.61,4.84-28.52,1.44C480.37,334.4,478.72,334.74,476.26,336.8Z" transform="translate(-342.15 -250.07)"/><path class="e7e24d2a-7ef6-442b-98ce-fe8220dc4471" d="M446.81,346.38c.5-1.6,4.4-.12,1.15-6,1.86,1.18,1.7,4,3.1,4.36s15.44-3.24,22,3.06c-1.12,2.24-15.49,4.69-22.31-2C450,344.94,448.65,345.53,446.81,346.38Z" transform="translate(-342.15 -250.07)"/><path class="e7e24d2a-7ef6-442b-98ce-fe8220dc4471" d="M450.07,302.39c1.88-2.57,2.51-3.09-.07-5.73,2.82,1.62,2.3,3.92,6.27,2.43s18.52-3.18,25.3,2.56c3,2.93-5.54,10-27.14-.58C453.66,300.65,453.27,300.57,450.07,302.39Z" transform="translate(-342.15 -250.07)"/><path class="b9355199-cb56-4a7d-92bb-a03c57355910" d="M442.75,320a3.94,3.94,0,0,1,2.8-.84,7.23,7.23,0,0,1-.56-4.39c.6,2.55,1.2,4.7,2.47,4.5s11.38-1.6,14,4.42c-3.3,1.32-9,2.1-15-3.43C446.06,319.65,444.15,319.8,442.75,320Z" transform="translate(-342.15 -250.07)"/><path class="e7e24d2a-7ef6-442b-98ce-fe8220dc4471" d="M415.64,322c2-1.93.33-4.65.44-6.18,1.25,3.23,1.2,4.7,3.06,5.38s13.11-.35,16.69,6.43c-4.88,1.71-12.48.08-17.26-5.54C418.06,321.42,417.11,321.25,415.64,322Z" transform="translate(-342.15 -250.07)"/><path class="b9355199-cb56-4a7d-92bb-a03c57355910" d="M388.29,325c3-.21,4.51,1.05,2.51-3.43.88,1.29,1.24,3.22,2.27,3.42s10.4,2.16,14.66,6.76c-4.26.91-10.53-.56-15.22-6C392,325.21,389.44,325.08,388.29,325Z" transform="translate(-342.15 -250.07)"/><path class="b9355199-cb56-4a7d-92bb-a03c57355910" d="M359.3,292.64c1.1-.43,1.87.32,1.65-4.26.7,2.28.21,3.69,1.87,3.71s9.89,0,11.43,5.14c-2.32,1.17-8.59,1.88-12.4-4.36C361.5,292.19,359.3,292.64,359.3,292.64Z" transform="translate(-342.15 -250.07)"/><path class="b9355199-cb56-4a7d-92bb-a03c57355910" d="M342.15,278.34c1.71-1,2.21-1.49,1.86-4.16.91,1.58.74,3.11,1.5,3.36s7.44-1.62,9.33,2.63c-2.91,1.24-7.37,1.42-9.89-2C344.56,277.61,342.15,278.34,342.15,278.34Z" transform="translate(-342.15 -250.07)"/><path class="e7e24d2a-7ef6-442b-98ce-fe8220dc4471" d="M379.86,278.82c1.68-1.38,2.43-2.75,1.53-7.07.88,2.12.74,4.76,2.87,5.41s13.45,2.81,16.35,11.1c-2.88.89-14-3.66-17.35-9.65C382.56,277.51,381.38,278.21,379.86,278.82Z" transform="translate(-342.15 -250.07)"/><path class="b9355199-cb56-4a7d-92bb-a03c57355910" d="M367.53,254.76c2.36-.87,2.74-.19,1.56-4.69.86,1.52,1,3.65,2.08,4,1.65.49,11.83,2.24,14.95,7.47-2.7,2.15-12.95-3.08-15.45-6.62C370.24,254.22,369.15,254.48,367.53,254.76Z" transform="translate(-342.15 -250.07)"/><path class="b9355199-cb56-4a7d-92bb-a03c57355910" d="M494.41,317.69c1.86-1.71,2.47-1.23-.35-4.93,1.38,1.07,2.34,3,3.44,2.87,1.71-.18,11.79-2.46,16.67,1.17-1.66,3-13.13,2.12-16.8-.19C496.71,316.15,495.81,316.81,494.41,317.69Z" transform="translate(-342.15 -250.07)"/><path class="b9355199-cb56-4a7d-92bb-a03c57355910" d="M407.22,270.33a4.72,4.72,0,0,1,3.11-.69s-1.25-3.21-.82-4.75c.92,2.67.95,5.34,4.91,6s13.31,5.58,14.63,9.7c-3.49.68-11.47-.57-17.56-9.86C410.93,270.12,408.85,270.14,407.22,270.33Z" transform="translate(-342.15 -250.07)"/></g></svg>