<svg id="f9959326-9b8a-4b4d-ae3f-7b900fa61d56" data-name="圖層 1" xmlns="http://www.w3.org/2000/svg" viewBox="0 0 132.02 61.4"><defs><style>.a2ec5406-15b3-4526-9509-14c6f1c1df2e{fill:#8abac7;}</style></defs><g id="acbcf647-8e66-4871-b7dc-8c54d7549add" data-name="水母群"><path class="a2ec5406-15b3-4526-9509-14c6f1c1df2e" d="M571.78,436.73c-.93-.35-1.83-.8-2.75-1.2.38-.78.8-1.55,1.11-2.36s.82-1.71.57-2.28a2.82,2.82,0,0,0-2.08-1.08c-1.43-.12-2.89.12-4.34.14-3.7.05-7.58,1.08-10.74-1.94-.13-.14-.55.06-.78,0-2.38-.9-5.33-1-6.22-4.1-1.19-4.15-2.43-8.3-3.37-12.51-.67-3,.11-5.85,1.21-8.69,1.68-4.31,5.35-6.95,8.2-10.28a11.12,11.12,0,0,1,5.9-3.42c5.41-1.44,10.81-.42,16.19.16,2.51.27,5.4.42,5.93,3.91a.42.42,0,0,0,.26.3c3.09.8,3,3.36,3.13,5.74.33,6.44.42,6.65,6.59,8.25a5.42,5.42,0,0,1,4.25,3.89,16.35,16.35,0,0,1,.33,4c0,1.2.1,2.35,1.69,2.09,2.15-.36,3.25.44,3.68,2.57.32,1.61,1.16,2.26,2.76,1.05a2.71,2.71,0,0,1,2.13-.59,45.76,45.76,0,0,1,4.67,2.4l0,.62c-1.23.11-2.47.2-3.7.35a9.72,9.72,0,0,0-2.72.52c-3,1.3-4.69.85-6.51-1.89-.2-.29-.42-.56-.63-.84l-.5.24.88,2.68-.38.25-2.11-2c.44,2.37,1.38,4,4,4.24a9,9,0,0,1,6.11,2.93,4.5,4.5,0,0,0,3.23,1.4c4.37-.51,7.26,1.8,10.18,4.88a7.42,7.42,0,0,1-5.38-.65,11,11,0,0,0-2.92-.56c-1.82-.34-4.13-.1-5.33-1.14-2.72-2.37-5.83-3.18-9.14-3.67-1.66-.25-3.48.12-5-.44a30.18,30.18,0,0,1-5.71-3.29,22.71,22.71,0,0,1-2.66-2.54c-.06,1.21-.35,2-.07,2.34a14,14,0,0,0,3.43,3.31c3.45,1.94,7.07,3.59,10.44,5.27-5.3,0-9.18-4.59-14.93-5.44l3.54,6.29c1.91.48,4.48-.28,5.19,2.5.16.64-.36,1.46-.51,2-1.53-.85-2.58-1.51-3.69-2.05a42.47,42.47,0,0,1-4-1.73c-1.94-1.2-3.61-2.63-3.64-5.27-.07-5.91-.12-5.9-6.16-5.78-.29,0-.58,0-.87,0-2.85-.05-5.64-.29-7.79-2.36-2.16,1.22-4.22,2.36-6.26,3.53a10,10,0,0,0-1.2,1c.35.42.65,1.11,1.07,1.2a19.44,19.44,0,0,0,4.29.52c2.6,0,5.2-.32,7.81-.4,1.47,0,2.84.15,3.66,1.75s-.45,2.18-1.19,3.07c-1,1.2-.61,2.56.83,2.39,2.39-.29,3.76.85,5,2.59C575.1,437.94,573.43,437.36,571.78,436.73Zm6.89-35.93c-.39,1.18-.81,2.5.57,3.63a5,5,0,0,1,1.24,2.46,3.91,3.91,0,0,0,4.44,3.2c2.09-.08,4.37-.23,5.56,2a10.48,10.48,0,0,1,1,3.63c.26,2.25,1.5,3.18,3.12,2.23-.23-1.44-.52-2.83-.68-4.23a5.44,5.44,0,0,0-3.91-4.92c-.21-.07-.42-.11-.63-.17-5.88-1.72-6.63-2.75-7-9-.1-1.66-.53-3.29-.89-5.45C580.33,396.85,579.36,398.78,578.67,400.8ZM574.73,410c2.92,1,4.72,4,8.39,3.65,3.06-.29,4.15.85,5,3.93.72,2.57.75,2.58,3.18,1.62a39.16,39.16,0,0,1-1.43-4.59,3.19,3.19,0,0,0-3.28-2.81c-.72-.06-1.44-.06-2.16-.08-2.74-.07-4.7-1.2-5.49-4a24.54,24.54,0,0,0-1.15-2.68Zm1.74,14.1a19.62,19.62,0,0,0-6.7-6.27c-.32-.19-1.23.21-1.64.59-1.28,1.18-2.46,2.48-3.82,3.9C568.13,425,572.13,423.54,576.47,424.09Zm18.44,3c-.87-3.06-1.86-3.41-5.95-2.65l-.21.61Zm-12.34-12.29,4.5,4.35C586.54,416.68,585.58,415.14,582.57,414.77Z" transform="translate(-542.93 -388.25)"/><path class="a2ec5406-15b3-4526-9509-14c6f1c1df2e" d="M663.69,422.12a3.54,3.54,0,0,1-3.25-2.42c-.33-1-1.34-.82-1.81.21-.34.76-.31,1.77-1.62,1.74a2.49,2.49,0,0,1-2.28-1.84c-.76-1.72-1.39-3.5-2.19-5.21a14.17,14.17,0,0,0-1.67-2.62c-.2-.25-.74-.23-1.12-.33a8.19,8.19,0,0,0-.25,1.09c-.13,1.69-.23,3.39-.34,5.17,2,.75,3,2.5,4,4.33l.26.57c1.8,4,1.81,4,5.68,2.2,1.73-.8,3.18-.16,4.56.73a29.67,29.67,0,0,1,2.36,2c.7.56,1.46,1,2.49,1.77-.3.26-.67.86-1.14,1-2,.41-2.34-1.5-3.25-2.59l-5.19-.34c2.34,3.47,6.52,4.57,8.2,8-2.15-1.67-4.36-3.5-6.7-5.14a10,10,0,0,0-3.22-1.2c-.29-.08-.73.36-1.5.77a16.77,16.77,0,0,1,2.48.94,22,22,0,0,1,3.93,2.69c.83.8,1.16,2.1,1.84,3.1a12.14,12.14,0,0,0,5.24,4.8c1.05.45,1.62,2,2.41,3.11a7.48,7.48,0,0,0,1.28,1.72,5.3,5.3,0,0,1,2.09,3.3c-2.91-.94-5.31-2.09-6.34-5.09a3.28,3.28,0,0,0-1.93-1.67,6.57,6.57,0,0,1-3.81-3.06c-1-1.65-2.33-1.75-4-1.29l2,.74,0,.32-2,.26v.41c.25.05.49.11.74.14,2.35.33,3.18,1.3,3.26,3.65a7.47,7.47,0,0,0,.52,1.93c.28.85.61,1.68.92,2.52l-.39.21a32.36,32.36,0,0,1-3-2.29,2,2,0,0,1-.28-1.57c.29-1.42-.4-1.76-1.55-1.47a2,2,0,0,1-2.82-1.59c-.32-1.11-1.09-.81-1.88-.44a11.91,11.91,0,0,1-2.73,1,3.89,3.89,0,0,1-3.85-1.55c-3-3.51-3.14-3.5-7.43-1.7-1.58.66-3.22,1.51-4.71-.25a.29.29,0,0,0-.27-.07c-2.44.74-3.44-1.09-4.4-2.64-2.06-3.32-4.41-6.51-5.16-10.48a8.1,8.1,0,0,1,.37-4.91c1.28-2.89,1.85-6.1,4.13-8.54a10.78,10.78,0,0,1,5.27-3.51c3-.7,6.12-1.19,9.19-1.71,2.28-.38,3.29,1.5,4.62,2.76.13.13.13.46.26.51,2.95,1.11,3.5,3.95,4.62,6.38.43.94.74,2,1.26,2.86.27.47.9,1,1.35,1s.91-.66,1.31-1.08.79-1,1.19-1.45c.54.46,1.11.91,1.64,1.4C661.86,420.31,662.76,421.22,663.69,422.12ZM636.32,439c1.52-.44,2.71-.68,3.82-1.13,4.17-1.69,5.07-1.52,8,1.77.11.11.2.24.31.35a3.91,3.91,0,0,0,4.42,1c1-.34,2-.58,3-.88.12-1.35-.88-1.87-2.42-1.33a7.73,7.73,0,0,1-2.68.48c-1.83-.07-2.45-1.6-3-3a2.82,2.82,0,0,0-3.47-1.89,3.62,3.62,0,0,1-2,0c-1.16-.55-1.89.14-2.53.76C638.62,436.22,637.67,437.45,636.32,439Zm5.89-5.77a18.51,18.51,0,0,0,2.1-.08,3.76,3.76,0,0,1,4.31,2.32c.24.46.46.94.73,1.38a2.29,2.29,0,0,0,2.85,1.26,27.24,27.24,0,0,1,3.43-.5c-.13-1.89-.15-1.9-2-1.57-2.27.4-3.35,0-4.12-2-.92-2.49-3.41-2.73-5-4.31Zm7-14.17c-.49,1.33-1,2.5-1.34,3.71-.12.38-.1,1.1.13,1.25a14.22,14.22,0,0,0,6.17,2.4C652.47,423.79,652.19,420.71,649.22,419.08Zm9.4,15.05-.33.33c.78,2.89,1.32,3.43,3.58,3Zm-4.36.75L650,433.32C651.2,435.16,652.51,435.3,654.26,434.88Z" transform="translate(-542.93 -388.25)"/></g></svg>