<svg id="e379f170-409c-44ce-9756-d2b81320dfa7" data-name="Layer 1" xmlns="http://www.w3.org/2000/svg" viewBox="0 0 2188.94 409"><defs><style>.a88a7571-2a6c-432b-bfc5-2b75e534a600{fill-rule:evenodd;}</style></defs><path d="M923.6,356.52h82.5a21.1,21.1,0,0,1,0,42.2H906.6a6.26,6.26,0,0,0-4.2,1.6l-30,25.9a6.53,6.53,0,0,0,4.2,11.5h124.5a.1.1,0,0,0,.1-.1.1.1,0,0,1,.1-.1c1.6.1,3.1.2,4.7.2a60.11,60.11,0,0,0,4.9-120,.1.1,0,0,1-.1-.1c0-.1,0-.1-.1-.1H921.9a21.1,21.1,0,0,1,0-42.2h99.3a6.56,6.56,0,0,0,4.4-1.7l27.9-25.9a6.57,6.57,0,0,0-4.4-11.4H922a60.1,60.1,0,0,0,0,120.2Z" transform="translate(-182.07 -132.52)"/><path d="M1403.8,236.22a6.51,6.51,0,0,0-6.5,6.6v188.4a6.57,6.57,0,0,0,6.5,6.6h151a6.84,6.84,0,0,0,4.8-2.1l18.9-20.3a6.59,6.59,0,0,0-4.8-11.1H1441.9a6.51,6.51,0,0,1-6.5-6.6v-155a6.57,6.57,0,0,0-6.5-6.6h-25.1Z" transform="translate(-182.07 -132.52)"/><path class="a88a7571-2a6c-432b-bfc5-2b75e534a600" d="M1162,236.22h0a37.53,37.53,0,0,0-35.7,35.7h0v126.7h0v1.6a37.25,37.25,0,0,0,35.7,37.3h137a37.46,37.46,0,0,0,35.7-37.3v-1.6h0V272h0a37.29,37.29,0,0,0-35.6-35.7H1162Zm25.6,35.8h0a23.39,23.39,0,0,0-22.3,22.5h0v79.7h0v1a23.44,23.44,0,0,0,22.3,23.5h85.9a23.44,23.44,0,0,0,22.3-23.5v-1h0v-79.7h0a23.47,23.47,0,0,0-22.3-22.5h-85.9Z" transform="translate(-182.07 -132.52)"/><path class="a88a7571-2a6c-432b-bfc5-2b75e534a600" d="M1798,431.22a6.57,6.57,0,0,0,6.5,6.6h25.6a6.51,6.51,0,0,0,6.5-6.6V275.32h0v-1.6c0-20.1-15.7-36.5-35.3-37.3H1668.2a37.11,37.11,0,0,0-36.9,37.4v1.6h0v155.9a6.57,6.57,0,0,0,6.5,6.6h25.6a6.51,6.51,0,0,0,6.5-6.6v-64.9a6.57,6.57,0,0,1,6.5-6.6h115.4a6.51,6.51,0,0,1,6.5,6.6v64.8Zm-128.3-107.3v-32.4a22.66,22.66,0,0,1,22.5-22.8h83.4a22.66,22.66,0,0,1,22.5,22.8v32.4a6.57,6.57,0,0,1-6.5,6.6H1676.2A6.51,6.51,0,0,1,1669.7,323.92Z" transform="translate(-182.07 -132.52)"/><path class="a88a7571-2a6c-432b-bfc5-2b75e534a600" d="M2338.5,437.82a6.51,6.51,0,0,1-6.5-6.6v-64.9a6.57,6.57,0,0,0-6.5-6.6H2208.8a6.51,6.51,0,0,0-6.5,6.6v64.9a6.57,6.57,0,0,1-6.5,6.6H2170a6.51,6.51,0,0,1-6.5-6.6V275.32h0v-1.6a37.39,37.39,0,0,1,37.3-37.4h134.5a37.46,37.46,0,0,1,35.7,37.3v1.6h0v155.9a6.57,6.57,0,0,1-6.5,6.6h-26Zm-136.2-146.3v32.4a6.57,6.57,0,0,0,6.5,6.6h116.7a6.51,6.51,0,0,0,6.5-6.6v-32.4a22.77,22.77,0,0,0-22.7-22.8H2225A22.7,22.7,0,0,0,2202.3,291.52Z" transform="translate(-182.07 -132.52)"/><path d="M1933,236.22a6.21,6.21,0,0,1,4.9,2.3l114.8,136.9a6.48,6.48,0,0,0,11.4-4.3V242.82a6.57,6.57,0,0,1,6.5-6.6h25.6a6.51,6.51,0,0,1,6.5,6.6v188.4a6.57,6.57,0,0,1-6.5,6.6h-31.8a.22.22,0,0,1-.2-.2c0-.1,0-.1-.1-.2l-116.8-135.9c-3.9-4.6-11.4-1.7-11.4,4.3v125.5a6.57,6.57,0,0,1-6.5,6.6h-25.8a6.51,6.51,0,0,1-6.5-6.6V242.82a6.57,6.57,0,0,1,6.5-6.6Z" transform="translate(-182.07 -132.52)"/><path d="M266.9,444.72a17,17,0,0,1,12-5H695.4a8.48,8.48,0,0,1,6,14.5l-82.3,82.3a17,17,0,0,1-12,5H190.6a8.48,8.48,0,0,1-6-14.5Z" transform="translate(-182.07 -132.52)"/><path d="M266.9,137.52a17,17,0,0,1,12-5H695.4a8.48,8.48,0,0,1,6,14.5l-82.3,82.2a17,17,0,0,1-12,5H190.6a8.48,8.48,0,0,1-6-14.5Z" transform="translate(-182.07 -132.52)"/><path d="M619.1,290.12a17,17,0,0,0-12-5H190.6a8.48,8.48,0,0,0-6,14.5l82.3,82.2a17,17,0,0,0,12,5H695.4a8.48,8.48,0,0,0,6-14.5Z" transform="translate(-182.07 -132.52)"/></svg>